<svg width="100" height="100" viewBox="0 0 100 100" fill="none" xmlns="http://www.w3.org/2000/svg">
<path d="M82.7292 75.96C78.2792 76.63 73.1392 66.85 71.1992 63.11L70.8892 62.5C70.1773 61.15 69.1477 59.9934 67.8892 59.13C65.2392 57.57 60.0892 55.73 50.5492 55.6H49.4992C39.9392 55.73 34.8092 57.6 32.1592 59.13C30.899 60 29.8694 61.1634 29.1592 62.52L28.8692 63.11C26.9192 66.82 21.8092 76.64 17.3392 75.93C12.4992 75.19 9.67918 73.32 10.0292 53.86C10.2392 39.86 14.7792 31.2 16.7292 28.15C17.1874 27.5187 17.7407 26.9621 18.3692 26.5C20.6088 24.9145 23.2755 24.0431 26.0192 24C27.1401 24.0157 28.2537 24.1839 29.3292 24.5C29.8751 24.7267 30.3661 25.0677 30.7692 25.5L33.7692 29.44C34.3174 30.104 34.9987 30.6456 35.7692 31.03C36.5467 31.4086 37.3949 31.6198 38.2592 31.65H61.6692C62.5368 31.6209 63.3885 31.4097 64.1692 31.03C64.9403 30.6422 65.6216 30.0971 66.1692 29.43L69.2192 25.56C69.6127 25.1064 70.1008 24.7446 70.6492 24.5C72.5083 23.9993 74.4558 23.9207 76.3492 24.27C78.2417 24.6187 80.0342 25.3801 81.5992 26.5C82.2347 26.9769 82.7914 27.5506 83.2492 28.2C85.1892 31.25 89.7392 39.87 89.9692 53.93C90.2992 73.35 87.4992 75.22 82.7292 75.96Z" stroke="#BE1E2D" stroke-miterlimit="10"/>
<path d="M74.6292 35.8486C75.162 35.8474 75.6833 36.0033 76.1279 36.2968C76.5725 36.5903 76.9208 37.0083 77.1292 37.4986C77.2832 37.8728 77.3523 38.2765 77.3317 38.6806C77.3111 39.0847 77.2013 39.4793 77.0101 39.8359C76.8189 40.1925 76.551 40.5024 76.2258 40.7432C75.9006 40.984 75.5261 41.1497 75.1292 41.2286C74.6016 41.3316 74.0552 41.2759 73.5592 41.0686C73.0605 40.8668 72.6349 40.518 72.3392 40.0686C72.065 39.6573 71.9071 39.1796 71.8824 38.6859C71.8576 38.1922 71.9668 37.7011 72.1984 37.2644C72.4301 36.8278 72.7755 36.4619 73.1982 36.2056C73.6208 35.9493 74.1049 35.8121 74.5992 35.8086L74.6292 35.8486Z" stroke="#BE1E2D" stroke-miterlimit="10"/>
<path d="M74.6291 54.4004C74.0913 54.4003 73.5657 54.2402 73.1191 53.9404C72.6706 53.6411 72.3216 53.2147 72.1168 52.716C71.9119 52.2172 71.8605 51.6686 71.9691 51.1404C72.0696 50.6071 72.3273 50.1161 72.7091 49.7304C73.0872 49.3491 73.5717 49.0912 74.0991 48.9904C74.6222 48.8794 75.1668 48.9318 75.6591 49.1404C76.0701 49.3185 76.4312 49.5945 76.7107 49.9444C76.9902 50.2943 77.1798 50.7074 77.2627 51.1475C77.3455 51.5876 77.3193 52.0414 77.1862 52.469C77.0531 52.8966 76.8172 53.2851 76.4991 53.6004C76.2558 53.8508 75.9653 54.0504 75.6443 54.1877C75.3233 54.3251 74.9782 54.3974 74.6291 54.4004Z" stroke="#BE1E2D" stroke-miterlimit="10"/>
<path d="M67.659 47.9382C67.123 47.9453 66.5972 47.7921 66.149 47.4982C65.7017 47.1957 65.3538 46.7678 65.149 46.2682C64.94 45.769 64.8877 45.2179 64.999 44.6882C65.1019 44.1587 65.3594 43.6716 65.739 43.2882C66.1103 42.8886 66.5956 42.6128 67.129 42.4982C67.652 42.3873 68.1966 42.4396 68.689 42.6482C69.2643 42.8932 69.7385 43.3276 70.0329 43.8793C70.3273 44.4309 70.4241 45.0667 70.3073 45.681C70.1905 46.2953 69.8672 46.8511 69.3909 47.2563C68.9146 47.6614 68.314 47.8915 67.689 47.9082L67.659 47.9382Z" stroke="#BE1E2D" stroke-miterlimit="10"/>
<path d="M81.589 47.9382C81.0532 47.9441 80.5277 47.791 80.079 47.4982C79.7463 47.2704 79.4677 46.9724 79.2626 46.6252C79.0575 46.2781 78.931 45.8902 78.8919 45.4889C78.8528 45.0876 78.9021 44.6826 79.0364 44.3024C79.1706 43.9222 79.3866 43.576 79.669 43.2882C80.0403 42.8886 80.5256 42.6128 81.059 42.4982C81.5821 42.3873 82.1266 42.4396 82.619 42.6482C83.0385 42.8203 83.4088 43.0939 83.6966 43.4444C83.9845 43.7948 84.1808 44.2113 84.268 44.6563C84.3552 45.1013 84.3306 45.561 84.1964 45.9942C84.0622 46.4274 83.8225 46.8205 83.499 47.1382C83.2496 47.3916 82.9523 47.5928 82.6244 47.7302C82.2964 47.8675 81.9445 47.9382 81.589 47.9382Z" stroke="#BE1E2D" stroke-miterlimit="10"/>
<path d="M30.8989 46.4H26.5489C26.4482 46.4006 26.3486 46.4213 26.2558 46.4608C26.1631 46.5003 26.0792 46.5578 26.0089 46.63C25.8691 46.776 25.7873 46.968 25.7789 47.17V51.57H23.0689V47.17C23.0639 46.9674 22.9811 46.7745 22.8378 46.6311C22.6945 46.4878 22.5016 46.4051 22.2989 46.4H17.9189V43.66H22.2689C22.4708 43.6603 22.6647 43.5813 22.8089 43.44C22.9556 43.2936 23.0413 43.0971 23.0489 42.89V38.5H25.7589V42.88C25.7592 43.0847 25.8379 43.2816 25.9789 43.43C26.1264 43.5738 26.323 43.656 26.5289 43.66H30.8689L30.8989 46.4Z" stroke="#BE1E2D" stroke-miterlimit="10"/>
<path d="M44.189 36.7812H40.189V38.7812H44.189V36.7812Z" stroke="#BE1E2D" stroke-miterlimit="10"/>
<path d="M58.1592 36.7812H54.1592V38.7812H58.1592V36.7812Z" stroke="#BE1E2D" stroke-miterlimit="10"/>
</svg>