<svg width="100" height="100" viewBox="0 0 100 100" fill="none" xmlns="http://www.w3.org/2000/svg">
<path d="M19.25 57.7607H16V40.1107C16 36.3207 17.17 33.5007 19.5 31.6307C20.975 30.5058 22.7339 29.8133 24.58 29.6307C25.4697 29.4939 26.3713 29.4504 27.27 29.5007C27.9186 29.5308 28.5638 29.611 29.2 29.7407L28.84 31.3207L28.5 32.9407L28.22 32.8807C28 32.8807 27.68 32.7907 27.28 32.7707C26.3755 32.6973 25.4655 32.7342 24.57 32.8807C23.4554 33.0298 22.398 33.4638 21.5 34.1407C20 35.3307 19.25 37.3307 19.25 40.1407V57.7607Z" stroke="#BE1E2D" stroke-miterlimit="10"/>
<path d="M19.25 57.2911C19.25 60.0511 20 62.0511 21.5 63.2911C23.75 65.0911 27.18 64.7211 28.2 64.5611H28.5L28.86 66.1311L29.22 67.6611C28.98 67.6611 23.39 68.8911 19.51 65.8111C17.17 63.9311 16 61.0911 16 57.2911V39.6211H19.25V57.2911Z" stroke="#BE1E2D" stroke-miterlimit="10"/>
<path d="M24.5498 32.879V29.629C25.4482 29.5125 26.3561 29.4857 27.2598 29.549V32.779C26.3559 32.6972 25.4452 32.7308 24.5498 32.879Z" stroke="#BE1E2D" stroke-miterlimit="10"/>
<path d="M24.5698 64.5V67.75C25.4653 67.8617 26.3693 67.8885 27.2698 67.83V64.62C26.3682 64.6852 25.4621 64.6449 24.5698 64.5Z" stroke="#BE1E2D" stroke-miterlimit="10"/>
<path d="M63.5898 22H43.8498C42.7714 21.9963 41.7355 22.4207 40.9698 23.18C40.5936 23.5513 40.2948 23.9935 40.0906 24.4809C39.8863 24.9684 39.7807 25.4915 39.7798 26.02V35.84C39.7794 36.3702 39.8843 36.8952 40.0886 37.3845C40.2929 37.8738 40.5924 38.3176 40.9698 38.69C41.738 39.4457 42.7722 39.8694 43.8498 39.87H63.5898V22Z" stroke="#BE1E2D" stroke-miterlimit="10"/>
<path d="M63.5898 35.9681V25.8281H72.4998C72.8298 25.8281 73.0998 26.0281 73.0998 26.2781V35.4981C73.0998 35.7481 72.8298 35.9481 72.4998 35.9481L63.5898 35.9681Z" stroke="#BE1E2D" stroke-miterlimit="10"/>
<path d="M70.2498 31.3H73.1298V30.5H69.6298C69.626 30.665 69.5813 30.8265 69.4998 30.97C69.4176 31.1141 69.2962 31.2319 69.1498 31.31C69.0095 31.3947 68.8487 31.4394 68.6848 31.4394C68.521 31.4394 68.3602 31.3947 68.2198 31.31C68.0735 31.2319 67.9521 31.1141 67.8698 30.97C67.7884 30.8265 67.7437 30.665 67.7398 30.5H63.5898V31.3H67.1198C67.2712 31.5811 67.4958 31.8161 67.7698 31.98C68.047 32.1436 68.363 32.2299 68.6848 32.2299C69.0067 32.2299 69.3227 32.1436 69.5998 31.98C69.8762 31.819 70.1015 31.5833 70.2498 31.3Z" stroke="#BE1E2D" stroke-width="0.5" stroke-miterlimit="10"/>
<path d="M55.0302 34.84V32.84H53.0302V33.26C52.7035 33.274 52.3831 33.1672 52.1302 32.96C51.9125 32.7615 51.7387 32.5197 51.6202 32.25C51.5 31.9863 51.4386 31.6997 51.4402 31.41H55.5002V32.19L57.9302 30.8L55.5002 29.39V30.19H50.1902C50.189 29.8971 50.2504 29.6073 50.3702 29.34C50.4924 29.0699 50.6695 28.8281 50.8902 28.63C51.0296 28.5121 51.1936 28.4267 51.3702 28.38C51.5484 28.3449 51.7319 28.3449 51.9102 28.38C51.9613 28.5796 52.0689 28.7601 52.2202 28.9C52.3694 29.049 52.5619 29.147 52.7702 29.18C52.9745 29.2214 53.1863 29.2039 53.3811 29.1296C53.5758 29.0552 53.7454 28.927 53.8702 28.76C53.9925 28.5924 54.0649 28.3936 54.0791 28.1865C54.0932 27.9795 54.0485 27.7727 53.9502 27.59C53.8586 27.3838 53.7 27.2147 53.5002 27.11C53.317 27.0087 53.1093 26.9602 52.9002 26.97C52.6609 26.962 52.4267 27.04 52.2402 27.19C51.8587 27.1002 51.4616 27.1002 51.0802 27.19C50.6971 27.2759 50.3383 27.4468 50.0302 27.69C49.6704 27.9998 49.3815 28.3835 49.183 28.8148C48.9846 29.2462 48.8813 29.7152 48.8802 30.19H48.1002C47.9811 29.9005 47.7703 29.6581 47.5002 29.5C47.1869 29.354 46.8307 29.3291 46.5002 29.43C46.1905 29.5029 45.9131 29.6749 45.7102 29.92C45.517 30.169 45.4116 30.4749 45.4102 30.79C45.4152 31.0239 45.4784 31.2529 45.594 31.4563C45.7097 31.6597 45.8741 31.8312 46.0725 31.9552C46.2709 32.0792 46.4971 32.1519 46.7306 32.1667C46.9641 32.1815 47.1977 32.138 47.4102 32.04C47.6962 31.9026 47.9284 31.6739 48.0702 31.39H50.0702C50.0694 31.8598 50.1718 32.3241 50.3702 32.75C50.5705 33.1796 50.8603 33.5614 51.2202 33.87C51.6851 34.2497 52.2699 34.4518 52.8702 34.44V34.84H55.0302Z" fill="#BE1E2D"/>
<path d="M71.3701 74.5003V57.3203H83.2201C83.4245 57.3228 83.6199 57.4045 83.7654 57.548C83.9108 57.6916 83.995 57.886 84.0001 58.0903V73.7303C83.995 73.9346 83.9108 74.129 83.7654 74.2726C83.6199 74.4162 83.4245 74.4978 83.2201 74.5003H71.3701Z" stroke="#BE1E2D" stroke-width="0.5" stroke-miterlimit="10"/>
<path d="M80.1901 66.7106H84.0001V65.6406H79.3701C79.3695 65.8588 79.3108 66.0729 79.2 66.261C79.0893 66.449 78.9306 66.6042 78.7401 66.7106C78.5536 66.8246 78.3387 66.8835 78.1201 66.8806C77.8975 66.8909 77.6773 66.8315 77.4901 66.7106C77.295 66.6068 77.1324 66.451 77.0201 66.2606C76.9081 66.0737 76.8526 65.8584 76.8601 65.6406H71.3701V66.7106H76.0401C76.2387 67.0806 76.5321 67.3912 76.8901 67.6106C77.2437 67.8327 77.6526 67.9505 78.0701 67.9506C78.4891 67.9397 78.8986 67.8227 79.2601 67.6106C79.6182 67.3912 79.9115 67.0806 80.1101 66.7106H80.1901Z" stroke="#BE1E2D" stroke-width="0.5" stroke-miterlimit="10"/>
<path d="M76.5 63.1181V59.8281H78.33V63.1181H76.5Z" stroke="#BE1E2D" stroke-width="0.5" stroke-miterlimit="10"/>
<path d="M76.5 72.5517V69.2617H78.33V72.5517H76.5Z" stroke="#BE1E2D" stroke-width="0.5" stroke-miterlimit="10"/>
<path d="M39.8002 27.5L37.2102 27.8L35.5702 27.98V29.19C35.5715 29.2824 35.5545 29.3742 35.5202 29.46C35.4859 29.5458 35.4349 29.624 35.3702 29.69C35.2331 29.8222 35.0507 29.8973 34.8602 29.9C34.6727 29.8974 34.4936 29.8218 34.361 29.6892C34.2284 29.5566 34.1528 29.3775 34.1502 29.19V28.68C34.1649 28.6141 34.1649 28.5459 34.1502 28.48C34.1231 28.4152 34.0822 28.3572 34.0302 28.31C33.9775 28.265 33.9163 28.231 33.8502 28.21C33.781 28.1951 33.7094 28.1951 33.6402 28.21C33.518 28.2238 33.4046 28.2805 33.3202 28.37C33.2429 28.4634 33.1974 28.579 33.1902 28.7V29.39C33.1902 29.5732 33.1184 29.7491 32.9902 29.88C32.9235 29.9473 32.844 30.0005 32.7564 30.0365C32.6689 30.0726 32.5749 30.0908 32.4802 30.09C32.3868 30.0918 32.2941 30.074 32.208 30.0378C32.1219 30.0017 32.0443 29.9479 31.9802 29.88C31.8492 29.7501 31.7739 29.5744 31.7702 29.39V28.96C31.7852 28.8942 31.7852 28.8258 31.7702 28.76C31.7421 28.6958 31.7013 28.638 31.6502 28.59C31.5641 28.5411 31.4687 28.5104 31.3702 28.5C31.301 28.4848 31.2294 28.4848 31.1602 28.5C31.0372 28.5111 30.9229 28.5682 30.8402 28.66C30.7991 28.7042 30.7673 28.7561 30.7467 28.8128C30.7261 28.8695 30.7171 28.9298 30.7202 28.99V29.7C30.7191 29.8879 30.6436 30.0677 30.5102 30.2C30.3731 30.3322 30.1907 30.4073 30.0002 30.41C29.9108 30.4242 29.8197 30.4242 29.7302 30.41C29.5576 30.3311 29.4191 30.1926 29.3402 30.02C29.3092 29.9333 29.2923 29.8421 29.2902 29.75V29.24C29.3054 29.1708 29.3054 29.0992 29.2902 29.03C29.2595 28.9673 29.219 28.91 29.1702 28.86C29.1125 28.817 29.0484 28.7832 28.9802 28.76C28.911 28.7448 28.8394 28.7448 28.7702 28.76L28.2102 28.82C27.9872 28.8475 27.7815 28.9539 27.6302 29.12C27.4731 29.2879 27.3871 29.5101 27.3902 29.74V32.74C27.3935 32.9653 27.4784 33.1817 27.6292 33.3491C27.7801 33.5164 27.9865 33.6234 28.2102 33.65L28.7702 33.71C28.8394 33.7252 28.911 33.7252 28.9802 33.71C29.05 33.6908 29.1149 33.6567 29.1702 33.61C29.2213 33.562 29.2621 33.5042 29.2902 33.44C29.3052 33.3742 29.3052 33.3058 29.2902 33.24V32.81C29.2864 32.7149 29.3031 32.62 29.3394 32.532C29.3756 32.444 29.4305 32.3648 29.5002 32.3C29.5645 32.2332 29.6431 32.1819 29.7302 32.15C29.815 32.1112 29.907 32.0907 30.0002 32.09C30.1912 32.09 30.3743 32.1659 30.5093 32.3009C30.6444 32.4359 30.7202 32.619 30.7202 32.81V33.5C30.7156 33.6245 30.7585 33.746 30.8402 33.84C30.9091 33.9068 30.9944 33.954 31.0876 33.9769C31.1807 33.9997 31.2783 33.9974 31.3702 33.97C31.4384 33.9468 31.5025 33.913 31.5602 33.87C31.609 33.82 31.6495 33.7627 31.6802 33.7C31.6945 33.6307 31.6945 33.5593 31.6802 33.49V33.09C31.6814 32.9978 31.6983 32.9065 31.7302 32.82C31.7682 32.7307 31.8224 32.6494 31.8902 32.58C31.9545 32.5132 32.0331 32.4619 32.1202 32.43C32.205 32.3912 32.297 32.3707 32.3902 32.37C32.4868 32.3696 32.5823 32.3901 32.6702 32.43C32.7547 32.4669 32.8324 32.5176 32.9002 32.58C32.9683 32.6471 33.0197 32.7293 33.0502 32.82C33.0918 32.9036 33.1091 32.9971 33.1002 33.09V33.77C33.1074 33.891 33.1529 34.0066 33.2302 34.1C33.3164 34.1888 33.4284 34.2483 33.5502 34.27C33.6199 34.2798 33.6906 34.2798 33.7602 34.27C33.8286 34.2492 33.8906 34.2114 33.9402 34.16C33.9968 34.1189 34.0416 34.0638 34.0702 34C34.0845 33.9307 34.0845 33.8593 34.0702 33.79V33.28C34.0713 33.0921 34.1468 32.9123 34.2802 32.78C34.3462 32.7153 34.4244 32.6643 34.5102 32.63C34.596 32.5957 34.6878 32.5787 34.7802 32.58C34.9695 32.579 35.1521 32.6505 35.2902 32.78C35.3549 32.846 35.4059 32.9242 35.4402 33.01C35.4745 33.0958 35.4915 33.1876 35.4902 33.28V34.5L37.1302 34.68L39.7202 34.97L39.8002 27.5Z" fill="#BE1E2D" stroke="#BE1E2D" stroke-miterlimit="10"/>
<path d="M39.8 35L37.21 34.71V27.78L39.8 27.5V35Z" stroke="#BE1E2D" stroke-miterlimit="10"/>
<path d="M39.8 62.5508L37.21 62.8508L35.57 63.0408V64.2508C35.5713 64.3432 35.5543 64.435 35.52 64.5208C35.4857 64.6066 35.4347 64.6848 35.37 64.7508C35.3033 64.818 35.2238 64.8713 35.1362 64.9073C35.0486 64.9434 34.9547 64.9616 34.86 64.9608C34.7666 64.9626 34.6739 64.9448 34.5878 64.9086C34.5017 64.8725 34.4241 64.8187 34.36 64.7508C34.2266 64.6185 34.1511 64.4387 34.15 64.2508V63.7508C34.1646 63.6849 34.1646 63.6166 34.15 63.5508C34.1229 63.486 34.0819 63.428 34.03 63.3808C33.9772 63.3358 33.916 63.3018 33.85 63.2808C33.7808 63.2659 33.7092 63.2659 33.64 63.2808C33.5177 63.2946 33.4044 63.3513 33.32 63.4408C33.2427 63.5342 33.1971 63.6498 33.19 63.7708V64.4608C33.19 64.644 33.1182 64.8199 32.99 64.9508C32.9233 65.018 32.8438 65.0713 32.7562 65.1073C32.6686 65.1434 32.5747 65.1616 32.48 65.1608C32.3866 65.1626 32.2939 65.1448 32.2078 65.1086C32.1217 65.0725 32.0441 65.0187 31.98 64.9508C31.849 64.8209 31.7737 64.6452 31.77 64.4608V64.0508C31.785 63.985 31.785 63.9166 31.77 63.8508C31.7418 63.7866 31.701 63.7288 31.65 63.6808C31.5926 63.6346 31.5286 63.5975 31.46 63.5708C31.3908 63.5556 31.3192 63.5556 31.25 63.5708C31.1277 63.5846 31.0144 63.6413 30.93 63.7308C30.8889 63.7749 30.8571 63.8269 30.8365 63.8836C30.8159 63.9403 30.8068 64.0005 30.81 64.0608V64.7708C30.8089 64.9587 30.7334 65.1385 30.6 65.2708C30.4628 65.403 30.2805 65.4781 30.09 65.4808C30.0005 65.495 29.9094 65.495 29.82 65.4808C29.6473 65.4019 29.5089 65.2634 29.43 65.0908C29.399 65.004 29.3821 64.9129 29.38 64.8208V64.3008C29.3943 64.2315 29.3943 64.1601 29.38 64.0908C29.3492 64.0281 29.3087 63.9707 29.26 63.9208C29.2023 63.8777 29.1381 63.844 29.07 63.8208C29.0008 63.8056 28.9292 63.8056 28.86 63.8208L28.3 63.8808C28.0772 63.9158 27.8728 64.025 27.72 64.1908C27.5661 64.3567 27.4805 64.5745 27.48 64.8008V67.8008C27.4832 68.0261 27.5682 68.2425 27.719 68.4099C27.8698 68.5772 28.0763 68.6842 28.3 68.7108L28.86 68.7708C28.9886 68.7674 29.1107 68.7135 29.2 68.6208C29.2445 68.5761 29.2798 68.5231 29.3038 68.4647C29.3279 68.4064 29.3401 68.3439 29.34 68.2808V67.8508C29.3387 67.7573 29.3592 67.6649 29.4 67.5808C29.428 67.4918 29.4799 67.4123 29.55 67.3508C29.6133 67.2828 29.6922 67.2313 29.78 67.2008C29.8647 67.1619 29.9568 67.1415 30.05 67.1408C30.1434 67.1395 30.2359 67.16 30.32 67.2008C30.4106 67.2313 30.4928 67.2827 30.56 67.3508C30.6235 67.4177 30.6744 67.4956 30.71 67.5808C30.7477 67.6656 30.7648 67.7581 30.76 67.8508V68.5608C30.7671 68.6818 30.8127 68.7974 30.89 68.8908C30.9744 68.9803 31.0877 69.037 31.21 69.0508C31.2792 69.0656 31.3508 69.0656 31.42 69.0508C31.4877 69.0337 31.5497 68.9993 31.6 68.9508C31.6539 68.9054 31.6953 68.8468 31.72 68.7808C31.7516 68.7188 31.7687 68.6504 31.77 68.5808V68.1708C31.7712 68.0786 31.7881 67.9873 31.82 67.9008C31.8579 67.8115 31.9122 67.7301 31.98 67.6608C32.0443 67.594 32.1229 67.5427 32.21 67.5108C32.2944 67.471 32.3866 67.4505 32.48 67.4508C32.5765 67.4504 32.6721 67.4708 32.76 67.5108C32.8444 67.5477 32.9222 67.5984 32.99 67.6608C33.0548 67.7305 33.1057 67.812 33.14 67.9008C33.1598 67.9897 33.1598 68.0819 33.14 68.1708V68.8508C33.1424 68.9728 33.1886 69.0899 33.27 69.1808C33.3562 69.2696 33.4681 69.3291 33.59 69.3508C33.6596 69.3606 33.7303 69.3606 33.8 69.3508C33.8684 69.33 33.9303 69.2922 33.98 69.2408C34.0365 69.1997 34.0814 69.1446 34.11 69.0808C34.1243 69.0115 34.1243 68.9401 34.11 68.8708V68.3608C34.1121 68.2687 34.129 68.1775 34.16 68.0908C34.198 68.0045 34.2523 67.9264 34.32 67.8608C34.4542 67.7312 34.6334 67.6589 34.82 67.6589C35.0065 67.6589 35.1858 67.7312 35.32 67.8608C35.3877 67.9264 35.442 68.0045 35.48 68.0908C35.4942 68.1802 35.4942 68.2713 35.48 68.3608V69.6008L37.12 69.7808L39.71 70.0708V62.5508H39.8Z" fill="#BE1E2D" stroke="#BE1E2D" stroke-miterlimit="10"/>
<path d="M39.8 70.0708L37.21 69.7808V62.8508L39.8 62.5508V70.0708Z" stroke="#BE1E2D" stroke-miterlimit="10"/>
<path d="M71.3701 58.7614V58.1914H84.0001V58.7614H71.3701Z" fill="#BE1E2D"/>
<path d="M71.3701 73.8591V73.2891H84.0001V73.8591H71.3701Z" fill="#BE1E2D"/>
<path d="M71.37 54.3789H45.16C43.7413 54.3737 42.3784 54.9311 41.37 55.9289C40.8735 56.4193 40.4791 57.0031 40.2096 57.6468C39.9401 58.2904 39.8009 58.9811 39.8 59.6789V72.6789C39.7938 73.3882 39.9296 74.0915 40.1992 74.7475C40.4688 75.4035 40.8669 75.999 41.37 76.4989C42.3809 77.4931 43.7422 78.0499 45.16 78.0489H71.37V54.3789Z" stroke="#BE1E2D" stroke-miterlimit="10"/>
</svg>