<svg width="100" height="100" viewBox="0 0 100 100" fill="none" xmlns="http://www.w3.org/2000/svg">
<path d="M56.0598 23.1836L16.5998 61.0558C16.0947 61.5407 15.6934 62.1206 15.4198 62.7611C15.1428 63.4015 15 64.0906 15 64.7868C15 65.483 15.1428 66.172 15.4198 66.8125C15.6958 67.4546 16.0966 68.0373 16.5998 68.5277L32.1698 83.4616C33.214 84.4473 34.604 84.9975 36.0498 84.9975C37.4956 84.9975 38.8855 84.4473 39.9298 83.4616L79.3798 45.5796L56.0598 23.1836Z" stroke="#BE1E2D" stroke-miterlimit="10"/>
<path d="M85.0001 29.6229L71.1001 16L59.8301 27.0403L73.7401 40.6632L85.0001 29.6229ZM79.0001 28.8343L76.6401 31.072L73.8201 28.3119L76.1401 26.0348L79.0001 28.8343ZM69.5001 24.0929L71.8101 21.8356L74.6401 24.6055L72.3201 26.8727L69.5001 24.0929Z" stroke="#BE1E2D" stroke-miterlimit="10"/>
</svg>