<svg width="100" height="100" viewBox="0 0 100 100" fill="none" xmlns="http://www.w3.org/2000/svg">
<path d="M68.3803 22.2562C62.9748 18.6386 56.6245 16.6911 50.1203 16.6562C44.9 16.692 39.7614 17.9561 35.1203 20.3463C30.5161 22.7095 26.5426 26.1379 23.5303 30.3463C24.053 30.9282 24.6806 31.4066 25.3803 31.7563L26.6103 32.2063C27.505 32.4145 28.4356 32.4145 29.3303 32.2063C30.2255 32.0115 31.0618 31.6071 31.7703 31.0263L32.5503 30.2763C37.33 25.8285 43.6015 23.3313 50.1303 23.2763C56.6555 23.3338 62.9231 25.8309 67.7003 30.2763C67.9703 30.5263 68.2303 30.7663 68.4803 31.0263C69.1892 31.6045 70.0256 32.0055 70.9203 32.1963C71.815 32.4045 72.7456 32.4045 73.6403 32.1963L74.8703 31.7463C75.5757 31.4014 76.2048 30.9186 76.7203 30.3263C74.4603 27.1475 71.6411 24.4063 68.4003 22.2363L68.3803 22.2562Z" stroke="#BE1E2D" stroke-miterlimit="10"/>
<path d="M26.8699 41.8477H27.0399L34.4399 71.7077L34.2699 71.7577C28.3199 73.1277 21.8799 67.5177 19.8399 59.3777C17.7999 51.2377 20.9399 43.2577 26.8699 41.8477Z" stroke="#BE1E2D" stroke-miterlimit="10"/>
<path d="M27 41.8174C28.37 41.4974 29.87 42.8174 30.34 44.7074L36 67.6174C36.48 69.5374 35.75 71.3574 34.38 71.6874L26.98 41.8174H27Z" stroke="#BE1E2D" stroke-miterlimit="10"/>
<path d="M73.6801 41.8477H73.5001L66.1001 71.7077L66.2601 71.7577C72.1901 73.1277 78.6701 67.5577 80.6601 59.3777C82.6501 51.1977 79.6001 43.2577 73.6801 41.8477Z" stroke="#BE1E2D" stroke-miterlimit="10"/>
<path d="M73.5 41.8174C72.13 41.4974 70.64 42.8174 70.16 44.7074L64.5 67.6174C64.03 69.5374 64.76 71.3574 66.13 71.6874L73.5 41.8174Z" stroke="#BE1E2D" stroke-miterlimit="10"/>
<path d="M82.1101 63.5142C81.5803 66.4292 80.4798 69.2107 78.8718 71.6991C77.2638 74.1875 75.18 76.3336 72.7401 78.0142C67.7556 81.4577 61.623 82.8177 55.6501 81.8042L55.3401 81.7442L55.1001 83.1342L55.4101 83.2042C61.7534 84.2896 68.2698 82.8542 73.5701 79.2042C76.1678 77.4076 78.383 75.1134 80.0876 72.4544C81.7921 69.7955 82.952 66.8247 83.5001 63.7142L83.5601 63.3242L82.1401 63.0742C82.1695 63.2209 82.1591 63.3728 82.1101 63.5142Z" stroke="#BE1E2D" stroke-miterlimit="10"/>
<path d="M60.93 83.2471C60.8357 84.082 60.4865 84.8676 59.93 85.4971C59.3907 86.1373 58.6739 86.6036 57.87 86.8371C57.0608 87.0772 56.1993 87.0772 55.39 86.8371C54.6049 86.5886 53.9097 86.1159 53.39 85.4771C52.8743 84.8334 52.5642 84.0494 52.5 83.2271C52.4145 82.399 52.5855 81.5647 52.99 80.8371C53.3955 80.1097 54.0034 79.5156 54.74 79.1271C55.4876 78.739 56.3316 78.5757 57.17 78.6571C58.2889 78.7681 59.3195 79.3139 60.04 80.1771C60.3864 80.6032 60.6436 81.0944 60.7965 81.6218C60.9494 82.1492 60.9948 82.7019 60.93 83.2471Z" stroke="#BE1E2D" stroke-miterlimit="10"/>
<path d="M85.3801 53.806V45.056C85.3901 45.0234 85.3901 44.9886 85.3801 44.956C84.6568 36.2194 80.63 28.0872 74.1201 22.216C67.5458 16.2837 59.0052 13 50.1501 13C41.295 13 32.7544 16.2837 26.1801 22.216C19.6757 28.1088 15.6601 36.2579 14.9501 45.006V53.626C14.3684 53.9068 13.8772 54.3453 13.5324 54.8916C13.1877 55.4379 13.0032 56.07 13.0001 56.716V60.716C12.9968 61.1701 13.0834 61.6205 13.2551 62.041C13.4267 62.4615 13.6799 62.8438 14.0001 63.166C14.6727 63.8101 15.5688 64.1686 16.5001 64.166H18.5001C19.4314 64.1686 20.3275 63.8101 21.0001 63.166C21.3198 62.8435 21.5727 62.4611 21.7443 62.0407C21.9159 61.6202 22.0028 61.1701 22.0001 60.716V56.716C22.0061 55.7958 21.6464 54.9109 21.0001 54.256C20.3281 53.6109 19.4316 53.2523 18.5001 53.256H17.7001V44.966C19.0801 29.566 32.7001 18.406 50.1701 18.406C67.6401 18.406 81.2501 29.566 82.6301 44.966V53.246H81.5001C80.8046 53.2397 80.1228 53.4396 79.5408 53.8205C78.9588 54.2014 78.5027 54.7461 78.2301 55.386C78.0506 55.8063 77.9587 56.2589 77.9601 56.716V60.716C77.9546 61.1705 78.0402 61.6214 78.212 62.0423C78.3837 62.4631 78.6381 62.8452 78.9601 63.166C79.2901 63.492 79.6808 63.7502 80.1101 63.926C80.5502 64.112 81.0223 64.2105 81.5001 64.216H83.5001C83.9657 64.2149 84.427 64.1268 84.8601 63.956C85.287 63.7801 85.6771 63.5257 86.0101 63.206C86.3366 62.882 86.598 62.4984 86.7801 62.076C86.9586 61.6553 87.0504 61.2029 87.0501 60.746V56.746C87.0488 56.1653 86.9008 55.5943 86.6201 55.086C86.3358 54.5784 85.9304 54.149 85.4401 53.836L85.3801 53.806Z" stroke="#BE1E2D" stroke-miterlimit="10"/>
<path d="M85.38 53.8047V45.0447C85.39 45.0121 85.39 44.9773 85.38 44.9447C84.9151 39.5314 83.1742 34.3054 80.3 29.6947C77.4017 25.0576 73.4647 21.1583 68.8 18.3047L65.5 21.5947C75.07 25.9747 81.69 34.5147 82.63 44.9547V53.2347H81.5C80.5695 53.2362 79.6749 53.5941 79 54.2347C78.6791 54.5583 78.4255 54.9424 78.2538 55.3646C78.0822 55.7869 77.9959 56.2389 78 56.6947V60.6947C77.9959 61.1505 78.0822 61.6025 78.2538 62.0248C78.4255 62.447 78.6791 62.831 79 63.1547C79.6749 63.7953 80.5695 64.1532 81.5 64.1547H83.5C83.9655 64.1527 84.4266 64.0646 84.86 63.8947C85.2869 63.7188 85.677 63.4644 86.01 63.1447C86.3365 62.8207 86.5979 62.4371 86.78 62.0147C86.9585 61.5905 87.0503 61.1349 87.05 60.6747V56.6747C87.0486 56.0933 86.9003 55.5216 86.6188 55.0129C86.3373 54.5041 85.9318 54.0748 85.44 53.7647L85.38 53.8047Z" stroke="#BE1E2D" stroke-miterlimit="10"/>
</svg>