<svg width="100" height="100" viewBox="0 0 100 100" fill="none" xmlns="http://www.w3.org/2000/svg">
<path d="M84.1698 18H15.8398V63.5H84.1698V18Z" stroke="#BE1E2D" stroke-miterlimit="10"/>
<path d="M77.25 24.9805H22.77V56.5005H77.25V24.9805Z" stroke="#BE1E2D" stroke-miterlimit="10"/>
<path d="M59.4 79.0117H6V82.0117H94V79.0117H59.4Z" stroke="#BE1E2D" stroke-miterlimit="10"/>
<path d="M84.16 65.5703H15.84L6.5 78.1103H93.5L84.16 65.5703Z" stroke="#BE1E2D" stroke-miterlimit="10"/>
<path d="M78.0998 67.8594H74.3398V69.7594H78.0998V67.8594Z" stroke="#BE1E2D" stroke-miterlimit="10"/>
<path d="M80.4202 70.8906H76.7002V72.7806H80.4202V70.8906Z" stroke="#BE1E2D" stroke-miterlimit="10"/>
<path d="M75.76 70.8906H72V72.7806H75.76V70.8906Z" stroke="#BE1E2D" stroke-miterlimit="10"/>
<path d="M72.9602 67.8594H69.2002V69.7594H72.9602V67.8594Z" stroke="#BE1E2D" stroke-miterlimit="10"/>
<path d="M70.6201 70.8906H66.8701V72.7806H70.6201V70.8906Z" stroke="#BE1E2D" stroke-miterlimit="10"/>
<path d="M67.4102 67.8594H63.9502V69.2094H67.4102V67.8594Z" stroke="#BE1E2D" stroke-miterlimit="10"/>
<path d="M65.3699 70.8906H61.6099V72.7806H65.3699V70.8906Z" stroke="#BE1E2D" stroke-miterlimit="10"/>
<path d="M62.3198 67.8594H58.5698V69.7594H62.3198V67.8594Z" stroke="#BE1E2D" stroke-miterlimit="10"/>
<path d="M57.0798 67.8594H53.3198V69.7594H57.0798V67.8594Z" stroke="#BE1E2D" stroke-miterlimit="10"/>
<path d="M54.7402 70.8906H50.9902V72.7806H54.7402V70.8906Z" stroke="#BE1E2D" stroke-miterlimit="10"/>
<path d="M51.9302 67.8594H48.1802V69.7594H51.9302V67.8594Z" stroke="#BE1E2D" stroke-miterlimit="10"/>
<path d="M49.5998 70.8906H45.8398V72.7806H49.5998V70.8906Z" stroke="#BE1E2D" stroke-miterlimit="10"/>
<path d="M46.6802 67.8594H42.9302V69.7594H46.6802V67.8594Z" stroke="#BE1E2D" stroke-miterlimit="10"/>
<path d="M44.3601 70.8906H40.6001V72.7806H44.3601V70.8906Z" stroke="#BE1E2D" stroke-miterlimit="10"/>
<path d="M41.3101 67.8594H37.5601V69.7594H41.3101V67.8594Z" stroke="#BE1E2D" stroke-miterlimit="10"/>
<path d="M38.98 70.8906H35.23V72.7806H38.98V70.8906Z" stroke="#BE1E2D" stroke-miterlimit="10"/>
<path d="M36.0601 67.8594H32.3101V69.7594H36.0601V67.8594Z" stroke="#BE1E2D" stroke-miterlimit="10"/>
<path d="M33.7302 70.8906H29.9702V72.7806H33.7302V70.8906Z" stroke="#BE1E2D" stroke-miterlimit="10"/>
<path d="M30.9199 67.8594H27.1699V69.7594H30.9199V67.8594Z" stroke="#BE1E2D" stroke-miterlimit="10"/>
<path d="M28.5898 70.8906H24.8398V72.7806H28.5898V70.8906Z" stroke="#BE1E2D" stroke-miterlimit="10"/>
<path d="M25.6699 67.8594H21.9199V69.7594H25.6699V67.8594Z" stroke="#BE1E2D" stroke-miterlimit="10"/>
<path d="M23.3398 70.8906H19.5898V72.7806H23.3398V70.8906Z" stroke="#BE1E2D" stroke-miterlimit="10"/>
<path d="M20.3201 73.75H16.5601V75.64H20.3201V73.75Z" stroke="#BE1E2D" stroke-miterlimit="10"/>
<path d="M25.1099 73.75H21.3599V75.64H25.1099V73.75Z" stroke="#BE1E2D" stroke-miterlimit="10"/>
<path d="M30.3699 73.75H26.6099V75.64H30.3699V73.75Z" stroke="#BE1E2D" stroke-miterlimit="10"/>
<path d="M35.5 75.64H31.75V73.75H35.5V75.64Z" stroke="#BE1E2D" stroke-miterlimit="10"/>
<path d="M40.77 73.75H37V75.64H40.77V73.75Z" stroke="#BE1E2D" stroke-miterlimit="10"/>
<path d="M56.1799 73.75H42.3599V75.64H56.1799V73.75Z" stroke="#BE1E2D" stroke-miterlimit="10"/>
<path d="M59.99 70.8906H56.23V72.7806H59.99V70.8906Z" stroke="#BE1E2D" stroke-miterlimit="10"/>
<path d="M61.7598 73.75H58.0098V75.64H61.7598V73.75Z" stroke="#BE1E2D" stroke-miterlimit="10"/>
<path d="M67.1401 73.75H63.3901V75.64H67.1401V73.75Z" stroke="#BE1E2D" stroke-miterlimit="10"/>
<path d="M72.3901 73.75H68.6401V75.64H72.3901V73.75Z" stroke="#BE1E2D" stroke-miterlimit="10"/>
<path d="M77.4998 73.75H73.7798V75.64H77.4998V73.75Z" stroke="#BE1E2D" stroke-miterlimit="10"/>
<path d="M82.28 73.75H78.5V75.64H82.26L82.28 73.75Z" stroke="#BE1E2D" stroke-miterlimit="10"/>
</svg>
