<svg width="100" height="100" viewBox="0 0 100 100" fill="none" xmlns="http://www.w3.org/2000/svg">
<path d="M33.08 54.5004C32.5786 54.2895 32.1458 53.9433 31.83 53.5004C31.5278 53.0569 31.3802 52.5262 31.41 51.9904H33.08C33.1191 52.3757 33.3011 52.7325 33.59 52.9904C33.9415 53.2773 34.3869 53.4234 34.84 53.4004C35.3102 53.4254 35.7741 53.2837 36.15 53.0004C36.2981 52.8794 36.4172 52.7268 36.4985 52.5537C36.5798 52.3807 36.6214 52.1916 36.62 52.0004C36.6296 51.8479 36.6092 51.695 36.56 51.5504C36.5158 51.409 36.4406 51.2792 36.34 51.1704C36.1342 50.9571 35.8854 50.7901 35.61 50.6804C35.22 50.5404 34.81 50.4204 34.41 50.3204C33.8708 50.1878 33.3426 50.014 32.83 49.8004C32.4294 49.6167 32.0844 49.3304 31.83 48.9704C31.5409 48.5592 31.3999 48.0621 31.43 47.5604C31.4123 47.0353 31.5592 46.5179 31.85 46.0804C32.1397 45.6372 32.5536 45.2893 33.04 45.0804C33.6037 44.8471 34.2101 44.7346 34.82 44.7504C35.6632 44.7099 36.4952 44.9567 37.18 45.4504C37.4766 45.6849 37.7194 45.9803 37.8919 46.3167C38.0645 46.6531 38.1627 47.0227 38.18 47.4004H36.38C36.3604 47.2216 36.3061 47.0483 36.22 46.8904C36.1285 46.737 36.0099 46.6015 35.87 46.4904C35.5169 46.2166 35.0759 46.0814 34.63 46.1104C34.2191 46.1029 33.8188 46.241 33.5 46.5004C33.3594 46.6271 33.2499 46.7845 33.18 46.9604C33.1107 47.1386 33.08 47.3294 33.09 47.5204C33.0839 47.6563 33.1056 47.792 33.1537 47.9193C33.2019 48.0465 33.2755 48.1626 33.37 48.2604C33.5714 48.4575 33.8092 48.6137 34.07 48.7204C34.36 48.8204 34.75 48.9504 35.24 49.0804C35.7847 49.2208 36.3192 49.3979 36.84 49.6104C37.2538 49.7997 37.617 50.0841 37.9 50.4404C38.1996 50.878 38.3504 51.4004 38.33 51.9304C38.3303 52.4329 38.1881 52.9253 37.92 53.3504C37.6337 53.8072 37.2248 54.1745 36.74 54.4104C36.1703 54.6867 35.5431 54.8238 34.91 54.8104C34.2852 54.8333 33.6624 54.7278 33.08 54.5004Z" fill="#BE1E2D"/>
<path d="M41.67 54.5012C41.1722 54.2843 40.7409 53.9392 40.42 53.5012C40.1105 53.0706 39.9491 52.5513 39.96 52.0212H41.7C41.7392 52.4043 41.917 52.7599 42.2 53.0212C42.5542 53.3445 43.0207 53.5167 43.5 53.5012C43.9701 53.5262 44.434 53.3846 44.81 53.1012C44.9597 52.972 45.0791 52.8116 45.16 52.6312C45.2447 52.4534 45.2858 52.258 45.28 52.0612C45.2896 51.9087 45.2692 51.7558 45.22 51.6112C45.169 51.4707 45.0908 51.3415 44.99 51.2312C44.7872 51.0167 44.5373 50.8523 44.26 50.7512C43.8683 50.6023 43.4675 50.4787 43.06 50.3812C42.5266 50.2426 42.0049 50.062 41.5 49.8412C41.098 49.6596 40.7525 49.3728 40.5 49.0112C40.1602 48.5832 39.9863 48.0471 40.01 47.5012C40.0011 46.9758 40.1509 46.46 40.44 46.0212C40.7296 45.578 41.1436 45.2302 41.63 45.0212C42.1934 44.787 42.8 44.6745 43.41 44.6912C44.2528 44.6539 45.0838 44.9004 45.77 45.3912C46.0629 45.633 46.3072 45.9282 46.49 46.2612C46.6607 46.6007 46.7594 46.9718 46.78 47.3512H44.97C44.9534 47.1718 44.8989 46.9979 44.81 46.8412C44.7263 46.7114 44.6215 46.5965 44.5 46.5012C44.1444 46.2322 43.7052 46.0976 43.26 46.1212C42.8512 46.1041 42.4488 46.2277 42.12 46.4712C41.9757 46.5937 41.8612 46.7473 41.785 46.9206C41.7087 47.0938 41.6728 47.2821 41.68 47.4712C41.6753 47.7446 41.7755 48.0094 41.96 48.2112C42.1582 48.4122 42.3968 48.569 42.66 48.6712C42.9467 48.7845 43.3367 48.9045 43.83 49.0312C44.3758 49.172 44.9105 49.3525 45.43 49.5712C45.8268 49.7609 46.1704 50.0461 46.43 50.4012C46.7393 50.8342 46.891 51.36 46.86 51.8912C46.8572 52.3888 46.7189 52.8762 46.46 53.3012C46.1712 53.756 45.763 54.1226 45.28 54.3612C44.7118 54.642 44.0835 54.7793 43.45 54.7612C42.8455 54.7884 42.2414 54.7002 41.67 54.5012Z" fill="#BE1E2D"/>
<path d="M54.79 45.4987C55.5592 45.8785 56.1993 46.4768 56.63 47.2187C57.0693 48.0172 57.29 48.9175 57.27 49.8287C57.2898 50.7334 57.069 51.6272 56.63 52.4187C56.1911 53.1391 55.5517 53.7159 54.79 54.0787C53.9262 54.4901 52.9764 54.689 52.02 54.6587H48.79V44.9087H52.02C52.9772 44.8815 53.927 45.0838 54.79 45.4987ZM54.68 52.4987C55.0018 52.1444 55.25 51.7297 55.41 51.2787C55.5673 50.8296 55.632 50.3534 55.6 49.8787C55.6304 49.3965 55.5647 48.913 55.4067 48.4564C55.2488 47.9998 55.0018 47.5791 54.68 47.2187C54.3489 46.8702 53.9464 46.5973 53.5 46.4187C53.0416 46.2567 52.5553 46.1886 52.07 46.2187H50.47V53.3887H52.07C52.5425 53.4225 53.0169 53.3611 53.4653 53.2083C53.9136 53.0554 54.3267 52.8141 54.68 52.4987Z" fill="#BE1E2D"/>
<path d="M89.56 41.1C89.6916 41.0337 89.8024 40.9323 89.88 40.807C89.9577 40.6817 89.9992 40.5374 90 40.39V35.81C90 35.5952 89.9147 35.3891 89.7628 35.2372C89.6109 35.0853 89.4048 35 89.19 35H10.81C10.5952 35 10.3891 35.0853 10.2372 35.2372C10.0853 35.3891 10 35.5952 10 35.81V64.75C10 64.9648 10.0853 65.1709 10.2372 65.3228C10.3891 65.4747 10.5952 65.56 10.81 65.56H89.19C89.4048 65.56 89.6109 65.4747 89.7628 65.3228C89.9147 65.1709 90 64.9648 90 64.75V60.17C89.9992 60.0226 89.9577 59.8783 89.88 59.753C89.8024 59.6277 89.6916 59.5263 89.56 59.46C87.8808 58.5856 86.4736 57.2674 85.4915 55.6488C84.5095 54.0302 83.9902 52.1732 83.9902 50.28C83.9902 48.3868 84.5095 46.5298 85.4915 44.9112C86.4736 43.2926 87.8808 41.9744 89.56 41.1ZM19.96 45.1C19.96 45.3148 19.8747 45.5209 19.7228 45.6728C19.5709 45.8247 19.3648 45.91 19.15 45.91H14.82C14.6052 45.91 14.3991 45.8247 14.2472 45.6728C14.0953 45.5209 14.01 45.3148 14.01 45.1C14.01 44.9941 14.031 44.8892 14.0718 44.7915C14.1127 44.6938 14.1725 44.6052 14.2478 44.5307C14.3232 44.4563 14.4126 44.3976 14.5108 44.358C14.609 44.3184 14.7141 44.2987 14.82 44.3H19.15C19.2559 44.2987 19.361 44.3184 19.4592 44.358C19.5574 44.3976 19.6468 44.4563 19.7222 44.5307C19.7975 44.6052 19.8573 44.6938 19.8982 44.7915C19.939 44.8892 19.96 44.9941 19.96 45.1ZM19.15 43.3H14.82C14.7068 43.3126 14.5921 43.3012 14.4836 43.2666C14.375 43.2319 14.275 43.1747 14.1901 43.0987C14.1052 43.0227 14.0372 42.9297 13.9907 42.8256C13.9442 42.7216 13.9201 42.609 13.9201 42.495C13.9201 42.381 13.9442 42.2684 13.9907 42.1644C14.0372 42.0603 14.1052 41.9673 14.1901 41.8913C14.275 41.8153 14.375 41.7581 14.4836 41.7234C14.5921 41.6888 14.7068 41.6774 14.82 41.69H19.15C19.2632 41.6774 19.3779 41.6888 19.4864 41.7234C19.595 41.7581 19.695 41.8153 19.7799 41.8913C19.8648 41.9673 19.9328 42.0603 19.9793 42.1644C20.0258 42.2684 20.0499 42.381 20.0499 42.495C20.0499 42.609 20.0258 42.7216 19.9793 42.8256C19.9328 42.9297 19.8648 43.0227 19.7799 43.0987C19.695 43.1747 19.595 43.2319 19.4864 43.2666C19.3779 43.3012 19.2632 43.3126 19.15 43.3ZM19.15 40.69H14.82C14.7068 40.7026 14.5921 40.6912 14.4836 40.6566C14.375 40.6219 14.275 40.5647 14.1901 40.4887C14.1052 40.4127 14.0372 40.3197 13.9907 40.2156C13.9442 40.1116 13.9201 39.999 13.9201 39.885C13.9201 39.771 13.9442 39.6584 13.9907 39.5544C14.0372 39.4503 14.1052 39.3573 14.1901 39.2813C14.275 39.2053 14.375 39.1481 14.4836 39.1134C14.5921 39.0788 14.7068 39.0674 14.82 39.08H19.15C19.2632 39.0674 19.3779 39.0788 19.4864 39.1134C19.595 39.1481 19.695 39.2053 19.7799 39.2813C19.8648 39.3573 19.9328 39.4503 19.9793 39.5544C20.0258 39.6584 20.0499 39.771 20.0499 39.885C20.0499 39.999 20.0258 40.1116 19.9793 40.2156C19.9328 40.3197 19.8648 40.4127 19.7799 40.4887C19.695 40.5647 19.595 40.6219 19.4864 40.6566C19.3779 40.6912 19.2632 40.7026 19.15 40.69ZM65.29 58.69C65.2901 58.9014 65.2075 59.1045 65.0599 59.2558C64.9123 59.4071 64.7113 59.4948 64.5 59.5H23.91C23.696 59.4974 23.4915 59.4112 23.3401 59.2599C23.1888 59.1085 23.1026 58.904 23.1 58.69V41.73C23.1026 41.5169 23.1891 41.3134 23.3408 41.1637C23.4924 41.0139 23.6969 40.93 23.91 40.93H64.5C64.6059 40.9287 64.711 40.9484 64.8092 40.988C64.9074 41.0276 64.9968 41.0863 65.0722 41.1607C65.1475 41.2352 65.2073 41.3238 65.2482 41.4215C65.289 41.5192 65.31 41.6241 65.31 41.73L65.29 58.69ZM84.51 58.89C85.0519 58.89 85.5817 59.0507 86.0323 59.3518C86.4829 59.6528 86.834 60.0808 87.0414 60.5814C87.2488 61.0821 87.3031 61.633 87.1973 62.1645C87.0916 62.6961 86.8307 63.1843 86.4475 63.5675C86.0643 63.9507 85.5761 64.2116 85.0445 64.3174C84.513 64.4231 83.9621 64.3688 83.4614 64.1614C82.9608 63.954 82.5328 63.6029 82.2318 63.1523C81.9307 62.7017 81.77 62.1719 81.77 61.63C81.7647 61.2677 81.8313 60.9079 81.966 60.5715C82.1007 60.2351 82.3008 59.9287 82.5547 59.6702C82.8086 59.4116 83.1113 59.206 83.4452 59.0652C83.7791 58.9244 84.1376 58.8513 84.5 58.85L84.51 58.89Z" stroke="#BE1E2D" stroke-miterlimit="10"/>
</svg>