<svg width="100" height="100" viewBox="0 0 100 100" fill="none" xmlns="http://www.w3.org/2000/svg">
<path d="M71.87 76.25V80.63C71.87 81.2039 71.757 81.7721 71.5374 82.3023C71.3177 82.8325 70.9958 83.3143 70.5901 83.7201C70.1843 84.1258 69.7025 84.4477 69.1723 84.6674C68.6421 84.887 68.0739 85 67.5 85H32.5C31.9261 85 31.3579 84.887 30.8277 84.6674C30.2975 84.4477 29.8157 84.1258 29.4099 83.7201C29.0042 83.3143 28.6823 82.8325 28.4626 82.3023C28.243 81.7721 28.13 81.2039 28.13 80.63V76.25C26.4062 76.2513 24.6991 75.9129 23.1061 75.2542C21.5132 74.5954 20.0657 73.6292 18.8463 72.4108C17.6269 71.1923 16.6596 69.7456 15.9997 68.1531C15.3397 66.5607 15 64.8538 15 63.13V50C15.0029 48.2839 15.3426 46.5852 16 45C16.6533 43.4049 17.6188 41.9565 18.84 40.74C20.0592 39.5189 21.5074 38.5502 23.1015 37.8896C24.6956 37.229 26.4044 36.8893 28.13 36.89V19.37C28.13 18.211 28.5904 17.0995 29.4099 16.2799C30.2295 15.4604 31.341 15 32.5 15H67.5C68.6591 15.0026 69.7701 15.4636 70.5907 16.2822C71.4112 17.1009 71.8747 18.2109 71.88 19.37V36.87C75.3606 36.8727 78.6977 38.2572 81.1578 40.7192C83.618 43.1813 85 46.5194 85 50V63.13C84.9947 66.6097 83.6093 69.9453 81.1479 72.4049C78.6864 74.8645 75.3497 76.2474 71.87 76.25Z" stroke="#BE1E2D" stroke-miterlimit="10"/>
<path d="M67.5 63.1211H32.5V80.6211H67.5V63.1211Z" stroke="#BE1E2D" stroke-miterlimit="10"/>
<path d="M64.6198 68.3002H36.7598C36.6366 68.3006 36.5146 68.276 36.4011 68.2279C36.2876 68.1798 36.1852 68.1091 36.0998 68.0202C35.923 67.8458 35.8223 67.6085 35.8198 67.3602C35.8192 67.2354 35.8436 67.1118 35.8917 66.9967C35.9398 66.8816 36.0106 66.7774 36.0998 66.6902C36.1852 66.6012 36.2876 66.5306 36.4011 66.4824C36.5146 66.4343 36.6366 66.4097 36.7598 66.4102H63.6798C63.8031 66.4097 63.9251 66.4343 64.0386 66.4824C64.152 66.5306 64.2545 66.6012 64.3398 66.6902C64.4291 66.7774 64.4998 66.8816 64.5479 66.9967C64.596 67.1118 64.6205 67.2354 64.6198 67.3602V68.3002Z" stroke="#BE1E2D" stroke-miterlimit="10"/>
<path d="M64.6201 72.8697H36.7001C36.5891 72.8724 36.4786 72.8526 36.3754 72.8113C36.2723 72.7701 36.1786 72.7083 36.1 72.6298C36.0215 72.5512 35.9597 72.4575 35.9185 72.3544C35.8772 72.2512 35.8574 72.1407 35.8601 72.0297C35.858 71.9187 35.8781 71.8084 35.9193 71.7054C35.9605 71.6023 36.022 71.5086 36.1001 71.4297C36.2597 71.2711 36.4751 71.1813 36.7001 71.1797H63.7001C63.9251 71.1813 64.1405 71.2711 64.3001 71.4297C64.3782 71.5086 64.4397 71.6023 64.4809 71.7054C64.5221 71.8084 64.5423 71.9187 64.5401 72.0297V72.8697H64.6201Z" stroke="#BE1E2D" stroke-miterlimit="10"/>
<path d="M64.6201 77.1681H36.7201C36.491 77.1663 36.2706 77.0809 36.1001 76.9281C35.9307 76.7691 35.8302 76.5502 35.8201 76.3181C35.8172 76.2009 35.8411 76.0846 35.8901 75.9781C35.9304 75.8652 35.9953 75.7628 36.08 75.678C36.1647 75.5933 36.2672 75.5284 36.3801 75.4881C36.4869 75.4401 36.603 75.4162 36.7201 75.4181H63.7201C63.8337 75.4222 63.9454 75.4491 64.0484 75.4972C64.1515 75.5453 64.2439 75.6136 64.3201 75.6981C64.4799 75.865 64.5694 76.087 64.5701 76.3181V77.1681H64.6201Z" stroke="#BE1E2D" stroke-miterlimit="10"/>
<path d="M67.5 19.3711H32.5V36.8711H36.87V23.7411H63.13V36.8711H67.5V19.3711Z" stroke="#BE1E2D" stroke-miterlimit="10"/>
<path d="M58.75 28.1211H41.25V36.8711H58.75V28.1211Z" stroke="#BE1E2D" stroke-miterlimit="10"/>
<path d="M67.4999 45.6289H63.1299V49.9989H67.4999V45.6289Z" fill="#BE1E2D" stroke="#BE1E2D" stroke-linecap="round" stroke-linejoin="round"/>
<path d="M67.5 54.3789H32.5C30.1802 54.3816 27.9561 55.3043 26.3157 56.9446C24.6754 58.585 23.7526 60.8091 23.75 63.1289V67.4989H28.13V63.1289C28.1476 62.5669 28.2732 62.0135 28.5 61.4989C28.7203 60.9702 29.0393 60.4883 29.44 60.0789C29.8374 59.6667 30.3123 59.3371 30.8374 59.1089C31.3625 58.8806 31.9275 58.7583 32.5 58.7489H67.5C68.3591 58.7525 69.1978 59.011 69.9099 59.4917C70.622 59.9723 71.1754 60.6535 71.5 61.4489C71.7242 61.9803 71.8365 62.5522 71.83 63.1289V67.4989H76.21V63.1289C76.2127 60.8144 75.2971 58.5933 73.6643 56.9529C72.0314 55.3125 69.8145 54.3868 67.5 54.3789Z" stroke="#BE1E2D" stroke-miterlimit="10"/>
<path d="M75.6 45.6289H71.23V49.9989H75.6V45.6289Z" fill="#BE1E2D" stroke="#BE1E2D" stroke-linecap="round" stroke-linejoin="round"/>
</svg>