<svg width="100" height="100" viewBox="0 0 100 100" fill="none" xmlns="http://www.w3.org/2000/svg">
<path d="M26.7298 26.763C28.0398 23.8531 32.2698 21.4766 34.1498 18.683C35.8241 16.0342 36.999 13.1176 37.6198 10.0694C38.6798 5.91787 41.9098 2.30949 46.4498 2.30949H51.1098C55.6198 2.30949 58.8498 5.90817 59.9398 10.0694C60.5404 13.1142 61.695 16.0309 63.3498 18.683C65.2298 21.4766 69.4998 23.7949 70.7698 26.7727C70.8607 27.1434 70.9275 27.5192 70.9698 27.8979C71.0484 27.0813 70.9808 26.2576 70.7698 25.4633C69.4598 22.5533 65.2298 20.1283 63.3498 17.3638C61.6747 14.7189 60.4997 11.8053 59.8798 8.75995C58.8198 4.58898 55.5898 1 51.0798 1H46.4198C41.9098 1 38.6798 4.58898 37.5898 8.75995C36.97 11.8053 35.7949 14.7189 34.1198 17.3638C32.2398 20.1574 28.0098 22.5145 26.6998 25.4633C26.49 26.2544 26.4224 27.0748 26.4998 27.8882C26.5421 27.5095 26.6089 27.1337 26.6998 26.763" stroke="#BE1E2D" stroke-linecap="round" stroke-linejoin="round"/>
<path d="M57.5798 22.4488H39.9098C39.6071 22.4487 39.3164 22.3338 39.0998 22.1287C38.9917 22.0285 38.9059 21.9081 38.8474 21.7746C38.7889 21.6412 38.7591 21.4977 38.7598 21.3527V15.0671C38.7744 14.7841 38.8995 14.517 39.1098 14.3202C39.3291 14.1278 39.614 14.0207 39.9098 14.0195H57.5798C57.8855 14.0191 58.1795 14.1339 58.3998 14.3396C58.5078 14.4398 58.5937 14.5603 58.6521 14.6937C58.7106 14.8271 58.7404 14.9707 58.7398 15.1156V21.3915C58.7404 21.5365 58.7106 21.68 58.6521 21.8134C58.5937 21.9469 58.5078 22.0673 58.3998 22.1675C58.1795 22.3732 57.8855 22.488 57.5798 22.4876" stroke="#BE1E2D" stroke-linecap="round" stroke-linejoin="round"/>
<path d="M48.7798 34.9886H48.6898L41.5598 31.6131C41.5161 31.5839 41.4815 31.5436 41.4598 31.4967C41.4444 31.4493 41.4444 31.3985 41.4598 31.3512C41.4598 31.3512 41.4598 31.3027 41.5098 31.293H41.5798H41.6598H41.7298L48.7298 34.6297L55.9998 31.293H56.0798H56.1598H56.2198C56.2243 31.3154 56.2243 31.3385 56.2198 31.3609C56.2257 31.3831 56.2257 31.4065 56.2198 31.4288C56.2246 31.4512 56.2246 31.4743 56.2198 31.4967C56.2249 31.519 56.2249 31.5422 56.2198 31.5646L56.1598 31.6131L48.7998 34.9886H48.7798Z" stroke="#BE1E2D" stroke-linecap="round" stroke-linejoin="round"/>
<path d="M48.7798 39.9422H48.6898L41.5598 36.5473C41.526 36.5053 41.5052 36.4548 41.4998 36.4018C41.4851 36.3543 41.4851 36.3037 41.4998 36.2563L41.5498 36.1981H41.6198H41.6998H41.7698L48.7698 39.5445L56.0398 36.1981H56.1198C56.1457 36.1892 56.1739 36.1892 56.1998 36.1981H56.2598V36.2563C56.2642 36.2787 56.2642 36.3017 56.2598 36.3242C56.2647 36.3498 56.2647 36.3761 56.2598 36.4018C56.2627 36.4211 56.2627 36.4407 56.2598 36.46H56.1998L48.8398 39.8355H48.7498" stroke="#BE1E2D" stroke-linecap="round" stroke-linejoin="round"/>
<path d="M48.7798 44.9006C48.7506 44.9102 48.719 44.9102 48.6898 44.9006L41.5598 41.525C41.5147 41.5018 41.4794 41.464 41.4598 41.4183C41.4553 41.3606 41.4693 41.3031 41.4998 41.2534C41.5228 41.248 41.5468 41.248 41.5698 41.2534C41.5955 41.2437 41.6241 41.2437 41.6498 41.2534H41.7198L48.7198 44.5902L55.9898 41.2534H56.0698C56.0809 41.2489 56.0928 41.2465 56.1048 41.2465C56.1168 41.2465 56.1287 41.2489 56.1398 41.2534C56.1628 41.248 56.1868 41.248 56.2098 41.2534V41.3116C56.2299 41.3615 56.2299 41.4169 56.2098 41.4668C56.2019 41.4905 56.1889 41.5122 56.1717 41.5306C56.1544 41.549 56.1333 41.5636 56.1098 41.5735L48.7498 44.9491C48.7562 44.931 48.7664 44.9145 48.7798 44.9006Z" stroke="#BE1E2D" stroke-linecap="round" stroke-linejoin="round"/>
<path d="M48.7798 49.8588C48.7506 49.8684 48.719 49.8684 48.6898 49.8588L41.5598 46.4833C41.514 46.4564 41.4788 46.4154 41.4598 46.3669C41.445 46.3194 41.445 46.2688 41.4598 46.2214L41.5098 46.1632C41.5328 46.1578 41.5568 46.1578 41.5798 46.1632C41.6055 46.1534 41.6341 46.1534 41.6598 46.1632C41.6824 46.155 41.7072 46.155 41.7298 46.1632L48.7298 49.4999L56.0498 46.105C56.0755 46.0952 56.1041 46.0952 56.1298 46.105C56.1409 46.1004 56.1528 46.0981 56.1648 46.0981C56.1768 46.0981 56.1887 46.1004 56.1998 46.105C56.2228 46.0996 56.2468 46.0996 56.2698 46.105V46.1632C56.2892 46.2098 56.2892 46.262 56.2698 46.3087C56.262 46.3336 56.2492 46.3567 56.232 46.3767C56.2148 46.3967 56.1936 46.4132 56.1698 46.4251L48.8098 49.8006C48.8048 49.8221 48.7945 49.8421 48.7798 49.8588Z" stroke="#BE1E2D" stroke-linecap="round" stroke-linejoin="round"/>
<path d="M36.4996 26.7035C36.3896 22.552 35.8196 19.2637 34.2496 17.2461L34.1896 17.3237C32.3096 20.1173 28.0796 22.4744 26.7696 25.4231C25.2496 31.117 30.9596 32.5235 31.2296 37.2183V62.7H36.1396C36.4996 48.7224 36.7196 35.7342 36.4996 26.7035Z" stroke="#BE1E2D" stroke-linecap="round" stroke-linejoin="round"/>
<path d="M70.8195 25.4544C69.5295 22.5444 65.2895 20.1194 63.3995 17.3549V17.2773C61.8195 19.3046 61.2595 22.5832 61.1495 26.7348C60.9095 35.7363 61.1495 48.7246 61.4795 62.7022H66.3895V37.2204C66.5895 32.5257 72.3095 31.1192 70.8195 25.4544Z" stroke="#BE1E2D" stroke-linecap="round" stroke-linejoin="round"/>
<path d="M57.5798 21.4778H39.9098C39.7585 21.4778 39.6089 21.4481 39.4698 21.3905C39.3301 21.3405 39.2037 21.261 39.0998 21.1577C38.988 21.0572 38.8994 20.9348 38.8398 20.7988C38.7874 20.6655 38.7603 20.5242 38.7598 20.3817V14.0961C38.7591 13.9511 38.7889 13.8076 38.8474 13.6741C38.9059 13.5407 38.9917 13.4203 39.0998 13.3201C39.3175 13.1167 39.6075 13.0021 39.9098 13H57.5798C57.8855 12.9996 58.1795 13.1144 58.3998 13.3201C58.5078 13.4203 58.5937 13.5407 58.6521 13.6741C58.7106 13.8076 58.7404 13.9511 58.7398 14.0961V20.372C58.737 20.5144 58.7046 20.6549 58.6444 20.7849C58.5843 20.9149 58.4977 21.0318 58.3898 21.1286C58.1774 21.3435 57.8865 21.4689 57.5798 21.4778Z" stroke="#BE1E2D" stroke-linecap="round" stroke-linejoin="round"/>
<path d="M57.8898 21.4653H39.6098C39.4995 21.4665 39.39 21.4467 39.2875 21.407C39.1851 21.3672 39.0918 21.3082 39.0128 21.2335C38.9339 21.1587 38.8709 21.0696 38.8275 20.9712C38.7841 20.8729 38.7611 20.7672 38.7598 20.6602V21.6302C38.7611 21.7372 38.7841 21.8429 38.8275 21.9412C38.8709 22.0396 38.9339 22.1287 39.0128 22.2035C39.0918 22.2782 39.1851 22.3372 39.2875 22.377C39.39 22.4167 39.4995 22.4365 39.6098 22.4352H57.8898C58.1136 22.4373 58.3292 22.3536 58.4898 22.2024C58.5685 22.1279 58.6311 22.0389 58.674 21.9406C58.7169 21.8424 58.7393 21.7369 58.7398 21.6302V20.6602C58.7393 20.7669 58.7169 20.8724 58.674 20.9707C58.6311 21.0689 58.5685 21.1579 58.4898 21.2325C58.3292 21.3836 58.1136 21.4673 57.8898 21.4653Z" stroke="#BE1E2D" stroke-linecap="round" stroke-linejoin="round"/>
<path d="M57.8898 14.0247H39.6098C39.3864 14.0247 39.1715 14.108 39.0098 14.2575C38.9311 14.332 38.8685 14.421 38.8255 14.5193C38.7826 14.6175 38.7603 14.7231 38.7598 14.8298V13.8598C38.7603 13.7531 38.7826 13.6475 38.8255 13.5493C38.8685 13.451 38.9311 13.362 39.0098 13.2875C39.1715 13.138 39.3864 13.0547 39.6098 13.0547H57.8898C58.1128 13.0566 58.3269 13.1397 58.4898 13.2875C58.5685 13.362 58.6311 13.451 58.674 13.5493C58.7169 13.6475 58.7393 13.7531 58.7398 13.8598V14.8298C58.7393 14.7231 58.7169 14.6175 58.674 14.5193C58.6311 14.421 58.5685 14.332 58.4898 14.2575C58.3269 14.1097 58.1128 14.0266 57.8898 14.0247Z" stroke="#BE1E2D" stroke-linecap="round" stroke-linejoin="round"/>
<path d="M72.2096 69.0524H25.3496C24.4593 69.0416 23.6088 68.6935 22.9796 68.0824C22.6723 67.7869 22.4247 67.4381 22.2496 67.0542C21.9168 66.2748 21.9168 65.399 22.2496 64.6195C22.5996 63.8372 23.2536 63.2203 24.0696 62.9027C24.4766 62.7441 24.911 62.6618 25.3496 62.6602H72.2096C72.6481 62.6627 73.0823 62.745 73.4896 62.9027C73.893 63.0661 74.2624 63.2995 74.5796 63.5913C74.884 63.8872 75.1283 64.236 75.2996 64.6195C75.471 65.0038 75.5595 65.4181 75.5595 65.8369C75.5595 66.2556 75.471 66.6699 75.2996 67.0542C75.1283 67.4378 74.884 67.7866 74.5796 68.0824C74.2624 68.3743 73.893 68.6077 73.4896 68.7711C73.085 68.9421 72.6507 69.0376 72.2096 69.0524Z" stroke="#BE1E2D" stroke-linecap="round" stroke-linejoin="round"/>
<path d="M31.2694 53.1367H27.1494V62.7106H31.2594L31.2694 53.1367Z" stroke="#BE1E2D" stroke-linecap="round" stroke-linejoin="round"/>
<path d="M24.3297 53.1069H29.9897C30.6041 53.1071 31.195 52.8779 31.6397 52.4667C31.8544 52.2634 32.025 52.0205 32.1415 51.7523C32.258 51.4841 32.318 51.196 32.318 50.905C32.318 50.614 32.258 50.3259 32.1415 50.0577C32.025 49.7895 31.8544 49.5466 31.6397 49.3433C31.195 48.9321 30.6041 48.7029 29.9897 48.7031H24.3297C23.7153 48.7029 23.1244 48.9321 22.6797 49.3433C22.465 49.5466 22.2944 49.7895 22.1779 50.0577C22.0615 50.3259 22.0015 50.614 22.0015 50.905C22.0015 51.196 22.0615 51.4841 22.1779 51.7523C22.2944 52.0205 22.465 52.2634 22.6797 52.4667C23.1244 52.8779 23.7153 53.1071 24.3297 53.1069Z" fill="#BE1E2D" stroke="#BE1E2D" stroke-linecap="round" stroke-linejoin="round"/>
<path d="M70.3998 53.1367H66.3198V62.7106H70.3198L70.3998 53.1367Z" stroke="#BE1E2D" stroke-linecap="round" stroke-linejoin="round"/>
<path d="M73.2295 53.1069H67.5595C66.9483 53.1057 66.3611 52.8764 65.9195 52.4667C65.7048 52.2634 65.5342 52.0205 65.4177 51.7523C65.3012 51.4841 65.2412 51.196 65.2412 50.905C65.2412 50.614 65.3012 50.3259 65.4177 50.0577C65.5342 49.7895 65.7048 49.5466 65.9195 49.3433C66.3611 48.9336 66.9483 48.7044 67.5595 48.7031H73.2295C73.8412 48.7013 74.4295 48.931 74.8695 49.3433C75.0841 49.5466 75.2547 49.7895 75.3712 50.0577C75.4877 50.3259 75.5477 50.614 75.5477 50.905C75.5477 51.196 75.4877 51.4841 75.3712 51.7523C75.2547 52.0205 75.0841 52.2634 74.8695 52.4667C74.4295 52.879 73.8412 53.1087 73.2295 53.1069Z" fill="#BE1E2D" stroke="#BE1E2D" stroke-linecap="round" stroke-linejoin="round"/>
<path d="M51.2096 69.0547H46.3496V83.7598L51.2096 83.8083V69.0547Z" stroke="#BE1E2D" stroke-linecap="round" stroke-linejoin="round"/>
<path d="M27.0197 92.3039L23.4097 92.2166V89.4036C23.4097 86.2608 26.6397 83.8164 30.7697 83.8164H48.7697V87.2405H30.7697C28.5697 87.2405 27.0297 88.3948 27.0297 89.4327L27.0197 92.3039Z" stroke="#BE1E2D" stroke-linecap="round" stroke-linejoin="round"/>
<path d="M76.6894 92.2478H73.0394V89.4348C73.0394 88.3969 71.4994 87.2426 69.2994 87.2426H48.8994V83.8477H69.3194C73.4494 83.8477 76.6894 86.3211 76.6894 89.4348V92.2478Z" stroke="#BE1E2D" stroke-linecap="round" stroke-linejoin="round"/>
<path d="M50.7094 87.1875H47.0894V92.1733L50.7094 92.2218V87.1875Z" stroke="#BE1E2D" stroke-linecap="round" stroke-linejoin="round"/>
<path d="M25.1297 97.9995C24.5134 98.0053 23.9087 97.8368 23.3897 97.5145C22.8758 97.1869 22.4751 96.7172 22.2397 96.1662C22.0029 95.6243 21.9412 95.0254 22.0626 94.4487C22.184 93.8721 22.4828 93.3447 22.9197 92.9361C23.3541 92.5221 23.9029 92.2391 24.4997 92.1213C25.1067 92.0048 25.7356 92.0621 26.3097 92.2862C26.8775 92.5098 27.3645 92.8911 27.7097 93.3823C28.0543 93.8673 28.2391 94.4423 28.2397 95.0313C28.2407 95.4219 28.1607 95.8087 28.0043 96.1687C27.848 96.5286 27.6185 96.8544 27.3297 97.1265C26.7408 97.6833 25.952 97.9963 25.1297 97.9995Z" fill="#BE1E2D" stroke="#BE1E2D" stroke-linecap="round" stroke-linejoin="round"/>
<path d="M48.8994 98.0005C48.2809 98.0023 47.6755 97.8268 47.1594 97.4961C46.642 97.1784 46.2372 96.7146 45.9994 96.1672C45.7627 95.6253 45.701 95.0264 45.8224 94.4497C45.9438 93.8731 46.2426 93.3456 46.6794 92.9371C47.1215 92.5195 47.6793 92.2358 48.2848 92.1204C48.8903 92.005 49.5173 92.0629 50.0894 92.2872C50.66 92.5107 51.1503 92.8918 51.4994 93.3833C51.902 93.9511 52.0838 94.6391 52.0124 95.3248C51.9409 96.0104 51.621 96.6493 51.1094 97.1275C50.5199 97.6892 49.7258 98.0029 48.8994 98.0005Z" fill="#BE1E2D" stroke="#BE1E2D" stroke-linecap="round" stroke-linejoin="round"/>
<path d="M74.8694 97.9995C74.2509 98.0013 73.6455 97.8258 73.1294 97.4951C72.6152 97.1784 72.2125 96.7174 71.9749 96.1733C71.7373 95.6293 71.6761 95.0279 71.7994 94.4493C71.9215 93.8721 72.2214 93.3444 72.6594 92.9361C73.0979 92.5169 73.6547 92.2333 74.2594 92.1213C74.8665 92.0048 75.4953 92.0621 76.0694 92.2862C76.6482 92.5049 77.1463 92.8866 77.4994 93.3823C77.8441 93.8673 78.0289 94.4423 78.0294 95.0313C78.0292 95.4226 77.9476 95.8098 77.7895 96.1698C77.6314 96.5298 77.4001 96.8552 77.1094 97.1265C76.8145 97.409 76.4646 97.6318 76.08 97.7817C75.6954 97.9315 75.2838 98.0056 74.8694 97.9995Z" fill="#BE1E2D" stroke="#BE1E2D" stroke-linecap="round" stroke-linejoin="round"/>
<path d="M51.2596 66.2036H46.6596C46.6101 66.2132 46.5591 66.2132 46.5096 66.2036H46.3696C46.3331 66.1957 46.3011 66.175 46.2796 66.1454C46.2612 66.1272 46.251 66.1029 46.251 66.0775C46.251 66.0521 46.2612 66.0277 46.2796 66.0096C46.3029 65.9797 46.3339 65.9562 46.3696 65.9417H46.5096H51.2596C51.3342 65.9388 51.4078 65.9592 51.4696 65.9999C51.5296 65.9999 51.5596 66.0678 51.5596 66.1066C51.5596 66.1454 51.5596 66.1842 51.4696 66.2133C51.4002 66.231 51.3269 66.2276 51.2596 66.2036Z" stroke="#BE1E2D" stroke-width="0.71" stroke-linecap="round" stroke-linejoin="round"/>
<path d="M44.5797 66.2049H26.4997C26.4226 66.2029 26.3472 66.1829 26.2797 66.1467C26.2567 66.1361 26.2372 66.1197 26.2231 66.0992C26.209 66.0787 26.2009 66.0549 26.1997 66.0303C26.2034 66.0064 26.2125 65.9836 26.2264 65.9634C26.2402 65.9433 26.2584 65.9264 26.2797 65.9139C26.3489 65.8819 26.4234 65.8621 26.4997 65.8557H44.7297C44.7729 65.8502 44.8166 65.8502 44.8597 65.8557L44.9597 65.9236C44.9673 65.9456 44.9673 65.9694 44.9597 65.9915C44.9697 66.0164 44.9697 66.0441 44.9597 66.0691C44.9302 66.0941 44.8963 66.1138 44.8597 66.1273H44.7297C44.6864 66.1638 44.6351 66.1903 44.5797 66.2049Z" stroke="#BE1E2D" stroke-width="0.73" stroke-linecap="round" stroke-linejoin="round"/>
</svg>