<svg width="100" height="100" viewBox="0 0 100 100" fill="none" xmlns="http://www.w3.org/2000/svg">
<path d="M67.4201 78.27C68.3601 78.98 68.1301 79.55 67.0001 79.55H41.5001C40.3301 79.55 40.1401 78.98 41.0701 78.27L46.2001 74.48C46.7001 74.0531 47.1084 73.5292 47.4001 72.94C47.7009 72.3569 47.8715 71.7155 47.9001 71.06V68.88C47.9001 68.3186 48.1147 67.7783 48.5001 67.37C48.6986 67.1725 48.9342 67.016 49.1933 66.9096C49.4524 66.8032 49.73 66.749 50.0101 66.75H58.5001C58.7786 66.7498 59.0544 66.8044 59.3118 66.9108C59.5691 67.0172 59.803 67.1732 60.0001 67.37C60.3991 67.7719 60.6251 68.3138 60.6301 68.88V71.02C60.6601 71.6741 60.827 72.3145 61.1201 72.9C61.4252 73.506 61.8505 74.0436 62.3701 74.48L67.4201 78.27Z" stroke="#BE1E2D" stroke-miterlimit="10"/>
<path d="M84 22.25V62.77C83.9972 63.8961 83.5477 64.9751 82.75 65.77C82.3589 66.169 81.8921 66.486 81.377 66.7023C80.8618 66.9187 80.3087 67.0301 79.75 67.03H37.27V77.71C37.2634 78.8334 36.8185 79.9098 36.03 80.71C35.2351 81.5077 34.1561 81.9572 33.03 81.96H20.25C19.6922 81.9597 19.14 81.8491 18.6252 81.6346C18.1103 81.4201 17.6429 81.1059 17.25 80.71C16.4551 79.9132 16.006 78.8355 16 77.71V30.79C16.006 29.6645 16.4551 28.5868 17.25 27.79C17.6379 27.3833 18.103 27.058 18.6181 26.833C19.1332 26.6081 19.688 26.4881 20.25 26.48H24.5V22.25C24.5066 21.1266 24.9515 20.0502 25.74 19.25C26.5349 18.4523 27.6139 18.0028 28.74 18H79.74C80.2978 18.0003 80.85 18.1109 81.3648 18.3254C81.8797 18.5399 82.3471 18.8541 82.74 19.25C83.5386 20.0451 83.9913 21.1231 84 22.25Z" stroke="#BE1E2D" stroke-miterlimit="10"/>
<path d="M33.72 30.2305H21.5V34.3105H33.7L33.72 30.2305Z" stroke="#BE1E2D" stroke-miterlimit="10"/>
<path d="M33 39.3008H20.25V43.5708H33V39.3008Z" stroke="#BE1E2D" stroke-miterlimit="10"/>
<path d="M24.5001 67.0385C24.4993 66.6151 24.3741 66.2013 24.1401 65.8485C23.8911 65.4931 23.5435 65.2184 23.1401 65.0585C22.7505 64.8996 22.323 64.8578 21.9101 64.9385C21.4961 65.0222 21.1165 65.2276 20.8201 65.5285C20.523 65.8278 20.3182 66.2061 20.2301 66.6185C20.1697 66.9276 20.1784 67.2462 20.2553 67.5515C20.3323 67.8569 20.4757 68.1415 20.6753 68.3851C20.8749 68.6286 21.1259 68.8251 21.4102 68.9605C21.6945 69.096 22.0052 69.167 22.3201 69.1685C22.6002 69.1695 22.8777 69.1153 23.1368 69.0089C23.3959 68.9025 23.6315 68.746 23.8301 68.5485C24.242 68.1519 24.4824 67.61 24.5001 67.0385Z" stroke="#BE1E2D" stroke-miterlimit="10"/>
<path d="M79.7495 26.48C79.739 25.3579 79.2873 24.2851 78.4919 23.4935C77.6966 22.7019 76.6216 22.2552 75.4995 22.25H33.0195C31.8958 22.25 30.8178 22.695 30.0214 23.4877C29.2249 24.2804 28.7748 25.3563 28.7695 26.48H33.0195C33.5793 26.48 34.1336 26.5906 34.6506 26.8054C35.1675 27.0202 35.6369 27.3351 36.0318 27.7319C36.4267 28.1286 36.7394 28.5995 36.9518 29.1175C37.1642 29.6354 37.2722 30.1902 37.2695 30.75V60.68H75.4995C76.0593 60.68 76.6136 60.5694 77.1306 60.3546C77.6475 60.1398 78.1169 59.8249 78.5118 59.4281C78.9067 59.0314 79.2194 58.5605 79.4318 58.0425C79.6442 57.5246 79.7522 56.9698 79.7495 56.41V26.48Z" stroke="#BE1E2D" stroke-miterlimit="10"/>
</svg>
