<svg width="100" height="100" viewBox="0 0 100 100" fill="none" xmlns="http://www.w3.org/2000/svg">
<path d="M30.36 28.0704H23.24C23.0417 28.0678 22.8448 28.1042 22.6606 28.1777C22.4764 28.2512 22.3084 28.3602 22.1663 28.4985C22.0243 28.6369 21.9108 28.8019 21.8325 28.9841C21.7542 29.1663 21.7126 29.3621 21.71 29.5604V37.2904C21.7126 37.4887 21.7542 37.6846 21.8325 37.8668C21.9108 38.049 22.0243 38.214 22.1663 38.3524C22.3084 38.4907 22.4764 38.5997 22.6606 38.6732C22.8448 38.7466 23.0417 38.7831 23.24 38.7804H30.36C30.5583 38.7831 30.7551 38.7466 30.9394 38.6732C31.1236 38.5997 31.2915 38.4907 31.4336 38.3524C31.5757 38.214 31.6891 38.049 31.7674 37.8668C31.8457 37.6846 31.8874 37.4887 31.89 37.2904V29.5604C31.8874 29.3621 31.8457 29.1663 31.7674 28.9841C31.6891 28.8019 31.5757 28.6369 31.4336 28.4985C31.2915 28.3602 31.1236 28.2512 30.9394 28.1777C30.7551 28.1042 30.5583 28.0678 30.36 28.0704Z" stroke="#BE1E2D" stroke-miterlimit="10"/>
<path d="M57.9999 44.499H23.0599C22.7026 44.4859 22.351 44.5914 22.0599 44.799C21.7735 45.0039 21.5654 45.3001 21.4699 45.639C21.4086 45.8655 21.402 46.1033 21.4507 46.3328C21.4994 46.5623 21.6019 46.7769 21.7499 46.959C21.8927 47.1501 22.082 47.3016 22.2999 47.399C22.523 47.4835 22.762 47.5176 22.9999 47.499H57.9399C58.2982 47.5084 58.6497 47.3995 58.9399 47.189C59.2262 46.9841 59.4343 46.6879 59.5299 46.349C59.5912 46.1225 59.5977 45.8847 59.549 45.6552C59.5004 45.4257 59.3978 45.2111 59.2499 45.029C59.0971 44.8477 58.9102 44.6982 58.6999 44.589C58.476 44.5079 58.237 44.4772 57.9999 44.499Z" stroke="#BE1E2D" stroke-miterlimit="10"/>
<path d="M58.0001 50.7901H23.0601C22.7028 50.7771 22.3512 50.8825 22.0601 51.0901C21.7761 51.293 21.5683 51.5853 21.4701 51.9201C21.4149 52.1468 21.4149 52.3835 21.4701 52.6101C21.5202 52.8405 21.6229 53.0561 21.7701 53.2402C21.9184 53.4259 22.1063 53.5762 22.3201 53.6801C22.5362 53.7803 22.7718 53.8315 23.0101 53.8302H57.9401C58.2986 53.8411 58.6506 53.732 58.9401 53.5201C59.2289 53.3133 59.4373 53.013 59.5301 52.6701C59.5851 52.4468 59.5851 52.2135 59.5301 51.9902C59.4693 51.7667 59.3676 51.5565 59.2301 51.3701C59.0791 51.1922 58.8915 51.0489 58.6801 50.9501C58.4698 50.8422 58.2364 50.7873 58.0001 50.7901Z" stroke="#BE1E2D" stroke-miterlimit="10"/>
<path d="M58.0001 57.6918H23.0601C22.7019 57.6839 22.3509 57.7927 22.0601 58.0018C21.7712 58.2086 21.5628 58.5089 21.4701 58.8518C21.4149 59.0785 21.4149 59.3151 21.4701 59.5418C21.5226 59.7683 21.6251 59.9801 21.7701 60.1618C21.9187 60.3513 22.1108 60.5022 22.3301 60.6018C22.5462 60.7019 22.7818 60.7532 23.0201 60.7518H57.9401C58.2994 60.7576 58.6508 60.6452 58.9401 60.4318C59.1791 60.2597 59.3618 60.0206 59.465 59.7447C59.5683 59.4689 59.5874 59.1686 59.5201 58.8818C59.4339 58.5434 59.2379 58.243 58.9629 58.0277C58.6879 57.8124 58.3493 57.6943 58.0001 57.6918Z" stroke="#BE1E2D" stroke-miterlimit="10"/>
<path d="M60.9 71.7401C60.8531 71.9605 60.8264 72.1848 60.82 72.4101H15.71C14.3273 72.4216 12.9952 71.8902 12 70.9301C11.5252 70.4646 11.148 69.9092 10.8904 69.2962C10.6328 68.6832 10.5001 68.025 10.5 67.3601V23.0901C10.4975 22.4218 10.6289 21.7598 10.8865 21.1432C11.1442 20.5266 11.5228 19.9679 12 19.5001C12.9914 18.5317 14.3243 17.9928 15.71 18.0001H81.58C82.9554 18.0007 84.2761 18.539 85.26 19.5001C85.7439 19.9665 86.1288 20.5257 86.3917 21.1442C86.6546 21.7628 86.7901 22.428 86.79 23.1001V61.7501C85.7135 60.8998 84.3712 60.457 83 60.5001C82.5374 60.5001 82.0757 60.5402 81.62 60.6201C80.8381 60.1361 79.9395 59.8734 79.02 59.8601C77.9939 59.8692 76.9953 60.1939 76.16 60.7901L76 60.7001V23.0901H16.72V67.3001H65.61C66.11 68.1901 66.47 68.8201 66.61 69.1401C66.75 69.4601 66.8 69.5401 66.94 69.8101C66.8721 69.7695 66.802 69.7328 66.73 69.7001C63.88 68.3001 61.37 69.3601 60.9 71.7401Z" stroke="#BE1E2D" stroke-miterlimit="10"/>
<path d="M78.6098 45.1882C78.6126 45.6427 78.7186 46.0907 78.9198 46.4982C79.1263 46.9069 79.4198 47.2653 79.7798 47.5482C80.1474 47.8308 80.573 48.0284 81.0259 48.1269C81.4789 48.2255 81.9481 48.2225 82.3998 48.1182C82.9452 47.9951 83.4465 47.7254 83.8498 47.3382C84.2511 46.9553 84.5355 46.4664 84.6698 45.9282C84.7597 45.5232 84.7597 45.1033 84.6698 44.6982C84.5869 44.2898 84.4163 43.9043 84.1698 43.5682C83.9201 43.228 83.6036 42.9422 83.2398 42.7282C82.8703 42.5166 82.4624 42.3807 82.0398 42.3282C81.6174 42.2764 81.1888 42.3104 80.7798 42.4282C80.3723 42.5443 79.994 42.7454 79.6698 43.0182C79.3416 43.2922 79.0756 43.6331 78.8898 44.0182C78.7064 44.3891 78.6041 44.7948 78.5898 45.2082L78.6098 45.1882Z" stroke="#BE1E2D" stroke-miterlimit="10"/>
<path d="M90.5002 77.7206L90.1002 75.6006C90.1502 70.1506 86.1702 64.3906 86.1702 64.3906C84.7702 60.9506 81.0002 62.5006 81.0002 62.5006C80.7024 62.1727 80.3319 61.9193 79.9183 61.7607C79.5048 61.6021 79.0598 61.5428 78.6191 61.5875C78.1784 61.6323 77.7544 61.7798 77.3812 62.0183C77.008 62.2568 76.6959 62.5796 76.4702 62.9606C73.5502 60.6706 71.9002 64.0806 71.9002 64.0806C71.5102 64.1506 65.6602 54.2906 65.3402 54.3906C64.0902 52.9106 61.0002 52.1306 62.8402 56.5006C66.5002 63.8606 68.7302 67.5006 68.7302 67.5006C68.7302 68.0106 72.8402 73.9506 71.4402 74.7106C70.3802 74.6506 68.3702 73.0206 68.3702 73.0206C68.3702 73.0206 65.8702 71.1406 65.8202 71.1706C62.0702 69.1706 62.5702 73.5006 64.5202 74.3406C64.6102 74.8406 65.0702 74.5006 67.0502 77.2806C67.3402 77.9906 70.1902 78.9706 70.1902 78.9706C72.6134 80.4193 75.368 81.2216 78.1902 81.3006C80.3102 81.8006 79.8402 82.9306 79.8402 82.9306L90.5002 77.7206Z" stroke="#BE1E2D" stroke-miterlimit="10"/>
</svg>
