<svg width="100" height="100" viewBox="0 0 100 100" fill="none" xmlns="http://www.w3.org/2000/svg">
<path d="M76.3702 79.1289H61.7302V76.2589C61.7003 75.5012 61.3845 74.783 60.8465 74.2487C60.3085 73.7143 59.5881 73.4036 58.8302 73.3789H41.2002C39.5802 73.3789 38.3102 76.2589 38.3102 76.2589V79.1289H23.6202C22.864 79.1534 22.145 79.4628 21.6072 79.995C21.0694 80.5272 20.7526 81.243 20.7202 81.9989H79.3102C79.3092 81.6172 79.231 81.2396 79.0802 80.8889C78.7774 80.1849 78.2099 79.6282 77.5002 79.3389C77.1434 79.1874 76.7577 79.1157 76.3702 79.1289Z" stroke="#BE1E2D" stroke-miterlimit="10"/>
<path d="M86.92 18H13.08C12.2675 17.9974 11.4871 18.3169 10.9098 18.8886C10.3324 19.4603 10.0053 20.2375 10 21.05V69.94C10.0013 70.3432 10.082 70.7421 10.2375 71.1141C10.393 71.4861 10.6202 71.8238 10.9062 72.1079C11.1923 72.3921 11.5314 72.6171 11.9044 72.7702C12.2774 72.9232 12.6768 73.0013 13.08 73H86.92C87.3232 73.0013 87.7226 72.9232 88.0956 72.7702C88.4686 72.6171 88.8077 72.3921 89.0938 72.1079C89.3798 71.8238 89.607 71.4861 89.7625 71.1141C89.918 70.7421 89.9987 70.3432 90 69.94V21.05C89.9947 20.2375 89.6676 19.4603 89.0902 18.8886C88.5129 18.3169 87.7325 17.9974 86.92 18Z" stroke="#BE1E2D" stroke-miterlimit="10"/>
<path d="M83.8399 24.1094H16.1499V63.8294H83.8399V24.1094Z" stroke="#BE1E2D" stroke-miterlimit="10"/>
</svg>