<svg width="100" height="100" viewBox="0 0 100 100" fill="none" xmlns="http://www.w3.org/2000/svg">
<path d="M80.8701 29.0508H29.2901V26.0508H20.6001V29.0508H19.1501C18.4639 29.0446 17.7836 29.1773 17.1501 29.4408C15.901 29.9746 14.9103 30.976 14.3901 32.2308C14.1336 32.8664 14.0012 33.5453 14.0001 34.2308V70.9808C13.9964 71.6667 14.1289 72.3465 14.3901 72.9808C14.6513 73.5996 15.028 74.1629 15.5001 74.6408C15.9807 75.1213 16.5517 75.502 17.1801 75.7608C17.8136 76.0243 18.4939 76.1569 19.1801 76.1508H28.1801C25.8359 74.6131 23.8264 72.6179 22.272 70.2847C20.7177 67.9515 19.6507 65.3284 19.1348 62.5728C18.6189 59.8171 18.6649 56.9857 19.27 54.2482C19.8751 51.5108 21.0268 48.9238 22.656 46.6423C24.2853 44.3608 26.3585 42.4318 28.7514 40.9711C31.1443 39.5104 33.8076 38.548 36.5815 38.1416C39.3554 37.7353 42.1828 37.8933 44.8941 38.6063C47.6055 39.3193 50.1449 40.5725 52.3601 42.2908C55.0151 44.2533 57.1684 46.8158 58.6442 49.7691C60.1201 52.7225 60.8768 55.9829 60.8524 59.2844C60.828 62.5859 60.0233 65.8348 58.504 68.766C56.9847 71.6973 54.7937 74.2277 52.1101 76.1508H80.8701C81.5561 76.1558 82.2362 76.0232 82.8701 75.7608C83.4817 75.4981 84.0355 75.1175 84.5001 74.6408C84.9802 74.1618 85.3578 73.5903 85.6101 72.9608C85.8725 72.3269 86.0051 71.6468 86.0001 70.9608V34.2108C86.0062 33.5246 85.8736 32.8443 85.6101 32.2108C85.3477 31.5956 84.9711 31.0357 84.5001 30.5608C84.0207 30.0983 83.4526 29.7377 82.8301 29.5008C82.2135 29.2209 81.547 29.0679 80.8701 29.0508Z" stroke="#BE1E2D" stroke-miterlimit="10"/>
<path d="M57.0898 22H40.2798L38.5898 29.05H58.7698L57.0898 22Z" stroke="#BE1E2D" stroke-miterlimit="10"/>
<path d="M41.6499 27.3894L42.3099 24.6094H55.0499L55.7099 27.3894H41.6499Z" stroke="#BE1E2D" stroke-miterlimit="10"/>
<path d="M21.9399 59.1307C21.9369 55.5228 23.0016 51.9947 24.9999 48.9907C26.4805 46.7468 28.4426 44.861 30.7435 43.4706C33.0444 42.0802 35.6263 41.2201 38.3014 40.9529C40.9765 40.6856 43.6775 41.018 46.2079 41.9258C48.7384 42.8336 51.0348 44.294 52.9299 46.2007C56.3565 49.6021 58.2916 54.2254 58.3094 59.0536C58.3272 63.8817 56.4264 68.5191 53.025 71.9457C49.6235 75.3723 45.0002 77.3074 40.1721 77.3252C35.344 77.343 30.7065 75.4421 27.2799 72.0407C23.8692 68.6086 21.9502 63.9694 21.9399 59.1307Z" stroke="#BE1E2D" stroke-miterlimit="10"/>
<path d="M49.8201 58.9409C49.8161 57.0169 49.2448 55.1368 48.1775 53.5359C47.1103 51.935 45.5946 50.6845 43.8201 49.9409C42.0451 49.2056 40.0915 49.0145 38.2077 49.392C36.3238 49.7695 34.5947 50.6985 33.2401 52.0609C32.2288 53.0841 31.4552 54.3173 30.9742 55.6731C30.4932 57.0289 30.3166 58.4739 30.4569 59.9057C30.5972 61.3374 31.051 62.7207 31.786 63.9573C32.5211 65.1939 33.5194 66.2535 34.7101 67.0609C36.5749 68.3179 38.8199 68.8848 41.058 68.6639C43.296 68.443 45.3869 67.4482 46.9701 65.8509C48.7947 64.0139 49.8192 61.5301 49.8201 58.9409Z" stroke="#BE1E2D" stroke-miterlimit="10"/>
<path d="M78.9901 68.7499C79.0122 69.1269 78.9578 69.5044 78.8301 69.8599C78.7061 70.2289 78.5088 70.569 78.2501 70.8599C77.9894 71.1326 77.6765 71.3502 77.3301 71.4999C76.9867 71.6515 76.6155 71.7298 76.2401 71.7299C75.865 71.7278 75.4941 71.6496 75.1501 71.4999C74.8059 71.3514 74.496 71.1335 74.2396 70.86C73.9833 70.5864 73.786 70.263 73.6601 69.9099C73.5259 69.5387 73.4714 69.1435 73.5001 68.7499V48.2499C73.5405 47.5432 73.8479 46.8783 74.3601 46.3899C74.8701 45.9015 75.549 45.6289 76.2551 45.6289C76.9612 45.6289 77.6401 45.9015 78.1501 46.3899C78.6595 46.8794 78.9634 47.5444 79.0001 48.2499L78.9901 68.7499Z" stroke="#BE1E2D" stroke-miterlimit="10"/>
<path d="M80.4001 34.8398H66.8901V40.9998H80.4001V34.8398Z" stroke="#BE1E2D" stroke-miterlimit="10"/>
</svg>