<svg width="100" height="100" viewBox="0 0 100 100" fill="none" xmlns="http://www.w3.org/2000/svg">
<path d="M15 34.3197V74.9397C15.0006 75.2394 15.1191 75.5268 15.33 75.7397C15.4333 75.8477 15.5574 75.9336 15.695 75.9921C15.8325 76.0505 15.9805 76.0803 16.13 76.0797H42.32C42.4694 76.079 42.6175 76.1089 42.755 76.1673C42.8926 76.2258 43.0167 76.3116 43.12 76.4197C43.2256 76.5263 43.3091 76.6528 43.3658 76.7918C43.4224 76.9308 43.451 77.0796 43.45 77.2297V80.8597C43.45 81.1603 43.5687 81.4488 43.7804 81.6623C43.992 81.8758 44.2794 81.9971 44.58 81.9997H73.15C73.2993 81.9992 73.4469 81.9688 73.5843 81.9105C73.7217 81.8521 73.846 81.7668 73.95 81.6597C74.1609 81.4468 74.2794 81.1594 74.28 80.8597V77.2297C74.2767 77.0793 74.3043 76.9298 74.361 76.7905C74.4178 76.6512 74.5025 76.525 74.61 76.4197C74.7114 76.3119 74.8338 76.2261 74.9697 76.1677C75.1056 76.1092 75.2521 76.0792 75.4 76.0797C75.5495 76.079 75.6975 76.1089 75.835 76.1673C75.9726 76.2258 76.0967 76.3116 76.2 76.4197C76.3056 76.5263 76.3891 76.6528 76.4458 76.7918C76.5024 76.9308 76.531 77.0796 76.53 77.2297V80.8597C76.53 81.1603 76.6487 81.4488 76.8604 81.6623C77.072 81.8758 77.3594 81.9971 77.66 81.9997H83.87C84.0195 82.0003 84.1675 81.9705 84.305 81.9121C84.4426 81.8536 84.5667 81.7677 84.67 81.6597C84.8809 81.4468 84.9994 81.1594 85 80.8597V34.3197C84.9978 34.0174 84.8797 33.7274 84.67 33.5097C84.4571 33.2988 84.1697 33.1803 83.87 33.1797H16.13C15.8303 33.1803 15.5429 33.2988 15.33 33.5097C15.1203 33.7274 15.0022 34.0174 15 34.3197Z" stroke="#BE1E2D" stroke-miterlimit="10"/>
<path d="M34.1901 68.2697C36.9197 68.2994 39.5966 67.5171 41.8807 66.0223C44.1648 64.5274 45.9531 62.3873 47.0183 59.874C48.0836 57.3606 48.3778 54.5873 47.8635 51.9064C47.3493 49.2255 46.0498 46.7579 44.1301 44.8171C42.2104 42.8763 39.7572 41.5498 37.0821 41.0062C34.407 40.4627 31.6306 40.7265 29.1057 41.7641C26.5809 42.8018 24.4214 44.5665 22.9015 46.8341C21.3817 49.1017 20.5702 51.7699 20.5701 54.4997C20.5595 56.2983 20.9035 58.0814 21.5824 59.747C22.2613 61.4126 23.2618 62.9282 24.5267 64.207C25.7915 65.4858 27.296 66.5028 28.9541 67.1999C30.6122 67.897 32.3914 68.2605 34.1901 68.2697Z" stroke="#BE1E2D" stroke-miterlimit="10"/>
<path d="M34.3299 65.6381C36.552 65.6619 38.731 65.0247 40.5902 63.8075C42.4494 62.5903 43.9049 60.8479 44.7718 58.8018C45.6386 56.7556 45.8778 54.498 45.4589 52.3156C45.04 50.1333 43.982 48.1246 42.4191 46.5449C40.8563 44.9651 38.8591 43.8855 36.6814 43.4431C34.5036 43.0007 32.2436 43.2156 30.1882 44.0604C28.1328 44.9053 26.3749 46.3419 25.1378 48.1879C23.9006 50.0339 23.24 52.2059 23.2399 54.4281C23.232 55.8924 23.5126 57.3438 24.0656 58.6996C24.6187 60.0554 25.4334 61.289 26.4632 62.33C27.493 63.3709 28.7178 64.1988 30.0675 64.7665C31.4173 65.3341 32.8657 65.6303 34.3299 65.6381Z" stroke="#BE1E2D" stroke-miterlimit="10"/>
<path d="M35.04 53.7196C34.94 53.7196 36.6 47.9796 34.61 45.4296C32.73 43.0596 42.42 47.1396 41.91 49.9896C41.39 52.6296 39.13 53.4996 35.04 53.7196Z" stroke="#BE1E2D" stroke-miterlimit="10"/>
<path d="M34.9902 55.4986C34.9902 55.3986 40.6702 57.2586 43.2002 55.3186C45.7302 53.3786 41.2802 63.1186 38.5002 62.4986C35.8702 61.9086 35.0702 59.5986 34.9902 55.4986Z" stroke="#BE1E2D" stroke-miterlimit="10"/>
<path d="M33.66 55.1102C33.75 55.1102 31.66 60.7302 33.43 63.4002C35.2 66.0702 25.77 61.0702 26.53 58.2802C27.22 55.7102 29.5 54.9902 33.66 55.1102Z" stroke="#BE1E2D" stroke-miterlimit="10"/>
<path d="M33.76 53.5001C33.76 53.6101 28.08 51.8601 25.56 53.9001C23.21 55.7701 27.29 46.0101 30.1 46.5701C32.72 47.0901 33.58 49.3801 33.76 53.5001Z" stroke="#BE1E2D" stroke-miterlimit="10"/>
<path d="M65.8102 68.2697C68.5398 68.2994 71.2167 67.5171 73.5008 66.0223C75.7849 64.5274 77.5732 62.3873 78.6384 59.874C79.7037 57.3606 79.9979 54.5873 79.4836 51.9064C78.9694 49.2255 77.6699 46.7579 75.7502 44.8171C73.8306 42.8763 71.3774 41.5498 68.7022 41.0062C66.0271 40.4627 63.2507 40.7265 60.7259 41.7641C58.201 42.8018 56.0415 44.5665 54.5217 46.8341C53.0019 49.1017 52.1903 51.7699 52.1902 54.4997C52.1796 56.2983 52.5237 58.0814 53.2025 59.747C53.8814 61.4126 54.8819 62.9282 56.1468 64.207C57.4117 65.4858 58.9161 66.5028 60.5742 67.1999C62.2323 67.897 64.0115 68.2605 65.8102 68.2697Z" stroke="#BE1E2D" stroke-miterlimit="10"/>
<path d="M65.94 65.6419C68.1625 65.6677 70.3425 65.0322 72.203 63.8162C74.0635 62.6002 75.5205 60.8586 76.3889 58.8126C77.2574 56.7667 77.498 54.5087 77.0802 52.3257C76.6625 50.1427 75.6052 48.1331 74.0428 46.5524C72.4803 44.9716 70.4832 43.8909 68.3052 43.4478C66.1272 43.0046 63.8667 43.2189 61.8107 44.0634C59.7548 44.9079 57.9963 46.3445 56.7587 48.1907C55.521 50.0369 54.8602 52.2093 54.86 54.4319C54.8441 57.3874 56.0021 60.2282 58.0798 62.3302C60.1574 64.4323 62.9846 65.6234 65.94 65.6419Z" stroke="#BE1E2D" stroke-miterlimit="10"/>
<path d="M66.6501 53.7196C66.5501 53.7196 68.2201 47.9796 66.2201 45.4296C64.3501 43.0596 74.0301 47.1396 73.5201 49.9896C73.0001 52.6296 70.7501 53.4996 66.6501 53.7196Z" stroke="#BE1E2D" stroke-miterlimit="10"/>
<path d="M66.6001 55.4986C66.6001 55.3986 72.2801 57.2586 74.8101 55.3186C77.3401 53.3786 72.8901 63.1186 70.0801 62.4986C67.5001 61.9086 66.6801 59.5986 66.6001 55.4986Z" stroke="#BE1E2D" stroke-miterlimit="10"/>
<path d="M65.3002 55.1102C65.3902 55.1102 63.3002 60.7302 65.0702 63.4002C66.8402 66.0702 57.4102 61.0702 58.1702 58.2802C58.8102 55.7102 61.1602 54.9902 65.3002 55.1102Z" stroke="#BE1E2D" stroke-miterlimit="10"/>
<path d="M65.3798 53.5001C65.3798 53.6101 59.6998 51.8601 57.1698 53.9001C54.8198 55.7701 58.8998 46.0101 61.7198 46.5701C64.3298 47.0901 65.1898 49.3801 65.3798 53.5001Z" stroke="#BE1E2D" stroke-miterlimit="10"/>
<path d="M84.3001 18H82.3001C82.1463 18.0001 81.9988 18.0612 81.8901 18.17C81.8355 18.2254 81.7924 18.291 81.7632 18.363C81.734 18.4351 81.7194 18.5122 81.7201 18.59V27.84C81.7201 27.9938 81.6589 28.1413 81.5501 28.25C81.4967 28.3078 81.4317 28.3538 81.3593 28.3848C81.2869 28.4158 81.2088 28.4312 81.1301 28.43H70.7001C70.6227 28.4324 70.5457 28.4175 70.4747 28.3864C70.4038 28.3552 70.3407 28.3086 70.2901 28.25C70.1786 28.1423 70.1139 27.995 70.1101 27.84V26.2C70.1201 26.0091 70.0894 25.8182 70.0201 25.64C69.9502 25.4637 69.8446 25.3037 69.7101 25.17C69.5814 25.0316 69.4246 24.9225 69.2501 24.85C69.0756 24.7781 68.8888 24.7408 68.7001 24.74C68.5115 24.7418 68.3249 24.7791 68.1501 24.85C67.9756 24.9225 67.8188 25.0316 67.6901 25.17C67.5585 25.3041 67.4563 25.4642 67.3901 25.64C67.3223 25.8188 67.2884 26.0087 67.2901 26.2V27.84C67.3044 27.9126 67.3044 27.9874 67.2901 28.06C67.262 28.1301 67.2214 28.1945 67.1701 28.25C67.0612 28.3598 66.9147 28.4241 66.7601 28.43C66.6088 28.4226 66.466 28.3583 66.3601 28.25C66.3076 28.1957 66.2664 28.1315 66.239 28.0611C66.2115 27.9907 66.1983 27.9155 66.2001 27.84V27.11C66.1993 26.4577 65.9405 25.8322 65.4801 25.37C65.256 25.1413 64.9883 24.9598 64.6929 24.8361C64.3975 24.7125 64.0803 24.6492 63.7601 24.65H54.7601C54.4399 24.6492 54.1227 24.7125 53.8273 24.8361C53.5319 24.9598 53.2643 25.1413 53.0401 25.37C52.5825 25.8332 52.3272 26.4589 52.3301 27.11V27.84C52.3263 27.995 52.2617 28.1423 52.1501 28.25C52.0986 28.3076 52.0354 28.3534 51.9647 28.3845C51.8939 28.4156 51.8174 28.4311 51.7401 28.43H51.3501C51.1993 28.4207 51.0571 28.3567 50.9501 28.25C50.8413 28.1413 50.7802 27.9938 50.7801 27.84V26.05C50.7818 25.862 50.7479 25.6754 50.6801 25.5C50.6076 25.328 50.5023 25.1718 50.3701 25.04C50.2403 24.9055 50.0835 24.7999 49.9101 24.73C49.6521 24.6203 49.367 24.5913 49.0921 24.6466C48.8173 24.7019 48.5656 24.8391 48.3701 25.04C48.1106 25.3086 47.9638 25.6665 47.9601 26.04V27.83C47.9744 27.9026 47.9744 27.9774 47.9601 28.05C47.9322 28.1226 47.8876 28.1876 47.8301 28.24C47.7816 28.2974 47.7198 28.342 47.6501 28.37C47.5742 28.3851 47.496 28.3851 47.4201 28.37H38.2101C38.1339 28.3695 38.0583 28.3843 37.9879 28.4135C37.9175 28.4427 37.8536 28.4857 37.8001 28.54C37.6871 28.6508 37.6224 28.8017 37.6201 28.96V30.6C37.6239 30.755 37.6886 30.9023 37.8001 31.01C37.8516 31.0676 37.9149 31.1134 37.9856 31.1445C38.0563 31.1756 38.1329 31.1911 38.2101 31.19H84.3001C84.3764 31.1905 84.4519 31.1757 84.5223 31.1465C84.5928 31.1173 84.6566 31.0743 84.7101 31.02C84.8189 30.9113 84.88 30.7638 84.8801 30.61V18.59C84.8945 18.514 84.8945 18.436 84.8801 18.36C84.8497 18.2887 84.8055 18.2242 84.7501 18.17C84.6832 18.1022 84.5949 18.0597 84.5001 18.05C84.4373 18.0206 84.3694 18.0037 84.3001 18Z" stroke="#BE1E2D" stroke-miterlimit="10"/>
<path d="M46.9401 75.1719H46.2201C45.9337 75.1719 45.659 75.2857 45.4565 75.4882C45.2539 75.6907 45.1401 75.9654 45.1401 76.2519V79.4219C45.1401 79.7083 45.2539 79.983 45.4565 80.1856C45.659 80.3881 45.9337 80.5019 46.2201 80.5019H46.9401C47.0815 80.5019 47.2215 80.4739 47.3519 80.4195C47.4824 80.3651 47.6008 80.2854 47.7003 80.185C47.7998 80.0845 47.8784 79.9654 47.9316 79.8344C47.9848 79.7034 48.0115 79.5632 48.0101 79.4219V76.2519C48.0115 76.1105 47.9848 75.9703 47.9316 75.8393C47.8784 75.7084 47.7998 75.5892 47.7003 75.4888C47.6008 75.3884 47.4824 75.3087 47.3519 75.2543C47.2215 75.1999 47.0815 75.1719 46.9401 75.1719Z" stroke="#BE1E2D" stroke-miterlimit="10"/>
<path d="M51.8999 75.1719H51.1799C51.0385 75.1719 50.8986 75.1999 50.7681 75.2543C50.6376 75.3087 50.5192 75.3884 50.4197 75.4888C50.3203 75.5892 50.2417 75.7084 50.1885 75.8393C50.1353 75.9703 50.1086 76.1105 50.1099 76.2519V79.4219C50.1086 79.5632 50.1353 79.7034 50.1885 79.8344C50.2417 79.9654 50.3203 80.0845 50.4197 80.185C50.5192 80.2854 50.6376 80.3651 50.7681 80.4195C50.8986 80.4739 51.0385 80.5019 51.1799 80.5019H51.8999C52.0413 80.5019 52.1812 80.4739 52.3117 80.4195C52.4422 80.3651 52.5606 80.2854 52.6601 80.185C52.7596 80.0845 52.8382 79.9654 52.8913 79.8344C52.9445 79.7034 52.9712 79.5632 52.9699 79.4219V76.2519C52.9712 76.1105 52.9445 75.9703 52.8913 75.8393C52.8382 75.7084 52.7596 75.5892 52.6601 75.4888C52.5606 75.3884 52.4422 75.3087 52.3117 75.2543C52.1812 75.1999 52.0413 75.1719 51.8999 75.1719Z" stroke="#BE1E2D" stroke-miterlimit="10"/>
<path d="M56.8701 75.1719H56.1501C56.0088 75.1719 55.8688 75.1999 55.7383 75.2543C55.6079 75.3087 55.4895 75.3884 55.39 75.4888C55.2905 75.5892 55.2119 75.7084 55.1587 75.8393C55.1055 75.9703 55.0788 76.1105 55.0801 76.2519V79.4219C55.0788 79.5632 55.1055 79.7034 55.1587 79.8344C55.2119 79.9654 55.2905 80.0845 55.39 80.185C55.4895 80.2854 55.6079 80.3651 55.7383 80.4195C55.8688 80.4739 56.0088 80.5019 56.1501 80.5019H56.8701C57.1566 80.5019 57.4313 80.3881 57.6338 80.1856C57.8363 79.983 57.9501 79.7083 57.9501 79.4219V76.2519C57.9501 75.9654 57.8363 75.6907 57.6338 75.4882C57.4313 75.2857 57.1566 75.1719 56.8701 75.1719Z" stroke="#BE1E2D" stroke-miterlimit="10"/>
<path d="M61.8399 75.1719H61.1199C60.9785 75.1719 60.8385 75.1999 60.7081 75.2543C60.5776 75.3087 60.4592 75.3884 60.3597 75.4888C60.2602 75.5892 60.1816 75.7084 60.1284 75.8393C60.0752 75.9703 60.0485 76.1105 60.0499 76.2519V79.4219C60.0485 79.5632 60.0752 79.7034 60.1284 79.8344C60.1816 79.9654 60.2602 80.0845 60.3597 80.185C60.4592 80.2854 60.5776 80.3651 60.7081 80.4195C60.8385 80.4739 60.9785 80.5019 61.1199 80.5019H61.8399C61.9812 80.5019 62.1212 80.4739 62.2516 80.4195C62.3821 80.3651 62.5005 80.2854 62.6 80.185C62.6995 80.0845 62.7781 79.9654 62.8313 79.8344C62.8845 79.7034 62.9112 79.5632 62.9099 79.4219V76.2519C62.9112 76.1105 62.8845 75.9703 62.8313 75.8393C62.7781 75.7084 62.6995 75.5892 62.6 75.4888C62.5005 75.3884 62.3821 75.3087 62.2516 75.2543C62.1212 75.1999 61.9812 75.1719 61.8399 75.1719Z" stroke="#BE1E2D" stroke-miterlimit="10"/>
<path d="M66.8101 75.1719H66.0901C65.9487 75.1719 65.8087 75.1999 65.6783 75.2543C65.5478 75.3087 65.4294 75.3884 65.3299 75.4888C65.2304 75.5892 65.1518 75.7084 65.0986 75.8393C65.0454 75.9703 65.0187 76.1105 65.0201 76.2519V79.4219C65.0187 79.5632 65.0454 79.7034 65.0986 79.8344C65.1518 79.9654 65.2304 80.0845 65.3299 80.185C65.4294 80.2854 65.5478 80.3651 65.6783 80.4195C65.8087 80.4739 65.9487 80.5019 66.0901 80.5019H66.8101C66.9514 80.5019 67.0914 80.4739 67.2219 80.4195C67.3523 80.3651 67.4707 80.2854 67.5702 80.185C67.6697 80.0845 67.7483 79.9654 67.8015 79.8344C67.8547 79.7034 67.8814 79.5632 67.8801 79.4219V76.2519C67.8814 76.1105 67.8547 75.9703 67.8015 75.8393C67.7483 75.7084 67.6697 75.5892 67.5702 75.4888C67.4707 75.3884 67.3523 75.3087 67.2219 75.2543C67.0914 75.1999 66.9514 75.1719 66.8101 75.1719Z" stroke="#BE1E2D" stroke-miterlimit="10"/>
<path d="M71.78 75.1719H71.06C70.7735 75.1719 70.4988 75.2857 70.2963 75.4882C70.0938 75.6907 69.98 75.9654 69.98 76.2519V79.4219C69.98 79.7083 70.0938 79.983 70.2963 80.1856C70.4988 80.3881 70.7735 80.5019 71.06 80.5019H71.78C71.9213 80.5019 72.0613 80.4739 72.1918 80.4195C72.3223 80.3651 72.4407 80.2854 72.5401 80.185C72.6396 80.0845 72.7182 79.9654 72.7714 79.8344C72.8246 79.7034 72.8513 79.5632 72.85 79.4219V76.2519C72.8513 76.1105 72.8246 75.9703 72.7714 75.8393C72.7182 75.7084 72.6396 75.5892 72.5401 75.4888C72.4407 75.3884 72.3223 75.3087 72.1918 75.2543C72.0613 75.1999 71.9213 75.1719 71.78 75.1719Z" stroke="#BE1E2D" stroke-miterlimit="10"/>
</svg>