<svg width="100" height="100" viewBox="0 0 100 100" fill="none" xmlns="http://www.w3.org/2000/svg">
<path d="M15 50.0484C15.07 49.7284 15.12 49.3984 15.2 49.0484C15.5451 47.6398 16.3555 46.389 17.5 45.4984C18.6652 44.5945 20.0954 44.0991 21.57 44.0884H28.74C28.847 44.0997 28.955 44.0788 29.05 44.0284C29.1444 43.9812 29.2266 43.9128 29.29 43.8284C30.8938 41.7734 32.9736 40.1397 35.35 39.0684C37.7374 37.9957 40.3464 37.5088 42.96 37.6484C45.3309 37.7138 47.6587 38.2975 49.78 39.3584C51.8887 40.4124 53.7366 41.9222 55.19 43.7784C55.2619 43.8867 55.3623 43.9732 55.48 44.0284C55.6001 44.0782 55.7304 44.0988 55.86 44.0884H78.28C79.8677 44.0481 81.4176 44.5765 82.65 45.5784C83.8608 46.5648 84.6713 47.9582 84.93 49.4984C84.9473 49.5638 84.9707 49.6274 85 49.6884V68.4984C84.9722 68.5634 84.9489 68.6302 84.93 68.6984C84.6727 70.2395 83.8664 71.6354 82.66 72.6284C81.4303 73.6211 79.8901 74.1487 78.31 74.1184H21.73C20.2619 74.1387 18.828 73.6748 17.65 72.7984C16.4741 71.9398 15.6272 70.7047 15.25 69.2984C15.14 68.9384 15.08 68.4984 15 68.1384V50.0484ZM42.28 65.5684C44.6502 65.5621 46.9674 64.8673 48.95 63.5684C50.9119 62.2829 52.4497 60.4458 53.37 58.2884C54.2697 56.1424 54.5038 53.7757 54.042 51.4951C53.5802 49.2144 52.4437 47.1252 50.78 45.4984C49.5192 44.2611 48.0032 43.3143 46.3381 42.7244C44.673 42.1345 42.899 41.9158 41.1405 42.0834C39.382 42.2511 37.6814 42.8011 36.1577 43.695C34.6341 44.589 33.3243 45.8051 32.32 47.2584C30.7839 49.5135 30.0904 52.2372 30.361 54.9524C30.6316 57.6675 31.8491 60.2008 33.8 62.1084C36.0677 64.3228 39.1104 65.5643 42.28 65.5684ZM69.67 50.3484H62.79C62.6367 50.3697 62.4899 50.4243 62.36 50.5084C62.229 50.5869 62.1165 50.6927 62.0302 50.8187C61.9439 50.9447 61.8858 51.0879 61.86 51.2384C61.8301 51.3903 61.8301 51.5465 61.86 51.6984C61.9217 51.9512 62.0795 52.17 62.3 52.3084C62.5195 52.4588 62.7854 52.5261 63.05 52.4984H76.5C76.7484 52.4645 76.9796 52.3524 77.16 52.1784C77.3513 51.9999 77.472 51.7585 77.5 51.4984C77.5243 51.2574 77.4604 51.0158 77.32 50.8184C77.1764 50.6158 76.9684 50.4678 76.73 50.3984C76.541 50.3483 76.3453 50.3281 76.15 50.3384L69.67 50.3484ZM69.67 65.4584H76.23C76.4053 65.4637 76.5805 65.4435 76.75 65.3984C76.9968 65.3225 77.2046 65.154 77.33 64.9284C77.4662 64.7148 77.5162 64.4574 77.47 64.2084C77.4517 64.073 77.4059 63.9429 77.3354 63.8259C77.2649 63.709 77.1712 63.6077 77.06 63.5284C76.8371 63.3584 76.5594 63.2765 76.28 63.2984H63.03C62.8761 63.2866 62.7213 63.3063 62.5752 63.3561C62.4291 63.406 62.2947 63.485 62.18 63.5884C62.0674 63.6874 61.9786 63.8104 61.92 63.9484C61.8529 64.0853 61.818 64.2358 61.818 64.3884C61.818 64.5409 61.8529 64.6914 61.92 64.8284C61.9822 64.9643 62.0706 65.0866 62.18 65.1884C62.2938 65.2925 62.4284 65.3714 62.5749 65.4196C62.7215 65.4679 62.8766 65.4845 63.03 65.4684L69.67 65.4584ZM69.67 59.0184H76.5C76.7715 59.0052 77.0283 58.8911 77.22 58.6984C77.4112 58.5099 77.5253 58.2569 77.5401 57.9888C77.5549 57.7207 77.4693 57.4568 77.3 57.2484C77.1208 57.044 76.8775 56.9065 76.61 56.8584C76.4306 56.8384 76.2494 56.8384 76.07 56.8584H62.84C62.5628 56.9072 62.3135 57.0568 62.14 57.2784C61.9704 57.4933 61.8914 57.766 61.92 58.0384C61.9478 58.3137 62.0803 58.5679 62.29 58.7484C62.5041 58.9311 62.7787 59.0274 63.06 59.0184H69.67ZM25.31 49.2084C25.3117 48.7599 25.1794 48.3211 24.93 47.9484C24.6867 47.5735 24.3391 47.2781 23.93 47.0984C23.5086 46.9277 23.0477 46.8792 22.6 46.9584C22.1564 47.0384 21.746 47.2471 21.42 47.5584C21.0932 47.868 20.8667 48.2686 20.77 48.7084C20.671 49.146 20.7094 49.6034 20.88 50.0184C21.0451 50.4407 21.3298 50.8057 21.6993 51.0686C22.0687 51.3315 22.5069 51.4808 22.96 51.4984C23.2641 51.5014 23.566 51.4472 23.85 51.3384C24.1321 51.2292 24.3902 51.0662 24.61 50.8584C24.8261 50.6508 24.9994 50.4027 25.12 50.1284C25.2436 49.8373 25.3082 49.5246 25.31 49.2084Z" stroke="#BE1E2D" stroke-miterlimit="10"/>
<path d="M43.56 15C43.8373 15.1163 44.0691 15.3199 44.22 15.58C44.3617 15.8393 44.4177 16.1369 44.38 16.43V32.43C44.38 33.34 43.99 33.71 43.06 33.71H41.5C40.55 33.71 40.18 33.34 40.18 32.39V16.39C40.1312 16.08 40.1989 15.763 40.37 15.5C40.5333 15.2651 40.7684 15.0897 41.04 15H43.56Z" stroke="#BE1E2D" stroke-miterlimit="10"/>
<path d="M67.2301 25.4996C67.2328 25.7937 67.1678 26.0846 67.0401 26.3496C66.9214 26.6163 66.7476 26.8548 66.5301 27.0496L59.0001 34.3896C58.0001 35.3396 57.0801 36.2996 56.1001 37.2296C55.8929 37.409 55.656 37.5511 55.4001 37.6496C55.1432 37.7389 54.872 37.7796 54.6001 37.7696C54.0468 37.7538 53.5221 37.5202 53.1401 37.1196C52.951 36.924 52.8038 36.6918 52.7076 36.4373C52.6113 36.1828 52.5679 35.9114 52.5801 35.6396C52.5903 35.3699 52.6548 35.1051 52.77 34.8611C52.8851 34.6171 53.0485 34.3988 53.2501 34.2196L61.5001 26.1596C62.2201 25.4496 62.9401 24.7296 63.6801 24.0296C63.9745 23.7481 64.3478 23.5632 64.7501 23.4996C65.1627 23.4286 65.5871 23.4808 65.9701 23.6496C66.3419 23.8022 66.6614 24.0592 66.8901 24.3896C67.1107 24.7178 67.2291 25.1041 67.2301 25.4996Z" stroke="#BE1E2D" stroke-miterlimit="10"/>
<path d="M19.2499 23.3797C19.5713 23.3603 19.8934 23.401 20.1999 23.4997C20.4981 23.6178 20.7675 23.7985 20.9899 24.0297L30.6599 33.5297L31.3299 34.1897C31.5499 34.3703 31.7288 34.5957 31.8546 34.8509C31.9805 35.1061 32.0505 35.3853 32.0599 35.6697C32.0795 35.9535 32.0315 36.238 31.9199 36.4997C31.8196 36.7692 31.6588 37.0121 31.4499 37.2097C31.2458 37.4131 31.0002 37.57 30.7299 37.6697C30.3249 37.8296 29.8803 37.8597 29.4575 37.7558C29.0347 37.6519 28.6546 37.4191 28.3699 37.0897L18.6899 27.5897C18.3939 27.3291 18.1197 27.0448 17.8699 26.7397C17.5995 26.4528 17.4246 26.0892 17.3691 25.6989C17.3136 25.3086 17.3803 24.9106 17.5599 24.5597C17.6982 24.2214 17.9308 23.9298 18.2299 23.7197C18.5311 23.5125 18.8846 23.3947 19.2499 23.3797Z" stroke="#BE1E2D" stroke-miterlimit="10"/>
<path d="M42.2802 65.5699C39.9094 65.5683 37.5908 64.873 35.6102 63.5699C33.6436 62.288 32.1072 60.4451 31.2002 58.2799C30.2883 56.1422 30.0443 53.7788 30.5002 51.4999C30.9756 49.2171 32.1211 47.1281 33.7902 45.4999C35.4891 43.8534 37.6308 42.7373 39.9536 42.2881C42.2765 41.8388 44.6798 42.0757 46.8702 42.9699C49.0522 43.8545 50.924 45.3644 52.2502 47.3099C53.7886 49.5706 54.4796 52.3017 54.2015 55.022C53.9235 57.7423 52.6941 60.2772 50.7302 62.1799C48.4629 64.3678 45.431 65.5842 42.2802 65.5699ZM34.0002 53.7899C33.9975 55.4022 34.482 56.9777 35.3902 58.3099C36.3053 59.6527 37.5957 60.6961 39.1002 61.3099C40.6174 61.9281 42.2818 62.0914 43.8902 61.7799C45.4908 61.4661 46.9647 60.6909 48.1302 59.5499C49.2904 58.428 50.0841 56.9814 50.4072 55.4002C50.7302 53.8189 50.5674 52.1769 49.9402 50.6899C49.3164 49.2074 48.2739 47.9389 46.9402 47.0399C45.5725 46.1461 43.9741 45.67 42.3402 45.6699C41.2544 45.6701 40.1786 45.8771 39.1702 46.2799C38.1681 46.687 37.2546 47.2847 36.4802 48.0399C35.7131 48.7935 35.1015 49.6905 34.6802 50.6799C34.2503 51.6614 34.0192 52.7185 34.0002 53.7899Z" stroke="#BE1E2D" stroke-miterlimit="10"/>
<path d="M69.6698 50.361H76.1098C76.3051 50.3507 76.5008 50.3709 76.6898 50.421C76.9247 50.4977 77.1282 50.6486 77.2698 50.851C77.3992 51.0567 77.4589 51.2987 77.4398 51.541C77.4235 51.7872 77.3166 52.0188 77.1398 52.191C76.9646 52.3593 76.7406 52.4679 76.4998 52.501H63.0798C62.8156 52.5237 62.5514 52.4568 62.3298 52.311C62.1116 52.1636 61.9523 51.9441 61.8798 51.691C61.8499 51.5425 61.8499 51.3895 61.8798 51.241C61.9068 51.0907 61.9646 50.9477 62.0498 50.821C62.1365 50.6926 62.2489 50.5837 62.3798 50.501C62.5105 50.4201 62.6573 50.3689 62.8098 50.351C62.9592 50.3309 63.1105 50.3309 63.2598 50.351C65.3898 50.351 67.4998 50.351 69.6698 50.361Z" stroke="#BE1E2D" stroke-miterlimit="10"/>
<path d="M69.6601 65.499H63.0101C62.8583 65.5169 62.7043 65.4998 62.5601 65.449C62.4154 65.4004 62.2826 65.3221 62.1701 65.219C62.0539 65.121 61.9616 64.9979 61.9001 64.859C61.8407 64.7199 61.8101 64.5702 61.8101 64.4189C61.8101 64.2677 61.8407 64.118 61.9001 63.979C61.9616 63.84 62.0539 63.7169 62.1701 63.6189C62.2826 63.5158 62.4154 63.4375 62.5601 63.389C62.7043 63.3381 62.8583 63.321 63.0101 63.339H76.2801C76.5497 63.3227 76.816 63.4044 77.0301 63.569C77.2416 63.7353 77.384 63.9739 77.4301 64.239C77.4763 64.488 77.4263 64.7453 77.2901 64.9589C77.1588 65.1796 76.9532 65.3462 76.7101 65.429C76.5416 65.4791 76.3656 65.4994 76.1901 65.489L69.6601 65.499Z" stroke="#BE1E2D" stroke-miterlimit="10"/>
<path d="M69.6302 59.0005H63.0702C62.8105 58.9872 62.5632 58.8848 62.3702 58.7105C62.1804 58.5309 62.06 58.2901 62.0302 58.0305C61.9987 57.7713 62.0639 57.5096 62.2134 57.2955C62.3628 57.0815 62.5861 56.9301 62.8402 56.8705H76.1002C76.283 56.8505 76.4674 56.8505 76.6502 56.8705C76.8961 56.9295 77.1105 57.0796 77.2502 57.2905C77.3987 57.4927 77.4729 57.7399 77.4602 57.9905C77.4383 58.2412 77.3327 58.4772 77.1602 58.6605C76.9834 58.8412 76.751 58.9574 76.5002 58.9905H69.6302V59.0005Z" stroke="#BE1E2D" stroke-miterlimit="10"/>
<path d="M25.3101 49.2097C25.3045 49.6569 25.1652 50.0923 24.9101 50.4597C24.7166 50.7378 24.4645 50.9701 24.1716 51.1403C23.8787 51.3105 23.5521 51.4145 23.2147 51.445C22.8773 51.4755 22.5373 51.4318 22.2186 51.3168C21.9 51.2019 21.6103 51.0185 21.3701 50.7797C21.0488 50.4647 20.8294 50.0606 20.7401 49.6197C20.6575 49.1788 20.7087 48.7234 20.8868 48.3118C21.065 47.9002 21.3622 47.5512 21.7401 47.3097C22.1208 47.0614 22.5656 46.9294 23.0201 46.9297C23.3248 46.9301 23.6267 46.9877 23.9101 47.0997C24.1863 47.2177 24.4375 47.3874 24.6501 47.5997C24.8689 47.8068 25.0395 48.0594 25.1501 48.3397C25.2587 48.6167 25.313 48.9121 25.3101 49.2097Z" stroke="#BE1E2D" stroke-miterlimit="10"/>
<path d="M34 53.7887C34.0022 52.1788 34.4902 50.6069 35.4 49.2787C36.3169 47.9336 37.6112 46.8898 39.12 46.2787C40.6356 45.6669 42.2968 45.5105 43.9 45.8287C45.5022 46.138 46.9773 46.9138 48.14 48.0587C49.2968 49.1829 50.0868 50.6306 50.4062 52.2117C50.7257 53.7928 50.5597 55.4336 49.93 56.9187C49.2926 58.4107 48.2279 59.6807 46.87 60.5687C45.7301 61.3085 44.4284 61.762 43.0757 61.8909C41.7229 62.0197 40.359 61.82 39.1 61.3087C38.0965 60.8872 37.1858 60.2722 36.42 59.4987C35.6561 58.7482 35.0489 57.8534 34.6335 56.8664C34.218 55.8793 34.0027 54.8196 34 53.7487V53.7887ZM40.89 50.2587C40.4328 50.2511 39.9837 50.3799 39.6 50.6287C39.2228 50.8693 38.9266 51.2177 38.75 51.6287C38.5693 52.0405 38.5204 52.4981 38.61 52.9387C38.6992 53.3826 38.9185 53.7899 39.24 54.1087C39.5673 54.426 39.9797 54.6412 40.4272 54.7282C40.8746 54.8152 41.3377 54.7702 41.76 54.5987C42.1703 54.4259 42.5189 54.1331 42.76 53.7587C43.0312 53.3938 43.1816 52.9533 43.19 52.4987C43.1843 52.2045 43.1204 51.9142 43.002 51.6448C42.8835 51.3753 42.7129 51.1319 42.5 50.9287C42.0727 50.5018 41.494 50.261 40.89 50.2587Z" stroke="#BE1E2D" stroke-miterlimit="10"/>
<path d="M40.8899 50.26C41.3477 50.2583 41.7961 50.3904 42.1799 50.64C42.5539 50.8841 42.8492 51.2315 43.0299 51.64C43.1995 52.055 43.2413 52.5111 43.1499 52.95C43.0583 53.4032 42.8317 53.818 42.4999 54.14C42.2558 54.3776 41.9628 54.5591 41.6413 54.6718C41.3198 54.7844 40.9776 54.8255 40.6386 54.7922C40.2995 54.7588 39.9719 54.6519 39.6785 54.4788C39.3851 54.3057 39.133 54.0706 38.9399 53.79C38.6888 53.4074 38.5598 52.9575 38.5699 52.5C38.5687 52.2006 38.63 51.9043 38.7499 51.63C38.8659 51.3505 39.0374 51.0974 39.254 50.886C39.4705 50.6746 39.7277 50.5093 40.0099 50.4C40.2907 50.2943 40.5901 50.2467 40.8899 50.26Z" stroke="#BE1E2D" stroke-miterlimit="10"/>
<path d="M24.8799 78.0586C24.8833 78.9732 25.068 79.878 25.4233 80.7208C25.7786 81.5636 26.2975 82.3276 26.9499 82.9686C28.2884 84.2709 30.0823 84.9996 31.9499 84.9996C33.8175 84.9996 35.6113 84.2709 36.9499 82.9686C37.6023 82.3276 38.1211 81.5636 38.4764 80.7208C38.8317 79.878 39.0164 78.9732 39.0199 78.0586H24.8799Z" stroke="#BE1E2D" stroke-miterlimit="10"/>
<path d="M60.5 78.0586C60.5034 78.9732 60.6882 79.878 61.0435 80.7208C61.3988 81.5636 61.9176 82.3276 62.57 82.9686C63.9085 84.2709 65.7024 84.9996 67.57 84.9996C69.4376 84.9996 71.2315 84.2709 72.57 82.9686C73.2224 82.3276 73.7412 81.5636 74.0965 80.7208C74.4518 79.878 74.6366 78.9732 74.64 78.0586H60.5Z" stroke="#BE1E2D" stroke-miterlimit="10"/>
</svg>