<svg width="100" height="100" viewBox="0 0 100 100" fill="none" xmlns="http://www.w3.org/2000/svg">
<path d="M88.6417 77.0357H12.6417C10.9305 77.0921 9.25133 76.5629 7.88168 75.5357C7.49168 75.4557 7.30168 75.1357 7.08168 74.8457C6.35391 73.9368 5.97132 72.7996 6.00168 71.6357C6.00168 64.3023 6.00168 56.999 6.00168 49.7257C5.98616 48.9444 6.15399 48.1703 6.49168 47.4657C6.8291 46.7643 7.32561 46.1513 7.94168 45.6757C8.7557 45.0094 9.71477 44.5436 10.7417 44.3157C11.5131 44.1742 12.2989 44.1272 13.0817 44.1757H44.8117C46.0217 44.1757 47.2117 44.1757 48.4317 44.1757C49.3017 44.1757 49.4317 44.0657 49.3417 43.1757C49.3315 43.0542 49.3114 42.9338 49.2817 42.8157C49.2317 42.2835 49.2317 41.7478 49.2817 41.2157C49.4617 40.5457 49.3917 39.8557 49.5317 39.2157C49.7907 37.6097 50.3324 36.0624 51.1317 34.6457C52.3548 32.722 54.2288 31.3023 56.4117 30.6457C57.0686 30.4369 57.7362 30.2633 58.4117 30.1257C60.9024 29.6903 63.4613 29.8618 65.8717 30.6257C66.6717 30.8857 67.4717 31.0857 68.2717 31.3757C69.9561 32.1949 71.7367 32.7996 73.5717 33.1757C75.1142 33.4564 76.7063 33.2156 78.0969 32.4913C79.4875 31.7671 80.5974 30.6005 81.2517 29.1757C81.7515 28.2969 82.1315 27.3552 82.3817 26.3757C82.6517 25.4857 82.7617 24.5557 82.9917 23.6457C83.0717 23.3357 83.0917 23.0057 83.4817 23.0157C83.5705 22.9948 83.6629 22.9948 83.7517 23.0157C83.8406 23.0437 83.9202 23.0956 83.9817 23.1657C84.0403 23.2363 84.0845 23.3179 84.1117 23.4057C84.1315 23.4946 84.1315 23.5867 84.1117 23.6757V23.8557C83.9665 24.7621 83.7594 25.6576 83.4917 26.5357C83.0339 28.2343 82.2493 29.8274 81.1817 31.2257C80.9117 31.5357 80.6717 31.8757 80.3817 32.1657C79.1104 33.3024 77.5092 34.0031 75.8117 34.1657C74.9717 34.2057 74.1317 34.2057 73.2917 34.1657C71.6523 33.8398 70.0622 33.302 68.5617 32.5657C67.6517 32.2057 66.7217 31.9157 65.7917 31.6257C64.344 31.209 62.8479 30.9837 61.3417 30.9557C59.5381 30.8784 57.7379 31.1711 56.0517 31.8157C55.2949 32.1069 54.5868 32.5115 53.9517 33.0157C53.5717 33.3757 53.0817 33.6257 52.8217 34.1057C52.26 34.7457 51.8104 35.476 51.4917 36.2657C50.8084 37.8251 50.438 39.5035 50.4017 41.2057V43.0757C50.4017 44.0257 50.5517 44.1957 51.4817 44.1857H87.9717C88.678 44.1513 89.3835 44.2672 90.0417 44.5257C90.9735 44.8265 91.8295 45.3245 92.5517 45.9857C93.0635 46.4877 93.4713 47.0858 93.7517 47.7457C93.8118 47.8391 93.8494 47.9452 93.8617 48.0557C93.8864 48.1609 93.8864 48.2704 93.8617 48.3757C94.02 50.1611 94.0534 51.9555 93.9617 53.7457V71.1357C94.0606 72.5116 93.6632 73.8775 92.8417 74.9857C92.8417 75.2157 92.6517 75.3357 92.5217 75.4857C92.0187 75.9196 91.4521 76.2737 90.8417 76.5357C90.6117 76.6357 90.3717 76.7857 90.1017 76.6557C89.6373 76.8563 89.1449 76.9845 88.6417 77.0357Z" stroke="#BE1E2D" stroke-miterlimit="10"/>
<path d="M45.7718 73.166H23.6018C23.3661 73.1924 23.1275 73.1685 22.9018 73.096C22.6778 73.0215 22.4729 72.8986 22.3018 72.736C22.1232 72.5741 21.9861 72.3718 21.9018 72.146C21.819 71.9259 21.7849 71.6906 21.8018 71.456V69.696C21.7844 69.4582 21.8185 69.2195 21.9018 68.996C21.9888 68.7746 22.1257 68.5761 22.3018 68.416C22.4701 68.2498 22.6759 68.1263 22.9018 68.056C23.1265 67.9786 23.3662 67.9547 23.6018 67.986H67.9518C68.1768 67.9561 68.4056 67.9766 68.6218 68.046C68.8431 68.1117 69.0477 68.2243 69.2218 68.376C69.3927 68.5298 69.5292 68.718 69.6223 68.9283C69.7154 69.1385 69.7629 69.3661 69.7617 69.596C69.8286 70.261 69.8286 70.931 69.7617 71.596C69.7597 71.82 69.712 72.0411 69.6217 72.246C69.5338 72.4501 69.4004 72.6313 69.2318 72.776C69.062 72.9208 68.8647 73.0297 68.6518 73.096C68.4346 73.1457 68.2089 73.1457 67.9918 73.096L45.7718 73.166Z" stroke="#BE1E2D" stroke-width="0.5" stroke-miterlimit="10"/>
<path d="M15.2318 61.8976C16.4162 61.8591 17.602 61.8958 18.7818 62.0076C19.039 62.0543 19.2929 62.1178 19.5418 62.1976C20.6618 62.5976 20.8918 62.9076 20.8918 64.0976V64.8976C20.8918 66.1376 20.6018 66.4976 19.4018 66.8976C18.8201 67.066 18.2173 67.1502 17.6118 67.1476H12.0718C11.1834 67.1675 10.3072 66.9389 9.54178 66.4876C9.35205 66.3914 9.19792 66.2373 9.10178 66.0476C8.99478 65.863 8.94599 65.6504 8.96178 65.4376C8.99179 64.9047 8.99179 64.3705 8.96178 63.8376C8.93155 63.5564 8.99106 63.2729 9.13178 63.0276C9.27539 62.7821 9.49724 62.592 9.76178 62.4876C10.4521 62.1586 11.2071 61.9878 11.9718 61.9876C12.9918 61.8876 14.0018 61.8976 15.2318 61.8976Z" stroke="#BE1E2D" stroke-width="0.5" stroke-miterlimit="10"/>
<path d="M14.6516 60.8446C13.3661 60.8964 12.0784 60.8429 10.8016 60.6846C10.4251 60.6059 10.0615 60.4746 9.72162 60.2946C9.4634 60.1941 9.24549 60.0114 9.10162 59.7746C8.95899 59.5371 8.89593 59.2604 8.92162 58.9846C8.97165 58.4992 8.97165 58.01 8.92162 57.5246C8.89161 57.2133 8.97312 56.9014 9.15162 56.6446C9.33386 56.3854 9.59805 56.1952 9.90162 56.1046C10.5286 55.8138 11.2105 55.6604 11.9016 55.6546C14.1016 55.6546 16.2916 55.5346 18.4816 55.7246C19.1436 55.7652 19.7841 55.9752 20.3416 56.3346C20.5166 56.4346 20.6616 56.5796 20.7616 56.7546C20.8618 56.9309 20.9103 57.1319 20.9016 57.3346V58.8546C20.9664 59.2026 20.891 59.5621 20.6916 59.8546C20.4971 60.1555 20.1916 60.3676 19.8416 60.4446C19.192 60.7128 18.4944 60.8455 17.7916 60.8346L14.6516 60.8446Z" stroke="#BE1E2D" stroke-width="0.5" stroke-miterlimit="10"/>
<path d="M87.8316 54.0058H88.9717C89.1756 53.9957 89.3796 54.0263 89.5717 54.0958C89.7613 54.1674 89.9347 54.2762 90.0816 54.4158C90.2239 54.5549 90.3362 54.7217 90.4116 54.9058C90.4824 55.1078 90.5096 55.3225 90.4916 55.5358C90.5316 56.2619 90.5316 56.9897 90.4916 57.7158C90.4909 57.924 90.4537 58.1305 90.3816 58.3258C90.3017 58.5183 90.1825 58.6919 90.0317 58.8358C89.8823 58.9846 89.7011 59.0974 89.5017 59.1658C89.3027 59.2353 89.0922 59.2659 88.8816 59.2558H86.6916C86.4849 59.275 86.2765 59.2477 86.0816 59.1758C85.8848 59.1069 85.7043 58.9979 85.5516 58.8558C85.3964 58.7118 85.2766 58.5338 85.2016 58.3358C85.1202 58.1431 85.0826 57.9348 85.0916 57.7258V55.5358C85.085 55.3376 85.119 55.1402 85.1916 54.9558C85.2537 54.7632 85.356 54.5859 85.4916 54.4358C85.6343 54.3029 85.8005 54.1978 85.9816 54.1258C86.1668 54.0563 86.3642 54.0256 86.5616 54.0358H87.7917L87.8316 54.0058Z" stroke="#BE1E2D" stroke-width="0.5" stroke-miterlimit="10"/>
<path d="M81.6217 61.034H82.8917C83.2564 61.0465 83.6027 61.1969 83.8608 61.4549C84.1188 61.713 84.2692 62.0593 84.2817 62.424V64.774C84.2747 65.1508 84.1203 65.5098 83.8517 65.774C83.5851 66.0392 83.2275 66.1929 82.8517 66.204H80.4317C80.2303 66.2106 80.0296 66.1766 79.8417 66.104C79.6522 66.0276 79.4791 65.9156 79.3317 65.774C79.1889 65.6276 79.0767 65.4542 79.0017 65.264C78.9212 65.0781 78.8836 64.8764 78.8917 64.674V62.534C78.8943 62.1476 79.049 61.7778 79.3222 61.5045C79.5955 61.2313 79.9653 61.0766 80.3517 61.074C80.7736 61.0312 81.1979 61.0178 81.6217 61.034Z" stroke="#BE1E2D" stroke-width="0.5" stroke-miterlimit="10"/>
<path d="M68.4316 61.7657H69.6316C69.8228 61.764 70.0127 61.7979 70.1916 61.8657C70.3716 61.9341 70.5351 62.0398 70.6716 62.1757C70.8124 62.3062 70.9218 62.4669 70.9916 62.6457C71.0724 62.8212 71.1134 63.0125 71.1116 63.2057V65.5357C71.0978 65.9129 70.9404 66.2707 70.6716 66.5357C70.407 66.8025 70.0474 66.9535 69.6716 66.9557H67.2716C67.0695 66.9589 66.8689 66.9215 66.6816 66.8457C66.4932 66.7728 66.3227 66.6602 66.1816 66.5157C66.0339 66.3752 65.918 66.2047 65.8416 66.0157C65.7704 65.827 65.7332 65.6273 65.7316 65.4257V63.3157C65.7234 63.1035 65.7609 62.8921 65.8416 62.6957C65.9178 62.5012 66.0376 62.3268 66.1916 62.1857C66.3412 62.0397 66.5204 61.9276 66.717 61.8569C66.9137 61.7861 67.1233 61.7585 67.3316 61.7757H68.4416L68.4316 61.7657Z" stroke="#BE1E2D" stroke-width="0.5" stroke-miterlimit="10"/>
<path d="M49.6519 55.534H50.8519C51.0432 55.534 51.2325 55.5718 51.4091 55.6453C51.5857 55.7188 51.746 55.8265 51.8808 55.9622C52.0155 56.0979 52.1221 56.2589 52.1944 56.436C52.2667 56.6131 52.3032 56.8027 52.3019 56.994V59.174C52.3087 59.3832 52.2723 59.5915 52.1949 59.7859C52.1174 59.9804 52.0007 60.1567 51.8519 60.304C51.6995 60.4513 51.5194 60.5669 51.3219 60.644C51.1234 60.7151 50.9119 60.7424 50.7019 60.724H48.4219C48.2097 60.7322 47.9983 60.6947 47.8019 60.614C47.6075 60.5377 47.433 60.418 47.2919 60.264C47.1457 60.1165 47.0331 59.9391 46.9619 59.744C46.8843 59.5469 46.8502 59.3354 46.8619 59.124V57.124C46.8494 56.9092 46.8835 56.6943 46.9619 56.494C47.0378 56.293 47.1535 56.1093 47.3019 55.954C47.4562 55.8042 47.6401 55.6884 47.8419 55.614C48.039 55.5364 48.2505 55.5023 48.4619 55.514H49.6119L49.6519 55.534Z" stroke="#BE1E2D" stroke-width="0.5" stroke-miterlimit="10"/>
<path d="M30.7518 61.7657H32.0118C32.1999 61.763 32.3867 61.797 32.5618 61.8657C32.7356 61.9404 32.8947 62.0454 33.0318 62.1757C33.1663 62.3055 33.272 62.4623 33.3418 62.6357C33.4136 62.8067 33.451 62.9902 33.4518 63.1757V65.5357C33.4497 65.9114 33.2986 66.271 33.0318 66.5357C32.7652 66.8008 32.4077 66.9546 32.0318 66.9657H29.4918C29.2917 66.9536 29.0954 66.9062 28.9118 66.8257C28.7329 66.7379 28.5732 66.6155 28.4418 66.4657C28.3052 66.3183 28.1997 66.1448 28.1318 65.9557C28.0703 65.7619 28.0432 65.5588 28.0518 65.3557V63.3557C28.0308 63.1415 28.0617 62.9254 28.1418 62.7257C28.2135 62.5197 28.3296 62.3319 28.4818 62.1757C28.6345 62.0239 28.819 61.9078 29.0218 61.8357C29.2237 61.7643 29.4385 61.7371 29.6518 61.7557L30.7518 61.7657Z" stroke="#BE1E2D" stroke-width="0.5" stroke-miterlimit="10"/>
<path d="M37.2118 55.5341H38.4218C38.7973 55.5471 39.1541 55.7006 39.4218 55.9641C39.6887 56.2295 39.8428 56.5878 39.8518 56.9641V59.2041C39.8501 59.4024 39.8129 59.5989 39.7418 59.7841C39.6627 59.9686 39.547 60.1353 39.4018 60.2741C39.2623 60.4134 39.0955 60.5223 38.9118 60.5941C38.7245 60.6698 38.5239 60.7072 38.3218 60.7041H35.9218C35.5241 60.7037 35.1429 60.5454 34.8618 60.2641C34.6038 59.9653 34.4712 59.5783 34.4918 59.1841V56.9441C34.4916 56.752 34.5289 56.5617 34.6018 56.3841C34.6738 56.2034 34.7828 56.0399 34.9218 55.9041C35.0555 55.7695 35.2155 55.664 35.3918 55.5941C35.5701 55.5231 35.76 55.4858 35.9518 55.4841C36.3318 55.4641 36.7518 55.5341 37.2118 55.5341Z" stroke="#BE1E2D" stroke-width="0.5" stroke-miterlimit="10"/>
<path d="M49.6616 61.7675H50.8016C50.9925 61.7575 51.1834 61.7882 51.3616 61.8575C51.5423 61.9198 51.7064 62.0224 51.8416 62.1575C51.9798 62.2885 52.0918 62.4446 52.1716 62.6175C52.2503 62.7937 52.2912 62.9845 52.2916 63.1775C52.2916 63.9675 52.2916 64.7475 52.2916 65.5375C52.2922 65.7274 52.2513 65.9151 52.1716 66.0875C52.0921 66.261 51.9839 66.4199 51.8516 66.5575C51.7121 66.687 51.5492 66.7888 51.3716 66.8575C51.1965 66.9262 51.0097 66.9601 50.8216 66.9575H48.3416C47.967 66.9453 47.6107 66.7924 47.3438 66.5292C47.0769 66.266 46.919 65.9119 46.9016 65.5375C46.8616 64.7913 46.8616 64.0436 46.9016 63.2975C46.8975 63.0986 46.935 62.901 47.0116 62.7175C47.087 62.5334 47.1993 62.3666 47.3416 62.2275C47.4811 62.0882 47.6479 61.9792 47.8316 61.9075C48.0202 61.838 48.2209 61.8074 48.4216 61.8175C48.8516 61.7575 49.2216 61.7675 49.6616 61.7675Z" stroke="#BE1E2D" stroke-width="0.5" stroke-miterlimit="10"/>
<path d="M68.4317 60.6761H67.3117C67.1041 60.6955 66.8949 60.6646 66.7017 60.5861C66.509 60.5147 66.3323 60.406 66.1817 60.2661C66.033 60.1205 65.9141 59.9473 65.8317 59.7561C65.7517 59.5627 65.711 59.3554 65.7117 59.1461V57.0261C65.7075 56.8175 65.7449 56.6101 65.8217 56.4161C65.9015 56.2206 66.0207 56.0436 66.1717 55.8961C66.3211 55.7473 66.5023 55.6345 66.7017 55.5661C66.8967 55.4949 67.105 55.4676 67.3117 55.4861H69.6717C69.8666 55.4794 70.0608 55.5134 70.2417 55.5861C70.4238 55.6654 70.5899 55.7772 70.7317 55.9161C70.8642 56.0573 70.9724 56.2195 71.0517 56.3961C71.1196 56.5819 71.1534 56.7784 71.1518 56.9761V59.0961C71.1619 59.3099 71.1314 59.5237 71.0617 59.7261C70.986 59.9269 70.8684 60.1093 70.7166 60.261C70.5649 60.4127 70.3825 60.5304 70.1818 60.6061C69.9818 60.6855 69.7659 60.7164 69.5517 60.6961L68.4317 60.6761Z" stroke="#BE1E2D" stroke-width="0.5" stroke-miterlimit="10"/>
<path d="M30.7615 55.5341H32.0215C32.2145 55.5345 32.4053 55.5753 32.5815 55.6541C32.7604 55.7238 32.9211 55.8333 33.0515 55.9741C33.1843 56.113 33.2895 56.2759 33.3615 56.4541C33.4343 56.6315 33.4684 56.8224 33.4615 57.0141V59.2441C33.4706 59.4433 33.4329 59.6419 33.3515 59.8241C33.2823 60.009 33.173 60.1763 33.0315 60.3141C32.8884 60.4536 32.7182 60.5625 32.5315 60.6341C32.3473 60.7075 32.1497 60.7416 31.9515 60.7341H29.5515C29.1667 60.729 28.7987 60.5753 28.5247 60.305C28.2506 60.0347 28.0918 59.6688 28.0815 59.2841V56.9941C28.0831 56.7925 28.1204 56.5927 28.1915 56.4041C28.2719 56.2201 28.3874 56.0537 28.5315 55.9141C28.6806 55.7747 28.8533 55.6629 29.0415 55.5841C29.2301 55.5146 29.4308 55.484 29.6315 55.4941H30.7615V55.5341Z" stroke="#BE1E2D" stroke-width="0.5" stroke-miterlimit="10"/>
<path d="M87.8219 66.2352H86.6119C86.4154 66.2277 86.2221 66.1836 86.0419 66.1052C85.8584 66.0285 85.6919 65.9164 85.5518 65.7752C85.4178 65.6277 85.3096 65.4587 85.2318 65.2752C85.1648 65.0892 85.131 64.8929 85.1319 64.6952V62.4652C85.1319 62.0928 85.2751 61.7348 85.5319 61.4652C85.7965 61.1984 86.1561 61.0473 86.5319 61.0452H89.0019C89.2035 61.0336 89.4052 61.0678 89.5919 61.1452C89.784 61.2165 89.9581 61.3292 90.1019 61.4752C90.2431 61.6189 90.3552 61.7887 90.4319 61.9752C90.4829 62.1572 90.5031 62.3465 90.4919 62.5352V64.5852C90.4967 64.8078 90.4558 65.029 90.3718 65.2352C90.29 65.4379 90.1675 65.6217 90.0118 65.7752C89.8477 65.922 89.6578 66.0373 89.4519 66.1152C89.2434 66.188 89.021 66.212 88.8018 66.1852L87.8219 66.2352Z" stroke="#BE1E2D" stroke-width="0.5" stroke-miterlimit="10"/>
<path d="M55.8519 55.5369H56.9319C57.1379 55.5145 57.3463 55.5384 57.5419 55.6069C57.7393 55.6744 57.9201 55.7833 58.0719 55.9265C58.2237 56.0697 58.343 56.2437 58.4219 56.4369C58.5033 56.6296 58.5409 56.838 58.5319 57.0469V59.2769C58.5302 59.4688 58.4929 59.6587 58.4219 59.8369C58.3459 60.0124 58.2373 60.1719 58.1019 60.3069C57.8358 60.5729 57.4779 60.7268 57.1019 60.7369H54.5919C54.2071 60.724 53.8423 60.5627 53.5739 60.2868C53.3055 60.0109 53.1542 59.6419 53.1519 59.2569V56.9669C53.152 56.7707 53.1929 56.5766 53.2719 56.3969C53.3415 56.2151 53.4508 56.0512 53.5919 55.9169C53.7314 55.7776 53.8982 55.6687 54.0819 55.5969C54.2628 55.5243 54.457 55.4902 54.6519 55.4969H55.8519V55.5369Z" stroke="#BE1E2D" stroke-width="0.5" stroke-miterlimit="10"/>
<path d="M81.5517 59.2145H80.4117C80.2171 59.2171 80.0238 59.1831 79.8417 59.1146C79.6569 59.0392 79.4875 58.9307 79.3417 58.7945C79.2026 58.6587 79.0936 58.4952 79.0217 58.3145C78.9427 58.1314 78.9019 57.934 78.9017 57.7345V55.5345C78.8951 55.3332 78.9291 55.1325 79.0017 54.9445C79.0784 54.7581 79.1904 54.5883 79.3317 54.4445C79.4786 54.3049 79.6521 54.1961 79.8417 54.1245C80.032 54.063 80.2318 54.0359 80.4317 54.0445H82.7917C82.9866 54.0378 83.1807 54.0719 83.3617 54.1445C83.5446 54.2178 83.7111 54.3265 83.8517 54.4645C83.991 54.6041 84.0999 54.7709 84.1717 54.9545C84.2475 55.1384 84.2849 55.3357 84.2817 55.5345V57.7145C84.2814 57.9172 84.2406 58.1179 84.1617 58.3045C84.0898 58.4906 83.977 58.658 83.8317 58.7945C83.6912 58.9422 83.5207 59.0581 83.3317 59.1345C83.1467 59.2064 82.9501 59.2437 82.7517 59.2445H81.5517V59.2145Z" stroke="#BE1E2D" stroke-width="0.5" stroke-miterlimit="10"/>
<path d="M87.7919 52.3558H86.5818C86.2083 52.3521 85.8505 52.2053 85.5818 51.9458C85.3158 51.6798 85.1619 51.3219 85.1519 50.9458V48.6058C85.1632 48.2319 85.3128 47.8756 85.5719 47.6058C85.8379 47.3398 86.1958 47.1859 86.5719 47.1758H89.0518C89.2546 47.176 89.4552 47.2168 89.6419 47.2958C89.8298 47.3831 89.9994 47.5053 90.1419 47.6558C90.284 47.8046 90.393 47.9818 90.4619 48.1758C90.5329 48.3673 90.5603 48.5723 90.5419 48.7758V50.8358C90.5621 51.0499 90.5313 51.2659 90.4519 51.4658C90.3761 51.6666 90.2585 51.8489 90.1067 52.0007C89.955 52.1524 89.7726 52.2701 89.5719 52.3458C89.3708 52.4208 89.1559 52.4515 88.9418 52.4358H87.7919V52.3558Z" stroke="#BE1E2D" stroke-width="0.5" stroke-miterlimit="10"/>
<path d="M74.4916 66.9674H73.3016C72.9253 66.9583 72.567 66.8043 72.3016 66.5374C72.0381 66.2696 71.8846 65.9128 71.8716 65.5374V63.2074C71.8723 63.0154 71.9097 62.8253 71.9816 62.6474C72.0535 62.4668 72.1625 62.3032 72.3016 62.1674C72.4411 62.0378 72.604 61.936 72.7816 61.8674C72.963 61.7972 73.1574 61.7666 73.3516 61.7774H75.7516C76.1121 61.7506 76.4694 61.8613 76.7516 62.0874C76.8909 62.2021 77.0059 62.3434 77.0901 62.5031C77.1742 62.6628 77.2257 62.8376 77.2416 63.0174C77.3616 63.8933 77.3616 64.7815 77.2416 65.6574C77.2039 66.0233 77.0295 66.3615 76.7533 66.6043C76.477 66.8472 76.1193 66.9769 75.7516 66.9674H74.4916Z" stroke="#BE1E2D" stroke-width="0.5" stroke-miterlimit="10"/>
<path d="M73.8519 73.1669H72.5818C72.3964 73.1677 72.2126 73.1319 72.041 73.0615C71.8694 72.9912 71.7134 72.8876 71.5818 72.7569C71.3167 72.4903 71.163 72.1327 71.1519 71.7569C71.1519 70.9769 71.1519 70.1869 71.1519 69.3969C71.1724 69.0114 71.3409 68.6486 71.6221 68.3841C71.9034 68.1196 72.2758 67.9738 72.6618 67.9769H74.9519C75.167 67.9726 75.3809 68.01 75.5818 68.0869C75.7833 68.1711 75.9666 68.2933 76.1218 68.4469C76.2719 68.6048 76.3876 68.7921 76.4619 68.9969C76.5417 69.2002 76.5726 69.4194 76.5518 69.6369V71.5369C76.5729 71.7511 76.542 71.9672 76.4619 72.1669C76.3897 72.3698 76.2736 72.5542 76.1218 72.7069C75.9671 72.8585 75.7834 72.9775 75.5818 73.0569C75.3796 73.1272 75.1657 73.1578 74.9519 73.1469H73.8519V73.1669Z" stroke="#BE1E2D" stroke-width="0.5" stroke-miterlimit="10"/>
<path d="M81.6218 73.0446H80.4218C80.2269 73.0513 80.0328 73.0172 79.8518 72.9446C79.6645 72.8789 79.4939 72.7731 79.3518 72.6346C79.2109 72.4982 79.0987 72.335 79.0218 72.1546C78.9434 71.9743 78.8993 71.781 78.8918 71.5846C78.8518 70.8418 78.8518 70.0974 78.8918 69.3546C78.8921 69.1519 78.9329 68.9513 79.0118 68.7646C79.0847 68.5762 79.1973 68.4057 79.3418 68.2646C79.4833 68.1229 79.6539 68.0137 79.8418 67.9446C80.0298 67.8719 80.2304 67.8379 80.4318 67.8446H82.7818C82.9834 67.8462 83.1832 67.8834 83.3718 67.9546C83.5543 68.0374 83.7203 68.1526 83.8618 68.2946C84.0028 68.4414 84.112 68.6158 84.1826 68.8068C84.2531 68.9978 84.2835 69.2013 84.2718 69.4046V71.5346C84.2834 71.7363 84.2492 71.9379 84.1718 72.1246C84.0978 72.3124 83.9854 72.4827 83.8418 72.6246C83.7003 72.7662 83.5297 72.8754 83.3418 72.9446C83.1552 73.0219 82.9535 73.0561 82.7518 73.0446H81.6218Z" stroke="#BE1E2D" stroke-width="0.5" stroke-miterlimit="10"/>
<path d="M30.7518 53.817H29.5518C29.1668 53.8147 28.7978 53.6634 28.5219 53.395C28.246 53.1265 28.0847 52.7618 28.0718 52.377V50.147C28.0774 49.7572 28.227 49.3832 28.4918 49.097C28.7706 48.8171 29.1468 48.6558 29.5418 48.647H31.8818C32.096 48.626 32.3121 48.6569 32.5118 48.737C32.7128 48.813 32.8964 48.9286 33.0518 49.077C33.2016 49.2313 33.3174 49.4153 33.3918 49.617C33.4712 49.817 33.502 50.0329 33.4818 50.247V52.307C33.5019 52.5081 33.471 52.7111 33.3918 52.897C33.3202 53.0867 33.2114 53.2601 33.0718 53.407C32.928 53.5483 32.7582 53.6604 32.5718 53.737C32.3832 53.8065 32.1825 53.8371 31.9818 53.827C31.5618 53.837 31.1618 53.817 30.7518 53.817Z" stroke="#BE1E2D" stroke-width="0.5" stroke-miterlimit="10"/>
<path d="M81.5918 52.3545H80.3918C80.1973 52.3563 80.0041 52.3225 79.8218 52.2545C79.6351 52.183 79.465 52.0741 79.3218 51.9345C79.1808 51.8003 79.0715 51.6363 79.0018 51.4545C78.926 51.2707 78.8886 51.0733 78.8918 50.8745C78.8918 50.1245 78.8918 49.3845 78.8918 48.6345C78.894 48.2566 79.0418 47.894 79.3044 47.6221C79.5669 47.3502 79.9241 47.19 80.3018 47.1745C81.1618 47.1345 82.0218 47.1345 82.8818 47.1745C83.2699 47.1952 83.6346 47.3668 83.8981 47.6527C84.1615 47.9385 84.3028 48.316 84.2918 48.7045V50.8745C84.2944 51.0666 84.2589 51.2573 84.1872 51.4356C84.1155 51.6138 84.0091 51.776 83.8742 51.9128C83.7393 52.0496 83.5786 52.1582 83.4013 52.2323C83.2241 52.3064 83.0339 52.3445 82.8418 52.3445C82.4018 52.3645 82.0318 52.3545 81.5918 52.3545Z" stroke="#BE1E2D" stroke-width="0.5" stroke-miterlimit="10"/>
<path d="M55.8418 53.8374H54.6918C54.4872 53.844 54.2832 53.81 54.0918 53.7374C53.8968 53.6613 53.7197 53.5455 53.5718 53.3974C53.427 53.2526 53.3146 53.0788 53.2418 52.8874C53.1723 52.6919 53.1417 52.4846 53.1518 52.2774V50.2174C53.1339 50.0106 53.1612 49.8025 53.2318 49.6074C53.2976 49.409 53.4069 49.2279 53.5518 49.0774C53.692 48.9268 53.8624 48.8075 54.0518 48.7274C54.2461 48.6515 54.4533 48.6142 54.6618 48.6174C55.4618 48.6174 56.2618 48.6174 57.0118 48.6174C57.2211 48.6166 57.4284 48.6574 57.6218 48.7374C57.813 48.8198 57.9862 48.9386 58.1318 49.0874C58.2717 49.2379 58.3804 49.4147 58.4518 49.6074C58.5286 49.8012 58.5627 50.0092 58.5518 50.2174V52.2774C58.5609 52.4864 58.5233 52.6947 58.4418 52.8874C58.362 53.0829 58.2429 53.2599 58.0918 53.4074C57.9443 53.5536 57.7669 53.6662 57.5718 53.7374C57.3729 53.8069 57.1623 53.8375 56.9518 53.8274L55.8418 53.8374Z" stroke="#BE1E2D" stroke-width="0.5" stroke-miterlimit="10"/>
<path d="M87.8016 73.0372H86.4916C86.1252 73.0246 85.7774 72.8728 85.5191 72.6126C85.2609 72.3525 85.1115 72.0036 85.1016 71.6372V69.2872C85.1037 68.9114 85.2548 68.5518 85.5216 68.2872C85.7886 68.024 86.1467 67.8736 86.5216 67.8672H88.9916C89.3894 67.8672 89.7709 68.0252 90.0522 68.3065C90.3335 68.5878 90.4916 68.9694 90.4916 69.3672V71.4772C90.5073 71.6912 90.4766 71.9061 90.4016 72.1072C90.3222 72.3088 90.2032 72.4924 90.0516 72.6472C89.9026 72.7988 89.7214 72.9149 89.5216 72.9872C89.3212 73.0656 89.1063 73.0997 88.8916 73.0872H87.8016V73.0372Z" stroke="#BE1E2D" stroke-width="0.5" stroke-miterlimit="10"/>
<path d="M11.6419 73.167H10.4319C10.2363 73.1703 10.0422 73.1328 9.86188 73.057C9.68281 72.9777 9.52004 72.8658 9.38188 72.727C9.24257 72.5875 9.13362 72.4207 9.06188 72.237C8.99319 72.0515 8.95929 71.8549 8.96188 71.657V69.657C8.94397 69.4503 8.97127 69.2421 9.04188 69.047C9.10954 68.8548 9.21494 68.678 9.35188 68.527C9.49203 68.3764 9.66241 68.2572 9.85188 68.177C10.0403 68.0923 10.2454 68.0513 10.4519 68.057C11.2511 68.007 12.0527 68.007 12.8519 68.057C13.0579 68.0562 13.262 68.097 13.4519 68.177C13.6413 68.2572 13.8117 68.3764 13.9519 68.527C14.0918 68.6776 14.2005 68.8543 14.2719 69.047C14.3407 69.2427 14.3712 69.4498 14.3619 69.657V71.657C14.3728 71.8709 14.3422 72.0848 14.2719 72.287C14.1986 72.4893 14.0826 72.6735 13.9319 72.827C13.778 72.9797 13.5941 73.0989 13.3919 73.177C13.1895 73.2467 12.9757 73.2772 12.7619 73.267H11.6119L11.6419 73.167Z" stroke="#BE1E2D" stroke-width="0.5" stroke-miterlimit="10"/>
<path d="M74.4915 55.5356H75.7015C76.0707 55.5157 76.4334 55.6385 76.7145 55.8787C76.9956 56.1188 77.1735 56.4579 77.2115 56.8256C77.3215 57.7055 77.3215 58.5957 77.2115 59.4756C77.1699 59.828 76.9989 60.1523 76.7315 60.3856C76.4563 60.6279 76.0977 60.7534 75.7315 60.7356H73.3215C73.1253 60.7354 72.9312 60.6946 72.7515 60.6156C72.5711 60.5387 72.4079 60.4265 72.2715 60.2856C72.1322 60.1461 72.0232 59.9793 71.9515 59.7956C71.8757 59.6118 71.8383 59.4144 71.8415 59.2156V56.9356C71.8543 56.5581 72.0118 56.2001 72.2815 55.9356C72.548 55.6715 72.9064 55.521 73.2815 55.5156L74.4915 55.5356Z" stroke="#BE1E2D" stroke-width="0.5" stroke-miterlimit="10"/>
<path d="M49.6019 53.8142H48.3919C48.0203 53.8102 47.6637 53.6676 47.3919 53.4142C47.1194 53.1508 46.9583 52.7929 46.9419 52.4142V50.1142C46.9645 49.7267 47.1326 49.362 47.4126 49.0932C47.6926 48.8243 48.0638 48.6711 48.4519 48.6642H50.7419C50.9633 48.6477 51.1857 48.6819 51.3919 48.7642C51.5973 48.8409 51.7821 48.9641 51.9319 49.1242C52.0876 49.2816 52.2041 49.4734 52.2719 49.6842C52.3431 49.893 52.3703 50.1143 52.3519 50.3342V52.3342C52.3536 52.5255 52.3197 52.7154 52.2519 52.8942C52.1822 53.0736 52.0767 53.2369 51.9419 53.3742C51.8114 53.515 51.6507 53.6244 51.4719 53.6942C51.2957 53.7729 51.1049 53.8138 50.9119 53.8142H49.6119H49.6019Z" stroke="#BE1E2D" stroke-width="0.5" stroke-miterlimit="10"/>
<path d="M68.4316 53.8263H67.2816C67.0808 53.8363 66.8802 53.8057 66.6916 53.7363C66.5052 53.6596 66.3354 53.5475 66.1916 53.4063C66.0441 53.2694 65.9281 53.1023 65.8516 52.9162C65.7701 52.7306 65.7324 52.5288 65.7416 52.3263V50.1563C65.751 49.782 65.9009 49.425 66.1616 49.1563C66.4217 48.8764 66.7801 48.7079 67.1616 48.6862C67.9816 48.6463 68.8016 48.6463 69.6216 48.6862C69.8302 48.682 70.0376 48.7194 70.2316 48.7963C70.4236 48.8764 70.5946 48.9996 70.7316 49.1563C70.8714 49.3068 70.9802 49.4835 71.0516 49.6762C71.1196 49.8754 71.1435 50.087 71.1216 50.2963V52.3462C71.1317 52.547 71.1011 52.7477 71.0316 52.9363C70.9626 53.1272 70.8535 53.3011 70.7116 53.4463C70.5705 53.5908 70.4 53.7033 70.2116 53.7763C70.025 53.8536 69.8233 53.8878 69.6216 53.8763L68.4316 53.8263Z" stroke="#BE1E2D" stroke-width="0.5" stroke-miterlimit="10"/>
<path d="M37.2115 61.7657H38.3015C38.5029 61.7591 38.7035 61.7931 38.8915 61.8657C39.0794 61.9348 39.25 62.044 39.3915 62.1857C39.5392 62.3262 39.6551 62.4967 39.7315 62.6857C39.8073 62.873 39.8447 63.0737 39.8415 63.2757V65.4357C39.8417 65.6375 39.8044 65.8375 39.7315 66.0257C39.6514 66.2127 39.536 66.3825 39.3915 66.5257C39.253 66.6734 39.0817 66.7865 38.8915 66.8557C38.7042 66.9315 38.5035 66.9689 38.3015 66.9657H36.0115C35.8007 66.9809 35.5892 66.9502 35.3915 66.8757C35.1921 66.8073 35.0108 66.6945 34.8615 66.5457C34.7034 66.4038 34.5773 66.23 34.4915 66.0357C34.4139 65.8387 34.3798 65.6272 34.3915 65.4157V63.3057C34.3763 63.095 34.407 62.8834 34.4815 62.6857C34.5613 62.4902 34.6804 62.3132 34.8315 62.1657C34.9846 62.0168 35.1691 61.904 35.3715 61.8357C35.5706 61.7677 35.7822 61.7438 35.9915 61.7657H37.2115Z" stroke="#BE1E2D" stroke-width="0.5" stroke-miterlimit="10"/>
<path d="M55.8015 66.9671H54.6515C54.4563 66.9654 54.2632 66.9282 54.0815 66.857C53.8995 66.782 53.7333 66.6735 53.5915 66.5371C53.4557 66.3985 53.3471 66.2357 53.2715 66.0571C53.1925 65.8774 53.1516 65.6833 53.1515 65.4871V63.267C53.1389 63.0686 53.1732 62.8699 53.2515 62.6871C53.3228 62.5032 53.4317 62.3362 53.5712 62.1967C53.7106 62.0573 53.8776 61.9484 54.0615 61.8771C54.2468 61.8084 54.444 61.7778 54.6415 61.7871H56.9915C57.1889 61.7769 57.3864 61.8075 57.5715 61.8771C57.7541 61.9477 57.9232 62.0492 58.0715 62.177C58.2133 62.3148 58.3286 62.4775 58.4115 62.657C58.4915 62.8399 58.5324 63.0375 58.5315 63.2371C58.5686 64.0038 58.5552 64.7721 58.4915 65.5371C58.4936 65.741 58.4491 65.9428 58.3615 66.1271C58.2812 66.3135 58.1618 66.4806 58.0115 66.6171C57.8605 66.754 57.6837 66.8594 57.4915 66.927C57.2983 66.9908 57.0941 67.0146 56.8915 66.997C56.5615 66.967 56.1715 66.9671 55.8015 66.9671Z" stroke="#BE1E2D" stroke-width="0.5" stroke-miterlimit="10"/>
<path d="M11.7516 53.8156H10.6016C10.3954 53.8308 10.1884 53.7991 9.99615 53.7229C9.80391 53.6467 9.63142 53.528 9.4916 53.3756C9.35236 53.2302 9.24057 53.0608 9.1616 52.8756C9.09132 52.6838 9.0607 52.4797 9.0716 52.2756V50.1656C9.05909 49.9795 9.08286 49.7927 9.1416 49.6156C9.22419 49.4305 9.34322 49.2638 9.4916 49.1256C9.6164 48.9823 9.76965 48.8665 9.9416 48.7856C10.1138 48.7029 10.3008 48.6553 10.4916 48.6456C11.3693 48.5556 12.2539 48.5556 13.1316 48.6456C13.3332 48.6467 13.5317 48.6946 13.7116 48.7856C13.8951 48.8665 14.0589 48.9861 14.1919 49.1363C14.3248 49.2865 14.4236 49.4637 14.4816 49.6556C14.5495 49.8444 14.5734 50.0462 14.5516 50.2456V52.3056C14.5609 52.5128 14.5304 52.7199 14.4616 52.9156C14.3854 53.1076 14.2695 53.2814 14.1216 53.4256C13.9755 53.576 13.7979 53.6921 13.6016 53.7656C13.4095 53.8351 13.2056 53.8657 13.0016 53.8556L11.7516 53.8156Z" stroke="#BE1E2D" stroke-width="0.5" stroke-miterlimit="10"/>
<path d="M37.2117 53.815H35.8217C35.4654 53.7949 35.1298 53.6413 34.8817 53.385C34.7518 53.2533 34.6495 53.097 34.5809 52.9253C34.5122 52.7536 34.4784 52.5699 34.4817 52.385V50.085C34.4944 49.7075 34.652 49.3494 34.9217 49.085C35.1894 48.8215 35.5462 48.6681 35.9217 48.655C36.7217 48.615 37.5217 48.615 38.3217 48.655C38.5282 48.6587 38.7321 48.7029 38.9217 48.785C39.1083 48.8702 39.2778 48.9888 39.4217 49.135C39.5586 49.286 39.664 49.4627 39.7317 49.655C39.8117 49.8477 39.8426 50.0573 39.8217 50.265V52.265C39.8419 52.4792 39.8111 52.6951 39.7317 52.895C39.6573 53.0968 39.5414 53.2807 39.3917 53.435C39.2389 53.5868 39.0545 53.7029 38.8517 53.775C38.6519 53.8552 38.4358 53.886 38.2217 53.865H37.2217L37.2117 53.815Z" stroke="#BE1E2D" stroke-width="0.5" stroke-miterlimit="10"/>
<path d="M62.2317 66.966H61.0217C60.8232 66.9651 60.6266 66.9279 60.4417 66.856C60.2547 66.7759 60.0849 66.6604 59.9417 66.516C59.8021 66.369 59.6933 66.1956 59.6217 66.006C59.5522 65.8174 59.5216 65.6167 59.5317 65.416V63.246C59.5224 63.0486 59.553 62.8513 59.6217 62.666C59.7009 62.4839 59.8127 62.3178 59.9517 62.176C60.0894 62.0345 60.2568 61.9252 60.4417 61.856C60.6265 61.7856 60.8242 61.755 61.0217 61.766H63.3017C63.5077 61.7435 63.7161 61.7675 63.9117 61.836C64.1104 61.9008 64.2917 62.0103 64.4417 62.156C64.5923 62.2961 64.7115 62.4665 64.7917 62.656C64.8717 62.8459 64.9125 63.0499 64.9117 63.256C64.9517 63.9587 64.9517 64.6632 64.9117 65.366C64.9207 65.5912 64.8833 65.8159 64.8017 66.026C64.7115 66.232 64.5825 66.4188 64.4217 66.576C64.2602 66.7291 64.0649 66.8422 63.8517 66.906C63.6353 66.974 63.4074 66.9978 63.1817 66.976H62.2317V66.966Z" stroke="#BE1E2D" stroke-width="0.5" stroke-miterlimit="10"/>
<path d="M18.0915 53.8359H16.8215C16.626 53.8392 16.4318 53.8017 16.2515 53.7259C16.0679 53.6541 15.9011 53.5452 15.7615 53.4059C15.6254 53.2658 15.5198 53.0989 15.4515 52.9159C15.3732 52.7331 15.339 52.5344 15.3515 52.3359V50.2259C15.3336 50.0192 15.3609 49.811 15.4315 49.6159C15.5051 49.4212 15.6135 49.2416 15.7515 49.0859C15.8948 48.9341 16.0688 48.8145 16.262 48.7352C16.4551 48.6559 16.6629 48.6186 16.8715 48.6259H19.2215C19.4286 48.6246 19.6335 48.669 19.8215 48.7559C20.011 48.836 20.1814 48.9553 20.3215 49.1059C20.4698 49.2517 20.5827 49.4296 20.6515 49.6259C20.7291 49.816 20.7632 50.0209 20.7515 50.2259V52.1659C20.7751 52.3924 20.7477 52.6213 20.6715 52.8359C20.5891 53.0495 20.4631 53.2436 20.3015 53.4059C20.1409 53.5648 19.9459 53.6846 19.7315 53.7559C19.5161 53.8284 19.2873 53.8523 19.0615 53.8259L18.0915 53.8359Z" stroke="#BE1E2D" stroke-width="0.5" stroke-miterlimit="10"/>
<path d="M74.4915 53.8272H73.2715C72.8945 53.8213 72.5351 53.6667 72.2715 53.3972C72.1376 53.2675 72.0313 53.112 71.9591 52.9402C71.887 52.7683 71.8503 52.5836 71.8515 52.3972V50.2872C71.8307 50.0772 71.8547 49.8653 71.9219 49.6653C71.9892 49.4653 72.0981 49.2819 72.2415 49.1272C72.3823 48.9703 72.5566 48.8473 72.7515 48.7672C72.9487 48.6881 73.1591 48.6474 73.3715 48.6472C74.1715 48.6072 74.9715 48.6072 75.7715 48.6472C75.9601 48.6432 76.1477 48.6766 76.3234 48.7454C76.499 48.8143 76.6593 48.9172 76.795 49.0482C76.9308 49.1793 77.0392 49.3359 77.1141 49.5091C77.189 49.6823 77.2289 49.8685 77.2315 50.0572C77.2815 50.8397 77.2815 51.6247 77.2315 52.4072C77.2313 52.6034 77.1905 52.7975 77.1115 52.9772C77.031 53.1581 76.9154 53.3212 76.7715 53.4572C76.625 53.5905 76.4526 53.6922 76.2651 53.7558C76.0775 53.8195 75.8789 53.8438 75.6815 53.8272H74.4915Z" stroke="#BE1E2D" stroke-width="0.5" stroke-miterlimit="10"/>
<path d="M62.2319 55.5363H63.4919C63.865 55.532 64.2246 55.6759 64.4919 55.9363C64.7541 56.2031 64.9013 56.5621 64.9019 56.9363V59.2963C64.9029 59.4842 64.869 59.6707 64.8019 59.8463C64.7347 60.0216 64.6326 60.1815 64.5019 60.3163C64.3716 60.4482 64.2193 60.5565 64.0519 60.6363C63.8762 60.7057 63.6905 60.7462 63.5019 60.7563H60.9519C60.7529 60.7195 60.5628 60.6448 60.3919 60.5363C60.2174 60.4638 60.0606 60.3546 59.9319 60.2163C59.798 60.0783 59.6926 59.9151 59.6219 59.7363C59.5518 59.5548 59.5211 59.3605 59.5319 59.1663V56.9563C59.5219 56.7653 59.5526 56.5745 59.6219 56.3963C59.6901 56.2162 59.7958 56.0526 59.932 55.9164C60.0682 55.7802 60.2318 55.6745 60.4119 55.6063C60.5881 55.5286 60.7794 55.491 60.9719 55.4963C61.3819 55.4763 61.8119 55.5363 62.2319 55.5363Z" stroke="#BE1E2D" stroke-width="0.5" stroke-miterlimit="10"/>
<path d="M24.4918 53.8242H23.2918C23.0972 53.8267 22.9039 53.7928 22.7218 53.7242C22.5383 53.6476 22.3718 53.5354 22.2318 53.3942C22.0903 53.2565 21.981 53.0891 21.9118 52.9042C21.8422 52.7226 21.8116 52.5284 21.8218 52.3342V50.2142C21.7991 50.0115 21.8231 49.8063 21.8918 49.6142C21.9553 49.4208 22.0584 49.2428 22.1944 49.0913C22.3304 48.9398 22.4963 48.8182 22.6818 48.7342C22.8678 48.6521 23.0684 48.6079 23.2718 48.6042C24.0718 48.5642 24.8718 48.5642 25.6718 48.6042C25.8749 48.6047 26.0759 48.6456 26.263 48.7246C26.4502 48.8036 26.6197 48.919 26.7618 49.0642C26.9037 49.2094 27.0128 49.3833 27.0818 49.5742C27.1544 49.7622 27.1884 49.9628 27.1818 50.1642V52.3342C27.1885 52.5291 27.1544 52.7233 27.0818 52.9042C27.0104 53.0881 26.9015 53.2551 26.7621 53.3945C26.6226 53.534 26.4556 53.6429 26.2718 53.7142C26.0903 53.7843 25.896 53.815 25.7018 53.8042C25.3418 53.8342 24.9318 53.8242 24.4918 53.8242Z" stroke="#BE1E2D" stroke-width="0.5" stroke-miterlimit="10"/>
<path d="M24.4915 60.6846H23.3415C23.1451 60.6853 22.9509 60.6444 22.7715 60.5646C22.5872 60.495 22.4225 60.3818 22.2915 60.2346C22.15 60.0969 22.0407 59.9295 21.9715 59.7446C21.8979 59.5639 21.8638 59.3696 21.8715 59.1746V56.9446C21.8615 56.7537 21.8922 56.5628 21.9615 56.3846C22.0335 56.2065 22.1387 56.0436 22.2715 55.9046C22.41 55.7688 22.5729 55.6603 22.7515 55.5846C22.9299 55.5151 23.1201 55.4812 23.3115 55.4846H25.7815C26.1538 55.4846 26.5119 55.6278 26.7815 55.8846C27.0475 56.1506 27.2014 56.5085 27.2115 56.8846V59.1846C27.2181 59.3828 27.1841 59.5801 27.1115 59.7646C27.0397 59.9483 26.9308 60.1151 26.7915 60.2546C26.6556 60.3937 26.4921 60.5027 26.3115 60.5746C26.1276 60.6504 25.9303 60.6878 25.7315 60.6846H24.4915Z" stroke="#BE1E2D" stroke-width="0.5" stroke-miterlimit="10"/>
<path d="M62.2417 53.8141H60.8617C60.4992 53.8115 60.1522 53.6663 59.8959 53.4099C59.6395 53.1536 59.4944 52.8066 59.4917 52.4441V50.0341C59.4894 49.7179 59.6033 49.4118 59.8117 49.1741C60.0166 48.9322 60.2996 48.7695 60.6117 48.7141C61.6229 48.5641 62.6506 48.5641 63.6617 48.7141C63.9965 48.7594 64.3028 48.9267 64.5217 49.1841C64.7428 49.4388 64.8605 49.767 64.8517 50.1041V52.4541C64.85 52.6427 64.8127 52.8293 64.7417 53.0041C64.6655 53.1736 64.5568 53.3265 64.4217 53.4541C64.2895 53.5833 64.1332 53.6852 63.9617 53.7541C63.7898 53.8218 63.6065 53.8557 63.4217 53.8541H62.2417V53.8141Z" stroke="#BE1E2D" stroke-width="0.5" stroke-miterlimit="10"/>
<path d="M43.3716 60.6861H42.1716C41.9754 60.6859 41.7813 60.6451 41.6016 60.5661C41.4212 60.4892 41.258 60.377 41.1216 60.2361C40.9801 60.0983 40.8709 59.931 40.8016 59.7461C40.7258 59.5658 40.6883 59.3717 40.6916 59.1761V56.9461C40.6899 56.7581 40.7239 56.5715 40.7916 56.3961C40.859 56.2231 40.9572 56.0639 41.0816 55.9261C41.2134 55.7939 41.3696 55.6887 41.5416 55.6161C41.7104 55.5363 41.8949 55.4953 42.0816 55.4961C42.9316 55.4961 43.8016 55.4961 44.6616 55.4961C45.0156 55.5037 45.3531 55.647 45.6043 55.8964C45.8556 56.1458 46.0014 56.4822 46.0116 56.8361V59.3061C46.0016 59.6672 45.8544 60.011 45.5999 60.2674C45.3453 60.5238 45.0027 60.6735 44.6416 60.6861H43.3716Z" stroke="#BE1E2D" stroke-width="0.5" stroke-miterlimit="10"/>
<path d="M43.3619 66.9658H42.2119C42.0134 66.9776 41.8149 66.9434 41.6319 66.8658C41.4507 66.7938 41.2846 66.6887 41.1419 66.5558C41.003 66.414 40.8911 66.2479 40.8119 66.0658C40.7374 65.8988 40.6966 65.7187 40.6919 65.5358V63.2058C40.6936 63.014 40.7309 62.8241 40.8019 62.6458C40.8717 62.467 40.9811 62.3063 41.1219 62.1758C41.2592 62.041 41.4225 61.9356 41.6019 61.8658C41.7797 61.795 41.9709 61.7642 42.1619 61.7758H44.5619C44.7559 61.7686 44.9494 61.8019 45.1299 61.8735C45.3104 61.9451 45.474 62.0535 45.6104 62.1917C45.7468 62.33 45.8529 62.4951 45.922 62.6765C45.9911 62.858 46.0217 63.0519 46.0119 63.2458V65.4258C46.0236 65.6308 45.9894 65.8357 45.9119 66.0258C45.843 66.2192 45.73 66.3938 45.5819 66.5358C45.4387 66.686 45.264 66.8025 45.0703 66.8769C44.8766 66.9512 44.6688 66.9816 44.4619 66.9658H43.3619Z" stroke="#BE1E2D" stroke-width="0.5" stroke-miterlimit="10"/>
<path d="M17.9018 73.1653H16.5718C16.3851 73.1683 16.1998 73.1325 16.0277 73.0602C15.8556 72.9879 15.7003 72.8807 15.5718 72.7453C15.315 72.4764 15.1748 72.117 15.1818 71.7453V69.5853C15.1625 69.3786 15.1899 69.1701 15.2618 68.9753C15.3266 68.7765 15.436 68.5952 15.5818 68.4453C15.7219 68.2947 15.8923 68.1755 16.0818 68.0953C16.2751 68.0153 16.4825 67.9745 16.6918 67.9753C17.4918 67.9353 18.2918 67.9353 19.0918 67.9753C19.285 67.9829 19.475 68.027 19.6518 68.1053C19.832 68.1816 19.9948 68.2936 20.1306 68.4345C20.2664 68.5755 20.3722 68.7424 20.4418 68.9253C20.5064 69.1117 20.5369 69.3081 20.5318 69.5053V71.6753C20.5428 71.8728 20.5121 72.0704 20.4418 72.2553C20.37 72.439 20.2611 72.6058 20.1218 72.7453C19.984 72.8868 19.8167 72.9961 19.6318 73.0653C19.4501 73.1349 19.256 73.1655 19.0618 73.1553H17.8618L17.9018 73.1653Z" stroke="#BE1E2D" stroke-width="0.5" stroke-miterlimit="10"/>
<path d="M24.5417 61.7761H25.8017C26.1726 61.7734 26.5305 61.9129 26.8017 62.1661C27.0676 62.4313 27.2184 62.7905 27.2217 63.1661V65.5361C27.21 65.9138 27.0522 66.2722 26.7817 66.5361C26.6502 66.6668 26.4941 66.7703 26.3225 66.8407C26.1509 66.911 25.9671 66.9468 25.7817 66.9461H23.3117C22.9349 66.9391 22.5759 66.7847 22.3117 66.5161C22.0498 66.2472 21.8966 65.891 21.8817 65.5161V63.2661C21.875 63.0679 21.909 62.8705 21.9817 62.6861C22.05 62.503 22.1555 62.3362 22.2917 62.1961C22.4312 62.0568 22.598 61.9478 22.7817 61.8761C22.9666 61.8057 23.1642 61.775 23.3617 61.7861C23.7417 61.7561 24.1417 61.7761 24.5417 61.7761Z" stroke="#BE1E2D" stroke-width="0.5" stroke-miterlimit="10"/>
<path d="M43.3117 53.826H42.1017C41.7242 53.8207 41.3641 53.6663 41.0999 53.3966C40.8358 53.1268 40.689 52.7635 40.6917 52.386V50.096C40.6775 49.9157 40.6993 49.7344 40.756 49.5627C40.8127 49.391 40.903 49.2323 41.0217 49.096C41.247 48.8224 41.5696 48.6467 41.9217 48.606C42.8552 48.4959 43.7983 48.4959 44.7317 48.606C45.0942 48.6346 45.4313 48.8032 45.6717 49.076C45.7917 49.2119 45.8836 49.3702 45.942 49.5419C46.0003 49.7135 46.024 49.8951 46.0117 50.076V52.376C46.0185 52.5611 45.9843 52.7455 45.9117 52.916C45.8428 53.0875 45.7409 53.2438 45.6117 53.376C45.479 53.5117 45.3187 53.6174 45.1417 53.686C44.9698 53.7536 44.7865 53.7876 44.6017 53.786C44.1917 53.836 43.7517 53.826 43.3117 53.826Z" stroke="#BE1E2D" stroke-width="0.5" stroke-miterlimit="10"/>
</svg>