<svg width="100" height="100" viewBox="0 0 100 100" fill="none" xmlns="http://www.w3.org/2000/svg">
<path d="M56.4993 47.4373C56.4093 47.3473 53.9293 44.4373 56.7693 41.9573L59.9393 39.2173C59.9393 39.2173 63.2093 37.0373 65.5593 39.5473L68.4993 36.9873L67.2393 35.6373C64.6921 32.9678 61.2186 31.3762 57.5335 31.1902C53.8485 31.0042 50.2323 32.2379 47.4293 34.6373L42.0293 39.2973L52.6793 50.7173L56.4993 47.4373Z" stroke="#BE1E2D" stroke-miterlimit="10"/>
<path d="M25.6893 53.4291C19.9193 58.4291 17.7493 68.4291 22.9293 73.9591L26.9293 78.2591C32.0693 83.7891 42.6593 82.7991 48.4293 77.8291L63.6793 64.6191L40.8993 40.2891L25.6893 53.4291Z" stroke="#BE1E2D" stroke-miterlimit="10"/>
<path d="M66.6294 46.5767L63.6294 49.1467C63.6294 49.1467 60.3894 51.6267 57.8794 48.9367L54.0894 52.2367L64.7894 63.7067L70.1994 59.0567C71.5622 57.8999 72.6755 56.478 73.4715 54.8775C74.2675 53.2769 74.7296 51.5312 74.8297 49.7464C74.9298 47.9616 74.6657 46.1751 74.0537 44.4956C73.4416 42.8161 72.4943 41.2786 71.2694 39.9767L70.0094 38.6367L67.0094 41.2067C67.0094 41.2067 69.4194 44.1567 66.6294 46.5767Z" stroke="#BE1E2D" stroke-miterlimit="10"/>
<path d="M79.8392 19.2187C75.7492 17.4187 72.0192 17.6187 69.9092 19.7787C67.7992 21.9387 68.4392 24.9887 71.7592 27.6187C75.9292 30.9187 75.1892 32.9087 74.4492 33.9187C74.4492 33.9187 73.5192 35.5687 70.4492 36.4687C70.0492 36.5587 68.5992 36.6987 68.4492 37.0687L69.9692 38.6387C72.2527 37.6972 74.2541 36.1815 75.7792 34.2387C77.4992 31.7587 76.6392 29.2387 73.0592 26.3587C69.8192 23.7787 69.7492 21.2987 70.7192 20.2687C71.6892 19.2387 74.3992 18.7287 78.5692 20.5587C78.7905 20.601 79.0192 20.5802 79.2292 20.4987C79.4174 20.4124 79.582 20.282 79.7092 20.1187C80.0292 19.7387 80.0992 19.3387 79.8392 19.2187Z" stroke="#BE1E2D" stroke-miterlimit="10"/>
<path d="M61.8592 41.0174L58.7492 43.7074C58.5226 43.895 58.337 44.1273 58.2042 44.3898C58.0713 44.6523 57.9941 44.9394 57.9772 45.2332C57.9603 45.5269 58.0041 45.821 58.106 46.097C58.2079 46.373 58.3656 46.6251 58.5692 46.8374C58.9824 47.2807 59.5538 47.543 60.1592 47.5674C60.7635 47.5976 61.3567 47.3974 61.8192 47.0074L64.9292 44.3174C65.1521 44.1273 65.3342 43.894 65.4646 43.6317C65.5949 43.3693 65.6708 43.0833 65.6876 42.7908C65.7044 42.4984 65.6619 42.2055 65.5625 41.9299C65.4631 41.6544 65.3089 41.4018 65.1092 41.1874C64.6916 40.7495 64.1223 40.488 63.518 40.4564C62.9138 40.4248 62.3203 40.6255 61.8592 41.0174Z" stroke="#BE1E2D" stroke-miterlimit="10"/>
</svg>