<svg width="100" height="100" viewBox="0 0 100 100" fill="none" xmlns="http://www.w3.org/2000/svg">
<path d="M15 34.3192V74.939C15 75.2412 15.1188 75.5311 15.3303 75.7448C15.5417 75.9585 15.8285 76.0785 16.1276 76.0785H42.3218C42.6216 76.0807 42.9084 76.2025 43.1196 76.4175C43.3309 76.6325 43.4494 76.9232 43.4494 77.2262V80.8578C43.4515 81.1593 43.571 81.4479 43.782 81.6612C43.993 81.8744 44.2786 81.9951 44.577 81.9973H73.1481C73.4472 81.9973 73.734 81.8772 73.9454 81.6635C74.1569 81.4498 74.2757 81.16 74.2757 80.8578V77.2262C74.2757 76.9232 74.3942 76.6325 74.6055 76.4175C74.8167 76.2025 75.1035 76.0807 75.4033 76.0785C75.7031 76.0807 75.9899 76.2025 76.2011 76.4175C76.4123 76.6325 76.5309 76.9232 76.5309 77.2262V80.8578C76.533 81.1593 76.6525 81.4479 76.8635 81.6612C77.0745 81.8744 77.3601 81.9951 77.6585 81.9973H83.8724C84.1715 81.9973 84.4583 81.8772 84.6697 81.6635C84.8812 81.4498 85 81.16 85 80.8578V34.3192C85 34.017 84.8812 33.7271 84.6697 33.5134C84.4583 33.2997 84.1715 33.1797 83.8724 33.1797H16.1276C15.8285 33.1797 15.5417 33.2997 15.3303 33.5134C15.1188 33.7271 15 34.017 15 34.3192Z" fill="url(#paint0_linear_4706_1652)"/>
<path d="M34.1936 68.2702C41.7159 68.2702 47.8139 62.1079 47.8139 54.5062C47.8139 46.9045 41.7159 40.7422 34.1936 40.7422C26.6713 40.7422 20.5732 46.9045 20.5732 54.5062C20.5732 62.1079 26.6713 68.2702 34.1936 68.2702Z" fill="#8F1722"/>
<path d="M34.3315 65.6353C40.456 65.6353 45.4209 60.6181 45.4209 54.429C45.4209 48.2399 40.456 43.2227 34.3315 43.2227C28.2071 43.2227 23.2422 48.2399 23.2422 54.429C23.2422 60.6181 28.2071 65.6353 34.3315 65.6353Z" fill="#F9E9EA"/>
<path d="M35.0371 53.7217C34.9398 53.7217 36.6028 47.9832 34.6072 45.4337C32.7333 43.0646 42.4192 47.1389 41.9082 49.9917C41.389 52.6314 39.1338 53.5085 35.0371 53.7217Z" fill="#8F1722"/>
<path d="M34.9888 55.4638C34.9888 55.3572 40.6673 57.2181 43.1983 55.2834C45.6319 53.4635 41.2757 63.1205 38.4689 62.4892C35.873 61.9072 35.0699 59.5954 34.9888 55.4638Z" fill="#8F1722"/>
<path d="M33.6576 55.1053C33.755 55.1053 31.6377 60.7289 33.4305 63.4014C35.1097 65.9181 25.7726 61.0732 26.5351 58.2778C27.2246 55.7119 29.5447 54.9905 33.6576 55.1053Z" fill="#8F1722"/>
<path d="M33.7636 53.513C33.7636 53.6196 28.0851 51.8735 25.5622 53.9065C23.2097 55.7838 27.2901 46.0203 30.105 46.5777C32.7171 47.0942 33.577 49.3814 33.7636 53.513Z" fill="#8F1722"/>
<path d="M65.8069 68.2702C73.3292 68.2702 79.4272 62.1079 79.4272 54.5062C79.4272 46.9045 73.3292 40.7422 65.8069 40.7422C58.2846 40.7422 52.1865 46.9045 52.1865 54.5062C52.1865 62.1079 58.2846 68.2702 65.8069 68.2702Z" fill="#8F1722"/>
<path d="M65.9443 65.6353C72.0688 65.6353 77.0337 60.6181 77.0337 54.429C77.0337 48.2399 72.0688 43.2227 65.9443 43.2227C59.8198 43.2227 54.855 48.2399 54.855 54.429C54.855 60.6181 59.8198 65.6353 65.9443 65.6353Z" fill="#F9E9EA"/>
<path d="M66.6504 53.7217C66.5531 53.7217 68.2161 47.9832 66.2205 45.4337C64.3466 43.0646 74.0325 47.1389 73.5214 49.9917C73.0023 52.6314 70.7471 53.5085 66.6504 53.7217Z" fill="#8F1722"/>
<path d="M66.6016 55.4638C66.6016 55.3572 72.2801 57.2181 74.8111 55.2834C77.2447 53.4635 72.8885 63.1205 70.0817 62.4892C67.4858 61.9072 66.6827 59.5954 66.6016 55.4638Z" fill="#8F1722"/>
<path d="M65.2953 55.1053C65.3926 55.1053 63.2754 60.7289 65.0682 63.4014C66.7474 65.9181 57.4103 61.0732 58.1728 58.2778C58.8056 55.7119 61.1581 54.9905 65.2953 55.1053Z" fill="#8F1722"/>
<path d="M65.3764 53.513C65.3764 53.6196 59.6979 51.8735 57.175 53.9065C54.8224 55.7838 58.9029 46.0203 61.7178 46.5777C64.3299 47.0942 65.1898 49.3814 65.3764 53.513Z" fill="#8F1722"/>
<path d="M84.3025 18H82.3312C82.1763 18 82.0278 18.0622 81.9182 18.1729C81.8087 18.2836 81.7471 18.4337 81.7471 18.5902V27.8373C81.7471 27.9938 81.6856 28.144 81.5761 28.2547C81.4665 28.3654 81.318 28.4275 81.1631 28.4275H70.6984C70.5435 28.4275 70.3949 28.3654 70.2854 28.2547C70.1758 28.144 70.1143 27.9938 70.1143 27.8373V26.1978C70.1186 26.0077 70.0853 25.8187 70.0163 25.6418C69.9473 25.4649 69.844 25.3038 69.7125 25.1679C69.581 25.0319 69.4239 24.9239 69.2505 24.8502C69.0771 24.7765 68.8909 24.7385 68.7028 24.7386C68.5146 24.7385 68.3284 24.7765 68.155 24.8502C67.9816 24.9239 67.8245 25.0319 67.693 25.1679C67.5615 25.3038 67.4582 25.4649 67.3892 25.6418C67.3202 25.8187 67.2869 26.0077 67.2912 26.1978V27.8373C67.2923 27.9144 67.2782 27.991 67.2498 28.0626C67.2213 28.1341 67.179 28.1993 67.1254 28.2542C67.0719 28.3091 67.008 28.3527 66.9376 28.3825C66.8672 28.4122 66.7916 28.4275 66.7153 28.4275H66.6666C66.516 28.4212 66.3736 28.3562 66.2692 28.2462C66.1649 28.1362 66.1067 27.9897 66.1069 27.8373V27.1077C66.1069 26.4554 65.8505 25.8299 65.3941 25.3687C64.9377 24.9075 64.3187 24.6484 63.6732 24.6484H54.6687C54.0232 24.6484 53.4042 24.9075 52.9478 25.3687C52.4914 25.8299 52.235 26.4554 52.235 27.1077V27.8373C52.235 27.9938 52.1735 28.144 52.064 28.2547C51.9544 28.3654 51.8059 28.4275 51.651 28.4275H51.2616C51.1095 28.4233 50.9651 28.3592 50.859 28.249C50.753 28.1387 50.6937 27.991 50.6937 27.8373V26.0502C50.6948 25.8626 50.659 25.6766 50.5885 25.503C50.5179 25.3295 50.414 25.1718 50.2827 25.0391C50.1514 24.9065 49.9954 24.8014 49.8236 24.7301C49.6519 24.6588 49.4679 24.6227 49.2822 24.6238C48.9078 24.6238 48.5488 24.7741 48.2841 25.0416C48.0194 25.3091 47.8707 25.6719 47.8707 26.0502V27.8373C47.8718 27.9144 47.8577 27.991 47.8292 28.0626C47.8007 28.1341 47.7585 28.1993 47.7049 28.2542C47.6513 28.3091 47.5874 28.3527 47.517 28.3825C47.4466 28.4122 47.371 28.4275 47.2947 28.4275H38.2091C38.0542 28.4275 37.9056 28.4897 37.7961 28.6004C37.6865 28.7111 37.625 28.8612 37.625 29.0178V30.6573C37.625 30.8139 37.6865 30.964 37.7961 31.0747C37.9056 31.1854 38.0542 31.2476 38.2091 31.2476H84.3025C84.4552 31.2476 84.6017 31.1862 84.7098 31.0771C84.8178 30.9679 84.8784 30.8199 84.8784 30.6655V18.5902C84.8795 18.5131 84.8654 18.4365 84.837 18.365C84.8085 18.2934 84.7662 18.2283 84.7127 18.1734C84.6591 18.1184 84.5952 18.0748 84.5248 18.0451C84.4544 18.0153 84.3788 18 84.3025 18Z" fill="#8F1722"/>
<path d="M46.9378 75.168H46.2158C45.6244 75.168 45.145 75.6524 45.145 76.2501V79.4226C45.145 80.0202 45.6244 80.5047 46.2158 80.5047H46.9378C47.5292 80.5047 48.0086 80.0202 48.0086 79.4226V76.2501C48.0086 75.6524 47.5292 75.168 46.9378 75.168Z" fill="#F9E9EA"/>
<path d="M51.9022 75.168H51.1802C50.5888 75.168 50.1094 75.6524 50.1094 76.2501V79.4226C50.1094 80.0202 50.5888 80.5047 51.1802 80.5047H51.9022C52.4936 80.5047 52.973 80.0202 52.973 79.4226V76.2501C52.973 75.6524 52.4936 75.168 51.9022 75.168Z" fill="#F9E9EA"/>
<path d="M56.8753 75.168H56.1533C55.5619 75.168 55.0825 75.6524 55.0825 76.2501V79.4226C55.0825 80.0202 55.5619 80.5047 56.1533 80.5047H56.8753C57.4667 80.5047 57.9461 80.0202 57.9461 79.4226V76.2501C57.9461 75.6524 57.4667 75.168 56.8753 75.168Z" fill="#F9E9EA"/>
<path d="M61.8397 75.168H61.1177C60.5263 75.168 60.0469 75.6524 60.0469 76.2501V79.4226C60.0469 80.0202 60.5263 80.5047 61.1177 80.5047H61.8397C62.4311 80.5047 62.9105 80.0202 62.9105 79.4226V76.2501C62.9105 75.6524 62.4311 75.168 61.8397 75.168Z" fill="#F9E9EA"/>
<path d="M66.8123 75.168H66.0903C65.4989 75.168 65.0195 75.6524 65.0195 76.2501V79.4226C65.0195 80.0202 65.4989 80.5047 66.0903 80.5047H66.8123C67.4037 80.5047 67.8831 80.0202 67.8831 79.4226V76.2501C67.8831 75.6524 67.4037 75.168 66.8123 75.168Z" fill="#F9E9EA"/>
<path d="M71.7772 75.168H71.0552C70.4638 75.168 69.9844 75.6524 69.9844 76.2501V79.4226C69.9844 80.0202 70.4638 80.5047 71.0552 80.5047H71.7772C72.3686 80.5047 72.848 80.0202 72.848 79.4226V76.2501C72.848 75.6524 72.3686 75.168 71.7772 75.168Z" fill="#F9E9EA"/>
<defs>
<linearGradient id="paint0_linear_4706_1652" x1="15" y1="57.5926" x2="85" y2="57.5926" gradientUnits="userSpaceOnUse">
<stop stop-color="#BE1E2D"/>
<stop offset="1" stop-color="#8F1722"/>
</linearGradient>
</defs>
</svg>