<svg width="100" height="100" viewBox="0 0 100 100" fill="none" xmlns="http://www.w3.org/2000/svg">
<path d="M15 50.0526C15.0656 49.7306 15.123 49.4005 15.1968 49.0865C15.5294 47.6722 16.3388 46.4096 17.4937 45.5036C18.6486 44.5975 20.0814 44.1011 21.5597 44.0947H28.7343C28.8412 44.0991 28.9475 44.0771 29.0435 44.0307C29.1395 43.9842 29.2221 43.9149 29.2837 43.8291C30.8755 41.7822 32.9535 40.1493 35.3362 39.0728C37.7189 37.9964 40.3338 37.5092 42.9524 37.6538C45.3261 37.7175 47.6555 38.3006 49.7705 39.3605C51.8855 40.4205 53.7329 41.9306 55.178 43.7807C55.2523 43.8863 55.3535 43.9709 55.4715 44.026C55.5895 44.0811 55.7202 44.1048 55.8504 44.0947H78.2763C79.8678 44.0519 81.4208 44.5788 82.6458 45.5772C83.8708 46.5756 84.6842 47.9774 84.9344 49.5212C84.9476 49.5856 84.9697 49.6479 85 49.7064V68.4737C84.9699 68.5351 84.9478 68.6 84.9344 68.6669C84.6832 70.2036 83.8738 71.5991 82.6558 72.5951C81.4379 73.5912 79.8938 74.1206 78.3091 74.0854H21.7319C20.2612 74.1177 18.8222 73.6638 17.6459 72.7964C16.4696 71.9291 15.6244 70.6987 15.246 69.303C15.1394 68.9407 15.082 68.522 15 68.1355V50.0526ZM42.2801 65.5672C44.6523 65.5688 46.9718 64.8797 48.9452 63.5871C50.9187 62.2945 52.4575 60.4565 53.3672 58.3052C54.2769 56.154 54.5166 53.7862 54.056 51.5013C53.5954 49.2163 52.4551 47.1167 50.7794 45.468C49.1037 43.8192 46.9678 42.6953 44.6416 42.2384C42.3155 41.7814 39.9036 42.0119 37.7108 42.9007C35.5181 43.7895 33.643 45.2967 32.3225 47.2318C31.002 49.1669 30.2955 51.443 30.2923 53.7723C30.2901 56.8969 31.5516 59.8946 33.7995 62.1064C36.0474 64.3181 39.0978 65.563 42.2801 65.5672ZM69.6749 50.3505H63.2383C63.0882 50.3384 62.9374 50.3384 62.7873 50.3505C62.6341 50.3726 62.4874 50.4263 62.3569 50.508C62.2263 50.5896 62.1148 50.6975 62.0296 50.8244C61.9444 50.9514 61.8876 51.0946 61.8627 51.2446C61.8378 51.3946 61.8455 51.5481 61.8853 51.6951C61.9557 51.9466 62.1146 52.1655 62.3337 52.3129C62.5529 52.4603 62.8182 52.5266 63.0825 52.5002H76.497C76.7478 52.4684 76.9802 52.3539 77.156 52.1754C77.3318 51.997 77.4406 51.7651 77.4646 51.5179C77.4823 51.2765 77.4155 51.0364 77.2754 50.8373C77.1352 50.6382 76.9301 50.492 76.6938 50.423C76.5041 50.3729 76.3079 50.3511 76.1116 50.3586L69.6749 50.3505ZM69.6749 65.4626H76.2346C76.4091 65.4655 76.583 65.4438 76.7512 65.3981C76.9958 65.3158 77.2027 65.1507 77.3349 64.9325C77.467 64.7142 77.5159 64.4569 77.4728 64.2066C77.4264 63.937 77.2783 63.6945 77.0579 63.5273C76.8376 63.3602 76.5612 63.2808 76.2838 63.3048H63.0251C62.8722 63.2919 62.7183 63.3103 62.5731 63.3588C62.4279 63.4073 62.2946 63.485 62.1816 63.5868C62.0685 63.6886 61.9783 63.8124 61.9166 63.9503C61.8548 64.0881 61.8229 64.2371 61.8229 64.3877C61.8229 64.5383 61.8548 64.6873 61.9166 64.8252C61.9783 64.9631 62.0685 65.0868 62.1816 65.1886C62.2946 65.2905 62.4279 65.3681 62.5731 65.4166C62.7183 65.4652 62.8722 65.4836 63.0251 65.4706L69.6749 65.4626ZM69.6749 59.0216H76.0788C76.229 59.0297 76.3796 59.0297 76.5298 59.0216C76.8019 59.0061 77.0586 58.8926 77.2507 58.7029C77.4429 58.5131 77.557 58.2605 77.5712 57.9932C77.5854 57.726 77.4987 57.463 77.3278 57.2546C77.1568 57.0463 76.9135 56.9071 76.6446 56.8639C76.4621 56.8438 76.2778 56.8438 76.0952 56.8639H63.2957C63.1427 56.8559 62.9894 56.8559 62.8365 56.8639C62.5601 56.9103 62.312 57.058 62.1422 57.2771C61.9725 57.4961 61.8937 57.7703 61.9218 58.0442C61.9499 58.3181 62.0828 58.5713 62.2937 58.7527C62.5045 58.9342 62.7776 59.0302 63.0579 59.0216H69.6749ZM25.3069 49.2072C25.3117 48.7605 25.1817 48.3224 24.9332 47.9481C24.6848 47.5738 24.3291 47.2802 23.9109 47.1041C23.4927 46.9281 23.0308 46.8775 22.5835 46.9589C22.1361 47.0402 21.7232 47.2498 21.397 47.5612C21.0707 47.8726 20.8457 48.2718 20.7502 48.7086C20.6547 49.1454 20.693 49.6002 20.8604 50.0156C21.0278 50.4311 21.3166 50.7885 21.6906 51.043C22.0646 51.2974 22.5069 51.4375 22.9618 51.4455C23.2661 51.4519 23.5686 51.3988 23.8517 51.2894C24.1349 51.18 24.3931 51.0164 24.6113 50.8082C24.8295 50.5999 25.0034 50.3511 25.1228 50.0763C25.2422 49.8014 25.3048 49.506 25.3069 49.2072Z" fill="url(#paint0_linear_4706_1657)"/>
<path d="M43.5593 15C43.8373 15.1173 44.0682 15.3212 44.2164 15.5802C44.3646 15.8392 44.4218 16.139 44.3792 16.4331C44.3792 21.7549 44.3792 27.0768 44.3792 32.4066C44.3792 33.3164 43.9857 33.6948 43.0591 33.6948H41.5176C40.5664 33.6948 40.1974 33.3245 40.1974 32.3744V26.5051C40.1974 23.1236 40.1974 19.7502 40.1974 16.3687C40.1573 16.0801 40.2193 15.7867 40.3731 15.5376C40.5268 15.2885 40.7629 15.0987 41.042 15H43.5593Z" fill="url(#paint1_linear_4706_1657)"/>
<path d="M67.2319 25.4643C67.23 25.7559 67.1663 26.0439 67.0449 26.31C66.9235 26.5762 66.747 26.8146 66.5267 27.0101L58.9995 34.393C58.0319 35.343 57.0807 36.3011 56.0968 37.227C55.8954 37.4105 55.6592 37.5532 55.4017 37.647C55.1442 37.7408 54.8704 37.7839 54.5959 37.7738C54.0415 37.7534 53.5181 37.5176 53.1408 37.1183C52.7635 36.719 52.5632 36.1889 52.584 35.6446C52.6047 35.1003 52.8449 34.5864 53.2515 34.2159L61.4921 26.1647C62.2137 25.4482 62.9353 24.7316 63.6732 24.0311C63.9625 23.7335 64.339 23.5317 64.7505 23.4538C65.1619 23.3759 65.5878 23.4257 65.9691 23.5964C66.3439 23.7506 66.6638 24.0102 66.8885 24.3426C67.1132 24.675 67.2327 25.0653 67.2319 25.4643Z" fill="url(#paint2_linear_4706_1657)"/>
<path d="M19.2481 23.3816C19.5714 23.3661 19.8944 23.4184 20.1955 23.535C20.4967 23.6516 20.7691 23.8298 20.9946 24.0579L30.6619 33.5583L31.3343 34.2185C31.5535 34.4034 31.7316 34.6308 31.8572 34.8864C31.9828 35.142 32.0532 35.4203 32.0642 35.7039C32.0751 35.9876 32.0263 36.2703 31.9208 36.5345C31.8152 36.7988 31.6553 37.0387 31.4509 37.2394C31.2465 37.4401 31.0021 37.5972 30.733 37.7008C30.4639 37.8044 30.1759 37.8524 29.8871 37.8416C29.5983 37.8309 29.3148 37.7617 29.0545 37.6383C28.7941 37.515 28.5625 37.3402 28.3742 37.1249L18.6905 27.6245C18.4035 27.3427 18.1001 27.0771 17.8705 26.7711C17.5994 26.4814 17.4244 26.1175 17.3688 25.7278C17.3131 25.3381 17.3794 24.9411 17.5589 24.5892C17.6958 24.252 17.927 23.9596 18.2259 23.7459C18.5248 23.5322 18.8792 23.4059 19.2481 23.3816Z" fill="url(#paint3_linear_4706_1657)"/>
<path d="M42.2807 65.5695C39.907 65.5695 37.5868 64.878 35.6135 63.5827C33.6402 62.2873 32.1027 60.4463 31.1955 58.2926C30.2882 56.1389 30.0521 53.7693 30.517 51.4838C30.9818 49.1982 32.1268 47.0995 33.8069 45.4531C35.4871 43.8068 37.6269 42.6869 39.9555 42.2351C42.2841 41.7834 44.6969 42.0201 46.8884 42.9153C49.08 43.8105 50.9518 45.324 52.267 47.2642C53.5821 49.2044 54.2816 51.4841 54.2767 53.8147C54.2702 56.9345 53.0034 59.9243 50.7544 62.1281C48.5055 64.3318 45.4579 65.5695 42.2807 65.5695ZM33.9991 53.7906C33.9974 55.3989 34.4816 56.9715 35.3902 58.3097C36.2989 59.6478 37.5912 60.6913 39.1039 61.3083C40.6165 61.9252 42.2815 62.0878 43.8883 61.7756C45.4951 61.4634 46.9715 60.6904 48.1308 59.5543C49.2902 58.4182 50.0804 56.97 50.4015 55.3929C50.7227 53.8159 50.5603 52.1807 49.935 50.6942C49.3097 49.2077 48.2495 47.9367 46.8885 47.0419C45.5275 46.147 43.9268 45.6686 42.2889 45.667C41.2013 45.6659 40.1242 45.8752 39.119 46.2829C38.1138 46.6905 37.2003 47.2886 36.4305 48.043C35.6607 48.7973 35.0498 49.6932 34.6326 50.6793C34.2154 51.6655 34.0001 52.7227 33.9991 53.7906Z" fill="white"/>
<path d="M69.6751 50.3603C71.8234 50.3603 73.9635 50.3603 76.1118 50.3603C76.3081 50.3529 76.5043 50.3746 76.694 50.4247C76.9301 50.4991 77.1331 50.6508 77.2689 50.8545C77.4047 51.0582 77.4652 51.3016 77.4402 51.5438C77.4173 51.7874 77.3121 52.0165 77.1412 52.1946C76.9703 52.3726 76.7435 52.4893 76.4972 52.5261H63.0827C62.8184 52.5525 62.5531 52.4861 62.3339 52.3387C62.1148 52.1913 61.9559 51.9725 61.8855 51.7209C61.8457 51.574 61.838 51.4205 61.8629 51.2705C61.8878 51.1204 61.9446 50.9773 62.0298 50.8503C62.115 50.7234 62.2265 50.6155 62.3571 50.5338C62.4876 50.4522 62.6343 50.3985 62.7875 50.3764C62.9375 50.3643 63.0884 50.3643 63.2385 50.3764C65.3867 50.3522 67.5268 50.3522 69.6751 50.3603Z" fill="white"/>
<path d="M69.6586 65.4628H63.0088C62.8559 65.4757 62.7021 65.4573 62.5568 65.4088C62.4116 65.3603 62.2783 65.2826 62.1653 65.1808C62.0522 65.079 61.962 64.9552 61.9003 64.8173C61.8385 64.6795 61.8066 64.5305 61.8066 64.3799C61.8066 64.2293 61.8385 64.0803 61.9003 63.9424C61.962 63.8045 62.0522 63.6808 62.1653 63.579C62.2783 63.4771 62.4116 63.3995 62.5568 63.351C62.7021 63.3024 62.8559 63.284 63.0088 63.297H76.2839C76.5545 63.2833 76.8208 63.3675 77.0324 63.5337C77.2439 63.6999 77.3861 63.9365 77.4319 64.1987C77.475 64.4491 77.4261 64.7064 77.294 64.9246C77.1618 65.1429 76.9549 65.3079 76.7103 65.3903C76.5421 65.436 76.3682 65.4577 76.1937 65.4547L69.6586 65.4628Z" fill="white"/>
<path d="M69.6335 59.0002H63.0738C62.811 58.9872 62.5615 58.8827 62.37 58.7055C62.1785 58.5282 62.0577 58.2898 62.029 58.0329C62.0004 57.7761 62.0659 57.5176 62.2138 57.3039C62.3617 57.0902 62.5822 56.9352 62.836 56.8667C62.9889 56.8586 63.1422 56.8586 63.2952 56.8667H76.0947C76.2773 56.8465 76.4616 56.8465 76.6441 56.8667C76.8904 56.9331 77.1057 57.0811 77.2535 57.2856C77.4013 57.4901 77.4726 57.7385 77.4552 57.9887C77.4378 58.2388 77.3329 58.4754 77.1582 58.6583C76.9834 58.8412 76.7497 58.9592 76.4965 58.9922C76.3463 59.0003 76.1958 59.0003 76.0455 58.9922L69.6335 59.0002Z" fill="white"/>
<path d="M25.3073 49.2082C25.3041 49.6553 25.166 50.0914 24.9105 50.4615C24.655 50.8316 24.2935 51.1191 23.8718 51.2876C23.45 51.4561 22.9868 51.4981 22.5408 51.4084C22.0947 51.3186 21.6857 51.1011 21.3654 50.7833C21.0452 50.4654 20.828 50.0615 20.7413 49.6226C20.6547 49.1837 20.7024 48.7294 20.8785 48.317C21.0547 47.9047 21.3512 47.5529 21.7309 47.306C22.1105 47.0591 22.5561 46.9281 23.0114 46.9297C23.315 46.9297 23.6156 46.9888 23.8958 47.1036C24.1759 47.2184 24.4301 47.3866 24.6436 47.5985C24.8572 47.8104 25.0258 48.0618 25.1397 48.3381C25.2536 48.6144 25.3106 48.9101 25.3073 49.2082Z" fill="white"/>
<path d="M33.9985 53.7916C34.0002 52.1833 34.4875 50.6116 35.3988 49.2752C36.3101 47.9389 37.6046 46.8979 39.1185 46.2839C40.6324 45.6699 42.2977 45.5105 43.9038 45.8258C45.51 46.1411 46.9849 46.917 48.1419 48.0554C49.299 49.1937 50.0862 50.6434 50.4042 52.2211C50.7222 53.7988 50.5565 55.4337 49.9282 56.919C49.2999 58.4042 48.2371 59.6732 46.8743 60.5654C45.5115 61.4576 43.9099 61.9329 42.2719 61.9313C41.1844 61.9303 40.1077 61.7189 39.1033 61.3093C38.099 60.8996 37.1866 60.2998 36.4184 59.5439C35.6501 58.7881 35.041 57.8911 34.6258 56.9041C34.2106 55.9171 33.9975 54.8595 33.9985 53.7916ZM40.8944 50.2571C40.436 50.2539 39.9871 50.3846 39.6045 50.6325C39.2219 50.8804 38.923 51.2343 38.7457 51.6494C38.5684 52.0644 38.5207 52.5218 38.6088 52.9635C38.6968 53.4052 38.9165 53.8113 39.2401 54.1301C39.5636 54.4489 39.9764 54.6661 40.4259 54.7541C40.8754 54.8421 41.3414 54.797 41.7648 54.6244C42.1881 54.4518 42.5496 54.1595 42.8034 53.7847C43.0573 53.41 43.1919 52.9696 43.1903 52.5195C43.186 51.9222 42.943 51.3504 42.5136 50.9272C42.0842 50.5041 41.5027 50.2635 40.8944 50.2571Z" fill="url(#paint4_linear_4706_1657)"/>
<path d="M40.8947 50.2578C41.3517 50.2594 41.7979 50.3939 42.1771 50.6444C42.5563 50.8948 42.8514 51.25 43.0251 51.665C43.1989 52.08 43.2435 52.5362 43.1534 52.9761C43.0632 53.416 42.8423 53.8198 42.5186 54.1365C42.1949 54.4532 41.7829 54.6687 41.3346 54.7556C40.8863 54.8426 40.4218 54.7972 39.9997 54.6251C39.5777 54.453 39.2171 54.162 38.9633 53.7888C38.7096 53.4156 38.5742 52.977 38.5742 52.5283C38.5742 52.2294 38.6343 51.9335 38.751 51.6575C38.8677 51.3816 39.0388 51.1309 39.2544 50.92C39.47 50.709 39.7258 50.542 40.0073 50.4283C40.2888 50.3147 40.5904 50.2568 40.8947 50.2578Z" fill="white"/>
<path d="M24.8804 78.0586C24.8804 79.8992 25.625 81.6645 26.9506 82.966C28.2761 84.2675 30.0739 84.9987 31.9484 84.9987C33.823 84.9987 35.6208 84.2675 36.9463 82.966C38.2718 81.6645 39.0165 79.8992 39.0165 78.0586H24.8804Z" fill="url(#paint5_linear_4706_1657)"/>
<path d="M60.4912 78.0586C60.4912 79.8992 61.2359 81.6645 62.5614 82.966C63.8869 84.2675 65.6847 84.9987 67.5593 84.9987C69.4338 84.9987 71.2316 84.2675 72.5571 82.966C73.8827 81.6645 74.6273 79.8992 74.6273 78.0586H60.4912Z" fill="url(#paint6_linear_4706_1657)"/>
<defs>
<linearGradient id="paint0_linear_4706_1657" x1="15" y1="55.8656" x2="85" y2="55.8656" gradientUnits="userSpaceOnUse">
<stop stop-color="#BE1E2D"/>
<stop offset="1" stop-color="#8F1722"/>
</linearGradient>
<linearGradient id="paint1_linear_4706_1657" x1="40.181" y1="24.3474" x2="44.3874" y2="24.3474" gradientUnits="userSpaceOnUse">
<stop stop-color="#BE1E2D"/>
<stop offset="1" stop-color="#8F1722"/>
</linearGradient>
<linearGradient id="paint2_linear_4706_1657" x1="52.5464" y1="30.5848" x2="67.2319" y2="30.5848" gradientUnits="userSpaceOnUse">
<stop stop-color="#BE1E2D"/>
<stop offset="1" stop-color="#8F1722"/>
</linearGradient>
<linearGradient id="paint3_linear_4706_1657" x1="17.313" y1="30.5954" x2="32.0148" y2="30.5954" gradientUnits="userSpaceOnUse">
<stop stop-color="#BE1E2D"/>
<stop offset="1" stop-color="#8F1722"/>
</linearGradient>
<linearGradient id="paint4_linear_4706_1657" x1="33.9985" y1="53.7997" x2="50.5617" y2="53.7997" gradientUnits="userSpaceOnUse">
<stop stop-color="#BE1E2D"/>
<stop offset="1" stop-color="#8F1722"/>
</linearGradient>
<linearGradient id="paint5_linear_4706_1657" x1="24.8804" y1="81.432" x2="39.0165" y2="81.432" gradientUnits="userSpaceOnUse">
<stop stop-color="#BE1E2D"/>
<stop offset="1" stop-color="#8F1722"/>
</linearGradient>
<linearGradient id="paint6_linear_4706_1657" x1="60.4912" y1="81.432" x2="74.6273" y2="81.432" gradientUnits="userSpaceOnUse">
<stop stop-color="#BE1E2D"/>
<stop offset="1" stop-color="#8F1722"/>
</linearGradient>
</defs>
</svg>