<svg width="100" height="100" viewBox="0 0 100 100" fill="none" xmlns="http://www.w3.org/2000/svg">
<path d="M80.8723 28.0526H58.808L59.011 28.9935H38.3589L38.5884 28.0437H29.2861V25.0078H20.6016V28.0526H19.1454C18.4708 28.0514 17.8027 28.1839 17.179 28.4424C16.5554 28.701 15.9885 29.0805 15.5107 29.5595C15.0329 30.0384 14.6536 30.6072 14.3944 31.2336C14.1352 31.86 14.0012 32.5315 14 33.21V69.9777C13.9988 70.6577 14.1311 71.3312 14.3893 71.9596C14.6475 72.588 15.0264 73.159 15.5045 73.6397C15.9825 74.1205 16.5502 74.5017 17.175 74.7614C17.7998 75.021 18.4694 75.1541 19.1454 75.1529H28.1211C24.531 72.5933 21.8433 68.9515 20.4468 64.7541C19.0504 60.5568 19.0175 56.0215 20.3529 51.8041C21.6883 47.5867 24.3228 43.9058 27.8754 41.2937C31.428 38.6817 35.7146 37.2739 40.1152 37.2739C44.5159 37.2739 48.8024 38.6817 52.355 41.2937C55.9077 43.9058 58.5422 47.5867 59.8776 51.8041C61.213 56.0215 61.1801 60.5568 59.7836 64.7541C58.3871 68.9515 55.6995 72.5933 52.1093 75.1529H80.8723C81.5464 75.1529 82.2139 75.0192 82.8366 74.7595C83.4593 74.4997 84.025 74.1191 84.5012 73.6392C84.9775 73.1594 85.355 72.5897 85.6122 71.963C85.8694 71.3362 86.0012 70.6646 86 69.9866V33.21C86 32.5327 85.8674 31.8621 85.6097 31.2363C85.352 30.6106 84.9743 30.042 84.4981 29.5631C84.022 29.0842 83.4567 28.7043 82.8346 28.4451C82.2124 28.186 81.5456 28.0526 80.8723 28.0526Z" fill="url(#paint0_linear_4706_1650)"/>
<path d="M78.9926 67.7511C79.0138 68.1274 78.9584 68.5041 78.8298 68.8581C78.7012 69.2121 78.5022 69.536 78.2448 69.81C77.9874 70.0839 77.6772 70.3021 77.333 70.4513C76.9889 70.6004 76.6181 70.6774 76.2434 70.6774C75.8686 70.6774 75.4978 70.6004 75.1537 70.4513C74.8095 70.3021 74.4993 70.0839 74.2419 69.81C73.9846 69.536 73.7855 69.2121 73.6569 68.8581C73.5283 68.5041 73.473 68.1274 73.4942 67.7511V47.2456C73.534 46.5394 73.841 45.8752 74.3522 45.3893C74.8634 44.9035 75.54 44.6328 76.2434 44.6328C76.9467 44.6328 77.6234 44.9035 78.1346 45.3893C78.6458 45.8752 78.9528 46.5394 78.9926 47.2456V67.7511Z" fill="url(#paint1_radial_4706_1650)"/>
<path d="M80.3959 33.8359H66.8926V39.9964H80.3959V33.8359Z" fill="url(#paint2_radial_4706_1650)"/>
<path d="M57.087 21H40.2829L38.5884 28.0482H58.7727L57.087 21Z" fill="url(#paint3_linear_4706_1650)"/>
<path d="M41.6509 26.3917L42.3128 23.6133H55.0483L55.7102 26.3917H41.6509Z" fill="url(#paint4_linear_4706_1650)"/>
<path d="M52.1004 75.1464H49.1085C52.9669 73.1152 56.0367 69.8416 57.8274 65.8488C59.618 61.8561 60.026 57.3748 58.9862 53.1214C57.9463 48.8679 55.5187 45.0879 52.0913 42.3856C48.6639 39.6834 44.4348 38.2148 40.0798 38.2148C35.7249 38.2148 31.4957 39.6834 28.0684 42.3856C24.641 45.0879 22.2134 48.8679 21.1735 53.1214C20.1337 57.3748 20.5417 61.8561 22.3323 65.8488C24.123 69.8416 27.1928 73.1152 31.0512 75.1464H28.121C31.6224 77.6526 35.8132 78.9993 40.1107 78.9993C44.4083 78.9993 48.599 77.6526 52.1004 75.1464Z" fill="url(#paint5_linear_4706_1650)"/>
<path d="M21.9434 58.1318C21.9416 54.5207 23.0044 50.9903 24.9974 47.9867C26.9904 44.9831 29.8241 42.6414 33.1402 41.2575C36.4563 39.8736 40.1059 39.5097 43.6277 40.2118C47.1494 40.9139 50.385 42.6505 52.9256 45.202C55.4661 47.7535 57.1974 51.0054 57.9006 54.5465C58.6038 58.0876 58.2473 61.7588 56.8762 65.0962C55.5051 68.4335 53.181 71.287 50.1976 73.2959C47.2143 75.3049 43.7057 76.379 40.1155 76.3825C35.3012 76.3801 30.6844 74.4574 27.2778 71.036C23.8711 67.6146 21.9527 62.9739 21.9434 58.1318Z" fill="url(#paint6_radial_4706_1650)"/>
<path d="M49.815 57.9442C49.815 56.0129 49.2456 54.1251 48.1788 52.5193C47.1121 50.9136 45.5958 49.662 43.8219 48.923C42.0479 48.1839 40.0959 47.9905 38.2127 48.3673C36.3295 48.7441 34.5996 49.6741 33.2419 51.0396C31.8842 52.4052 30.9596 54.1451 30.585 56.0392C30.2104 57.9334 30.4026 59.8967 31.1374 61.6809C31.8722 63.4651 33.1166 64.9901 34.7131 66.0631C36.3096 67.136 38.1866 67.7087 40.1067 67.7087C42.6815 67.7087 45.1508 66.6799 46.9715 64.8487C48.7921 63.0175 49.815 60.5339 49.815 57.9442Z" fill="url(#paint7_linear_4706_1650)"/>
<defs>
<linearGradient id="paint0_linear_4706_1650" x1="62.4619" y1="18.3946" x2="38.1142" y2="82.5165" gradientUnits="userSpaceOnUse">
<stop stop-color="#BE1E2D"/>
<stop offset="1" stop-color="#8F1722"/>
</linearGradient>
<radialGradient id="paint1_radial_4706_1650" cx="0" cy="0" r="1" gradientUnits="userSpaceOnUse" gradientTransform="translate(76.2389 57.4984) scale(9.35523 9.40942)">
<stop stop-color="#F9E9EA"/>
<stop offset="1" stop-color="#FFCCCC"/>
</radialGradient>
<radialGradient id="paint2_radial_4706_1650" cx="0" cy="0" r="1" gradientUnits="userSpaceOnUse" gradientTransform="translate(73.6442 36.9162) scale(5.24246 5.27282)">
<stop stop-color="#F9E9EA"/>
<stop offset="1" stop-color="#FFCCCC"/>
</radialGradient>
<linearGradient id="paint3_linear_4706_1650" x1="38.5884" y1="24.5241" x2="58.7727" y2="24.5241" gradientUnits="userSpaceOnUse">
<stop stop-color="#BE1E2D"/>
<stop offset="1" stop-color="#8F1722"/>
</linearGradient>
<linearGradient id="paint4_linear_4706_1650" x1="41.6509" y1="24.9981" x2="55.7102" y2="24.9981" gradientUnits="userSpaceOnUse">
<stop stop-color="#F9E9EA"/>
<stop offset="1" stop-color="#FFCCCC"/>
</linearGradient>
<linearGradient id="paint5_linear_4706_1650" x1="20.6104" y1="58.5912" x2="59.5493" y2="58.5912" gradientUnits="userSpaceOnUse">
<stop stop-color="#BE1E2D"/>
<stop offset="1" stop-color="#8F1722"/>
</linearGradient>
<radialGradient id="paint6_radial_4706_1650" cx="0" cy="0" r="1" gradientUnits="userSpaceOnUse" gradientTransform="translate(40.1066 58.1318) scale(18.1544 18.2596)">
<stop stop-color="#F9E9EA"/>
<stop offset="1" stop-color="#FFCCCC"/>
</radialGradient>
<linearGradient id="paint7_linear_4706_1650" x1="30.3455" y1="57.9442" x2="49.815" y2="57.9442" gradientUnits="userSpaceOnUse">
<stop stop-color="#BE1E2D"/>
<stop offset="1" stop-color="#8F1722"/>
</linearGradient>
</defs>
</svg>