<svg width="100" height="100" viewBox="0 0 100 100" fill="none" xmlns="http://www.w3.org/2000/svg">
<path d="M71.8729 76.2458V80.6271C71.8729 81.7796 71.418 82.8855 70.6071 83.7043C69.7962 84.5232 68.6948 84.9888 67.5424 85H32.5C31.3402 85 30.228 84.5393 29.4079 83.7192C28.5878 82.8991 28.1271 81.7869 28.1271 80.6271V76.2458C26.4036 76.2469 24.6968 75.9084 23.1042 75.2496C21.5116 74.5908 20.0644 73.6247 18.8454 72.4064C17.6263 71.1881 16.6592 69.7415 15.9994 68.1494C15.3396 66.5572 15 64.8506 15 63.1271V50C14.9989 48.2758 15.3377 46.5683 15.997 44.9752C16.6563 43.382 17.6232 41.9344 18.8424 40.7152C20.0615 39.4961 21.5091 38.5292 23.1023 37.8699C24.6954 37.2106 26.4029 36.8718 28.1271 36.8729V19.3729C28.1271 18.2131 28.5878 17.1009 29.4079 16.2808C30.228 15.4607 31.3402 15 32.5 15H67.5424C68.7021 15 69.8144 15.4607 70.6345 16.2808C71.4545 17.1009 71.9153 18.2131 71.9153 19.3729V36.8729C75.3894 36.8841 78.7175 38.2721 81.1702 40.7327C83.6228 43.1933 85 46.5258 85 50V63.1271C84.9978 66.6072 83.6137 69.9439 81.1522 72.4039C78.6906 74.8639 75.3529 76.2458 71.8729 76.2458Z" fill="url(#paint0_linear_4706_1658)"/>
<path d="M67.5 63.125H32.5V80.625H67.5V63.125Z" fill="#F9E9EA"/>
<path d="M64.6184 68.2961H36.7625C36.513 68.2961 36.2737 68.197 36.0973 68.0206C35.9209 67.8442 35.8218 67.6049 35.8218 67.3554C35.8218 67.1051 35.9206 66.865 36.0968 66.6872C36.2729 66.5095 36.5122 66.4085 36.7625 66.4062H63.6777C63.928 66.4085 64.1672 66.5095 64.3434 66.6872C64.5196 66.865 64.6184 67.1051 64.6184 67.3554V68.2961Z" fill="#BE1E2D"/>
<path d="M64.6187 72.8746H36.7034C36.4787 72.8746 36.2631 72.7853 36.1042 72.6264C35.9452 72.4675 35.856 72.2519 35.856 72.0271C35.856 71.8024 35.9452 71.5868 36.1042 71.4279C36.2631 71.269 36.4787 71.1797 36.7034 71.1797H63.7373C63.9621 71.1797 64.1776 71.269 64.3366 71.4279C64.4955 71.5868 64.5848 71.8024 64.5848 72.0271V72.8746H64.6187Z" fill="#BE1E2D"/>
<path d="M64.6184 77.1677H36.7201C36.4898 77.1701 36.2675 77.0832 36.1 76.9252C35.9325 76.7671 35.8328 76.5503 35.8218 76.3202C35.8207 76.2019 35.8431 76.0846 35.8879 75.9751C35.9326 75.8656 35.9988 75.7661 36.0824 75.6825C36.166 75.5989 36.2655 75.5327 36.375 75.488C36.4845 75.4432 36.6018 75.4208 36.7201 75.4219H63.7286C63.9586 75.4329 64.1755 75.5326 64.3335 75.7001C64.4916 75.8676 64.5785 76.0899 64.5761 76.3202V77.1677H64.6184Z" fill="#BE1E2D"/>
<path d="M67.5 19.3711H32.5V36.8711H36.8729V23.744H63.1271V36.8711H67.5V19.3711Z" fill="#F9E9EA"/>
<path d="M58.7461 28.125H41.2461V36.8708H58.7461V28.125Z" fill="#F9E9EA"/>
<path d="M67.4998 45.6289H63.127V50.0018H67.4998V45.6289Z" fill="#EBB9BE"/>
<path d="M67.5425 54.375H32.5002C30.1799 54.3772 27.9554 55.3006 26.3155 56.9421C24.6755 58.5835 23.7544 60.8089 23.7544 63.1292V67.5445H28.1273V63.1292C28.1262 62.5543 28.2384 61.9847 28.4577 61.4532C28.677 60.9217 28.9989 60.4386 29.4051 60.0317C29.8112 59.6247 30.2937 59.3018 30.8248 59.0816C31.3559 58.8613 31.9252 58.7479 32.5002 58.7479H67.5425C68.1175 58.7479 68.6868 58.8613 69.2179 59.0816C69.749 59.3018 70.2315 59.6247 70.6376 60.0317C71.0438 60.4386 71.3657 60.9217 71.585 61.4532C71.8042 61.9847 71.9165 62.5543 71.9154 63.1292V67.5445H76.2883V63.1292C76.2883 60.8089 75.3671 58.5835 73.7272 56.9421C72.0873 55.3006 69.8628 54.3772 67.5425 54.375Z" fill="#8F1722"/>
<path d="M75.6019 45.6289H71.229V50.0018H75.6019V45.6289Z" fill="#EBB9BE"/>
<defs>
<linearGradient id="paint0_linear_4706_1658" x1="15" y1="50" x2="85" y2="50" gradientUnits="userSpaceOnUse">
<stop stop-color="#BE1E2D"/>
<stop offset="1" stop-color="#8F1722"/>
</linearGradient>
</defs>
</svg>