<svg width="100" height="100" viewBox="0 0 100 100" fill="none" xmlns="http://www.w3.org/2000/svg">
<mask id="mask0_4706_1644" style="mask-type:luminance" maskUnits="userSpaceOnUse" x="10" y="35" width="80" height="31">
<path d="M86.2176 54.6885C86.8113 55.3923 87.5166 55.9958 88.3059 56.4753C89.8239 57.0903 90.0755 58.1375 89.9832 59.5254C89.9077 60.7554 89.9832 62.0186 89.9832 63.232C89.9832 65.5341 89.849 65.6754 87.5846 65.7253L64.9408 65.7835L12.8263 65.8333C10.151 65.8333 10.109 65.8333 10.1006 63.1655C10.1006 54.5804 10.1006 45.9953 10 37.4018C10 35.6067 10.629 35.0997 12.3986 35.0997C37.3851 35.0997 62.3661 35.0665 87.3414 35C89.7736 35 89.9077 35.1164 89.9245 37.4933C89.9245 37.9254 89.9245 38.3243 89.9245 38.7898C89.9245 40.6514 89.9832 42.1141 87.8614 43.4605C84.0706 45.8041 83.6345 50.9735 86.2176 54.6885ZM62.6764 59.8744C63.1544 59.8744 63.6408 59.7913 64.1273 59.7498H64.9659C64.7652 59.2141 64.6328 58.6558 64.5718 58.0876C64.5214 52.9681 64.4879 47.8486 64.5298 42.7374C64.5298 41.2581 63.9763 40.8342 62.5338 40.8342C49.7135 40.9007 36.8903 40.9229 24.0644 40.9007C22.6386 40.9007 22.2361 41.416 22.2529 42.7374C22.3199 47.8569 22.3535 52.9847 22.3032 58.1042C22.3032 59.5005 22.7896 59.916 24.1566 59.9077M82.1585 62.6087C82.6896 63.3004 83.4673 63.7648 84.3326 63.9069C85.1978 64.049 86.0852 63.8582 86.8131 63.3733C87.3913 62.821 87.7504 62.0815 87.8251 61.2891C87.8998 60.4967 87.6851 59.7041 87.2202 59.0552C86.7552 58.4063 86.0708 57.9442 85.2912 57.753C84.5117 57.5617 83.6888 57.6539 82.972 58.0128C82.2578 58.5348 81.7775 59.3125 81.6334 60.1803C81.4893 61.0481 81.6927 61.9373 82.2004 62.6586L82.1585 62.6087ZM13.6062 40.8176H19.762V38.9394H13.5559L13.6062 40.8176ZM19.7956 48.1062H13.5475L13.6901 49.9596H19.7788L19.7956 48.1062ZM13.6062 45.4052H19.7788V43.5602H13.5979L13.6062 45.4052Z" fill="white"/>
</mask>
<g mask="url(#mask0_4706_1644)">
<path d="M15.0093 43.5327L13.5752 43.5469L13.5941 45.4251L15.0283 45.4109L15.0093 43.5327Z" fill="#BC1E2D"/>
<path d="M16.7141 43.5139L15.0117 43.5312L15.0312 45.4094L16.7336 45.392L16.7141 43.5139Z" fill="#BB1E2C"/>
<path d="M18.4163 43.4943L16.7139 43.5117L16.7334 45.3899L18.4358 45.3725L18.4163 43.4943Z" fill="#BA1D2C"/>
<path d="M19.7578 43.4824L18.416 43.4961L18.4355 45.3743L19.7773 45.3606L19.7578 43.4824Z" fill="#B91D2C"/>
<path d="M15.0594 48.1095L13.5415 48.125L13.5612 50.0198L15.0791 50.0043L15.0594 48.1095Z" fill="#BC1E2D"/>
<path d="M16.7532 48.092L15.0508 48.1094L15.0705 50.0042L16.7729 49.9868L16.7532 48.092Z" fill="#BB1E2C"/>
<path d="M18.4553 48.0725L16.7529 48.0898L16.7726 49.9846L18.475 49.9673L18.4553 48.0725Z" fill="#BA1D2C"/>
<path d="M19.7884 48.0607L18.4634 48.0742L18.4831 49.969L19.8081 49.9555L19.7884 48.0607Z" fill="#B91D2C"/>
<path d="M14.9641 38.9504L13.5469 38.9648L13.5666 40.8596L14.9838 40.8452L14.9641 38.9504Z" fill="#BC1E2D"/>
<path d="M16.6663 38.9318L14.9639 38.9492L14.9836 40.844L16.686 40.8266L16.6663 38.9318Z" fill="#BB1E2C"/>
<path d="M18.3684 38.9162L16.666 38.9336L16.6857 40.8284L18.3881 40.811L18.3684 38.9162Z" fill="#BA1D2C"/>
<path d="M19.7519 38.9038L18.3682 38.918L18.3879 40.8127L19.7716 40.7986L19.7519 38.9038Z" fill="#B91D2C"/>
<path d="M81.6015 57.1008L81.1318 57.1055L81.2066 64.5105L81.6762 64.5058L81.6015 57.1008Z" fill="#941823"/>
<path d="M83.3069 57.049L81.6045 57.0664L81.6814 64.471L83.3838 64.4536L83.3069 57.049Z" fill="#931823"/>
<path d="M85.0085 57.0412L83.3062 57.0586L83.3831 64.4632L85.0855 64.4458L85.0085 57.0412Z" fill="#921723"/>
<path d="M86.7112 57.0256L85.0088 57.043L85.0857 64.4476L86.7881 64.4302L86.7112 57.0256Z" fill="#911722"/>
<path d="M88.4133 57.01L86.7109 57.0273L86.7879 64.4319L88.4903 64.4146L88.4133 57.01Z" fill="#901722"/>
<path d="M88.5381 57.0065L88.4131 57.0078L88.49 64.4124L88.615 64.4111L88.5381 57.0065Z" fill="#8F1722"/>
<path d="M23.4967 40.9236L22.1382 40.9375L22.3391 60.2759L23.6977 60.262L23.4967 40.9236Z" fill="#B71D2B"/>
<path d="M25.1985 40.9084L23.4961 40.9258L23.6971 60.2642L25.3994 60.2468L25.1985 40.9084Z" fill="#B61D2B"/>
<path d="M26.9011 40.8928L25.1987 40.9102L25.3997 60.2485L27.1021 60.2312L26.9011 40.8928Z" fill="#B51D2B"/>
<path d="M28.6033 40.8811L26.9009 40.8984L27.1018 60.2368L28.8042 60.2194L28.6033 40.8811Z" fill="#B41C2B"/>
<path d="M30.3054 40.8615L28.603 40.8789L28.804 60.2173L30.5064 60.1999L30.3054 40.8615Z" fill="#B31C2A"/>
<path d="M32.0247 40.8459L30.3223 40.8633L30.5232 60.2017L32.2256 60.1843L32.0247 40.8459Z" fill="#B21C2A"/>
<path d="M33.7268 40.8303L32.0244 40.8477L32.2254 60.186L33.9278 60.1687L33.7268 40.8303Z" fill="#B11C2A"/>
<path d="M35.429 40.8108L33.7266 40.8281L33.9275 60.1665L35.6299 60.1491L35.429 40.8108Z" fill="#B01C2A"/>
<path d="M37.1311 40.7951L35.4287 40.8125L35.6297 60.1509L37.3321 60.1335L37.1311 40.7951Z" fill="#AF1C29"/>
<path d="M38.8333 40.7795L37.1309 40.7969L37.3318 60.1352L39.0342 60.1179L38.8333 40.7795Z" fill="#AE1C29"/>
<path d="M40.5354 40.7522L38.833 40.7695L39.034 60.1079L40.7364 60.0905L40.5354 40.7522Z" fill="#AD1B29"/>
<path d="M42.2459 40.7326L40.5435 40.75L40.7444 60.0884L42.4468 60.071L42.2459 40.7326Z" fill="#AC1B29"/>
<path d="M43.9485 40.717L42.2461 40.7344L42.4471 60.0727L44.1494 60.0554L43.9485 40.717Z" fill="#AB1B28"/>
<path d="M45.6506 40.7014L43.9482 40.7188L44.1492 60.0571L45.8516 60.0398L45.6506 40.7014Z" fill="#AA1B28"/>
<path d="M47.3528 40.6818L45.6504 40.6992L45.8513 60.0376L47.5537 60.0202L47.3528 40.6818Z" fill="#A91B28"/>
<path d="M49.0549 40.6701L47.3525 40.6875L47.5535 60.0259L49.2559 60.0085L49.0549 40.6701Z" fill="#A81B28"/>
<path d="M50.7571 40.6545L49.0547 40.6719L49.2556 60.0102L50.958 59.9929L50.7571 40.6545Z" fill="#A71B28"/>
<path d="M52.4675 40.6389L50.7651 40.6562L50.9661 59.9946L52.6685 59.9773L52.4675 40.6389Z" fill="#A51A27"/>
<path d="M54.1697 40.6193L52.4673 40.6367L52.6682 59.9751L54.3706 59.9577L54.1697 40.6193Z" fill="#A41A27"/>
<path d="M55.8723 40.6037L54.1699 40.6211L54.3709 59.9595L56.0733 59.9421L55.8723 40.6037Z" fill="#A31A27"/>
<path d="M57.5745 40.5842L55.8721 40.6016L56.073 59.9399L57.7754 59.9226L57.5745 40.5842Z" fill="#A21A27"/>
<path d="M59.2766 40.5647L57.5742 40.582L57.7752 59.9204L59.4776 59.903L59.2766 40.5647Z" fill="#A11A26"/>
<path d="M60.9788 40.5412L59.2764 40.5586L59.4773 59.897L61.1797 59.8796L60.9788 40.5412Z" fill="#A01A26"/>
<path d="M62.6809 40.5256L60.9785 40.543L61.1795 59.8813L62.8819 59.864L62.6809 40.5256Z" fill="#9F1926"/>
<path d="M64.3914 40.5061L62.689 40.5234L62.8899 59.8618L64.5923 59.8444L64.3914 40.5061Z" fill="#9E1926"/>
<path d="M64.8025 40.5114L64.3916 40.5156L64.5926 59.854L65.0035 59.8498L64.8025 40.5114Z" fill="#9D1925"/>
<path d="M9.80817 35.0975L9.7915 35.0977L10.1177 66.4861L10.1343 66.486L9.80817 35.0975Z" fill="#BE1E2D"/>
<path d="M11.5105 35.0803L9.80811 35.0977L10.1343 66.4862L11.8367 66.4688L11.5105 35.0803Z" fill="#BE1E2D"/>
<path d="M13.2131 35.0608L11.5107 35.0781L11.8369 66.4666L13.5393 66.4493L13.2131 35.0608Z" fill="#BD1E2D"/>
<path d="M14.9148 35.0451L13.2124 35.0625L13.5386 66.451L15.241 66.4336L14.9148 35.0451Z" fill="#BC1E2D"/>
<path d="M16.6174 35.0295L14.915 35.0469L15.2412 66.4354L16.9436 66.418L16.6174 35.0295Z" fill="#BB1E2C"/>
<path d="M18.3196 35.01L16.6172 35.0273L16.9434 66.4158L18.6458 66.3985L18.3196 35.01Z" fill="#BA1D2C"/>
<path d="M20.03 34.9943L18.3276 35.0117L18.6538 66.4002L20.3562 66.3828L20.03 34.9943Z" fill="#B91D2C"/>
<path d="M21.7322 34.9787L20.0298 34.9961L20.356 66.3846L22.0584 66.3672L21.7322 34.9787Z" fill="#B81D2C"/>
<path d="M23.4343 34.9592L21.7319 34.9766L22.0581 66.3651L23.7605 66.3477L23.4343 34.9592Z" fill="#B71D2B"/>
<path d="M25.137 34.9397L23.4346 34.957L23.7607 66.3455L25.4631 66.3282L25.137 34.9397Z" fill="#B61D2B"/>
<path d="M26.8391 34.924L25.1367 34.9414L25.4629 66.3299L27.1653 66.3125L26.8391 34.924Z" fill="#B51D2B"/>
<path d="M28.5413 34.9162L26.8389 34.9336L27.165 66.3221L28.8674 66.3047L28.5413 34.9162Z" fill="#B41C2B"/>
<path d="M30.2517 34.8889L28.5493 34.9062L28.8755 66.2948L30.5779 66.2774L30.2517 34.8889Z" fill="#B31C2A"/>
<path d="M31.9539 34.8693L30.2515 34.8867L30.5776 66.2752L32.28 66.2578L31.9539 34.8693Z" fill="#B21C2A"/>
<path d="M33.656 34.8537L31.9536 34.8711L32.2798 66.2596L33.9822 66.2422L33.656 34.8537Z" fill="#B11C2A"/>
<path d="M35.3669 34.8381L33.6646 34.8555L33.9907 66.244L35.6931 66.2266L35.3669 34.8381Z" fill="#B01C2A"/>
<path d="M37.0686 34.8186L35.3662 34.8359L35.6924 66.2244L37.3948 66.2071L37.0686 34.8186Z" fill="#AF1C29"/>
<path d="M38.7712 34.8029L37.0688 34.8203L37.395 66.2088L39.0974 66.1914L38.7712 34.8029Z" fill="#AE1C29"/>
<path d="M40.4739 34.7834L38.7715 34.8008L39.0977 66.1893L40.8001 66.1719L40.4739 34.7834Z" fill="#AD1B29"/>
<path d="M42.1838 34.7639L40.4814 34.7812L40.8076 66.1697L42.51 66.1524L42.1838 34.7639Z" fill="#AC1B29"/>
<path d="M43.8865 34.7483L42.1841 34.7656L42.5103 66.1541L44.2127 66.1368L43.8865 34.7483Z" fill="#AB1B28"/>
<path d="M45.5881 34.7326L43.8857 34.75L44.2119 66.1385L45.9143 66.1211L45.5881 34.7326Z" fill="#AA1B28"/>
<path d="M47.2908 34.7131L45.5884 34.7305L45.9146 66.119L47.617 66.1016L47.2908 34.7131Z" fill="#A91B28"/>
<path d="M48.9929 34.7053L47.2905 34.7227L47.6167 66.1112L49.3191 66.0938L48.9929 34.7053Z" fill="#A81B28"/>
<path d="M50.6951 34.6818L48.9927 34.6992L49.3189 66.0877L51.0213 66.0703L50.6951 34.6818Z" fill="#A71B28"/>
<path d="M52.4055 34.6623L50.7031 34.6797L51.0293 66.0682L52.7317 66.0508L52.4055 34.6623Z" fill="#A51A27"/>
<path d="M54.1077 34.6467L52.4053 34.6641L52.7315 66.0526L54.4338 66.0352L54.1077 34.6467Z" fill="#A41A27"/>
<path d="M55.8098 34.6272L54.1074 34.6445L54.4336 66.033L56.136 66.0157L55.8098 34.6272Z" fill="#A31A27"/>
<path d="M57.5125 34.6076L55.8101 34.625L56.1362 66.0135L57.8386 65.9961L57.5125 34.6076Z" fill="#A21A27"/>
<path d="M59.2146 34.592L57.5122 34.6094L57.8384 65.9979L59.5408 65.9805L59.2146 34.592Z" fill="#A11A26"/>
<path d="M60.9167 34.5725L59.2144 34.5898L59.5405 65.9783L61.2429 65.961L60.9167 34.5725Z" fill="#A01A26"/>
<path d="M62.6272 34.5568L60.9248 34.5742L61.251 65.9627L62.9534 65.9453L62.6272 34.5568Z" fill="#9F1926"/>
<path d="M64.3293 34.5412L62.627 34.5586L62.9531 65.9471L64.6555 65.9297L64.3293 34.5412Z" fill="#9E1926"/>
<path d="M66.032 34.5217L64.3296 34.5391L64.6558 65.9276L66.3582 65.9102L66.032 34.5217Z" fill="#9D1925"/>
<path d="M67.7341 34.5061L66.0317 34.5234L66.3579 65.9119L68.0603 65.8946L67.7341 34.5061Z" fill="#9C1925"/>
<path d="M69.4363 34.4904L67.7339 34.5078L68.0601 65.8963L69.7625 65.8789L69.4363 34.4904Z" fill="#9B1925"/>
<path d="M71.1384 34.4709L69.436 34.4883L69.7622 65.8768L71.4646 65.8594L71.1384 34.4709Z" fill="#9A1925"/>
<path d="M72.8489 34.4514L71.1465 34.4688L71.4727 65.8573L73.1751 65.8399L72.8489 34.4514Z" fill="#991924"/>
<path d="M74.5515 34.4358L72.8491 34.4531L73.1753 65.8416L74.8777 65.8243L74.5515 34.4358Z" fill="#981824"/>
<path d="M76.2532 34.4162L74.5508 34.4336L74.877 65.8221L76.5794 65.8047L76.2532 34.4162Z" fill="#971824"/>
<path d="M77.9558 34.4006L76.2534 34.418L76.5796 65.8065L78.282 65.7891L77.9558 34.4006Z" fill="#961824"/>
<path d="M79.6575 34.385L77.9551 34.4023L78.2813 65.7908L79.9837 65.7735L79.6575 34.385Z" fill="#951823"/>
<path d="M81.3601 34.3654L79.6577 34.3828L79.9839 65.7713L81.6863 65.7539L81.3601 34.3654Z" fill="#941823"/>
<path d="M83.0627 34.3498L81.3604 34.3672L81.6865 65.7557L83.3889 65.7383L83.0627 34.3498Z" fill="#931823"/>
<path d="M84.7727 34.3303L83.0703 34.3477L83.3965 65.7362L85.0989 65.7188L84.7727 34.3303Z" fill="#921723"/>
<path d="M86.4753 34.3147L84.7729 34.332L85.0991 65.7205L86.8015 65.7032L86.4753 34.3147Z" fill="#911722"/>
<path d="M88.177 34.3029L86.4746 34.3203L86.8008 65.7088L88.5032 65.6914L88.177 34.3029Z" fill="#901722"/>
<path d="M89.8879 34.2756L88.1855 34.293L88.5117 65.6815L90.2141 65.6641L89.8879 34.2756Z" fill="#8F1722"/>
<path d="M89.9044 34.2772L89.8877 34.2773L90.2139 65.6658L90.2305 65.6657L89.9044 34.2772Z" fill="#8F1722"/>
</g>
<path d="M33.4824 55.0601C32.9857 54.8644 32.5533 54.5365 32.2328 54.1127C31.9295 53.6673 31.7794 53.1368 31.8051 52.6001H33.4824C33.5121 52.9968 33.6918 53.3678 33.9856 53.639C34.3373 53.9285 34.7872 54.0742 35.2436 54.0462C35.7141 54.0754 36.1793 53.9336 36.5519 53.6473C36.7052 53.5213 36.8274 53.3622 36.9088 53.182C36.9902 53.0019 37.0288 52.8056 37.0215 52.6084C37.0323 52.458 37.0127 52.307 36.9637 52.1643C36.9147 52.0216 36.8374 51.89 36.7364 51.7773C36.5315 51.5659 36.2825 51.4014 36.0068 51.2953C35.6149 51.1491 35.2144 51.027 34.8075 50.9296C34.2697 50.7968 33.7427 50.6246 33.2308 50.4143C32.821 50.2327 32.4677 49.9458 32.2076 49.5832C31.9242 49.1672 31.7831 48.6719 31.8051 48.1704C31.7928 47.6474 31.941 47.1331 32.23 46.6953C32.519 46.2576 32.9352 45.917 33.4237 45.7187C33.9864 45.4862 34.5921 45.3729 35.2016 45.3863C36.0453 45.3501 36.8763 45.5992 37.5583 46.0927C37.858 46.3278 38.1037 46.6237 38.2787 46.9605C38.4537 47.2974 38.5541 47.6673 38.5731 48.0457H36.7783C36.7633 47.8661 36.7099 47.6917 36.6217 47.5341C36.5335 47.3765 36.4125 47.2393 36.2667 47.1315C35.9154 46.8617 35.4778 46.726 35.0339 46.7492C34.6243 46.7305 34.2209 46.8539 33.8933 47.0983C33.7505 47.2262 33.6391 47.3848 33.5679 47.5621C33.4966 47.7393 33.4674 47.9303 33.4824 48.1205C33.4738 48.3934 33.5731 48.6588 33.7591 48.8602C33.959 49.0599 34.199 49.2156 34.4636 49.3173C34.7488 49.4253 35.1429 49.55 35.6294 49.683C36.1751 49.8234 36.7103 50.0011 37.2312 50.2149C37.6463 50.4027 38.009 50.688 38.2879 51.046C38.5916 51.4818 38.7419 52.0046 38.7156 52.5336C38.7161 53.0324 38.5767 53.5215 38.3131 53.9465C38.0274 54.404 37.6176 54.7726 37.1306 55.0102C36.563 55.2887 35.9354 55.4256 35.3023 55.4092C34.6778 55.4194 34.058 55.3005 33.4824 55.0601Z" fill="url(#paint0_linear_4706_1644)"/>
<path d="M42.0706 55.0577C41.5752 54.8597 41.1433 54.5323 40.821 54.1103C40.5127 53.6782 40.3511 53.1601 40.3597 52.6309H42.0957C42.1254 53.0277 42.3051 53.3987 42.5989 53.6698C42.9506 53.9594 43.4005 54.105 43.8569 54.077C44.3275 54.1062 44.7926 53.9644 45.1652 53.6781C45.3186 53.5522 45.4407 53.393 45.5221 53.2129C45.6036 53.0327 45.6421 52.8365 45.6349 52.6392C45.6457 52.4889 45.626 52.3379 45.5771 52.1951C45.5281 52.0524 45.4508 51.9208 45.3497 51.8081C45.1449 51.5967 44.8959 51.4322 44.6201 51.3261C44.2283 51.18 43.8278 51.0578 43.4208 50.9604C42.8911 50.8283 42.3724 50.656 41.8693 50.4452C41.4565 50.2648 41.1002 49.9778 40.8377 49.6141C40.533 49.185 40.3824 48.667 40.41 48.1431C40.3998 47.6186 40.5488 47.1032 40.8377 46.6637C41.1312 46.232 41.5449 45.8942 42.0286 45.6913C42.5914 45.4588 43.197 45.3456 43.8066 45.3589C44.6503 45.3228 45.4812 45.5719 46.1632 46.0653C46.463 46.3005 46.7086 46.5964 46.8836 46.9332C47.0586 47.27 47.159 47.64 47.178 48.0184H45.3665C45.3515 47.8388 45.2981 47.6644 45.2099 47.5068C45.1217 47.3492 45.0007 47.2119 44.8549 47.1042C44.5035 46.8344 44.066 46.6987 43.6221 46.7219C43.2125 46.7031 42.8091 46.8266 42.4815 47.071C42.3326 47.1956 42.2149 47.3528 42.1377 47.5302C42.0606 47.7076 42.0261 47.9003 42.037 48.0932C42.0321 48.2291 42.0547 48.3647 42.1037 48.4917C42.1527 48.6188 42.227 48.7348 42.3222 48.8329C42.5203 49.0307 42.7572 49.1862 43.0183 49.29C43.3034 49.398 43.6976 49.5227 44.184 49.6556C44.7297 49.796 45.2649 49.9737 45.7858 50.1875C46.201 50.3754 46.5637 50.6607 46.8426 51.0186C47.1462 51.4545 47.2965 51.9773 47.2703 52.5063C47.2707 53.0051 47.1314 53.4942 46.8677 53.9191C46.5821 54.3766 46.1723 54.7453 45.6852 54.9829C45.1176 55.2613 44.49 55.3983 43.8569 55.3818C43.2454 55.3953 42.6376 55.2851 42.0706 55.0577Z" fill="url(#paint1_linear_4706_1644)"/>
<path d="M55.1869 46.1077C55.9567 46.4893 56.5957 47.0878 57.0235 47.828C57.4664 48.6266 57.6891 49.5267 57.6693 50.4376C57.691 51.3435 57.468 52.2387 57.0235 53.0306C56.5879 53.7502 55.9495 54.328 55.1869 54.6928C54.3226 55.0976 53.3749 55.2968 52.4193 55.2746H49.1904V45.5093H52.4193C53.3767 45.4882 54.3254 45.6933 55.1869 46.1077ZM55.0778 53.0639C55.4009 52.7094 55.649 52.2944 55.8074 51.8433C55.9659 51.3923 56.0315 50.9143 56.0004 50.4376C56.0601 49.4651 55.7283 48.5088 55.0778 47.7782C54.7266 47.4438 54.3085 47.186 53.8507 47.0214C53.3928 46.8568 52.9052 46.789 52.4193 46.8224H50.8174V53.9947H52.4193C52.9029 54.0259 53.3879 53.9595 53.8449 53.7995C54.3019 53.6395 54.7213 53.3892 55.0778 53.0639Z" fill="url(#paint2_linear_4706_1644)"/>
<defs>
<linearGradient id="paint0_linear_4706_1644" x1="26.8486" y1="50.4891" x2="63.389" y2="50.0575" gradientUnits="userSpaceOnUse">
<stop stop-color="#BE1E2D"/>
<stop offset="1" stop-color="#8F1722"/>
</linearGradient>
<linearGradient id="paint1_linear_4706_1644" x1="26.8489" y1="50.5865" x2="63.3976" y2="50.1548" gradientUnits="userSpaceOnUse">
<stop stop-color="#BE1E2D"/>
<stop offset="1" stop-color="#8F1722"/>
</linearGradient>
<linearGradient id="paint2_linear_4706_1644" x1="26.8485" y1="50.6787" x2="63.3973" y2="50.2555" gradientUnits="userSpaceOnUse">
<stop stop-color="#BE1E2D"/>
<stop offset="1" stop-color="#8F1722"/>
</linearGradient>
</defs>
</svg>