<svg width="100" height="100" viewBox="0 0 100 100" fill="none" xmlns="http://www.w3.org/2000/svg">
<path d="M67.4225 78.2914C68.3584 79.003 68.1315 79.5724 66.997 79.5724H41.5271C40.3572 79.5724 40.1657 78.9959 41.1017 78.2914L46.1999 74.4555C46.7015 74.0334 47.1114 73.5124 47.4042 72.9248C47.6969 72.3372 47.8663 71.6955 47.9017 71.0395V68.9045C47.9017 68.3383 48.1258 67.7952 48.5247 67.3949C48.9237 66.9945 49.4647 66.7695 50.0289 66.7695H58.5378C59.102 66.7695 59.643 66.9945 60.042 67.3949C60.4409 67.7952 60.665 68.3383 60.665 68.9045V71.0395C60.7021 71.6952 60.8722 72.3363 61.1648 72.9237C61.4574 73.5111 61.8664 74.0323 62.3668 74.4555L67.4225 78.2914Z" fill="url(#paint0_linear_4706_1651)"/>
<path d="M84 22.27V62.7851C84 63.9175 83.5518 65.0036 82.7539 65.8044C81.956 66.6052 80.8739 67.055 79.7456 67.055H37.2722V77.73C37.2722 78.8625 36.8239 79.9486 36.0261 80.7493C35.2282 81.5501 34.1461 82 33.0177 82H20.2544C19.1261 82 18.044 81.5501 17.2461 80.7493C16.4482 79.9486 16 78.8625 16 77.73V30.81C16 29.6775 16.4482 28.5914 17.2461 27.7906C18.044 26.9898 19.1261 26.54 20.2544 26.54H24.5089V22.27C24.5089 21.1375 24.9571 20.0514 25.755 19.2507C26.5528 18.4499 27.6349 18 28.7633 18H79.7456C80.8739 18 81.956 18.4499 82.7539 19.2507C83.5518 20.0514 84 21.1375 84 22.27Z" fill="url(#paint1_linear_4706_1651)"/>
<path d="M33.7197 30.2461H21.5166V34.331H33.7197V30.2461Z" fill="url(#paint2_linear_4706_1651)"/>
<path d="M32.9972 39.3242H20.248V43.5871H32.9972V39.3242Z" fill="url(#paint3_linear_4706_1651)"/>
<path d="M24.5093 67.0569C24.5093 66.6346 24.3846 66.2218 24.1508 65.8707C23.9171 65.5196 23.5848 65.246 23.1961 65.0844C22.8075 64.9228 22.3797 64.8805 21.9671 64.9629C21.5545 65.0453 21.1754 65.2486 20.8779 65.5472C20.5804 65.8458 20.3778 66.2262 20.2958 66.6404C20.2137 67.0545 20.2558 67.4838 20.4168 67.8739C20.5778 68.264 20.8505 68.5975 21.2003 68.8321C21.5501 69.0666 21.9614 69.1919 22.3821 69.1919C22.9463 69.1919 23.4873 68.9669 23.8863 68.5665C24.2852 68.1662 24.5093 67.6231 24.5093 67.0569Z" fill="url(#paint4_linear_4706_1651)"/>
<path d="M79.7469 26.5395C79.7469 25.407 79.2987 24.321 78.5008 23.5202C77.703 22.7194 76.6208 22.2695 75.4925 22.2695H33.0191C31.8907 22.2695 30.8086 22.7194 30.0107 23.5202C29.2129 24.321 28.7646 25.407 28.7646 26.5395H33.0191C34.1474 26.5395 35.2296 26.9894 36.0274 27.7902C36.8253 28.5909 37.2735 29.677 37.2735 30.8095V60.6994H75.4996C76.6279 60.6994 77.7101 60.2495 78.5079 59.4488C79.3058 58.648 79.754 57.5619 79.754 56.4294L79.7469 26.5395Z" fill="url(#paint5_linear_4706_1651)"/>
<defs>
<linearGradient id="paint0_linear_4706_1651" x1="48.2279" y1="73.1745" x2="62.0477" y2="73.1745" gradientUnits="userSpaceOnUse">
<stop offset="0.42" stop-color="#BE1E2D"/>
<stop offset="1" stop-color="#8F1722"/>
</linearGradient>
<linearGradient id="paint1_linear_4706_1651" x1="16.0851" y1="49.9893" x2="83.2129" y2="49.9893" gradientUnits="userSpaceOnUse">
<stop stop-color="#BE1E2D"/>
<stop offset="1" stop-color="#8F1722"/>
</linearGradient>
<linearGradient id="paint2_linear_4706_1651" x1="21.5166" y1="32.2886" x2="33.7268" y2="32.2886" gradientUnits="userSpaceOnUse">
<stop stop-color="#F9E9EA"/>
<stop offset="1" stop-color="#FFCCCC"/>
</linearGradient>
<linearGradient id="paint3_linear_4706_1651" x1="20.248" y1="41.4521" x2="32.9972" y2="41.4521" gradientUnits="userSpaceOnUse">
<stop stop-color="#F9E9EA"/>
<stop offset="1" stop-color="#FFCCCC"/>
</linearGradient>
<linearGradient id="paint4_linear_4706_1651" x1="20.2478" y1="67.0569" x2="24.5022" y2="67.0569" gradientUnits="userSpaceOnUse">
<stop stop-color="#F9E9EA"/>
<stop offset="1" stop-color="#FFCCCC"/>
</linearGradient>
<linearGradient id="paint5_linear_4706_1651" x1="16.0864" y1="41.456" x2="83.2143" y2="41.456" gradientUnits="userSpaceOnUse">
<stop stop-color="#F9E9EA"/>
<stop offset="1" stop-color="#FFCCCC"/>
</linearGradient>
</defs>
</svg>
