<svg width="100" height="100" viewBox="0 0 100 100" fill="none" xmlns="http://www.w3.org/2000/svg">
<path d="M56.5093 47.4443C56.4235 47.3452 53.9365 44.4149 56.7837 41.9633L59.9483 39.2227C59.9483 39.2227 63.2243 37.0435 65.5656 39.5529L68.5071 36.9858L67.2465 35.6403C64.7569 32.9816 61.2721 31.3837 57.5586 31.1979C53.845 31.0121 50.2069 32.2538 47.4444 34.6497L42.0415 39.3053L52.6844 50.7213L56.5093 47.4443Z" fill="url(#paint0_linear_4706_1659)"/>
<path d="M25.687 53.4346C19.9153 58.4452 17.7541 68.4084 22.9255 73.9637L26.9476 78.2561C32.0933 83.7949 42.6761 82.8043 48.4478 77.8268L63.6788 64.6196L40.9008 40.2852L25.687 53.4346Z" fill="url(#paint1_linear_4706_1659)"/>
<path d="M66.6284 46.5776L63.6525 49.153C63.6525 49.153 60.4108 51.6294 57.898 48.9384L54.1074 52.2402L64.7932 63.714L70.1961 59.0585C72.9634 56.6639 74.6305 53.3103 74.8315 49.7338C75.0325 46.1573 73.7509 42.6501 71.2681 39.9822L70.0074 38.6367L67.0144 41.2121C67.0144 41.2121 69.4242 44.159 66.6284 46.5776Z" fill="url(#paint2_linear_4706_1659)"/>
<path d="M79.8358 19.2229C75.7451 17.4152 72.0231 17.6215 69.9048 19.776C67.7865 21.9304 68.4383 24.9929 71.7572 27.6178C75.9252 30.9196 75.1876 32.909 74.4501 33.916C74.4501 33.916 73.5239 35.5669 70.4794 36.4749C70.0763 36.5575 68.627 36.6978 68.4897 37.0693L70.0077 38.6376C72.3108 37.6834 74.3151 36.1668 75.8223 34.2379C77.5375 31.7616 76.6799 29.1944 73.1037 26.3631C69.8619 23.7794 69.7847 21.3031 70.7624 20.2713C71.7401 19.2394 74.4415 18.7277 78.6095 20.5602C78.8188 20.5859 79.0314 20.5565 79.2247 20.4751C79.418 20.3937 79.5848 20.2633 79.7072 20.0979C80.0331 19.743 80.1017 19.3385 79.8358 19.2229Z" fill="url(#paint3_linear_4706_1659)"/>
<path d="M61.8603 41.0178L58.7472 43.7088C58.2923 44.1006 58.0178 44.6504 57.984 45.2371C57.9502 45.8238 58.16 46.3994 58.5671 46.8372C58.9742 47.2751 59.5454 47.5393 60.155 47.5718C60.7645 47.6043 61.3625 47.4025 61.8174 47.0106L64.9305 44.3196C65.3854 43.9277 65.66 43.378 65.6937 42.7913C65.7275 42.2046 65.5178 41.629 65.1106 41.1911C64.7035 40.7533 64.1323 40.489 63.5228 40.4565C62.9132 40.424 62.3152 40.6259 61.8603 41.0178Z" fill="url(#paint4_linear_4706_1659)"/>
<defs>
<linearGradient id="paint0_linear_4706_1659" x1="42.0415" y1="40.9562" x2="68.5071" y2="40.9562" gradientUnits="userSpaceOnUse">
<stop stop-color="#BE1E2D"/>
<stop offset="1" stop-color="#8F1722"/>
</linearGradient>
<linearGradient id="paint1_linear_4706_1659" x1="20.0011" y1="61.1526" x2="63.6788" y2="61.1526" gradientUnits="userSpaceOnUse">
<stop stop-color="#BE1E2D"/>
<stop offset="1" stop-color="#8F1722"/>
</linearGradient>
<linearGradient id="paint2_linear_4706_1659" x1="54.1074" y1="51.1836" x2="74.8528" y2="51.1836" gradientUnits="userSpaceOnUse">
<stop stop-color="#BE1E2D"/>
<stop offset="1" stop-color="#8F1722"/>
</linearGradient>
<linearGradient id="paint3_linear_4706_1659" x1="68.4897" y1="28.3194" x2="79.9988" y2="28.3194" gradientUnits="userSpaceOnUse">
<stop stop-color="#BE1E2D"/>
<stop offset="1" stop-color="#8F1722"/>
</linearGradient>
<linearGradient id="paint4_linear_4706_1659" x1="57.9839" y1="44.0059" x2="65.6938" y2="44.0059" gradientUnits="userSpaceOnUse">
<stop stop-color="#BE1E2D"/>
<stop offset="1" stop-color="#8F1722"/>
</linearGradient>
</defs>
</svg>