<svg width="100" height="100" viewBox="0 0 100 100" fill="none" xmlns="http://www.w3.org/2000/svg">
<path d="M70.7653 25.2112C69.4695 22.1701 65.2291 19.7142 63.3444 16.865C61.6648 14.1291 60.4919 11.1252 59.8794 7.99122C58.8193 3.70302 55.5898 0 51.0745 0H46.4217C41.9064 0 38.677 3.70302 37.5874 7.99122C36.9749 11.1252 35.8019 14.1291 34.1224 16.865C32.2377 19.743 28.007 22.1701 26.7015 25.2112C25.2488 31.0535 30.9616 32.5117 31.2267 37.3371V63.6132H66.2696V37.3371C66.5346 32.5405 72.2475 31.0535 70.7653 25.2112Z" fill="#AB1B29"/>
<path d="M26.7316 26.5639C28.0371 23.5132 32.2677 21.1053 34.1524 18.2273C35.8303 15.4905 37.0031 12.4869 37.6174 9.35347C38.6775 5.06526 41.907 1.36225 46.4518 1.36225H51.1045C55.6198 1.36225 58.8493 5.06526 59.9389 9.35347C60.5348 12.4832 61.6877 15.4866 63.345 18.2273C65.2296 21.1053 69.4603 23.5228 70.7658 26.5735C70.859 26.9559 70.9278 27.3435 70.972 27.7342C71.0519 26.8911 70.9822 26.0407 70.7658 25.2208C69.4603 22.1797 65.2296 19.7238 63.345 16.8746C61.6671 14.1379 60.4942 11.1343 59.88 8.00082C58.8198 3.70302 55.5904 0 51.0751 0H46.4223C41.907 0 38.6775 3.70302 37.588 7.99122C36.9737 11.1247 35.8009 14.1283 34.1229 16.865C32.2383 19.743 28.0076 22.1701 26.7021 25.2112C26.4857 26.0312 26.416 26.8815 26.496 27.7246C26.5401 27.3339 26.609 26.9463 26.7021 26.5639" fill="#BE1E2D"/>
<path d="M57.5833 22.1116H39.9146C39.6074 22.1116 39.3128 21.9924 39.0956 21.7801C38.8784 21.5678 38.7563 21.2798 38.7563 20.9796V14.5137C38.769 14.2219 38.8966 13.9461 39.1125 13.7441C39.3283 13.5421 39.6158 13.4294 39.9146 13.4297H57.5833C57.8905 13.4297 58.1851 13.549 58.4023 13.7612C58.6196 13.9735 58.7416 14.2615 58.7416 14.5617V21.0276C58.7416 21.3278 58.6196 21.6157 58.4023 21.828C58.1851 22.0403 57.8905 22.1596 57.5833 22.1596" fill="url(#paint0_linear_4706_1648)"/>
<path d="M48.778 35.0378C48.7493 35.0466 48.7185 35.0466 48.6897 35.0378L41.5633 31.5554C41.5156 31.5309 41.4795 31.489 41.463 31.4388C41.4465 31.3885 41.4508 31.334 41.475 31.2868C41.4865 31.264 41.5025 31.2437 41.522 31.227C41.5416 31.2103 41.5644 31.1976 41.589 31.1895C41.6137 31.1815 41.6397 31.1783 41.6657 31.1802C41.6916 31.1821 41.7169 31.189 41.74 31.2005L48.778 34.6445L56.0517 31.2005C56.0754 31.1893 56.1012 31.1829 56.1276 31.1817C56.1539 31.1805 56.1803 31.1845 56.205 31.1934C56.2298 31.2024 56.2524 31.2161 56.2716 31.2338C56.2908 31.2515 56.3061 31.2728 56.3167 31.2964C56.3284 31.3191 56.3355 31.3438 56.3374 31.3691C56.3393 31.3944 56.3361 31.4199 56.3279 31.444C56.3197 31.4681 56.3066 31.4903 56.2895 31.5095C56.2725 31.5286 56.2517 31.5442 56.2283 31.5554L48.8664 35.0378C48.8376 35.0466 48.8068 35.0466 48.778 35.0378Z" fill="#EBB9BE"/>
<path d="M48.778 40.1507C48.7493 40.1596 48.7185 40.1596 48.6897 40.1507L41.5633 36.6492C41.5156 36.6246 41.4795 36.5827 41.463 36.5325C41.4465 36.4823 41.4508 36.4277 41.475 36.3806C41.4865 36.3578 41.5025 36.3375 41.522 36.3208C41.5416 36.3041 41.5644 36.2913 41.589 36.2833C41.6137 36.2752 41.6397 36.2721 41.6657 36.274C41.6916 36.2758 41.7169 36.2827 41.74 36.2942L48.778 39.7382L56.0517 36.2942C56.0754 36.283 56.1012 36.2767 56.1276 36.2754C56.1539 36.2742 56.1803 36.2782 56.205 36.2872C56.2298 36.2961 56.2524 36.3099 56.2716 36.3276C56.2908 36.3453 56.3061 36.3665 56.3167 36.3902C56.3284 36.4128 56.3355 36.4375 56.3374 36.4628C56.3393 36.4882 56.3361 36.5136 56.3279 36.5377C56.3197 36.5618 56.3066 36.5841 56.2895 36.6032C56.2725 36.6223 56.2517 36.638 56.2283 36.6492L48.8664 40.1316C48.8376 40.1404 48.8068 40.1404 48.778 40.1316" fill="#EBB9BE"/>
<path d="M48.778 45.2644C48.7493 45.2732 48.7185 45.2732 48.6897 45.2644L41.5633 41.782C41.5156 41.7574 41.4795 41.7156 41.463 41.6653C41.4465 41.6151 41.4508 41.5605 41.475 41.5134C41.4865 41.4906 41.5025 41.4703 41.522 41.4536C41.5416 41.4369 41.5644 41.4241 41.589 41.4161C41.6137 41.4081 41.6397 41.4049 41.6657 41.4068C41.6916 41.4087 41.7169 41.4155 41.74 41.427L48.778 44.871L56.0516 41.427C56.0748 41.4155 56.1001 41.4087 56.126 41.4068C56.1519 41.4049 56.178 41.4081 56.2026 41.4161C56.2273 41.4241 56.2501 41.4369 56.2696 41.4536C56.2892 41.4703 56.3052 41.4906 56.3167 41.5134C56.3409 41.5605 56.3452 41.6151 56.3287 41.6653C56.3121 41.7156 56.2761 41.7574 56.2283 41.782L48.8664 45.2644C48.8376 45.2732 48.8068 45.2732 48.778 45.2644Z" fill="#EBB9BE"/>
<path d="M48.778 50.3737C48.7493 50.3826 48.7185 50.3826 48.6897 50.3737L41.5633 46.8914C41.5156 46.8668 41.4795 46.8249 41.463 46.7747C41.4465 46.7245 41.4508 46.6699 41.475 46.6228C41.4865 46.6 41.5025 46.5796 41.522 46.5629C41.5416 46.5462 41.5644 46.5335 41.589 46.5255C41.6137 46.5174 41.6397 46.5143 41.6657 46.5162C41.6916 46.518 41.7169 46.5249 41.74 46.5364L48.778 49.9804L56.0516 46.5364C56.0748 46.5249 56.1001 46.518 56.126 46.5162C56.1519 46.5143 56.178 46.5174 56.2026 46.5255C56.2273 46.5335 56.2501 46.5462 56.2696 46.5629C56.2892 46.5796 56.3052 46.6 56.3167 46.6228C56.3409 46.6699 56.3452 46.7245 56.3287 46.7747C56.3121 46.8249 56.2761 46.8668 56.2283 46.8914L48.8664 50.3737C48.8376 50.3826 48.8068 50.3826 48.778 50.3737Z" fill="#EBB9BE"/>
<path d="M36.459 26.5337C36.3511 22.2455 35.7817 18.8591 34.2112 16.7773L34.1523 16.8637C32.2676 19.7417 28.037 22.1688 26.7315 25.2099C25.2493 31.0522 30.9621 32.5104 31.2272 37.3358V63.6119H36.1351C36.4787 49.2027 36.7241 35.8105 36.459 26.5337Z" fill="url(#paint1_linear_4706_1648)"/>
<path d="M70.8238 25.2099C69.5281 22.1688 65.2876 19.7129 63.403 16.8637L63.3441 16.7773C61.7735 18.8687 61.2042 22.2455 61.0962 26.5337C60.8607 35.8105 61.0962 49.2027 61.43 63.6119H66.3379V37.3358C66.5932 32.5104 72.306 31.0522 70.8238 25.2099Z" fill="url(#paint2_linear_4706_1648)"/>
<path d="M57.5833 21.1056H39.9146C39.763 21.1069 39.6126 21.0788 39.4721 21.0229C39.3316 20.9671 39.2039 20.8846 39.0962 20.7803C38.9885 20.6759 38.903 20.5517 38.8447 20.4149C38.7864 20.2781 38.7563 20.1314 38.7563 19.9832V13.5365C38.7589 13.2379 38.8821 12.9524 39.0991 12.7422C39.316 12.532 39.6091 12.4141 39.9146 12.4141H57.5833C57.8888 12.4141 58.1819 12.532 58.3989 12.7422C58.6158 12.9524 58.739 13.2379 58.7416 13.5365V20.012C58.7339 20.3063 58.6081 20.5859 58.3915 20.7905C58.1748 20.995 57.8846 21.1082 57.5833 21.1056Z" fill="#BE1E2D"/>
<path d="M57.8876 21.1041H39.6103C39.3838 21.1041 39.1666 21.0162 39.0065 20.8597C38.8463 20.7032 38.7563 20.4909 38.7563 20.2695V21.2289C38.7563 21.4502 38.8463 21.6625 39.0065 21.819C39.1666 21.9755 39.3838 22.0635 39.6103 22.0635H57.8876C58.1141 22.0635 58.3313 21.9755 58.4915 21.819C58.6516 21.6625 58.7416 21.4502 58.7416 21.2289V20.2695C58.7416 20.4909 58.6516 20.7032 58.4915 20.8597C58.3313 21.0162 58.1141 21.1041 57.8876 21.1041Z" fill="#981824"/>
<path d="M57.8876 13.4281H39.6103C39.3838 13.4281 39.1666 13.516 39.0065 13.6725C38.8463 13.8291 38.7563 14.0413 38.7563 14.2627V13.3034C38.7563 13.082 38.8463 12.8697 39.0065 12.7132C39.1666 12.5567 39.3838 12.4687 39.6103 12.4688H57.8876C58.1141 12.4688 58.3313 12.5567 58.4915 12.7132C58.6516 12.8697 58.7416 13.082 58.7416 13.3034V14.2627C58.7416 14.0413 58.6516 13.8291 58.4915 13.6725C58.3313 13.516 58.1141 13.4281 57.8876 13.4281Z" fill="#EBB9BE"/>
<path d="M32.1783 63.1914H32.0024V63.6135H32.1783V63.1914Z" fill="#303D48"/>
<path d="M65.4932 63.1914H65.3174V63.6135H65.4932V63.1914Z" fill="#303D48"/>
<path d="M72.2085 70.1559H25.3472C24.9077 70.1559 24.4724 70.0713 24.0663 69.9069C23.6602 69.7425 23.2912 69.5015 22.9804 69.1978C22.6696 68.894 22.423 68.5334 22.2548 68.1365C22.0866 67.7396 22 67.3142 22 66.8846C22 66.455 22.0866 66.0296 22.2548 65.6327C22.423 65.2358 22.6696 64.8752 22.9804 64.5714C23.2912 64.2677 23.6602 64.0267 24.0663 63.8623C24.4724 63.6979 24.9077 63.6133 25.3472 63.6133H72.2085C72.6481 63.6133 73.0833 63.6979 73.4894 63.8623C73.8955 64.0267 74.2645 64.2677 74.5753 64.5714C74.8862 64.8752 75.1327 65.2358 75.3009 65.6327C75.4692 66.0296 75.5557 66.455 75.5557 66.8846C75.5557 67.3142 75.4692 67.7396 75.3009 68.1365C75.1327 68.5334 74.8862 68.894 74.5753 69.1978C74.2645 69.5015 73.8955 69.7425 73.4894 69.9069C73.0833 70.0713 72.6481 70.1559 72.2085 70.1559Z" fill="#AB1B29"/>
<path d="M30.5491 53.7539H27.1528V63.6158H30.5491V53.7539Z" fill="#AB1B29"/>
<path d="M24.3264 53.723H29.9902C30.6072 53.723 31.1989 53.4835 31.6352 53.0571C32.0714 52.6307 32.3165 52.0524 32.3165 51.4494C32.3165 50.8464 32.0714 50.2681 31.6352 49.8417C31.1989 49.4153 30.6072 49.1758 29.9902 49.1758H24.3264C23.7094 49.1758 23.1177 49.4153 22.6814 49.8417C22.2451 50.2681 22 50.8464 22 51.4494C22 52.0524 22.2451 52.6307 22.6814 53.0571C23.1177 53.4835 23.7094 53.723 24.3264 53.723Z" fill="#AB1B29"/>
<path d="M70.4027 53.7539H67.0063V63.6158H70.4027V53.7539Z" fill="#AB1B29"/>
<path d="M73.2289 53.723H67.5651C66.9482 53.723 66.3564 53.4835 65.9201 53.0571C65.4839 52.6307 65.2388 52.0524 65.2388 51.4494C65.2388 50.8464 65.4839 50.2681 65.9201 49.8417C66.3564 49.4153 66.9482 49.1758 67.5651 49.1758H73.2289C73.8459 49.1758 74.4377 49.4153 74.8739 49.8417C75.3102 50.2681 75.5553 50.8464 75.5553 51.4494C75.5553 52.0524 75.3102 52.6307 74.8739 53.0571C74.4377 53.4835 73.8459 53.723 73.2289 53.723Z" fill="#AB1B29"/>
<path d="M51.2119 70.1562H46.353V87.1556H51.2119V70.1562Z" fill="#AB1B29"/>
<path d="M27.0356 94.8706H23.4233V91.1388C23.4233 87.8963 26.6528 85.3828 30.7755 85.3828H51.2024V88.9131H30.7755C28.5767 88.9131 27.0356 90.1027 27.0356 91.1676V94.8706Z" fill="#AB1B29"/>
<path d="M76.6844 94.8706H73.0427V91.1388C73.0427 90.0739 71.5016 88.8844 69.3028 88.8844H48.8955V85.3828H69.3225C73.4452 85.3828 76.6844 87.925 76.6844 91.1388V94.8706Z" fill="#AB1B29"/>
<path d="M50.7114 87.9492H47.0894V94.866H50.7114V87.9492Z" fill="#AB1B29"/>
<path d="M25.1313 99.9994C24.512 99.9994 23.9066 99.82 23.3916 99.4837C22.8767 99.1474 22.4754 98.6695 22.2384 98.1103C22.0014 97.5511 21.9393 96.9358 22.0602 96.3421C22.181 95.7485 22.4792 95.2032 22.9171 94.7752C23.3551 94.3473 23.913 94.0558 24.5204 93.9377C25.1278 93.8196 25.7574 93.8802 26.3296 94.1119C26.9017 94.3435 27.3908 94.7357 27.7349 95.239C28.0789 95.7422 28.2626 96.3339 28.2626 96.9392C28.2626 97.7508 27.9327 98.5292 27.3454 99.1031C26.7582 99.677 25.9618 99.9994 25.1313 99.9994Z" fill="#AB1B29"/>
<path d="M48.8954 99.9994C48.2761 99.9994 47.6707 99.82 47.1558 99.4837C46.6409 99.1474 46.2395 98.6695 46.0025 98.1103C45.7655 97.5511 45.7035 96.9358 45.8243 96.3421C45.9451 95.7485 46.2434 95.2032 46.6813 94.7752C47.1192 94.3473 47.6772 94.0558 48.2846 93.9377C48.892 93.8196 49.5216 93.8802 50.0937 94.1119C50.6659 94.3435 51.1549 94.7357 51.499 95.239C51.8431 95.7422 52.0267 96.3339 52.0267 96.9392C52.0267 97.7508 51.6968 98.5292 51.1096 99.1031C50.5224 99.677 49.7259 99.9994 48.8954 99.9994Z" fill="#AB1B29"/>
<path d="M74.8691 99.9994C74.2498 99.9994 73.6444 99.82 73.1294 99.4837C72.6145 99.1474 72.2131 98.6695 71.9761 98.1103C71.7391 97.5511 71.6771 96.9358 71.798 96.3421C71.9188 95.7485 72.217 95.2032 72.6549 94.7752C73.0928 94.3473 73.6508 94.0558 74.2582 93.9377C74.8656 93.8196 75.4952 93.8802 76.0674 94.1119C76.6395 94.3435 77.1286 94.7357 77.4726 95.239C77.8167 95.7422 78.0004 96.3339 78.0004 96.9392C78.0004 97.7508 77.6705 98.5292 77.0832 99.1031C76.496 99.677 75.6995 99.9994 74.8691 99.9994Z" fill="#AB1B29"/>
<path d="M51.2618 67.2211H46.6582C46.6075 67.2294 46.5556 67.2269 46.506 67.2136C46.4565 67.2003 46.4105 67.1766 46.3713 67.1442C46.3321 67.1118 46.3005 67.0714 46.2789 67.0259C46.2573 66.9803 46.2461 66.9307 46.2461 66.8805C46.2461 66.8303 46.2573 66.7807 46.2789 66.7352C46.3005 66.6896 46.3321 66.6492 46.3713 66.6168C46.4105 66.5844 46.4565 66.5607 46.506 66.5474C46.5556 66.5342 46.6075 66.5316 46.6582 66.54H51.2618C51.3442 66.5535 51.419 66.5952 51.473 66.6575C51.5269 66.7199 51.5565 66.7989 51.5565 66.8805C51.5565 66.9622 51.5269 67.0412 51.473 67.1035C51.419 67.1659 51.3442 67.2075 51.2618 67.2211Z" fill="#EBB9BE"/>
<path d="M44.5764 67.2211H26.4856C26.4032 67.2075 26.3284 67.1659 26.2745 67.1035C26.2205 67.0412 26.1909 66.9622 26.1909 66.8805C26.1909 66.7989 26.2205 66.7199 26.2745 66.6575C26.3284 66.5952 26.4032 66.5535 26.4856 66.54H44.5764C44.627 66.5316 44.6789 66.5342 44.7285 66.5474C44.778 66.5607 44.824 66.5844 44.8632 66.6168C44.9025 66.6492 44.934 66.6896 44.9556 66.7352C44.9772 66.7807 44.9884 66.8303 44.9884 66.8805C44.9884 66.9307 44.9772 66.9803 44.9556 67.0259C44.934 67.0714 44.9025 67.1118 44.8632 67.1442C44.824 67.1766 44.778 67.2003 44.7285 67.2136C44.6789 67.2269 44.627 67.2294 44.5764 67.2211Z" fill="#EBB9BE"/>
<defs>
<linearGradient id="paint0_linear_4706_1648" x1="38.7563" y1="17.7467" x2="58.7416" y2="17.7467" gradientUnits="userSpaceOnUse">
<stop stop-color="#BE1E2D"/>
<stop offset="1" stop-color="#8F1722"/>
</linearGradient>
<linearGradient id="paint1_linear_4706_1648" x1="26.4861" y1="40.1946" x2="36.5572" y2="40.1946" gradientUnits="userSpaceOnUse">
<stop stop-color="#BE1E2D"/>
<stop offset="1" stop-color="#8F1722"/>
</linearGradient>
<linearGradient id="paint2_linear_4706_1648" x1="60.9981" y1="40.1946" x2="71.0692" y2="40.1946" gradientUnits="userSpaceOnUse">
<stop stop-color="#BE1E2D"/>
<stop offset="1" stop-color="#8F1722"/>
</linearGradient>
</defs>
</svg>