<svg width="100" height="100" viewBox="0 0 100 100" fill="none" xmlns="http://www.w3.org/2000/svg">
<path d="M19.2521 57.7567H16V40.1095C16 36.3164 17.1687 33.4591 19.4757 31.6279C20.9484 30.5039 22.7077 29.8072 24.5572 29.6157C25.4569 29.5018 26.3657 29.4749 27.2707 29.5352C27.9192 29.571 28.5644 29.6517 29.2016 29.7767L28.8358 31.3563L28.4801 32.9359L28.1955 32.8755C27.9821 32.8755 27.6569 32.795 27.2605 32.7749C26.3553 32.6974 25.4438 32.7312 24.547 32.8755C23.4382 33.0341 22.3887 33.4704 21.4981 34.1432C20.0042 35.3304 19.2521 37.3326 19.2521 40.1095V57.7567Z" fill="url(#paint0_linear_4706_1654)"/>
<path d="M19.2521 57.2924C19.2521 60.0491 20.0042 62.0513 21.4981 63.2385C23.7543 65.0394 27.1792 64.6672 28.1955 64.5062H28.4902L28.8459 66.0757L29.2118 67.605C28.9679 67.6553 23.3783 68.8426 19.496 65.7638C17.1687 63.9327 16 61.0854 16 57.2924V39.625H19.2521V57.2924Z" fill="url(#paint1_linear_4706_1654)"/>
<path d="M24.5469 32.8772V29.6274C25.4466 29.5135 26.3554 29.4866 27.2604 29.5469V32.7766C26.3551 32.6991 25.4437 32.7329 24.5469 32.8772Z" fill="url(#paint2_linear_4706_1654)"/>
<path d="M24.5674 64.5078V67.7576C25.4637 67.8716 26.3691 67.8985 27.2707 67.8381V64.6185C26.3683 64.6871 25.461 64.6499 24.5674 64.5078Z" fill="url(#paint3_linear_4706_1654)"/>
<path d="M63.5925 22H43.8459C42.7678 22 41.7338 22.424 40.9714 23.1787C40.2091 23.9335 39.7808 24.9571 39.7808 26.0245V35.8441C39.7808 36.9115 40.2091 37.9351 40.9714 38.6898C41.7338 39.4446 42.7678 39.8686 43.8459 39.8686H63.5925V22Z" fill="url(#paint4_linear_4706_1654)"/>
<path d="M63.5928 35.9737V25.832H72.526C72.8613 25.832 73.1256 26.0333 73.1256 26.2848V35.5209C73.1256 35.7724 72.8613 35.9737 72.526 35.9737H63.5928Z" fill="#EBB9BE"/>
<path d="M70.2495 31.2971H73.1256V30.4922H69.6295C69.6281 30.656 69.5832 30.8166 69.4993 30.9578C69.4155 31.0991 69.2957 31.2161 69.1519 31.2971C69.0112 31.3825 68.8494 31.4277 68.6844 31.4277C68.5194 31.4277 68.3576 31.3825 68.2169 31.2971C68.0731 31.2161 67.9533 31.0991 67.8694 30.9578C67.7856 30.8166 67.7407 30.656 67.7392 30.4922H63.5928V31.2971H67.1193C67.2693 31.5794 67.4944 31.8158 67.7702 31.9807C68.046 32.1457 68.3622 32.2328 68.6844 32.2328C69.0066 32.2328 69.3227 32.1457 69.5986 31.9807C69.8744 31.8158 70.0995 31.5794 70.2495 31.2971Z" fill="url(#paint5_linear_4706_1654)"/>
<path d="M55.026 34.838V32.8258H52.9934V33.2483C52.6644 33.2628 52.3418 33.1552 52.0889 32.9465C51.8715 32.7498 51.6978 32.5105 51.5788 32.2437C51.4598 31.977 51.3982 31.6887 51.3978 31.3971H55.5341V32.1819L57.963 30.7934L55.5239 29.3949V30.1897H50.1884C50.1874 29.8955 50.2494 29.6044 50.3702 29.3356C50.4911 29.0668 50.6681 28.8264 50.8896 28.6303C51.0296 28.5149 51.1921 28.4295 51.367 28.3793C51.5419 28.329 51.7254 28.3152 51.9059 28.3385C51.9581 28.5395 52.0669 28.7217 52.2195 28.864C52.3722 29.0062 52.5625 29.1027 52.7683 29.1421C52.9741 29.1815 53.187 29.1623 53.3823 29.0868C53.5775 29.0112 53.7471 28.8823 53.8713 28.7151C53.9955 28.5479 54.0692 28.3492 54.0838 28.1422C54.0985 27.9351 54.0535 27.7282 53.9542 27.5455C53.8548 27.3628 53.705 27.2117 53.5224 27.1099C53.3397 27.008 53.1316 26.9596 52.9222 26.9702C52.6826 26.9645 52.4486 27.0429 52.2616 27.1915C51.878 27.1032 51.4791 27.1026 51.0952 27.1898C50.7113 27.2769 50.3525 27.4496 50.0461 27.6946C49.6847 28.0043 49.395 28.3875 49.1968 28.8181C48.9986 29.2487 48.8966 29.7165 48.8977 30.1897H48.1152C47.978 29.9056 47.7474 29.6761 47.4611 29.5388C47.1749 29.4015 46.8499 29.3647 46.5397 29.4343C46.2295 29.5039 45.9524 29.6758 45.7539 29.9219C45.5554 30.1679 45.4473 30.4735 45.4473 30.7884C45.4473 31.1033 45.5554 31.4088 45.7539 31.6549C45.9524 31.9009 46.2295 32.0729 46.5397 32.1425C46.8499 32.2121 47.1749 32.1752 47.4611 32.038C47.7474 31.9007 47.978 31.6711 48.1152 31.387H50.1478C50.1481 31.8585 50.2509 32.3244 50.449 32.7532C50.6471 33.182 50.936 33.5636 51.2962 33.8721C51.7625 34.25 52.3502 34.4498 52.9527 34.4355V34.838H55.026Z" fill="url(#paint6_linear_4706_1654)"/>
<path d="M71.3677 74.5008V57.3164H83.2176C83.4244 57.319 83.6219 57.4015 83.7681 57.5462C83.9143 57.6909 83.9975 57.8865 84.0002 58.0911V73.7261C83.9975 73.9308 83.9143 74.1263 83.7681 74.271C83.6219 74.4158 83.4244 74.4982 83.2176 74.5008H71.3677Z" fill="#EBB9BE"/>
<path d="M80.1891 66.7133H84.0002V65.6367H79.3659C79.3662 65.8553 79.3081 66.07 79.1974 66.2591C79.0868 66.4482 78.9275 66.6049 78.7358 66.7133C78.5489 66.8256 78.3344 66.8848 78.1158 66.8843C77.894 66.8851 77.6762 66.8259 77.4857 66.7133C77.2941 66.6049 77.1348 66.4482 77.0241 66.2591C76.9134 66.07 76.8553 65.8553 76.8556 65.6367H71.3677V66.7133H76.0426C76.237 67.0819 76.5287 67.3917 76.8865 67.6095C77.2444 67.8274 77.6551 67.9453 78.0752 67.9508C78.4946 67.9421 78.904 67.8229 79.2613 67.6054C79.6186 67.3878 79.9108 67.0799 80.1078 66.7133H80.1891Z" fill="url(#paint7_linear_4706_1654)"/>
<path d="M76.52 63.122V59.832H78.3493V63.122H76.52Z" fill="url(#paint8_linear_4706_1654)"/>
<path d="M76.52 72.5478V69.2578H78.3493V72.5478H76.52Z" fill="url(#paint9_linear_4706_1654)"/>
<path d="M39.8016 27.4844L37.2101 27.7761L35.5739 27.9572V29.1948C35.5739 29.3816 35.4989 29.5607 35.3655 29.6928C35.2321 29.8248 35.0511 29.899 34.8625 29.899C34.6738 29.899 34.4928 29.8248 34.3594 29.6928C34.226 29.5607 34.1511 29.3816 34.1511 29.1948V28.6817C34.15 28.612 34.1343 28.5433 34.1051 28.4799C34.0758 28.4166 34.0335 28.3599 33.981 28.3136C33.9284 28.2672 33.8667 28.2322 33.7998 28.2107C33.7328 28.1892 33.6621 28.1817 33.5921 28.1887C33.4699 28.2033 33.3572 28.2613 33.2749 28.352C33.1927 28.4427 33.1465 28.5598 33.1449 28.6817V29.3658C33.1449 29.5526 33.07 29.7317 32.9366 29.8638C32.8031 29.9959 32.6222 30.0701 32.4335 30.0701C32.2448 30.0701 32.0639 29.9959 31.9305 29.8638C31.7971 29.7317 31.7221 29.5526 31.7221 29.3658V28.9634C31.7225 28.8928 31.7079 28.823 31.6792 28.7585C31.6505 28.6939 31.6085 28.636 31.5558 28.5886C31.5031 28.5412 31.4409 28.5052 31.3733 28.4831C31.3056 28.461 31.234 28.4533 31.1632 28.4603C31.0392 28.4705 30.9238 28.5273 30.8407 28.6189C30.7576 28.7106 30.713 28.8302 30.716 28.9533V29.6576C30.716 29.8453 30.6414 30.0255 30.5083 30.1592C30.3751 30.2929 30.1942 30.3693 30.0046 30.3719C29.9103 30.3719 29.817 30.3534 29.73 30.3174C29.643 30.2813 29.5641 30.2286 29.4979 30.1621C29.4317 30.0956 29.3795 30.0168 29.3444 29.9302C29.3092 29.8436 29.2918 29.7509 29.2932 29.6576V29.235C29.2937 29.1649 29.2791 29.0954 29.2504 29.0313C29.2216 28.9672 29.1794 28.9099 29.1265 28.8632C29.0736 28.8165 29.0112 28.7816 28.9436 28.7607C28.8759 28.7398 28.8046 28.7334 28.7342 28.742L28.1753 28.8024C27.948 28.8273 27.7381 28.9346 27.5861 29.1037C27.434 29.2728 27.3507 29.4916 27.3521 29.7179V32.7363C27.3507 32.9626 27.434 33.1815 27.5861 33.3506C27.7381 33.5196 27.948 33.627 28.1753 33.6519L28.7342 33.7122C28.8046 33.7208 28.8759 33.7144 28.9436 33.6936C29.0112 33.6727 29.0736 33.6377 29.1265 33.591C29.1794 33.5444 29.2216 33.4871 29.2504 33.4229C29.2791 33.3588 29.2937 33.2894 29.2932 33.2192V32.7866C29.2918 32.6933 29.3092 32.6006 29.3444 32.514C29.3795 32.4274 29.4317 32.3485 29.4979 32.2821C29.5641 32.2156 29.643 32.1628 29.73 32.1268C29.817 32.0908 29.9103 32.0722 30.0046 32.0723C30.1942 32.0749 30.3751 32.1513 30.5083 32.285C30.6414 32.4187 30.716 32.5989 30.716 32.7866V33.4909C30.713 33.614 30.7576 33.7336 30.8407 33.8253C30.9238 33.9169 31.0392 33.9736 31.1632 33.9839C31.234 33.9909 31.3056 33.9831 31.3733 33.961C31.4409 33.9389 31.5031 33.903 31.5558 33.8556C31.6085 33.8081 31.6505 33.7503 31.6792 33.6857C31.7079 33.6211 31.7225 33.5513 31.7221 33.4808V33.0784C31.7208 32.985 31.7382 32.8924 31.7733 32.8058C31.8085 32.7192 31.8607 32.6403 31.9269 32.5739C31.9931 32.5074 32.0719 32.4546 32.1589 32.4186C32.2459 32.3826 32.3392 32.364 32.4335 32.364C32.5278 32.364 32.6212 32.3826 32.7081 32.4186C32.7951 32.4546 32.874 32.5074 32.9402 32.5739C33.0064 32.6403 33.0586 32.7192 33.0937 32.8058C33.1289 32.8924 33.1463 32.985 33.1449 33.0784V33.7625C33.1465 33.8844 33.1927 34.0015 33.2749 34.0922C33.3572 34.1829 33.4699 34.2409 33.5921 34.2555C33.6624 34.2641 33.7338 34.2577 33.8014 34.2369C33.8691 34.216 33.9314 34.181 33.9843 34.1343C34.0373 34.0877 34.0795 34.0304 34.1082 33.9662C34.137 33.9021 34.1516 33.8327 34.1511 33.7625V33.2494C34.1511 33.0626 34.226 32.8835 34.3594 32.7514C34.4928 32.6193 34.6738 32.5451 34.8625 32.5451C35.0511 32.5451 35.2321 32.6193 35.3655 32.7514C35.4989 32.8835 35.5739 33.0626 35.5739 33.2494V34.4869L37.2101 34.668L39.8016 34.9598V27.4844Z" fill="#EBB9BE"/>
<path d="M39.8015 35L37.21 34.7083V27.7761L39.8015 27.4844V35Z" fill="#BE1E2D"/>
<path d="M39.8016 62.5547L37.2101 62.8465L35.5739 63.0376V64.255C35.5739 64.4418 35.4989 64.6209 35.3655 64.753C35.2321 64.8851 35.0511 64.9593 34.8625 64.9593C34.6738 64.9593 34.4928 64.8851 34.3594 64.753C34.226 64.6209 34.1511 64.4418 34.1511 64.255V63.752C34.15 63.6823 34.1343 63.6136 34.1051 63.5502C34.0758 63.4869 34.0335 63.4302 33.981 63.3839C33.9284 63.3375 33.8667 63.3025 33.7998 63.281C33.7328 63.2595 33.6621 63.252 33.5921 63.259C33.4699 63.2736 33.3572 63.3316 33.2749 63.4223C33.1927 63.513 33.1465 63.6301 33.1449 63.752V64.4361C33.1449 64.6229 33.07 64.802 32.9366 64.9341C32.8031 65.0662 32.6222 65.1404 32.4335 65.1404C32.2448 65.1404 32.0639 65.0662 31.9305 64.9341C31.7971 64.802 31.7221 64.6229 31.7221 64.4361V64.0337C31.7225 63.9632 31.7079 63.8934 31.6792 63.8288C31.6505 63.7642 31.6085 63.7064 31.5558 63.6589C31.5031 63.6115 31.4409 63.5755 31.3733 63.5534C31.3056 63.5313 31.234 63.5236 31.1632 63.5306C31.0401 63.5431 30.9261 63.6005 30.8434 63.6917C30.7608 63.7828 30.7153 63.9011 30.716 64.0236V64.7279C30.716 64.9156 30.6414 65.0958 30.5083 65.2295C30.3751 65.3632 30.1942 65.4396 30.0046 65.4422C29.9103 65.4422 29.817 65.4237 29.73 65.3877C29.643 65.3517 29.5641 65.2989 29.4979 65.2324C29.4317 65.1659 29.3795 65.0871 29.3444 65.0005C29.3092 64.9139 29.2918 64.8212 29.2932 64.7279V64.2953C29.2937 64.2251 29.2791 64.1557 29.2504 64.0915C29.2216 64.0274 29.1794 63.9701 29.1265 63.9235C29.0736 63.8768 29.0112 63.8418 28.9436 63.8209C28.8759 63.8 28.8046 63.7937 28.7342 63.8023L28.1753 63.8626C27.9489 63.8896 27.7403 63.9976 27.5887 64.1662C27.437 64.3348 27.3529 64.5525 27.3521 64.7782V67.7965C27.3507 68.0229 27.434 68.2417 27.5861 68.4108C27.7381 68.5799 27.948 68.6872 28.1753 68.7121L28.7342 68.7725C28.8627 68.7673 28.9842 68.713 29.0733 68.6212C29.1623 68.5293 29.212 68.4068 29.2119 68.2795V67.8468C29.2119 67.7544 29.2303 67.6628 29.266 67.5773C29.3018 67.4919 29.3542 67.4142 29.4202 67.3488C29.4863 67.2834 29.5647 67.2316 29.651 67.1962C29.7374 67.1608 29.8299 67.1426 29.9233 67.1426C30.0167 67.1426 30.1092 67.1608 30.1955 67.1962C30.2818 67.2316 30.3603 67.2834 30.4263 67.3488C30.4924 67.4142 30.5448 67.4919 30.5805 67.5773C30.6163 67.6628 30.6347 67.7544 30.6347 67.8468V68.5612C30.6363 68.683 30.6825 68.8002 30.7647 68.8909C30.847 68.9815 30.9596 69.0396 31.0819 69.0542C31.1519 69.0612 31.2226 69.0537 31.2896 69.0322C31.3565 69.0107 31.4182 68.9756 31.4707 68.9293C31.5233 68.8829 31.5655 68.8263 31.5948 68.7629C31.6241 68.6995 31.6398 68.6309 31.6408 68.5612V68.1487C31.6395 68.0553 31.6569 67.9627 31.692 67.8761C31.7272 67.7895 31.7794 67.7106 31.8456 67.6442C31.9117 67.5777 31.9906 67.5249 32.0776 67.4889C32.1646 67.4529 32.2579 67.4343 32.3522 67.4343C32.4465 67.4343 32.5398 67.4529 32.6268 67.4889C32.7138 67.5249 32.7927 67.5777 32.8589 67.6442C32.9251 67.7106 32.9773 67.7895 33.0124 67.8761C33.0476 67.9627 33.065 68.0553 33.0636 68.1487V68.8328C33.0652 68.9547 33.1114 69.0718 33.1936 69.1625C33.2759 69.2532 33.3886 69.3112 33.5108 69.3258C33.5811 69.3344 33.6525 69.3281 33.7201 69.3072C33.7878 69.2863 33.8501 69.2513 33.903 69.2046C33.956 69.158 33.9982 69.1007 34.0269 69.0366C34.0557 68.9724 34.0703 68.903 34.0698 68.8328V68.3197C34.0698 68.2272 34.0882 68.1357 34.1239 68.0502C34.1597 67.9648 34.2121 67.8871 34.2781 67.8217C34.3442 67.7563 34.4226 67.7044 34.5089 67.669C34.5952 67.6337 34.6877 67.6154 34.7812 67.6154C34.8746 67.6154 34.9671 67.6337 35.0534 67.669C35.1397 67.7044 35.2181 67.7563 35.2842 67.8217C35.3503 67.8871 35.4027 67.9648 35.4384 68.0502C35.4742 68.1357 35.4926 68.2272 35.4926 68.3197V69.5572L37.1288 69.7383L39.7203 70.0301V62.5547H39.8016Z" fill="#EBB9BE"/>
<path d="M39.8015 70.0704L37.21 69.7786V62.8465L39.8015 62.5547V70.0704Z" fill="#BE1E2D"/>
<path d="M71.3677 58.761V58.1875H84.0002V58.761H71.3677Z" fill="url(#paint10_linear_4706_1654)"/>
<path d="M71.3677 73.8564V73.293H84.0002V73.8564H71.3677Z" fill="url(#paint11_linear_4706_1654)"/>
<path d="M71.3677 54.375H45.1576C43.7372 54.375 42.3749 54.9336 41.3705 55.928C40.366 56.9223 39.8018 58.271 39.8018 59.6772V72.6963C39.8018 74.1026 40.366 75.4512 41.3705 76.4456C42.3749 77.4399 43.7372 77.9986 45.1576 77.9986H71.3677V54.375Z" fill="url(#paint12_linear_4706_1654)"/>
<defs>
<linearGradient id="paint0_linear_4706_1654" x1="22.5957" y1="29.5151" x2="22.5957" y2="57.7567" gradientUnits="userSpaceOnUse">
<stop stop-color="#BE1E2D"/>
<stop offset="1" stop-color="#8F1722"/>
</linearGradient>
<linearGradient id="paint1_linear_4706_1654" x1="22.5957" y1="39.625" x2="22.5957" y2="67.8666" gradientUnits="userSpaceOnUse">
<stop stop-color="#BE1E2D"/>
<stop offset="1" stop-color="#8F1722"/>
</linearGradient>
<linearGradient id="paint2_linear_4706_1654" x1="25.9087" y1="29.5167" x2="25.9087" y2="32.8772" gradientUnits="userSpaceOnUse">
<stop stop-color="#BE1E2D"/>
<stop offset="1" stop-color="#8F1722"/>
</linearGradient>
<linearGradient id="paint3_linear_4706_1654" x1="25.919" y1="64.5078" x2="25.919" y2="67.8682" gradientUnits="userSpaceOnUse">
<stop stop-color="#BE1E2D"/>
<stop offset="1" stop-color="#8F1722"/>
</linearGradient>
<linearGradient id="paint4_linear_4706_1654" x1="51.7019" y1="22" x2="51.7019" y2="39.8082" gradientUnits="userSpaceOnUse">
<stop stop-color="#BE1E2D"/>
<stop offset="1" stop-color="#8F1722"/>
</linearGradient>
<linearGradient id="paint5_linear_4706_1654" x1="68.3592" y1="30.4821" x2="68.3592" y2="32.2328" gradientUnits="userSpaceOnUse">
<stop stop-color="#BE1E2D"/>
<stop offset="1" stop-color="#8F1722"/>
</linearGradient>
<linearGradient id="paint6_linear_4706_1654" x1="51.7027" y1="26.9702" x2="51.7027" y2="34.838" gradientUnits="userSpaceOnUse">
<stop stop-color="#F9E9EA"/>
<stop offset="1" stop-color="#FFCCCC"/>
</linearGradient>
<linearGradient id="paint7_linear_4706_1654" x1="77.6788" y1="65.6367" x2="77.6788" y2="67.9508" gradientUnits="userSpaceOnUse">
<stop stop-color="#BE1E2D"/>
<stop offset="1" stop-color="#8F1722"/>
</linearGradient>
<linearGradient id="paint8_linear_4706_1654" x1="77.4347" y1="59.832" x2="77.4347" y2="63.122" gradientUnits="userSpaceOnUse">
<stop stop-color="#BE1E2D"/>
<stop offset="1" stop-color="#8F1722"/>
</linearGradient>
<linearGradient id="paint9_linear_4706_1654" x1="77.4347" y1="69.2578" x2="77.4347" y2="72.5478" gradientUnits="userSpaceOnUse">
<stop stop-color="#BE1E2D"/>
<stop offset="1" stop-color="#8F1722"/>
</linearGradient>
<linearGradient id="paint10_linear_4706_1654" x1="77.6788" y1="58.1875" x2="77.6788" y2="58.761" gradientUnits="userSpaceOnUse">
<stop stop-color="#BE1E2D"/>
<stop offset="1" stop-color="#8F1722"/>
</linearGradient>
<linearGradient id="paint11_linear_4706_1654" x1="77.6788" y1="73.2829" x2="77.6788" y2="73.8564" gradientUnits="userSpaceOnUse">
<stop stop-color="#BE1E2D"/>
<stop offset="1" stop-color="#8F1722"/>
</linearGradient>
<linearGradient id="paint12_linear_4706_1654" x1="55.5848" y1="54.375" x2="55.5848" y2="77.9986" gradientUnits="userSpaceOnUse">
<stop stop-color="#BE1E2D"/>
<stop offset="1" stop-color="#8F1722"/>
</linearGradient>
</defs>
</svg>