<svg width="100" height="100" viewBox="0 0 100 100" fill="none" xmlns="http://www.w3.org/2000/svg">
<path d="M75.8801 23.1055H16.2212V67.4143H75.8801V23.1055Z" fill="url(#paint0_linear_4706_1645)"/>
<path d="M29.8628 28.0703H22.7378C21.8932 28.0703 21.2085 28.7385 21.2085 29.5628V37.2883C21.2085 38.1125 21.8932 38.7808 22.7378 38.7808H29.8628C30.7074 38.7808 31.392 38.1125 31.392 37.2883V29.5628C31.392 28.7385 30.7074 28.0703 29.8628 28.0703Z" fill="#AB1B29"/>
<path d="M57.5115 44.4578H22.5555C22.1973 44.4471 21.8459 44.5541 21.5575 44.7617C21.2692 44.9693 21.0607 45.2655 20.9654 45.6026C20.9058 45.8291 20.9001 46.0659 20.9486 46.2949C20.9971 46.5239 21.0985 46.739 21.2452 46.9239C21.3919 47.1088 21.58 47.2586 21.795 47.3617C22.01 47.4649 22.2464 47.5187 22.486 47.5191H57.442C57.8009 47.5278 58.1525 47.419 58.4407 47.2099C58.7289 47.0009 58.9371 46.7037 59.0321 46.3658C59.0901 46.1399 59.0947 45.904 59.0454 45.6761C58.9962 45.4482 58.8945 45.2342 58.748 45.0503C58.6014 44.8665 58.414 44.7176 58.1997 44.6149C57.9855 44.5122 57.7501 44.4585 57.5115 44.4578Z" fill="#AB1B29"/>
<path d="M57.5115 50.7897H22.5555C22.1999 50.7795 21.851 50.8847 21.5632 51.0888C21.2755 51.2929 21.0652 51.5844 20.9654 51.9176C20.9058 52.1441 20.9001 52.3809 20.9486 52.6099C20.9971 52.8389 21.0985 53.0541 21.2452 53.239C21.3919 53.4238 21.58 53.5736 21.795 53.6767C22.01 53.7799 22.2464 53.8337 22.486 53.8341H57.442C57.8024 53.8438 58.1557 53.7344 58.4443 53.5235C58.733 53.3126 58.9401 53.0126 59.0321 52.6723C59.0855 52.4481 59.0866 52.2151 59.0352 51.9904C58.9838 51.7657 58.8814 51.5552 58.7353 51.3744C58.5893 51.1936 58.4035 51.0472 58.1917 50.946C57.9798 50.8448 57.7473 50.7914 57.5115 50.7897Z" fill="#AB1B29"/>
<path d="M57.5116 57.6919H22.5556C22.1956 57.6828 21.8427 57.7913 21.553 58.0003C21.2634 58.2092 21.0535 58.5066 20.9568 58.8452C20.8987 59.0719 20.8942 59.3085 20.9439 59.537C20.9936 59.7656 21.0961 59.98 21.2436 60.1641C21.3911 60.3481 21.5797 60.4968 21.795 60.5989C22.0104 60.701 22.2467 60.7538 22.4861 60.7533H57.4421C57.8068 60.7596 58.1629 60.6447 58.4519 60.4274C58.7409 60.2101 58.9455 59.9034 59.0322 59.5576C59.0826 59.3345 59.0814 59.1033 59.0287 58.8808C58.9759 58.6583 58.8729 58.45 58.7273 58.2713C58.5816 58.0925 58.3968 57.9477 58.1865 57.8475C57.9762 57.7473 57.7457 57.6941 57.5116 57.6919Z" fill="#AB1B29"/>
<path d="M60.3964 71.7388C60.3522 71.9598 60.326 72.1838 60.3182 72.4088H15.2134C13.8382 72.4088 12.5187 71.8786 11.5423 70.9335C10.5658 69.9885 10.0115 68.7051 10 67.3631V23.0881C10 21.7387 10.5493 20.4445 11.527 19.4903C12.5047 18.5361 13.8307 18 15.2134 18H81.0763C82.459 18 83.7851 18.5361 84.7628 19.4903C85.7405 20.4445 86.2897 21.7387 86.2897 23.0881V61.7492C85.2323 60.9117 83.9064 60.4643 82.5448 60.4856C82.0812 60.4852 81.6186 60.5278 81.1632 60.6128C80.384 60.1267 79.4812 59.8624 78.5565 59.8496C77.5263 59.8562 76.5249 60.183 75.6978 60.7824L75.524 60.6976V23.0881H16.2213V67.2952H65.1059C65.6098 68.1941 65.9748 68.8216 66.1572 69.1354C66.3397 69.4492 66.3484 69.5425 66.4874 69.8053C66.4179 69.7629 66.3484 69.7375 66.2789 69.7036C63.3767 68.2959 60.8656 69.3644 60.3964 71.7388Z" fill="url(#paint1_linear_4706_1645)"/>
<path d="M78.1135 45.1936C78.1143 45.6468 78.22 46.0941 78.4227 46.5019C78.6254 46.9098 78.9198 47.2677 79.284 47.5489C79.6482 47.8302 80.0728 48.0276 80.5261 48.1263C80.9794 48.2251 81.4497 48.2226 81.9019 48.1192C82.4504 47.9951 82.9528 47.7249 83.3532 47.3386C83.7536 46.9523 84.0363 46.4651 84.1697 45.9313C84.2584 45.5245 84.2595 45.1041 84.1729 44.6968C84.0863 44.2895 83.914 43.9043 83.6668 43.5654C83.4196 43.2266 83.1029 42.9416 82.7369 42.7285C82.3709 42.5154 81.9635 42.3789 81.5405 42.3276C81.1176 42.2763 80.6883 42.3113 80.28 42.4305C79.8717 42.5497 79.4931 42.7503 79.1685 43.0198C78.8438 43.2893 78.5801 43.6216 78.394 43.9958C78.2078 44.37 78.1035 44.7779 78.0874 45.1936H78.1135Z" fill="url(#paint2_linear_4706_1645)"/>
<path d="M89.9998 77.7184L89.6001 75.5983C89.6522 70.1456 85.6726 64.3875 85.6726 64.3875C84.265 60.9531 80.4592 62.4795 80.4592 62.4795C77.8525 60.0372 75.9322 62.9374 75.9322 62.9374C73.0127 60.6478 71.3618 64.0568 71.3618 64.0568C70.9708 64.1331 65.1144 54.2707 64.8016 54.3724C63.5851 52.9139 60.5266 52.1252 62.3426 56.5434C66.0007 63.9042 68.2251 67.5676 68.2251 67.5676C68.2251 68.0849 72.3437 74.021 70.936 74.7842C69.876 74.7249 67.8688 73.0882 67.8688 73.0882C67.8688 73.0882 65.3664 71.2141 65.3142 71.2395C61.5693 69.2806 62.0732 73.5715 64.0196 74.4111C64.1064 74.9114 64.567 74.5722 66.5481 77.3452C66.8348 78.0576 69.6848 79.0413 69.6848 79.0413C72.0972 80.4819 74.852 81.2856 77.6787 81.3733C79.7988 81.8652 79.3296 83.0015 79.3296 83.0015L89.9998 77.7184Z" fill="url(#paint3_linear_4706_1645)"/>
<defs>
<linearGradient id="paint0_linear_4706_1645" x1="16.2212" y1="45.2641" x2="75.8801" y2="45.2641" gradientUnits="userSpaceOnUse">
<stop stop-color="#F9E9EA"/>
<stop offset="1" stop-color="#FFCCCC"/>
</linearGradient>
<linearGradient id="paint1_linear_4706_1645" x1="10" y1="45.2044" x2="86.2029" y2="45.2044" gradientUnits="userSpaceOnUse">
<stop stop-color="#BE1E2D"/>
<stop offset="1" stop-color="#8F1722"/>
</linearGradient>
<linearGradient id="paint2_linear_4706_1645" x1="78.1135" y1="45.1936" x2="84.2653" y2="45.1936" gradientUnits="userSpaceOnUse">
<stop stop-color="#F9E9EA"/>
<stop offset="1" stop-color="#FFCCCC"/>
</linearGradient>
<linearGradient id="paint3_linear_4706_1645" x1="61.7517" y1="68.0764" x2="89.9998" y2="68.0764" gradientUnits="userSpaceOnUse">
<stop stop-color="#BE1E2D"/>
<stop offset="1" stop-color="#8F1722"/>
</linearGradient>
</defs>
</svg>
