<svg width="100" height="100" viewBox="0 0 100 100" fill="none" xmlns="http://www.w3.org/2000/svg">
<path d="M76.3745 79.1287H61.7265V76.2558C61.7141 75.4977 61.4053 74.7741 60.8655 74.2379C60.3256 73.7018 59.597 73.3951 58.8336 73.3828H41.2058C39.5857 73.3828 38.3128 76.2558 38.3128 76.2558V79.1287H23.6166C22.8607 79.1637 22.1451 79.4776 21.61 80.009C21.0749 80.5404 20.7588 81.251 20.7236 82.0017H79.3061C79.3061 81.6212 79.23 81.2444 79.0822 80.8933C78.9344 80.5422 78.7179 80.2238 78.4452 79.9565C78.1724 79.6892 77.8489 79.4784 77.4935 79.3363C77.138 79.1942 76.7577 79.1236 76.3745 79.1287Z" fill="url(#paint0_linear_4706_1656)"/>
<path d="M86.9238 18H13.0762C11.3773 18 10 19.3677 10 21.0549V69.943C10 71.6302 11.3773 72.9979 13.0762 72.9979H86.9238C88.6227 72.9979 90 71.6302 90 69.943V21.0549C90 19.3677 88.6227 18 86.9238 18Z" fill="url(#paint1_linear_4706_1656)"/>
<path d="M83.838 24.1055H16.1523V63.8289H83.838V24.1055Z" fill="url(#paint2_linear_4706_1656)"/>
<defs>
<linearGradient id="paint0_linear_4706_1656" x1="20.6851" y1="77.6731" x2="79.3061" y2="77.6731" gradientUnits="userSpaceOnUse">
<stop stop-color="#BE1E2D"/>
<stop offset="1" stop-color="#8F1722"/>
</linearGradient>
<linearGradient id="paint1_linear_4706_1656" x1="10" y1="45.5038" x2="90" y2="45.5038" gradientUnits="userSpaceOnUse">
<stop stop-color="#BE1E2D"/>
<stop offset="1" stop-color="#8F1722"/>
</linearGradient>
<linearGradient id="paint2_linear_4706_1656" x1="16.1523" y1="43.9672" x2="83.838" y2="43.9672" gradientUnits="userSpaceOnUse">
<stop stop-color="#F9E9EA"/>
<stop offset="1" stop-color="#FFCCCC"/>
</linearGradient>
</defs>
</svg>