<svg width="100" height="100" viewBox="0 0 100 100" fill="none" xmlns="http://www.w3.org/2000/svg">
<path d="M56.056 22.2812L16.6034 60.7107C16.0958 61.2045 15.6925 61.7941 15.4172 62.4449C15.1418 63.0957 15 63.7947 15 64.5007C15 65.2067 15.1418 65.9056 15.4172 66.5564C15.6925 67.2073 16.0958 67.7969 16.6034 68.2907L32.1654 83.4407C33.2071 84.442 34.5994 85.0018 36.0484 85.0018C37.4974 85.0018 38.8897 84.442 39.9314 83.4407L79.384 45.0113L56.056 22.2812Z" fill="url(#paint0_linear_4706_1649)"/>
<path d="M85 28.8218L71.0956 15L59.8335 26.2053L73.7379 40.0271L85 28.8218ZM78.9721 28.0229L76.6413 30.3198L73.8182 27.5135L76.139 25.2066L78.9721 28.0229ZM69.5284 23.2192L71.8391 20.9222L74.6722 23.7385L72.3514 26.0355L69.5284 23.2192Z" fill="url(#paint1_linear_4706_1649)"/>
<defs>
<linearGradient id="paint0_linear_4706_1649" x1="14.9959" y1="53.64" x2="79.384" y2="53.64" gradientUnits="userSpaceOnUse">
<stop stop-color="#BE1E2D"/>
<stop offset="1" stop-color="#8F1722"/>
</linearGradient>
<linearGradient id="paint1_linear_4706_1649" x1="59.8335" y1="27.5135" x2="85" y2="27.5135" gradientUnits="userSpaceOnUse">
<stop stop-color="#BE1E2D"/>
<stop offset="1" stop-color="#8F1722"/>
</linearGradient>
</defs>
</svg>