<svg width="100" height="100" viewBox="0 0 100 100" fill="none" xmlns="http://www.w3.org/2000/svg">
<path d="M88.6475 76.9966H32.1686C25.6531 76.9966 19.1375 76.9966 12.6219 76.9966C10.9211 77.0477 9.25332 76.5187 7.89135 75.4964C7.49913 75.4242 7.30703 75.0952 7.09091 74.8064C6.36422 73.898 5.98145 72.7613 6.01032 71.5973C6.00498 64.2965 6.00232 56.9931 6.00232 49.6869C5.97839 48.9072 6.14016 48.133 6.47424 47.4284C6.80831 46.7239 7.30507 46.1092 7.92337 45.6354C8.73757 44.9733 9.69374 44.5092 10.7169 44.2796C11.4903 44.1394 12.2775 44.0909 13.0622 44.1352C17.1604 44.1352 21.2587 44.1352 25.3569 44.1352H32.6489C36.7071 44.1352 40.7653 44.1352 44.8236 44.1352C46.0322 44.1352 47.2249 44.1753 48.4415 44.1352C49.314 44.1352 49.4101 44.0309 49.354 43.1564C49.3444 43.0369 49.3229 42.9186 49.29 42.8034C49.2362 42.2699 49.2362 41.7323 49.29 41.1988C49.4661 40.5329 49.4021 39.8429 49.5381 39.169C49.798 37.5644 50.3401 36.0188 51.139 34.604C52.3614 32.6737 54.237 31.2496 56.4219 30.5926C57.0738 30.3832 57.7364 30.2091 58.407 30.0711C60.9444 29.5015 63.4097 29.9428 65.8671 30.5686C66.6675 30.8253 67.4679 31.0339 68.2684 31.3227C69.9532 32.1405 71.7332 32.7442 73.5673 33.1198C77.1052 33.6253 79.6506 32.0849 81.2515 29.1565C81.7511 28.2809 82.1307 27.3418 82.3801 26.3646C82.6523 25.466 82.7563 24.5354 82.9884 23.6288C83.0685 23.3159 83.0925 22.987 83.4847 23.003C83.5758 22.9937 83.6677 23.0059 83.7532 23.0387C83.8387 23.0716 83.9152 23.124 83.9768 23.192C84.0383 23.2599 84.083 23.3413 84.1074 23.4297C84.1318 23.5182 84.1351 23.6111 84.1171 23.701V23.8775C83.9777 24.7781 83.7772 25.668 83.5167 26.5411C83.0607 28.2387 82.2776 29.8304 81.2115 31.2264C80.9393 31.5393 80.6992 31.8843 80.411 32.1651C79.1431 33.31 77.5399 34.0135 75.8405 34.1708C75.0006 34.2149 74.159 34.2149 73.3191 34.1708C71.6793 33.8445 70.089 33.3051 68.5886 32.5662C67.6841 32.2052 66.7476 31.9244 65.819 31.6276C64.3705 31.214 62.8745 30.9902 61.3686 30.9617C59.565 30.8835 57.7646 31.1756 56.0777 31.8201C55.3205 32.1096 54.613 32.5156 53.9806 33.0235C53.5964 33.3846 53.1081 33.6253 52.8519 34.1146C52.292 34.7397 51.8427 35.456 51.5232 36.2327C50.8351 37.7879 50.465 39.4656 50.4346 41.1667C50.4346 41.7925 50.4346 42.4183 50.4346 43.044C50.4346 43.9907 50.5787 44.1592 51.5072 44.1512C53.9806 44.1512 56.4539 44.1512 58.9273 44.1512C60.7122 44.1512 62.5052 44.1512 64.2902 44.1512C72.1905 44.1512 80.0909 44.1512 87.9832 44.1512C88.6875 44.1171 89.3911 44.2319 90.0483 44.4882C90.9807 44.789 91.8378 45.2869 92.5617 45.9483C93.0745 46.4512 93.4826 47.0511 93.7623 47.7133C93.8185 47.8062 93.8553 47.9096 93.8704 48.0172C93.8856 48.1247 93.8787 48.2343 93.8504 48.3391C94.0051 50.1238 94.0399 51.917 93.9544 53.7064C93.9544 59.5069 93.9544 65.3074 93.9544 71.0998C94.0455 72.4758 93.6486 73.8397 92.8338 74.9508C92.8338 75.1754 92.6417 75.2958 92.5136 75.4482C92.0155 75.8902 91.4543 76.2552 90.8487 76.5313C90.6166 76.6276 90.3845 76.78 90.1123 76.6516C89.6444 76.8405 89.1504 76.9568 88.6475 76.9966Z" fill="url(#paint0_linear_4706_1655)"/>
<path d="M45.784 73.1258H23.6119C23.3765 73.1562 23.1373 73.1337 22.9116 73.06C22.6859 72.9863 22.4793 72.8632 22.307 72.6997C22.1346 72.5361 22.0006 72.3361 21.9148 72.1143C21.8291 71.8925 21.7936 71.6543 21.8109 71.417C21.8109 70.8313 21.8109 70.2457 21.8109 69.66C21.7936 69.4227 21.8291 69.1845 21.9148 68.9627C22.0006 68.7408 22.1346 68.5409 22.307 68.3773C22.4793 68.2137 22.6859 68.0906 22.9116 68.0169C23.1373 67.9432 23.3765 67.9207 23.6119 67.9511H67.9562C68.1832 67.9213 68.414 67.9406 68.6329 68.0078C68.8518 68.0749 69.0538 68.1884 69.2253 68.3405C69.3967 68.4925 69.5337 68.6797 69.6268 68.8894C69.7199 69.099 69.7671 69.3262 69.7652 69.5557C69.8372 70.2384 69.8372 70.9268 69.7652 71.6095C69.7693 71.8331 69.7244 72.0549 69.6334 72.2592C69.5425 72.4634 69.4079 72.6451 69.2391 72.7913C69.0702 72.9376 68.8714 73.0448 68.6566 73.1054C68.4418 73.1659 68.2163 73.1784 67.9962 73.1419L45.784 73.1258Z" fill="url(#paint1_radial_4706_1655)"/>
<path d="M15.2391 61.8588C16.4249 61.8195 17.612 61.8571 18.793 61.9711C19.0511 62.0154 19.3054 62.0798 19.5535 62.1637C20.6741 62.5568 20.8982 62.8697 20.8982 64.0571C20.8982 64.3218 20.8982 64.5786 20.8982 64.8594C20.8982 66.1029 20.61 66.4639 19.4094 66.833C18.8291 66.9998 18.2281 67.0835 17.6244 67.0817C15.7754 67.0817 13.9264 67.0817 12.0774 67.0817C11.1898 67.1009 10.3142 66.8732 9.54799 66.4238C9.36136 66.3226 9.20776 66.1697 9.10556 65.9833C9.00336 65.7969 8.95687 65.585 8.97167 65.3728C9.00274 64.8384 9.00274 64.3027 8.97167 63.7683C8.93767 63.4865 8.99778 63.2014 9.14261 62.9575C9.28743 62.7137 9.50881 62.5248 9.77211 62.4204C10.463 62.0928 11.217 61.9203 11.9813 61.915C12.9979 61.8508 14.0064 61.8588 15.2391 61.8588Z" fill="url(#paint2_radial_4706_1655)"/>
<path d="M14.6629 60.8072C13.3747 60.8609 12.0842 60.8073 10.8048 60.6468C10.4304 60.5716 10.069 60.4419 9.73222 60.2617C9.4739 60.1599 9.25587 59.9762 9.11137 59.7387C8.96686 59.5011 8.90379 59.2227 8.93178 58.9459C8.97557 58.4629 8.97557 57.9769 8.93178 57.4938C8.90169 57.1798 8.98313 56.8651 9.16177 56.6054C9.34041 56.3456 9.60478 56.1573 9.90831 56.0738C10.529 55.7795 11.2068 55.6261 11.8934 55.6245C14.0866 55.6245 16.2798 55.5042 18.465 55.6887C19.1275 55.7337 19.7684 55.9432 20.33 56.2984C20.5054 56.3988 20.6503 56.5452 20.749 56.7219C20.8477 56.8986 20.8966 57.0989 20.8903 57.3013V58.8176C20.9549 59.17 20.881 59.5338 20.6841 59.8329C20.4872 60.132 20.1825 60.3431 19.8337 60.4221C19.1803 60.6861 18.481 60.817 17.7766 60.8072H14.6629Z" fill="url(#paint3_radial_4706_1655)"/>
<path d="M87.8389 53.9714H88.9835C89.1852 53.9592 89.3872 53.989 89.5769 54.0588C89.7665 54.1286 89.9397 54.237 90.0855 54.3771C90.2314 54.5173 90.3467 54.6862 90.4243 54.8732C90.5019 55.0601 90.54 55.2612 90.5364 55.4637C90.5764 56.1878 90.5764 56.9137 90.5364 57.6378C90.5425 57.8473 90.5047 58.0557 90.4256 58.2497C90.3464 58.4436 90.2276 58.6188 90.0768 58.7639C89.926 58.909 89.7465 59.0209 89.5499 59.0922C89.3533 59.1636 89.144 59.1929 88.9355 59.1782C88.1911 59.1782 87.4467 59.1782 86.7023 59.1782C86.4936 59.1967 86.2833 59.1703 86.0856 59.1008C85.8879 59.0313 85.7072 58.9203 85.5557 58.7753C85.4042 58.6303 85.2853 58.4545 85.2069 58.2597C85.1286 58.065 85.0926 57.8557 85.1014 57.6459C85.1014 56.9158 85.1014 56.1937 85.1014 55.4717C85.0933 55.2743 85.1265 55.0774 85.1986 54.8936C85.2708 54.7097 85.3805 54.543 85.5206 54.4041C85.6607 54.2652 85.8282 54.1571 86.0124 54.0867C86.1966 54.0163 86.3934 53.9853 86.5902 53.9955C86.9984 53.9955 87.3906 53.9955 87.7989 53.9955L87.8389 53.9714Z" fill="url(#paint4_radial_4706_1655)"/>
<path d="M81.6275 60.9983C82.0518 60.9983 82.476 60.9983 82.9002 60.9983C83.2645 61.0102 83.6107 61.16 83.8691 61.4175C84.1275 61.6751 84.279 62.0212 84.293 62.3862C84.293 63.1724 84.293 63.9587 84.293 64.7449C84.2847 65.1267 84.1292 65.4904 83.8591 65.7597C83.5889 66.029 83.2251 66.1829 82.8442 66.189C82.0437 66.189 81.2433 66.189 80.4429 66.189C80.2393 66.1968 80.0363 66.1626 79.8464 66.0885C79.6565 66.0145 79.4838 65.9022 79.339 65.7585C79.1942 65.6149 79.0803 65.443 79.0045 65.2534C78.9286 65.0639 78.8924 64.8608 78.898 64.6567C78.898 63.9346 78.898 63.2126 78.898 62.4905C78.9001 62.1025 79.0554 61.7311 79.3299 61.4575C79.6044 61.1839 79.9757 61.0303 80.3628 61.0303C80.7871 60.9822 81.2433 60.9902 81.6275 60.9983Z" fill="url(#paint5_radial_4706_1655)"/>
<path d="M68.4362 61.731H69.6369C69.8288 61.7257 70.0198 61.7588 70.1987 61.8285C70.3776 61.8982 70.5408 62.003 70.6788 62.1367C70.8167 62.2705 70.9266 62.4306 71.002 62.6075C71.0774 62.7845 71.1167 62.9747 71.1177 63.1671C71.1177 63.9694 71.1177 64.7717 71.1177 65.5178C71.1033 65.8946 70.9449 66.2514 70.6751 66.5143C70.4054 66.7772 70.0451 66.926 69.6689 66.9298C68.8685 66.9298 68.068 66.9298 67.2676 66.9298C67.0653 66.9342 66.8641 66.8975 66.6762 66.8222C66.4884 66.7468 66.3176 66.6342 66.1741 66.4912C66.0306 66.3481 65.9174 66.1775 65.8412 65.9896C65.765 65.8017 65.7275 65.6003 65.7307 65.3975C65.7307 64.6914 65.7307 63.9854 65.7307 63.2794C65.7221 63.0693 65.7581 62.8597 65.8364 62.6646C65.9147 62.4695 66.0334 62.2932 66.1848 62.1476C66.3362 62.0019 66.5167 61.8902 66.7144 61.8198C66.9121 61.7493 67.1225 61.7218 67.3316 61.7391C67.7078 61.7391 68.1321 61.7391 68.4763 61.7391L68.4362 61.731Z" fill="url(#paint6_radial_4706_1655)"/>
<path d="M49.6584 55.4458C50.0586 55.4458 50.4588 55.4458 50.859 55.4458C51.2447 55.45 51.6132 55.6066 51.8845 55.8815C52.1557 56.1564 52.3078 56.5274 52.3078 56.914C52.3078 57.6441 52.3078 58.3661 52.3078 59.0882C52.3162 59.299 52.2802 59.5092 52.202 59.705C52.1239 59.9009 52.0054 60.0781 51.8544 60.2249C51.7033 60.3718 51.523 60.4851 51.3253 60.5574C51.1276 60.6297 50.9169 60.6594 50.7069 60.6446C50.0266 60.6446 49.2261 60.6446 48.4257 60.6446C48.2161 60.6505 48.0075 60.6127 47.8132 60.5335C47.6189 60.4543 47.4432 60.3355 47.2972 60.1846C47.1512 60.0338 47.038 59.8541 46.965 59.657C46.8919 59.46 46.8606 59.2499 46.8728 59.04C46.8728 58.3581 46.8728 57.6762 46.8728 56.9862C46.86 56.7721 46.8926 56.5578 46.9685 56.3573C47.0444 56.1568 47.1619 55.9747 47.3132 55.823C47.4645 55.6714 47.6462 55.5536 47.8462 55.4775C48.0463 55.4015 48.2601 55.3688 48.4737 55.3816H49.6183L49.6584 55.4458Z" fill="url(#paint7_radial_4706_1655)"/>
<path d="M30.7599 61.7297C31.1842 61.7297 31.6004 61.7297 32.0246 61.7297C32.2117 61.7275 32.3974 61.7624 32.5711 61.8322C32.7448 61.902 32.903 62.0054 33.0368 62.1366C33.1706 62.2677 33.2773 62.4239 33.3508 62.5964C33.4244 62.7689 33.4633 62.9541 33.4654 63.1417C33.4654 63.944 33.4654 64.7463 33.4654 65.4924C33.4612 65.872 33.309 66.2348 33.0411 66.5032C32.7733 66.7716 32.4113 66.9243 32.0326 66.9285C31.1922 66.9285 30.3437 66.9285 29.5032 66.9285C29.3027 66.9203 29.1058 66.8721 28.9242 66.7865C28.7426 66.701 28.5798 66.5799 28.4456 66.4304C28.3113 66.2809 28.2083 66.106 28.1425 65.9159C28.0767 65.7259 28.0495 65.5246 28.0624 65.3239C28.0624 64.642 28.0624 63.96 28.0624 63.2701C28.0442 63.0547 28.0731 62.838 28.1471 62.635C28.2211 62.432 28.3384 62.2477 28.4908 62.0949C28.6433 61.9421 28.8272 61.8245 29.0297 61.7503C29.2323 61.6761 29.4485 61.6472 29.6633 61.6655L30.7599 61.7297Z" fill="url(#paint8_radial_4706_1655)"/>
<path d="M37.2194 55.4466C37.6276 55.4466 38.0199 55.4466 38.4281 55.4466C38.8139 55.4508 39.1829 55.6057 39.4565 55.8784C39.7301 56.1511 39.8866 56.5201 39.8929 56.9068C39.8929 57.6529 39.8929 58.399 39.8929 59.1452C39.894 59.3452 39.855 59.5435 39.7782 59.7281C39.7014 59.9128 39.5883 60.08 39.4456 60.22C39.303 60.36 39.1338 60.4698 38.948 60.5428C38.7621 60.6159 38.5636 60.6508 38.364 60.6454C37.5636 60.6454 36.7632 60.6454 35.9627 60.6454C35.5657 60.6454 35.185 60.4874 34.9043 60.206C34.6236 59.9247 34.4659 59.5431 34.4659 59.1452C34.4659 58.399 34.4659 57.6529 34.4659 56.9068C34.4637 56.7148 34.5 56.5244 34.5725 56.3467C34.6451 56.169 34.7524 56.0077 34.8883 55.8723C35.0241 55.7369 35.1856 55.6302 35.3633 55.5585C35.541 55.4867 35.7312 55.4514 35.9227 55.4547C36.3389 55.4306 36.7632 55.4466 37.2194 55.4466Z" fill="url(#paint9_radial_4706_1655)"/>
<path d="M49.6663 61.7286C50.0425 61.7286 50.4667 61.7286 50.8109 61.7286C51.002 61.7199 51.1929 61.75 51.3721 61.8169C51.5514 61.8837 51.7154 61.9861 51.8543 62.1179C51.9932 62.2497 52.1043 62.4081 52.1808 62.5838C52.2573 62.7595 52.2978 62.9489 52.2997 63.1406C52.3318 63.9268 52.3318 64.7131 52.2997 65.4993C52.2966 65.6896 52.256 65.8775 52.1802 66.052C52.1044 66.2266 51.9949 66.3844 51.858 66.5163C51.7211 66.6483 51.5596 66.7519 51.3826 66.821C51.2057 66.8902 51.0168 66.9236 50.8269 66.9193C50.0265 66.9193 49.178 66.9193 48.3536 66.9193C47.9713 66.911 47.6072 66.754 47.3383 66.4815C47.0695 66.209 46.9169 65.8424 46.9128 65.4592C46.8728 64.7136 46.8728 63.9664 46.9128 63.2208C46.9082 63.0219 46.9445 62.8242 47.0193 62.6399C47.0941 62.4556 47.2059 62.2887 47.3478 62.1496C47.4896 62.0104 47.6585 61.9019 47.8439 61.8309C48.0293 61.7598 48.2273 61.7277 48.4256 61.7366C48.8579 61.7205 49.2261 61.7286 49.6663 61.7286Z" fill="url(#paint10_radial_4706_1655)"/>
<path d="M68.4364 60.6445H67.3238C67.1165 60.6566 66.9089 60.6259 66.714 60.5541C66.5191 60.4823 66.341 60.3711 66.1908 60.2274C66.0406 60.0836 65.9216 59.9104 65.8411 59.7186C65.7606 59.5267 65.7204 59.3203 65.7229 59.1122C65.7229 58.4062 65.7229 57.7001 65.7229 56.9941C65.7144 56.7837 65.7504 56.5738 65.8286 56.3783C65.9068 56.1828 66.0254 56.0061 66.1767 55.8598C66.3279 55.7136 66.5083 55.6011 66.706 55.5297C66.9037 55.4583 67.1142 55.4297 67.3238 55.4457C68.1082 55.4457 68.8926 55.4457 69.6771 55.4457C69.8731 55.4424 70.0678 55.4789 70.2495 55.5528C70.4311 55.6267 70.596 55.7366 70.7343 55.876C70.8726 56.0153 70.9814 56.1812 71.0542 56.3637C71.1269 56.5462 71.1622 56.7415 71.1579 56.938C71.1579 57.644 71.1579 58.35 71.1579 59.056C71.1734 59.2707 71.1426 59.4862 71.0676 59.6879C70.9926 59.8897 70.8752 60.0728 70.7234 60.2251C70.5715 60.3773 70.3887 60.4949 70.1875 60.5701C69.9862 60.6452 69.7712 60.6761 69.557 60.6606L68.4364 60.6445Z" fill="url(#paint11_radial_4706_1655)"/>
<path d="M30.7679 55.4492C31.1921 55.4492 31.6164 55.4492 32.0326 55.4492C32.2246 55.4513 32.4143 55.4914 32.5907 55.5672C32.7672 55.6431 32.927 55.7531 33.0609 55.891C33.1948 56.029 33.3002 56.1921 33.371 56.371C33.4417 56.5499 33.4765 56.741 33.4734 56.9334C33.4734 57.6715 33.4734 58.4177 33.4734 59.1638C33.4768 59.3624 33.4397 59.5596 33.3645 59.7433C33.2893 59.927 33.1774 60.0935 33.0358 60.2324C32.8942 60.3713 32.7258 60.4799 32.5409 60.5513C32.356 60.6228 32.1586 60.6557 31.9605 60.648C31.1601 60.648 30.3597 60.648 29.5592 60.648C29.1727 60.6481 28.8017 60.4958 28.5262 60.2242C28.2507 59.9525 28.0927 59.5832 28.0864 59.1959C28.0864 58.4498 28.0864 57.7036 28.0864 56.9575C28.0863 56.7557 28.1268 56.5559 28.2055 56.3701C28.2842 56.1843 28.3995 56.0164 28.5445 55.8763C28.6894 55.7362 28.8611 55.6269 29.0492 55.5549C29.2374 55.4829 29.438 55.4497 29.6393 55.4572C30.0235 55.4572 30.4397 55.4572 30.7839 55.4572L30.7679 55.4492Z" fill="url(#paint12_radial_4706_1655)"/>
<path d="M87.831 66.1965C87.4307 66.1965 87.0305 66.1965 86.6223 66.1965C86.424 66.1934 86.2282 66.151 86.0463 66.0718C85.8644 65.9926 85.6999 65.8781 85.5623 65.735C85.4247 65.5918 85.3167 65.4228 85.2445 65.2377C85.1722 65.0525 85.1372 64.8549 85.1415 64.6562C85.1415 63.9181 85.1415 63.1719 85.1415 62.4258C85.1372 62.2388 85.1703 62.0527 85.2388 61.8787C85.3073 61.7046 85.4098 61.546 85.5403 61.4122C85.6708 61.2784 85.8266 61.1721 85.9987 61.0996C86.1708 61.027 86.3556 60.9897 86.5422 60.9897C87.3427 60.9897 88.1911 60.9897 89.0076 60.9897C89.2101 60.9807 89.4122 61.0139 89.6013 61.0872C89.7903 61.1605 89.9621 61.2723 90.1058 61.4156C90.2495 61.5589 90.362 61.7305 90.4361 61.9195C90.5102 62.1086 90.5444 62.3111 90.5364 62.5141C90.5364 63.196 90.5364 63.878 90.5364 64.5599C90.5454 64.7806 90.5071 65.0008 90.4242 65.2055C90.3413 65.4102 90.2156 65.5947 90.0556 65.7467C89.8956 65.8987 89.7051 66.0146 89.4967 66.0867C89.2883 66.1587 89.067 66.1852 88.8475 66.1645L87.831 66.1965Z" fill="url(#paint13_radial_4706_1655)"/>
<path d="M55.8616 55.447C56.2218 55.447 56.582 55.447 56.9422 55.447C57.1488 55.4289 57.357 55.4547 57.553 55.5228C57.7489 55.5908 57.9284 55.6996 58.0795 55.842C58.2306 55.9844 58.3501 56.1572 58.43 56.349C58.5098 56.5409 58.5484 56.7475 58.5431 56.9553C58.5431 57.6934 58.5431 58.4396 58.5431 59.1857C58.542 59.3785 58.5031 59.5692 58.4285 59.7469C58.354 59.9246 58.2452 60.0859 58.1084 60.2215C57.9716 60.3571 57.8096 60.4643 57.6315 60.5371C57.4533 60.61 57.2627 60.6469 57.0703 60.6458C56.2699 60.6458 55.4214 60.6458 54.5969 60.6458C54.212 60.6395 53.8451 60.4807 53.5767 60.204C53.3082 59.9274 53.1599 59.5555 53.1642 59.1696C53.1642 58.4235 53.1642 57.6774 53.1642 56.9313C53.163 56.7351 53.2012 56.5406 53.2763 56.3594C53.3514 56.1782 53.462 56.014 53.6016 55.8764C53.7411 55.7388 53.9068 55.6306 54.0887 55.5582C54.2707 55.4858 54.4653 55.4508 54.661 55.4551C55.0612 55.4551 55.4614 55.4551 55.8696 55.4551L55.8616 55.447Z" fill="url(#paint14_radial_4706_1655)"/>
<path d="M81.5636 59.1786C81.1874 59.1786 80.7632 59.1786 80.419 59.1786C80.2225 59.1829 80.0272 59.1479 79.8443 59.0757C79.6615 59.0036 79.4948 58.8956 79.354 58.7582C79.2132 58.6208 79.1011 58.4567 79.0242 58.2754C78.9473 58.0942 78.9072 57.8994 78.9062 57.7024C78.9062 56.9563 78.9062 56.2102 78.9062 55.4721C78.899 55.27 78.9342 55.0688 79.0096 54.8812C79.0849 54.6937 79.1987 54.5241 79.3436 54.3835C79.4884 54.2428 79.6612 54.1342 79.8505 54.0647C80.0399 53.9951 80.2418 53.9662 80.443 53.9798C81.2275 53.9798 82.0119 53.9798 82.7963 53.9798C82.9933 53.9743 83.1894 54.0091 83.3725 54.0822C83.5557 54.1552 83.722 54.2649 83.8614 54.4046C84.0007 54.5443 84.1102 54.711 84.183 54.8945C84.2559 55.0781 84.2907 55.2746 84.2851 55.4721C84.2851 56.1941 84.2851 56.9162 84.2851 57.6463C84.2873 57.8481 84.2492 58.0483 84.1731 58.2352C84.097 58.4221 83.9845 58.5919 83.8421 58.7346C83.6997 58.8773 83.5303 58.9901 83.3439 59.0664C83.1574 59.1426 82.9577 59.1808 82.7563 59.1786C82.3561 59.1786 81.9559 59.1786 81.5476 59.1786H81.5636Z" fill="url(#paint15_radial_4706_1655)"/>
<path d="M87.7989 52.3197C87.3986 52.3197 86.9984 52.3197 86.5902 52.3197C86.2149 52.3198 85.8544 52.1732 85.5853 51.911C85.3162 51.6488 85.1598 51.2917 85.1494 50.9157C85.1494 50.1134 85.1494 49.3111 85.1494 48.565C85.1575 48.188 85.31 47.8287 85.5752 47.5613C85.8405 47.2939 86.1982 47.1391 86.5742 47.1289C87.3746 47.1289 88.2231 47.1289 89.0475 47.1289C89.2528 47.1296 89.4558 47.1724 89.644 47.2546C89.8322 47.3368 90.0016 47.4568 90.1418 47.6071C90.282 47.7574 90.3901 47.9348 90.4593 48.1286C90.5285 48.3223 90.5575 48.5281 90.5444 48.7335C90.5444 49.4154 90.5444 50.1054 90.5444 50.7873C90.5585 51.0017 90.5268 51.2166 90.4514 51.4177C90.3759 51.6188 90.2585 51.8015 90.1069 51.9534C89.9553 52.1053 89.7731 52.223 89.5725 52.2987C89.3718 52.3743 89.1574 52.4061 88.9435 52.3919C88.5593 52.3919 88.1431 52.3919 87.7989 52.3919V52.3197Z" fill="url(#paint16_radial_4706_1655)"/>
<path d="M74.52 66.931C74.1198 66.931 73.7196 66.931 73.3113 66.931C72.9256 66.9268 72.5572 66.7702 72.2859 66.4953C72.0147 66.2205 71.8625 65.8494 71.8625 65.4628C71.8625 64.6605 71.8625 63.9305 71.8625 63.1683C71.859 62.9757 71.895 62.7844 71.9684 62.6063C72.0418 62.4282 72.151 62.2672 72.2891 62.1333C72.4273 61.9993 72.5915 61.8953 72.7715 61.8277C72.9514 61.7601 73.1434 61.7303 73.3354 61.7402C74.1358 61.7402 74.9362 61.7402 75.7367 61.7402C76.1004 61.7067 76.4627 61.8185 76.7445 62.0514C77.0264 62.2843 77.205 62.6195 77.2415 62.9838C77.3616 63.8595 77.3616 64.7476 77.2415 65.6233C77.2033 65.9891 77.0288 66.3271 76.7527 66.5695C76.4767 66.812 76.1196 66.9411 75.7527 66.931C75.3525 66.931 74.9522 66.931 74.552 66.931H74.52Z" fill="url(#paint17_radial_4706_1655)"/>
<path d="M73.8558 73.1335C73.4315 73.1335 73.0073 73.1335 72.5911 73.1335C72.2145 73.1315 71.8536 72.9817 71.5858 72.7163C71.318 72.4509 71.1646 72.0909 71.1583 71.7135C71.1263 70.9273 71.1263 70.141 71.1583 69.3548C71.177 68.9675 71.3453 68.6026 71.6277 68.3376C71.9101 68.0725 72.2843 67.928 72.6711 67.9347C73.4315 67.9347 74.2 67.9347 74.9604 67.9347C75.177 67.9264 75.3929 67.9638 75.5941 68.0445C75.7954 68.1252 75.9774 68.2475 76.1284 68.4034C76.2794 68.5593 76.3959 68.7453 76.4705 68.9493C76.5451 69.1533 76.576 69.3707 76.5612 69.5874C76.5612 70.2373 76.5612 70.8791 76.5612 71.5209C76.5767 71.7356 76.5459 71.9512 76.471 72.1529C76.396 72.3546 76.2786 72.5378 76.1267 72.69C75.9749 72.8422 75.7921 72.9599 75.5909 73.035C75.3896 73.1102 75.1746 73.141 74.9604 73.1255C74.5762 73.1255 74.1599 73.1255 73.8157 73.1255L73.8558 73.1335Z" fill="url(#paint18_radial_4706_1655)"/>
<path d="M81.6355 73.0085C81.2353 73.0085 80.835 73.0085 80.4348 73.0085C80.2381 73.016 80.0419 72.9839 79.8577 72.9141C79.6736 72.8443 79.5052 72.7382 79.3627 72.602C79.2202 72.4659 79.1063 72.3025 79.0279 72.1215C78.9494 71.9405 78.908 71.7456 78.906 71.5483C78.866 70.8054 78.866 70.0609 78.906 69.318C78.9026 69.1162 78.9403 68.9159 79.0167 68.7292C79.0931 68.5426 79.2067 68.3735 79.3506 68.2323C79.4944 68.0912 79.6655 67.9809 79.8533 67.9082C80.0411 67.8355 80.2417 67.802 80.4428 67.8097C81.2433 67.8097 82.0437 67.8097 82.7881 67.8097C82.9901 67.8072 83.1905 67.8463 83.3769 67.9244C83.5633 68.0024 83.7318 68.1179 83.872 68.2637C84.0122 68.4095 84.1212 68.5825 84.1922 68.7721C84.2632 68.9617 84.2948 69.1638 84.2849 69.3661C84.2849 70.0721 84.2849 70.7701 84.2849 71.4761C84.2917 71.6777 84.2569 71.8786 84.1828 72.0662C84.1086 72.2537 83.9967 72.424 83.854 72.5662C83.7113 72.7085 83.5409 72.8198 83.3533 72.8931C83.1658 72.9664 82.9652 73.0002 82.7641 72.9924H81.6355V73.0085Z" fill="url(#paint19_radial_4706_1655)"/>
<path d="M30.7601 53.7841C30.3599 53.7841 29.9596 53.7841 29.5594 53.7841C29.1735 53.7842 28.8028 53.6334 28.5262 53.3637C28.2496 53.0939 28.089 52.7266 28.0786 52.34C28.0786 51.6019 28.0786 50.8558 28.0786 50.1096C28.0886 49.7163 28.2485 49.3417 28.5253 49.0627C28.8022 48.7838 29.175 48.6215 29.5674 48.6094C30.3679 48.6094 31.1683 48.6094 31.9127 48.6094C32.1269 48.5939 32.3419 48.6247 32.5432 48.6999C32.7445 48.775 32.9272 48.8927 33.0791 49.0449C33.2309 49.1971 33.3483 49.3803 33.4233 49.582C33.4983 49.7837 33.5291 49.9992 33.5136 50.2139C33.5136 50.9039 33.5136 51.5858 33.5136 52.2678C33.5263 52.4699 33.4962 52.6724 33.4253 52.862C33.3544 53.0517 33.2442 53.2241 33.1021 53.3681C32.96 53.512 32.7891 53.6242 32.6007 53.6973C32.4123 53.7704 32.2105 53.8027 32.0088 53.7921C31.5685 53.8001 31.1683 53.7841 30.7601 53.7841Z" fill="url(#paint20_radial_4706_1655)"/>
<path d="M81.6035 52.3172C81.2033 52.3172 80.8031 52.3172 80.4029 52.3172C80.2059 52.3249 80.0095 52.2922 79.8255 52.2211C79.6416 52.1501 79.4741 52.0421 79.3332 51.904C79.1924 51.7658 79.0811 51.6002 79.0063 51.4175C78.9315 51.2347 78.8946 51.0385 78.898 50.841C78.866 50.0922 78.866 49.3461 78.898 48.6026C78.8978 48.2236 79.0447 47.8593 79.3076 47.5868C79.5705 47.3143 79.9288 47.155 80.3068 47.1425C81.1681 47.0983 82.031 47.0983 82.8922 47.1425C83.2794 47.1612 83.6437 47.3314 83.9071 47.6163C84.1705 47.9013 84.3119 48.2785 84.301 48.6668C84.301 49.3889 84.301 50.1109 84.301 50.841C84.301 51.229 84.1478 51.6012 83.8748 51.8763C83.6018 52.1514 83.2313 52.3071 82.8442 52.3092C82.412 52.3252 82.0438 52.3172 81.6035 52.3172Z" fill="url(#paint21_radial_4706_1655)"/>
<path d="M55.8458 53.7952H54.7011C54.4948 53.8056 54.2886 53.7724 54.0959 53.6978C53.9032 53.6232 53.7284 53.5088 53.5827 53.362C53.437 53.2152 53.3237 53.0393 53.2503 52.8458C53.1768 52.6523 53.1448 52.4455 53.1563 52.2387C53.1563 51.5568 53.1563 50.8749 53.1563 50.1849C53.1394 49.9774 53.1662 49.7686 53.2351 49.5722C53.3039 49.3757 53.4132 49.196 53.5559 49.0447C53.6986 48.8933 53.8714 48.7738 54.0632 48.6938C54.255 48.6138 54.4614 48.5751 54.6691 48.5803C55.4695 48.5803 56.27 48.5402 57.0224 48.5803C57.23 48.579 57.4358 48.6201 57.6271 48.7011C57.8184 48.7821 57.9912 48.9013 58.135 49.0515C58.2788 49.2016 58.3906 49.3795 58.4635 49.5744C58.5365 49.7693 58.569 49.977 58.5592 50.1849C58.5592 50.8668 58.5592 51.5568 58.5592 52.2387C58.5665 52.4489 58.5296 52.6582 58.4509 52.8531C58.3723 53.048 58.2536 53.2241 58.1027 53.3701C57.9518 53.5161 57.7719 53.6287 57.5747 53.7005C57.3776 53.7724 57.1676 53.8019 56.9584 53.7871L55.8458 53.7952Z" fill="url(#paint22_radial_4706_1655)"/>
<path d="M87.8069 72.9992C87.3826 72.9992 86.9584 72.9992 86.5422 72.9992C86.1766 72.9871 85.8293 72.8362 85.5706 72.577C85.312 72.3177 85.1614 71.9696 85.1494 71.6032C85.1494 70.8009 85.1494 69.9986 85.1494 69.2525C85.1535 68.8743 85.3047 68.5126 85.5708 68.2444C85.8369 67.9762 86.1969 67.8227 86.5742 67.8164C87.3746 67.8164 88.2231 67.8164 89.0395 67.8164C89.4386 67.8164 89.8214 67.9753 90.1036 68.2582C90.3858 68.541 90.5444 68.9247 90.5444 69.3247C90.5444 70.0227 90.5444 70.7287 90.5444 71.4347C90.5572 71.6488 90.5246 71.8631 90.4487 72.0636C90.3728 72.2641 90.2553 72.4462 90.104 72.5979C89.9527 72.7495 89.771 72.8673 89.571 72.9434C89.3709 73.0194 89.1571 73.0521 88.9435 73.0393H87.8069V72.9992Z" fill="url(#paint23_radial_4706_1655)"/>
<path d="M11.6456 73.1332C11.2454 73.1332 10.8452 73.1332 10.445 73.1332C10.2485 73.1343 10.0539 73.0958 9.87254 73.02C9.69123 72.9442 9.52698 72.8327 9.38957 72.6919C9.25216 72.5512 9.1444 72.3842 9.07269 72.2009C9.00098 72.0176 8.96679 71.8217 8.97217 71.6249C8.97217 70.9429 8.97217 70.261 8.97217 69.571C8.95548 69.3656 8.98168 69.1589 9.0491 68.9641C9.11652 68.7694 9.22368 68.5908 9.36374 68.4399C9.50381 68.2889 9.67371 68.1688 9.86262 68.0873C10.0515 68.0058 10.2553 67.9647 10.461 67.9665C11.2608 67.9226 12.0625 67.9226 12.8623 67.9665C13.0683 67.966 13.2721 68.008 13.4612 68.0898C13.6504 68.1715 13.8208 68.2913 13.9618 68.4417C14.1029 68.5921 14.2116 68.77 14.2814 68.9642C14.3511 69.1585 14.3803 69.365 14.3671 69.571C14.3671 70.2289 14.3671 70.8948 14.3671 71.5607C14.384 71.7757 14.3541 71.9918 14.2796 72.1942C14.2052 72.3965 14.0878 72.5803 13.9356 72.7328C13.7835 72.8853 13.6001 73.0029 13.3983 73.0776C13.1964 73.1522 12.9808 73.1821 12.7662 73.1653C12.39 73.1653 11.9658 73.1653 11.6216 73.1653L11.6456 73.1332Z" fill="url(#paint24_radial_4706_1655)"/>
<path d="M74.5198 55.448C74.928 55.448 75.3202 55.448 75.7285 55.448C76.0983 55.4254 76.4625 55.5473 76.7446 55.7882C77.0267 56.029 77.2047 56.37 77.2413 56.7396C77.3494 57.6188 77.3494 58.508 77.2413 59.3872C77.2014 59.7395 77.0315 60.0642 76.7648 60.2973C76.4982 60.5304 76.1542 60.655 75.8005 60.6468C75.0001 60.6468 74.1516 60.6468 73.3352 60.6468C73.138 60.6468 72.9428 60.6074 72.761 60.5308C72.5792 60.4542 72.4145 60.342 72.2766 60.2008C72.1387 60.0595 72.0303 59.8921 71.9578 59.7083C71.8852 59.5245 71.8501 59.328 71.8544 59.1304C71.8544 58.3843 71.8544 57.6462 71.8544 56.9001C71.8586 56.5135 72.0148 56.1442 72.289 55.8723C72.5632 55.6004 72.9334 55.4479 73.3192 55.448C73.7194 55.448 74.1196 55.448 74.5198 55.448Z" fill="url(#paint25_radial_4706_1655)"/>
<path d="M49.6101 53.7839C49.2099 53.7839 48.8096 53.7839 48.4014 53.7839C48.0156 53.7903 47.6429 53.644 47.3641 53.3766C47.0853 53.1092 46.9231 52.7424 46.9126 52.3558C46.9126 51.5535 46.9126 50.8234 46.9126 50.0613C46.9348 49.6724 47.1033 49.3063 47.384 49.0369C47.6647 48.7674 48.0368 48.6146 48.4254 48.6091C49.1858 48.6091 49.9543 48.6091 50.7147 48.6091C50.9344 48.5937 51.1549 48.6269 51.3605 48.7062C51.566 48.7856 51.7517 48.9092 51.9044 49.0684C52.0571 49.2275 52.173 49.4183 52.2441 49.6273C52.3151 49.8363 52.3395 50.0584 52.3156 50.2779C52.3156 50.9679 52.3156 51.6498 52.3156 52.3317C52.3209 52.5237 52.2878 52.7147 52.2182 52.8936C52.1486 53.0725 52.0439 53.2356 51.9103 53.3732C51.7767 53.5109 51.617 53.6202 51.4405 53.6949C51.264 53.7696 51.0743 53.808 50.8828 53.8079C50.4585 53.8079 50.0423 53.8079 49.6181 53.8079L49.6101 53.7839Z" fill="url(#paint26_radial_4706_1655)"/>
<path d="M68.4366 53.794C68.0604 53.794 67.6762 53.794 67.2919 53.794C67.0911 53.8016 66.8908 53.7683 66.7031 53.6962C66.5154 53.6241 66.3442 53.5147 66.1999 53.3745C66.0555 53.2343 65.941 53.0663 65.8632 52.8805C65.7854 52.6948 65.7459 52.4952 65.7471 52.2937C65.7471 51.5716 65.7471 50.8416 65.7471 50.1195C65.7505 49.7329 65.9004 49.3619 66.1664 49.0819C66.4325 48.8018 66.7947 48.6336 67.1799 48.6112C68.0011 48.5671 68.824 48.5671 69.6452 48.6112C69.8523 48.6058 70.0581 48.6444 70.2492 48.7246C70.4402 48.8047 70.6121 48.9245 70.7536 49.0762C70.895 49.2278 71.0028 49.4078 71.0698 49.6042C71.1367 49.8007 71.1614 50.0091 71.142 50.2158C71.142 50.9058 71.142 51.5877 71.142 52.2696C71.1534 52.4718 71.1224 52.6741 71.0511 52.8635C70.9798 53.053 70.8698 53.2254 70.7281 53.3697C70.5864 53.514 70.4161 53.627 70.2282 53.7014C70.0404 53.7759 69.8391 53.8101 69.6372 53.802L68.4366 53.794Z" fill="url(#paint27_radial_4706_1655)"/>
<path d="M37.2192 61.7301H38.3078C38.5093 61.7225 38.7103 61.756 38.8985 61.8285C39.0868 61.9011 39.2583 62.0113 39.4028 62.1523C39.5472 62.2934 39.6616 62.4624 39.7389 62.6491C39.8163 62.8358 39.855 63.0362 39.8526 63.2384C39.8526 63.9604 39.8526 64.6825 39.8526 65.4045C39.8538 65.6071 39.8144 65.8078 39.7368 65.9948C39.6593 66.1818 39.5452 66.3514 39.4012 66.4935C39.2572 66.6355 39.0862 66.7473 38.8984 66.8221C38.7106 66.8968 38.5098 66.9332 38.3078 66.9289C37.5474 66.9289 36.779 66.9289 36.0185 66.9289C35.809 66.9449 35.5985 66.9163 35.4007 66.8449C35.203 66.7735 35.0226 66.661 34.8714 66.5147C34.7202 66.3685 34.6016 66.1918 34.5234 65.9963C34.4452 65.8008 34.4091 65.5909 34.4177 65.3805C34.4177 64.6745 34.4177 63.9684 34.4177 63.2705C34.405 63.0593 34.4383 62.8479 34.5151 62.6509C34.592 62.4539 34.7107 62.276 34.863 62.1295C35.0152 61.983 35.1974 61.8714 35.3969 61.8024C35.5965 61.7335 35.8086 61.7088 36.0185 61.7301C36.4188 61.7301 36.819 61.7301 37.2192 61.7301Z" fill="url(#paint28_radial_4706_1655)"/>
<path d="M55.8056 66.9269C55.4214 66.9269 55.0052 66.9269 54.661 66.9269C54.4658 66.9301 54.272 66.8946 54.0906 66.8224C53.9092 66.7503 53.7438 66.6429 53.604 66.5064C53.4641 66.37 53.3526 66.2072 53.2757 66.0274C53.1989 65.8476 53.1582 65.6543 53.1561 65.4587C53.1561 64.7126 53.1561 63.9665 53.1561 63.2284C53.1492 63.0306 53.1834 62.8336 53.2565 62.6497C53.3296 62.4659 53.44 62.2993 53.5808 62.1605C53.7215 62.0217 53.8895 61.9137 54.0741 61.8434C54.2586 61.7731 54.4558 61.7421 54.653 61.7522C55.4534 61.7522 56.2538 61.7522 56.9982 61.7522C57.1952 61.7414 57.3924 61.7705 57.5778 61.838C57.7633 61.9054 57.9332 62.0096 58.0775 62.1445C58.2218 62.2793 58.3374 62.442 58.4174 62.6228C58.4974 62.8035 58.5402 62.9986 58.5431 63.1963C58.5871 63.9605 58.5871 64.7266 58.5431 65.4908C58.5405 65.6943 58.4962 65.895 58.4129 66.0805C58.3296 66.2661 58.2092 66.4325 58.0591 66.5694C57.9089 66.7063 57.7323 66.8109 57.5402 66.8765C57.3481 66.9422 57.1445 66.9675 56.9422 66.951C56.566 66.9349 56.1818 66.9269 55.8056 66.9269Z" fill="url(#paint29_radial_4706_1655)"/>
<path d="M11.7573 53.7838C11.3731 53.7838 10.9568 53.7838 10.6126 53.7838C10.411 53.7884 10.2107 53.7515 10.0239 53.6753C9.83712 53.5991 9.66796 53.4852 9.52688 53.3408C9.3858 53.1964 9.27581 53.0245 9.20373 52.8357C9.13164 52.647 9.099 52.4454 9.10782 52.2435C9.10782 51.5375 9.10782 50.8395 9.10782 50.1335C9.09591 49.9442 9.12154 49.7544 9.18323 49.575C9.24491 49.3957 9.34143 49.2304 9.4672 49.0887C9.59297 48.947 9.74551 48.8316 9.91601 48.7493C10.0865 48.667 10.2716 48.6193 10.4606 48.6091C11.3388 48.5209 12.2237 48.5209 13.102 48.6091C13.3023 48.6148 13.4993 48.6617 13.6808 48.7467C13.8623 48.8318 14.0245 48.9533 14.1573 49.1037C14.2901 49.2541 14.3907 49.4302 14.4529 49.6211C14.515 49.812 14.5375 50.0137 14.5188 50.2137C14.5188 50.8956 14.5188 51.5856 14.5188 52.2675C14.5318 52.4749 14.5005 52.6828 14.4269 52.8771C14.3534 53.0714 14.2393 53.2477 14.0923 53.3943C13.9453 53.5409 13.7688 53.6543 13.5745 53.727C13.3803 53.7997 13.1728 53.83 12.9659 53.8159C12.5577 53.7999 12.1575 53.7919 11.7573 53.7838Z" fill="url(#paint30_radial_4706_1655)"/>
<path d="M37.2192 53.7788C36.755 53.7788 36.2907 53.7788 35.8345 53.7788C35.4782 53.7608 35.1418 53.6086 34.8925 53.3528C34.6432 53.097 34.4994 52.7563 34.4897 52.3989C34.4897 51.5966 34.4897 50.7943 34.4897 50.0482C34.5001 49.6664 34.6576 49.3036 34.9293 49.0358C35.2009 48.768 35.5655 48.6161 35.9465 48.6121C36.747 48.572 37.5474 48.572 38.3479 48.6121C38.5535 48.6129 38.7568 48.6556 38.9454 48.7378C39.134 48.8199 39.3039 48.9397 39.4447 49.0899C39.5855 49.2401 39.6944 49.4174 39.7645 49.6112C39.8346 49.8049 39.8646 50.0109 39.8527 50.2167C39.8527 50.8746 39.8527 51.5404 39.8527 52.2063C39.8682 52.421 39.8374 52.6366 39.7624 52.8383C39.6874 53.04 39.57 53.2232 39.4182 53.3754C39.2663 53.5276 39.0835 53.6453 38.8823 53.7204C38.681 53.7956 38.466 53.8264 38.2518 53.8109H37.2192V53.7788Z" fill="url(#paint31_radial_4706_1655)"/>
<path d="M62.2414 66.9278C61.8412 66.9278 61.441 66.9278 61.0328 66.9278C60.8311 66.9314 60.6309 66.8934 60.4445 66.8162C60.2582 66.739 60.0896 66.6242 59.9492 66.4791C59.8089 66.3339 59.6998 66.1614 59.6287 65.9722C59.5576 65.7831 59.5261 65.5813 59.536 65.3794C59.536 64.6574 59.536 63.9353 59.536 63.2133C59.528 63.0155 59.5611 62.8183 59.6332 62.6341C59.7053 62.4498 59.8148 62.2826 59.9548 62.1431C60.0948 62.0035 60.2622 61.8947 60.4464 61.8234C60.6306 61.7521 60.8275 61.72 61.0248 61.729C61.8252 61.729 62.5536 61.729 63.314 61.729C63.5195 61.7098 63.7268 61.7343 63.9222 61.8009C64.1176 61.8675 64.2968 61.9748 64.448 62.1157C64.5991 62.2566 64.7189 62.428 64.7993 62.6185C64.8798 62.809 64.9192 63.0144 64.9149 63.2213C64.9549 63.924 64.9549 64.6285 64.9149 65.3313C64.9273 65.5558 64.8902 65.7802 64.8064 65.9888C64.7225 66.1973 64.5939 66.3848 64.4297 66.5379C64.2655 66.691 64.0696 66.8061 63.856 66.8748C63.6425 66.9436 63.4164 66.9644 63.194 66.9358H62.2334L62.2414 66.9278Z" fill="url(#paint32_radial_4706_1655)"/>
<path d="M18.0967 53.7971C17.6805 53.7971 17.2963 53.7971 16.832 53.7971C16.6357 53.8027 16.4404 53.7679 16.2581 53.6947C16.0758 53.6215 15.9104 53.5115 15.7723 53.3716C15.6342 53.2316 15.5263 53.0647 15.4552 52.8812C15.3841 52.6977 15.3515 52.5015 15.3592 52.3049C15.3592 51.5988 15.3592 50.8928 15.3592 50.1949C15.3435 49.9869 15.3714 49.778 15.4412 49.5815C15.511 49.3851 15.6211 49.2055 15.7644 49.0543C15.9077 48.9031 16.081 48.7837 16.2732 48.7038C16.4653 48.6239 16.6721 48.5852 16.8801 48.5903C17.6805 48.5903 18.4809 48.5903 19.2254 48.5903C19.4324 48.5912 19.6371 48.6339 19.8273 48.7156C20.0175 48.7974 20.1894 48.9167 20.3328 49.0664C20.4762 49.216 20.588 49.3931 20.6618 49.5869C20.7356 49.7808 20.7697 49.9875 20.7622 50.1949C20.7622 50.8367 20.7622 51.4865 20.7622 52.1284C20.7842 52.3554 20.7551 52.5845 20.677 52.7988C20.5989 53.0131 20.4738 53.2071 20.311 53.3665C20.1481 53.5259 19.9517 53.6466 19.7361 53.7197C19.5205 53.7929 19.2912 53.8166 19.0653 53.7891L18.0967 53.7971Z" fill="url(#paint33_radial_4706_1655)"/>
<path d="M74.5358 53.7859C74.1196 53.7859 73.6954 53.7859 73.2792 53.7859C72.9027 53.7838 72.5423 53.6324 72.2769 53.3648C72.0114 53.0973 71.8624 52.7352 71.8624 52.3579C71.8624 51.6599 71.8624 50.9539 71.8624 50.2479C71.8407 50.0378 71.8639 49.8255 71.9306 49.6252C71.9973 49.4249 72.1058 49.2411 72.249 49.0862C72.3922 48.9313 72.5668 48.8088 72.761 48.7269C72.9552 48.645 73.1646 48.6055 73.3752 48.6112C74.175 48.5671 74.9767 48.5671 75.7765 48.6112C76.1553 48.6068 76.5208 48.7513 76.7946 49.0138C77.0684 49.2762 77.2288 49.6357 77.2413 50.0152C77.2934 50.7979 77.2934 51.5832 77.2413 52.3659C77.241 52.5641 77.1996 52.76 77.1196 52.9412C77.0396 53.1225 76.9229 53.2851 76.7768 53.4186C76.6308 53.5522 76.4586 53.6538 76.2712 53.7171C76.0838 53.7803 75.8854 53.8038 75.6885 53.7859C75.3123 53.7859 74.888 53.7859 74.5438 53.7859H74.5358Z" fill="url(#paint34_radial_4706_1655)"/>
<path d="M62.2412 55.4466C62.6654 55.4466 63.0416 55.4466 63.5059 55.4466C63.8705 55.4507 64.2191 55.5972 64.4777 55.8549C64.7363 56.1125 64.8844 56.4611 64.8907 56.8265C64.8907 57.6288 64.8907 58.4311 64.8907 59.1852C64.8949 59.3734 64.862 59.5606 64.7938 59.736C64.7256 59.9115 64.6235 60.0716 64.4933 60.2073C64.3631 60.343 64.2074 60.4516 64.0352 60.5268C63.863 60.6019 63.6777 60.6423 63.4899 60.6454C62.6895 60.6454 61.809 60.6454 60.9605 60.6454C60.7689 60.6423 60.5797 60.6011 60.4041 60.5242C60.2285 60.4473 60.0698 60.3362 59.9373 60.1974C59.8047 60.0587 59.701 59.8949 59.6321 59.7156C59.5632 59.5364 59.5304 59.3452 59.5357 59.1531C59.5357 58.407 59.5357 57.6689 59.5357 56.9228C59.5303 56.7309 59.5637 56.5399 59.634 56.3614C59.7043 56.1828 59.8099 56.0204 59.9446 55.8839C60.0793 55.7474 60.2401 55.6397 60.4175 55.5673C60.5949 55.4949 60.785 55.4593 60.9765 55.4626C61.3927 55.4386 61.817 55.4466 62.2412 55.4466Z" fill="url(#paint35_radial_4706_1655)"/>
<path d="M24.5404 53.7879C24.1402 53.7879 23.7399 53.7879 23.3397 53.7879C23.1434 53.7935 22.948 53.7587 22.7657 53.6855C22.5834 53.6123 22.4181 53.5023 22.28 53.3624C22.1419 53.2224 22.0339 53.0555 21.9629 52.872C21.8918 52.6885 21.8591 52.4923 21.8669 52.2956C21.8669 51.5896 21.8669 50.8836 21.8669 50.1776C21.8492 49.9746 21.8737 49.7701 21.9387 49.577C22.0038 49.3839 22.108 49.2064 22.2448 49.0557C22.3817 48.9049 22.5482 48.7842 22.7339 48.7012C22.9196 48.6181 23.1204 48.5745 23.3237 48.5731C24.1241 48.5329 24.9246 48.5329 25.725 48.5731C25.9271 48.5718 26.1273 48.6116 26.3136 48.69C26.4998 48.7684 26.6684 48.8838 26.809 49.0292C26.9496 49.1747 27.0594 49.3471 27.1317 49.5362C27.204 49.7253 27.2374 49.9271 27.2298 50.1295C27.2298 50.8515 27.2298 51.5736 27.2298 52.2956C27.2378 52.4923 27.2049 52.6885 27.1332 52.8718C27.0615 53.055 26.9526 53.2213 26.8133 53.3601C26.6741 53.499 26.5076 53.6072 26.3244 53.6781C26.1411 53.749 25.9452 53.7809 25.749 53.7718C25.3488 53.8039 24.9406 53.7879 24.5404 53.7879Z" fill="url(#paint36_radial_4706_1655)"/>
<path d="M24.4925 60.6482C24.1083 60.6482 23.6921 60.6482 23.3479 60.6482C23.1518 60.6483 22.9576 60.609 22.7768 60.5329C22.596 60.4567 22.4322 60.3451 22.295 60.2046C22.1578 60.0641 22.05 59.8975 21.9779 59.7147C21.9058 59.5319 21.8708 59.3365 21.8751 59.1399C21.8751 58.3938 21.8751 57.6477 21.8751 56.9096C21.8696 56.7177 21.9031 56.5267 21.9733 56.3482C22.0436 56.1696 22.1493 56.0072 22.284 55.8707C22.4186 55.7342 22.5795 55.6265 22.7569 55.5541C22.9342 55.4817 23.1244 55.4461 23.3159 55.4494C24.143 55.4494 24.9674 55.4494 25.7892 55.4494C26.1657 55.4451 26.5286 55.5904 26.7986 55.8535C27.0686 56.1166 27.2237 56.4761 27.23 56.8534C27.23 57.6156 27.23 58.3858 27.23 59.148C27.2366 59.3454 27.2029 59.5421 27.131 59.726C27.0592 59.91 26.9506 60.0773 26.812 60.2177C26.6734 60.3582 26.5076 60.4688 26.3249 60.5428C26.1421 60.6168 25.9462 60.6527 25.7492 60.6482C25.333 60.6482 24.9087 60.6482 24.4925 60.6482Z" fill="url(#paint37_radial_4706_1655)"/>
<path d="M62.2494 53.7791C61.7932 53.7791 61.3289 53.7791 60.8727 53.7791C60.5173 53.7667 60.1805 53.617 59.9328 53.3612C59.6852 53.1055 59.5458 52.7636 59.5439 52.4072C59.5439 51.605 59.5439 50.8027 59.5439 50.0004C59.5435 49.6844 59.6552 49.3786 59.859 49.1376C60.0629 48.8966 60.3455 48.736 60.6566 48.6847C61.6701 48.5322 62.7007 48.5322 63.7142 48.6847C64.0487 48.7265 64.3556 48.892 64.5747 49.1487C64.7938 49.4054 64.9094 49.7349 64.8989 50.0726C64.8989 50.8749 64.8989 51.637 64.8989 52.4233C64.8979 52.6097 64.8598 52.7941 64.787 52.9656C64.7141 53.1371 64.6079 53.2924 64.4745 53.4224C64.3411 53.5523 64.1833 53.6543 64.0101 53.7225C63.837 53.7906 63.652 53.8235 63.4661 53.8193H62.2494V53.7791Z" fill="url(#paint38_radial_4706_1655)"/>
<path d="M43.383 60.6461C42.9828 60.6461 42.5826 60.6461 42.1824 60.6461C41.9859 60.6461 41.7913 60.6069 41.6101 60.5309C41.4288 60.4548 41.2645 60.3433 41.1267 60.2029C40.9889 60.0625 40.8803 59.896 40.8073 59.7132C40.7343 59.5303 40.6984 59.3347 40.7015 59.1378C40.7015 58.3997 40.7015 57.6536 40.7015 56.9075C40.6973 56.721 40.7297 56.5355 40.797 56.3615C40.8643 56.1876 40.9652 56.0287 41.0938 55.8938C41.2224 55.759 41.3762 55.6508 41.5465 55.5756C41.7168 55.5004 41.9002 55.4595 42.0863 55.4553C42.9428 55.4152 43.8072 55.4553 44.6717 55.4553C45.024 55.4671 45.359 55.6115 45.6097 55.8599C45.8604 56.1082 46.0085 56.4422 46.0245 56.7951C46.0245 57.5974 46.0245 58.3997 46.0245 59.2662C46.0144 59.629 45.8661 59.9741 45.61 60.2307C45.354 60.4874 45.0097 60.636 44.6477 60.6461C44.2315 60.6461 43.8072 60.6461 43.383 60.6461Z" fill="url(#paint39_radial_4706_1655)"/>
<path d="M43.3667 66.9344C42.9825 66.9344 42.5663 66.9344 42.2221 66.9344C42.025 66.9397 41.8288 66.9055 41.645 66.8338C41.4612 66.7622 41.2936 66.6544 41.1519 66.5169C41.0102 66.3794 40.8974 66.2149 40.82 66.0331C40.7426 65.8513 40.7023 65.6558 40.7013 65.4582C40.7013 64.6933 40.7013 63.9312 40.7013 63.1717C40.699 62.9797 40.7356 62.7893 40.8088 62.6119C40.882 62.4345 40.9904 62.2739 41.1273 62.1396C41.2642 62.0054 41.4268 61.9004 41.6054 61.831C41.7839 61.7615 41.9747 61.7291 42.1661 61.7356C42.9665 61.7356 43.767 61.7356 44.5674 61.7356C44.7622 61.7275 44.9566 61.7603 45.1381 61.8318C45.3195 61.9033 45.4841 62.0121 45.6212 62.151C45.7584 62.29 45.865 62.4561 45.9344 62.6388C46.0038 62.8214 46.0344 63.0166 46.0242 63.2118C46.0242 63.9338 46.0242 64.6559 46.0242 65.386C46.0334 65.5924 45.9994 65.7985 45.9245 65.9911C45.8496 66.1837 45.7354 66.3584 45.5892 66.5042C45.443 66.6499 45.2681 66.7635 45.0756 66.8376C44.8831 66.9117 44.6773 66.9446 44.4713 66.9344H43.3667Z" fill="url(#paint40_radial_4706_1655)"/>
<path d="M17.9047 73.1349C17.4644 73.1349 17.0242 73.1349 16.5839 73.1349C16.2181 73.1265 15.8704 72.9732 15.6169 72.7087C15.3634 72.4441 15.2248 72.0897 15.2312 71.7229C15.2312 71.0008 15.2312 70.2708 15.2312 69.5487C15.2131 69.3416 15.2388 69.133 15.3068 68.9366C15.3747 68.7401 15.4832 68.5603 15.6253 68.4088C15.7673 68.2573 15.9397 68.1376 16.1311 68.0576C16.3225 67.9775 16.5287 67.9388 16.736 67.9441C17.5365 67.904 18.3369 67.904 19.1373 67.9441C19.3325 67.9472 19.525 67.9893 19.7037 68.068C19.8824 68.1467 20.0436 68.2604 20.1778 68.4024C20.312 68.5444 20.4166 68.7119 20.4853 68.8949C20.5541 69.078 20.5856 69.273 20.5781 69.4685C20.5781 70.1905 20.5781 70.9126 20.5781 71.6427C20.5885 71.8393 20.5575 72.0359 20.4872 72.2197C20.4168 72.4035 20.3087 72.5704 20.1698 72.7096C20.0309 72.8488 19.8644 72.9572 19.681 73.0277C19.4976 73.0982 19.3015 73.1293 19.1053 73.1189C18.7051 73.1189 18.3049 73.1189 17.9047 73.1189V73.1349Z" fill="url(#paint41_radial_4706_1655)"/>
<path d="M24.5484 61.7396C24.9727 61.7396 25.3969 61.7396 25.8131 61.7396C26.1798 61.7353 26.5334 61.8761 26.7971 62.1314C27.0609 62.3868 27.2135 62.7361 27.2219 63.1035C27.2219 63.9058 27.2219 64.7081 27.2219 65.5103C27.2095 65.8864 27.0528 66.2432 26.7844 66.5063C26.5159 66.7694 26.1565 66.9184 25.7811 66.9224C24.9807 66.9224 24.1402 66.9224 23.3158 66.9224C22.9328 66.9161 22.5676 66.7597 22.2983 66.4868C22.029 66.2139 21.877 65.8461 21.875 65.4622C21.875 64.7161 21.875 63.978 21.875 63.2319C21.8647 63.0349 21.8957 62.838 21.966 62.6538C22.0362 62.4696 22.1442 62.3022 22.283 62.1624C22.4217 62.0225 22.5882 61.9134 22.7715 61.842C22.9549 61.7705 23.1512 61.7384 23.3478 61.7476C23.748 61.7236 24.1482 61.7396 24.5484 61.7396Z" fill="url(#paint42_radial_4706_1655)"/>
<path d="M43.3186 53.7872C42.9184 53.7872 42.5181 53.7872 42.1099 53.7872C41.7341 53.7809 41.3758 53.6268 41.1123 53.3582C40.8488 53.0895 40.7011 52.7278 40.7012 52.3511C40.7012 51.5916 40.7012 50.8294 40.7012 50.0646C40.6825 49.7118 40.7989 49.3651 41.0264 49.0953C41.254 48.8255 41.5756 48.6528 41.9258 48.6125C42.8619 48.5042 43.8073 48.5042 44.7434 48.6125C45.1066 48.6392 45.4446 48.8083 45.6843 49.0831C45.924 49.3579 46.0461 49.7163 46.0241 50.0806C46.0241 50.8829 46.0241 51.613 46.0241 52.3752C46.0274 52.5622 45.9929 52.7479 45.9228 52.9213C45.8526 53.0946 45.7482 53.2519 45.6159 53.3838C45.4836 53.5157 45.326 53.6194 45.1527 53.6887C44.9794 53.7581 44.7939 53.7915 44.6073 53.7872C44.1991 53.8032 43.7588 53.7872 43.3186 53.7872Z" fill="url(#paint43_radial_4706_1655)"/>
<defs>
<linearGradient id="paint0_linear_4706_1655" x1="6.00232" y1="49.9677" x2="93.9944" y2="49.9677" gradientUnits="userSpaceOnUse">
<stop stop-color="#BE1E2D"/>
<stop offset="1" stop-color="#8F1722"/>
</linearGradient>
<radialGradient id="paint1_radial_4706_1655" cx="0" cy="0" r="1" gradientUnits="userSpaceOnUse" gradientTransform="translate(45.7921 70.5425) scale(17.0894 17.1287)">
<stop stop-color="#F9E9EA"/>
<stop offset="1" stop-color="#FFCCCC"/>
</radialGradient>
<radialGradient id="paint2_radial_4706_1655" cx="0" cy="0" r="1" gradientUnits="userSpaceOnUse" gradientTransform="translate(14.9269 64.4582) scale(4.60252 4.61312)">
<stop stop-color="#F9E9EA"/>
<stop offset="1" stop-color="#FFCCCC"/>
</radialGradient>
<radialGradient id="paint3_radial_4706_1655" cx="0" cy="0" r="1" gradientUnits="userSpaceOnUse" gradientTransform="translate(14.9191 58.1998) scale(4.61052 4.62115)">
<stop stop-color="#F9E9EA"/>
<stop offset="1" stop-color="#FFCCCC"/>
</radialGradient>
<radialGradient id="paint4_radial_4706_1655" cx="0" cy="0" r="1" gradientUnits="userSpaceOnUse" gradientTransform="translate(87.8469 56.5788) scale(2.65745 2.66358)">
<stop stop-color="#F9E9EA"/>
<stop offset="1" stop-color="#FFCCCC"/>
</radialGradient>
<radialGradient id="paint5_radial_4706_1655" cx="0" cy="0" r="1" gradientUnits="userSpaceOnUse" gradientTransform="translate(81.5955 63.5976) scale(2.66546 2.6716)">
<stop stop-color="#F9E9EA"/>
<stop offset="1" stop-color="#FFCCCC"/>
</radialGradient>
<radialGradient id="paint6_radial_4706_1655" cx="0" cy="0" r="1" gradientUnits="userSpaceOnUse" gradientTransform="translate(68.4362 64.3384) scale(2.66546 2.6716)">
<stop stop-color="#F9E9EA"/>
<stop offset="1" stop-color="#FFCCCC"/>
</radialGradient>
<radialGradient id="paint7_radial_4706_1655" cx="0" cy="0" r="1" gradientUnits="userSpaceOnUse" gradientTransform="translate(49.6023 58.0452) scale(2.65745 2.66358)">
<stop stop-color="#F9E9EA"/>
<stop offset="1" stop-color="#FFCCCC"/>
</radialGradient>
<radialGradient id="paint8_radial_4706_1655" cx="0" cy="0" r="1" gradientUnits="userSpaceOnUse" gradientTransform="translate(30.7759 64.3371) scale(2.66546 2.6716)">
<stop stop-color="#F9E9EA"/>
<stop offset="1" stop-color="#FFCCCC"/>
</radialGradient>
<radialGradient id="paint9_radial_4706_1655" cx="0" cy="0" r="1" gradientUnits="userSpaceOnUse" gradientTransform="translate(37.1554 58.046) scale(2.65745 2.66358)">
<stop stop-color="#F9E9EA"/>
<stop offset="1" stop-color="#FFCCCC"/>
</radialGradient>
<radialGradient id="paint10_radial_4706_1655" cx="0" cy="0" r="1" gradientUnits="userSpaceOnUse" gradientTransform="translate(49.6023 64.336) scale(2.66546 2.6716)">
<stop stop-color="#F9E9EA"/>
<stop offset="1" stop-color="#FFCCCC"/>
</radialGradient>
<radialGradient id="paint11_radial_4706_1655" cx="0" cy="0" r="1" gradientUnits="userSpaceOnUse" gradientTransform="translate(68.4364 58.0371) scale(2.65745 2.66358)">
<stop stop-color="#F9E9EA"/>
<stop offset="1" stop-color="#FFCCCC"/>
</radialGradient>
<radialGradient id="paint12_radial_4706_1655" cx="0" cy="0" r="1" gradientUnits="userSpaceOnUse" gradientTransform="translate(30.7679 58.0486) scale(2.65745 2.66358)">
<stop stop-color="#F9E9EA"/>
<stop offset="1" stop-color="#FFCCCC"/>
</radialGradient>
<radialGradient id="paint13_radial_4706_1655" cx="0" cy="0" r="1" gradientUnits="userSpaceOnUse" gradientTransform="translate(87.847 63.5972) scale(2.66546 2.6716)">
<stop stop-color="#F9E9EA"/>
<stop offset="1" stop-color="#FFCCCC"/>
</radialGradient>
<radialGradient id="paint14_radial_4706_1655" cx="0" cy="0" r="1" gradientUnits="userSpaceOnUse" gradientTransform="translate(55.8616 58.0464) scale(2.65745 2.66358)">
<stop stop-color="#F9E9EA"/>
<stop offset="1" stop-color="#FFCCCC"/>
</radialGradient>
<radialGradient id="paint15_radial_4706_1655" cx="0" cy="0" r="1" gradientUnits="userSpaceOnUse" gradientTransform="translate(81.5957 56.5792) scale(2.65745 2.66358)">
<stop stop-color="#F9E9EA"/>
<stop offset="1" stop-color="#FFCCCC"/>
</radialGradient>
<radialGradient id="paint16_radial_4706_1655" cx="0" cy="0" r="1" gradientUnits="userSpaceOnUse" gradientTransform="translate(87.8469 49.7123) scale(2.66546 2.6716)">
<stop stop-color="#F9E9EA"/>
<stop offset="1" stop-color="#FFCCCC"/>
</radialGradient>
<radialGradient id="paint17_radial_4706_1655" cx="0" cy="0" r="1" gradientUnits="userSpaceOnUse" gradientTransform="translate(74.568 64.3316) scale(2.66546 2.6716)">
<stop stop-color="#F9E9EA"/>
<stop offset="1" stop-color="#FFCCCC"/>
</radialGradient>
<radialGradient id="paint18_radial_4706_1655" cx="0" cy="0" r="1" gradientUnits="userSpaceOnUse" gradientTransform="translate(73.8478 70.5341) scale(2.65745 2.66358)">
<stop stop-color="#F9E9EA"/>
<stop offset="1" stop-color="#FFCCCC"/>
</radialGradient>
<radialGradient id="paint19_radial_4706_1655" cx="0" cy="0" r="1" gradientUnits="userSpaceOnUse" gradientTransform="translate(81.5955 70.401) scale(2.65745 2.66358)">
<stop stop-color="#F9E9EA"/>
<stop offset="1" stop-color="#FFCCCC"/>
</radialGradient>
<radialGradient id="paint20_radial_4706_1655" cx="0" cy="0" r="1" gradientUnits="userSpaceOnUse" gradientTransform="translate(30.7681 51.1767) scale(2.65745 2.66358)">
<stop stop-color="#F9E9EA"/>
<stop offset="1" stop-color="#FFCCCC"/>
</radialGradient>
<radialGradient id="paint21_radial_4706_1655" cx="0" cy="0" r="1" gradientUnits="userSpaceOnUse" gradientTransform="translate(81.5955 49.7098) scale(2.66546 2.6716)">
<stop stop-color="#F9E9EA"/>
<stop offset="1" stop-color="#FFCCCC"/>
</radialGradient>
<radialGradient id="paint22_radial_4706_1655" cx="0" cy="0" r="1" gradientUnits="userSpaceOnUse" gradientTransform="translate(55.8618 51.1797) scale(2.65746 2.66358)">
<stop stop-color="#F9E9EA"/>
<stop offset="1" stop-color="#FFCCCC"/>
</radialGradient>
<radialGradient id="paint23_radial_4706_1655" cx="0" cy="0" r="1" gradientUnits="userSpaceOnUse" gradientTransform="translate(87.8469 70.3998) scale(2.65746 2.66358)">
<stop stop-color="#F9E9EA"/>
<stop offset="1" stop-color="#FFCCCC"/>
</radialGradient>
<radialGradient id="paint24_radial_4706_1655" cx="0" cy="0" r="1" gradientUnits="userSpaceOnUse" gradientTransform="translate(11.6776 70.5257) scale(2.65745 2.66358)">
<stop stop-color="#F9E9EA"/>
<stop offset="1" stop-color="#FFCCCC"/>
</radialGradient>
<radialGradient id="paint25_radial_4706_1655" cx="0" cy="0" r="1" gradientUnits="userSpaceOnUse" gradientTransform="translate(74.5678 58.0474) scale(2.66546 2.6716)">
<stop stop-color="#F9E9EA"/>
<stop offset="1" stop-color="#FFCCCC"/>
</radialGradient>
<radialGradient id="paint26_radial_4706_1655" cx="0" cy="0" r="1" gradientUnits="userSpaceOnUse" gradientTransform="translate(49.6021 51.1764) scale(2.66546 2.6716)">
<stop stop-color="#F9E9EA"/>
<stop offset="1" stop-color="#FFCCCC"/>
</radialGradient>
<radialGradient id="paint27_radial_4706_1655" cx="0" cy="0" r="1" gradientUnits="userSpaceOnUse" gradientTransform="translate(68.4366 51.1785) scale(2.66546 2.6716)">
<stop stop-color="#F9E9EA"/>
<stop offset="1" stop-color="#FFCCCC"/>
</radialGradient>
<radialGradient id="paint28_radial_4706_1655" cx="0" cy="0" r="1" gradientUnits="userSpaceOnUse" gradientTransform="translate(37.1632 64.3375) scale(2.66546 2.6716)">
<stop stop-color="#F9E9EA"/>
<stop offset="1" stop-color="#FFCCCC"/>
</radialGradient>
<radialGradient id="paint29_radial_4706_1655" cx="0" cy="0" r="1" gradientUnits="userSpaceOnUse" gradientTransform="translate(55.8616 64.3275) scale(2.65745 2.66358)">
<stop stop-color="#F9E9EA"/>
<stop offset="1" stop-color="#FFCCCC"/>
</radialGradient>
<radialGradient id="paint30_radial_4706_1655" cx="0" cy="0" r="1" gradientUnits="userSpaceOnUse" gradientTransform="translate(11.8133 51.1684) scale(2.66546 2.6716)">
<stop stop-color="#F9E9EA"/>
<stop offset="1" stop-color="#FFCCCC"/>
</radialGradient>
<radialGradient id="paint31_radial_4706_1655" cx="0" cy="0" r="1" gradientUnits="userSpaceOnUse" gradientTransform="translate(37.1552 51.1794) scale(2.66546 2.6716)">
<stop stop-color="#F9E9EA"/>
<stop offset="1" stop-color="#FFCCCC"/>
</radialGradient>
<radialGradient id="paint32_radial_4706_1655" cx="0" cy="0" r="1" gradientUnits="userSpaceOnUse" gradientTransform="translate(62.2414 64.3284) scale(2.65745 2.66358)">
<stop stop-color="#F9E9EA"/>
<stop offset="1" stop-color="#FFCCCC"/>
</radialGradient>
<radialGradient id="paint33_radial_4706_1655" cx="0" cy="0" r="1" gradientUnits="userSpaceOnUse" gradientTransform="translate(18.0567 51.1817) scale(2.65745 2.66358)">
<stop stop-color="#F9E9EA"/>
<stop offset="1" stop-color="#FFCCCC"/>
</radialGradient>
<radialGradient id="paint34_radial_4706_1655" cx="0" cy="0" r="1" gradientUnits="userSpaceOnUse" gradientTransform="translate(74.5599 51.1785) scale(2.65745 2.66358)">
<stop stop-color="#F9E9EA"/>
<stop offset="1" stop-color="#FFCCCC"/>
</radialGradient>
<radialGradient id="paint35_radial_4706_1655" cx="0" cy="0" r="1" gradientUnits="userSpaceOnUse" gradientTransform="translate(62.2252 58.054) scale(2.64945 2.65555)">
<stop stop-color="#F9E9EA"/>
<stop offset="1" stop-color="#FFCCCC"/>
</radialGradient>
<radialGradient id="paint36_radial_4706_1655" cx="0" cy="0" r="1" gradientUnits="userSpaceOnUse" gradientTransform="translate(24.5564 51.1805) scale(2.64945 2.65555)">
<stop stop-color="#F9E9EA"/>
<stop offset="1" stop-color="#FFCCCC"/>
</radialGradient>
<radialGradient id="paint37_radial_4706_1655" cx="0" cy="0" r="1" gradientUnits="userSpaceOnUse" gradientTransform="translate(24.5566 58.0488) scale(2.64945 2.65555)">
<stop stop-color="#F9E9EA"/>
<stop offset="1" stop-color="#FFCCCC"/>
</radialGradient>
<radialGradient id="paint38_radial_4706_1655" cx="0" cy="0" r="1" gradientUnits="userSpaceOnUse" gradientTransform="translate(62.2174 51.1717) scale(2.65745 2.66358)">
<stop stop-color="#F9E9EA"/>
<stop offset="1" stop-color="#FFCCCC"/>
</radialGradient>
<radialGradient id="paint39_radial_4706_1655" cx="0" cy="0" r="1" gradientUnits="userSpaceOnUse" gradientTransform="translate(43.383 58.0387) scale(2.64945 2.65555)">
<stop stop-color="#F9E9EA"/>
<stop offset="1" stop-color="#FFCCCC"/>
</radialGradient>
<radialGradient id="paint40_radial_4706_1655" cx="0" cy="0" r="1" gradientUnits="userSpaceOnUse" gradientTransform="translate(43.3827 64.3269) scale(2.64945 2.65555)">
<stop stop-color="#F9E9EA"/>
<stop offset="1" stop-color="#FFCCCC"/>
</radialGradient>
<radialGradient id="paint41_radial_4706_1655" cx="0" cy="0" r="1" gradientUnits="userSpaceOnUse" gradientTransform="translate(17.9047 70.5275) scale(2.64945 2.65555)">
<stop stop-color="#F9E9EA"/>
<stop offset="1" stop-color="#FFCCCC"/>
</radialGradient>
<radialGradient id="paint42_radial_4706_1655" cx="0" cy="0" r="1" gradientUnits="userSpaceOnUse" gradientTransform="translate(24.5564 64.339) scale(2.64945 2.65555)">
<stop stop-color="#F9E9EA"/>
<stop offset="1" stop-color="#FFCCCC"/>
</radialGradient>
<radialGradient id="paint43_radial_4706_1655" cx="0" cy="0" r="1" gradientUnits="userSpaceOnUse" gradientTransform="translate(43.3826 51.1717) scale(2.65745 2.66358)">
<stop stop-color="#F9E9EA"/>
<stop offset="1" stop-color="#FFCCCC"/>
</radialGradient>
</defs>
</svg>