<svg width="100" height="100" viewBox="0 0 100 100" fill="none" xmlns="http://www.w3.org/2000/svg">
<path d="M84.1728 18H15.8359V63.4499H84.1728V18Z" fill="url(#paint0_linear_4706_1646)"/>
<path d="M77.2517 24.9805H22.7666V56.4596H77.2517V24.9805Z" fill="url(#paint1_linear_4706_1646)"/>
<path d="M59.4037 79.0117H40.775H6V81.9993H94V79.0117H59.4037Z" fill="url(#paint2_linear_4706_1646)"/>
<path d="M84.164 65.5664H50.9782H49.0317H15.8365L6.52686 78.105H93.4736L84.164 65.5664Z" fill="url(#paint3_linear_4706_1646)"/>
<path d="M78.0984 67.8594H74.3369V69.7563H78.0984V67.8594Z" fill="#550D14"/>
<path d="M80.4211 70.8867H76.6973V72.7836H80.4211V70.8867Z" fill="#550D14"/>
<path d="M75.757 70.8867H72.0049V72.7836H75.757V70.8867Z" fill="#550D14"/>
<path d="M72.9547 67.8594H69.2026V69.7563H72.9547V67.8594Z" fill="#550D14"/>
<path d="M70.6222 70.8867H66.8701V72.7836H70.6222V70.8867Z" fill="#550D14"/>
<path d="M67.4064 67.8594H63.9458V69.2062H67.4064V67.8594Z" fill="#550D14"/>
<path d="M65.3654 70.8867H61.6133V72.7836H65.3654V70.8867Z" fill="#550D14"/>
<path d="M62.319 67.8594H58.5669V69.7563H62.319V67.8594Z" fill="#550D14"/>
<path d="M57.0808 67.8594H53.3193V69.7563H57.0808V67.8594Z" fill="#550D14"/>
<path d="M54.7394 70.8867H50.9873V72.7836H54.7394V70.8867Z" fill="#550D14"/>
<path d="M51.9279 67.8594H48.1758V69.7563H51.9279V67.8594Z" fill="#550D14"/>
<path d="M49.5958 70.8867H45.8438V72.7836H49.5958V70.8867Z" fill="#550D14"/>
<path d="M46.6808 67.8594H42.9287V69.7563H46.6808V67.8594Z" fill="#550D14"/>
<path d="M44.3582 70.8867H40.5967V72.7836H44.3582V70.8867Z" fill="#550D14"/>
<path d="M41.3112 67.8594H37.5591V69.7563H41.3112V67.8594Z" fill="#550D14"/>
<path d="M38.9791 70.8867H35.2271V72.7836H38.9791V70.8867Z" fill="#550D14"/>
<path d="M36.0636 67.8594H32.3115V69.7563H36.0636V67.8594Z" fill="#550D14"/>
<path d="M33.7322 70.8867H29.9707V72.7836H33.7322V70.8867Z" fill="#550D14"/>
<path d="M30.9196 67.8594H27.1675V69.7563H30.9196V67.8594Z" fill="#550D14"/>
<path d="M28.5875 70.8867H24.8354V72.7836H28.5875V70.8867Z" fill="#550D14"/>
<path d="M25.673 67.8594H21.9209V69.7563H25.673V67.8594Z" fill="#550D14"/>
<path d="M23.341 70.8867H19.5889V72.7836H23.341V70.8867Z" fill="#550D14"/>
<path d="M20.322 73.75H16.5605V75.6374H20.322V73.75Z" fill="#550D14"/>
<path d="M25.1085 73.75H21.3564V75.6374H25.1085V73.75Z" fill="#550D14"/>
<path d="M30.3743 73.75H26.6128V75.6374H30.3743V73.75Z" fill="#550D14"/>
<path d="M35.5086 75.6374H31.7471V73.75H35.5086V75.6374Z" fill="#550D14"/>
<path d="M40.7654 73.75H37.0039V75.6374H40.7654V73.75Z" fill="#550D14"/>
<path d="M56.1783 73.75H42.3643V75.6374H56.1783V73.75Z" fill="#550D14"/>
<path d="M59.9869 70.8867H56.2349V72.7836H59.9869V70.8867Z" fill="#550D14"/>
<path d="M61.7638 73.75H58.0117V75.6374H61.7638V73.75Z" fill="#550D14"/>
<path d="M67.1427 73.75H63.3906V75.6374H67.1427V73.75Z" fill="#550D14"/>
<path d="M72.3903 73.75H68.6382V75.6374H72.3903V73.75Z" fill="#550D14"/>
<path d="M77.5343 73.75H73.7822V75.6374H77.5343V73.75Z" fill="#550D14"/>
<path d="M82.2835 73.75H78.522V75.6374H82.2835V73.75Z" fill="#550D14"/>
<defs>
<linearGradient id="paint0_linear_4706_1646" x1="15.8359" y1="40.7249" x2="84.1728" y2="40.7249" gradientUnits="userSpaceOnUse">
<stop stop-color="#BE1E2D"/>
<stop offset="1" stop-color="#8F1722"/>
</linearGradient>
<linearGradient id="paint1_linear_4706_1646" x1="22.7666" y1="40.7248" x2="77.2423" y2="40.7248" gradientUnits="userSpaceOnUse">
<stop stop-color="#F9E9EA"/>
<stop offset="1" stop-color="#FFCCCC"/>
</linearGradient>
<linearGradient id="paint2_linear_4706_1646" x1="6" y1="80.5103" x2="94" y2="80.5103" gradientUnits="userSpaceOnUse">
<stop stop-color="#BE1E2D"/>
<stop offset="1" stop-color="#8F1722"/>
</linearGradient>
<linearGradient id="paint3_linear_4706_1646" x1="6.52686" y1="71.8357" x2="93.4736" y2="71.8357" gradientUnits="userSpaceOnUse">
<stop stop-color="#BE1E2D"/>
<stop offset="1" stop-color="#8F1722"/>
</linearGradient>
</defs>
</svg>
