<svg width="100" height="100" viewBox="0 0 100 100" fill="none" xmlns="http://www.w3.org/2000/svg">
<path d="M82.725 75.9634C78.2775 76.6288 73.1429 66.847 71.1994 63.1093L70.892 62.5258C70.1633 61.1683 69.1138 60.0128 67.8366 59.1619C65.188 57.603 60.0444 55.7615 50.4986 55.6338H49.459C39.9041 55.7615 34.7695 57.603 32.1209 59.1619C30.8477 60.0237 29.8046 61.1884 29.0836 62.5532L28.7853 63.1366C26.8417 66.847 21.7343 76.6744 17.2597 75.9634C12.5319 75.1885 9.68443 73.3196 10.0279 53.8561C10.2449 39.8169 14.7828 31.2019 16.7263 28.148C17.1822 27.4984 17.7376 26.9261 18.3716 26.4523C20.619 24.8795 23.2837 24.0251 26.0191 24C27.1368 23.9991 28.2496 24.1493 29.3276 24.4467C29.8835 24.6958 30.3775 25.0663 30.774 25.5316L33.7932 29.4698C34.3498 30.1381 35.0403 30.6801 35.8192 31.0604C36.5982 31.4406 37.448 31.6504 38.3131 31.676H61.6716C62.5373 31.6492 63.3876 31.438 64.1666 31.0562C64.9456 30.6744 65.6357 30.1307 66.1914 29.4607L69.2378 25.5863C69.6183 25.1057 70.1 24.7164 70.648 24.4467C72.5084 23.9513 74.454 23.8741 76.3472 24.2207C78.2404 24.5673 80.035 25.3291 81.6041 26.4523C82.2381 26.9261 82.7934 27.4984 83.2493 28.148C85.1928 31.2019 89.7398 39.8169 89.9748 53.8835C90.3002 73.347 87.4527 75.2158 82.725 75.9634Z" fill="url(#paint0_linear_4706_1647)"/>
<path d="M74.6254 42.8897C75.4645 42.8879 76.2844 42.6355 76.9815 42.1644C77.6786 41.6933 78.2217 41.0246 78.5424 40.2426C78.8631 39.4605 78.947 38.6003 78.7835 37.7702C78.62 36.9402 78.2165 36.1775 77.6237 35.5785C77.031 34.9795 76.2757 34.5708 75.4529 34.4042C74.6302 34.2376 73.777 34.3203 73.0009 34.6421C72.2248 34.9639 71.5605 35.5102 71.0919 36.2123C70.6233 36.9143 70.3713 37.7405 70.3677 38.5868C70.3653 39.1517 70.4738 39.7116 70.6868 40.2342C70.8998 40.7567 71.2132 41.2316 71.6089 41.6315C72.0046 42.0315 72.4748 42.3485 72.9925 42.5644C73.5102 42.7804 74.0652 42.8909 74.6254 42.8897Z" fill="#EBB9BE"/>
<path d="M74.6255 35.8516C75.1618 35.8516 75.6862 36.012 76.1321 36.3125C76.5781 36.613 76.9257 37.0401 77.1309 37.5399C77.3362 38.0396 77.3899 38.5895 77.2853 39.12C77.1806 39.6506 76.9223 40.1379 76.5431 40.5204C76.1638 40.9028 75.6806 41.1633 75.1545 41.2688C74.6285 41.3744 74.0832 41.3202 73.5877 41.1132C73.0921 40.9062 72.6686 40.5557 72.3706 40.1059C72.0726 39.6562 71.9136 39.1274 71.9136 38.5865C71.9136 37.8611 72.1993 37.1655 72.7079 36.6526C73.2164 36.1397 73.9062 35.8516 74.6255 35.8516Z" fill="#8F1722"/>
<path d="M74.6256 47.3789C73.7853 47.3789 72.9639 47.6302 72.2652 48.101C71.5665 48.5718 71.0219 49.241 70.7004 50.0239C70.3788 50.8068 70.2947 51.6684 70.4586 52.4995C70.6225 53.3307 71.0272 54.0941 71.6214 54.6933C72.2155 55.2926 72.9726 55.7006 73.7967 55.866C74.6209 56.0313 75.4751 55.9464 76.2515 55.6221C77.0278 55.2978 77.6914 54.7487 78.1582 54.0441C78.6251 53.3394 78.8742 52.511 78.8742 51.6636C78.8695 50.5287 78.4203 49.4417 77.6246 48.6392C76.8288 47.8367 75.751 47.3837 74.6256 47.3789Z" fill="#EBB9BE"/>
<path d="M74.6255 54.4034C74.0891 54.4034 73.5648 54.243 73.1188 53.9425C72.6729 53.642 72.3253 53.2149 72.12 52.7151C71.9148 52.2154 71.861 51.6655 71.9657 51.135C72.0703 50.6044 72.3286 50.1171 72.7079 49.7346C73.0871 49.3521 73.5704 49.0917 74.0964 48.9861C74.6225 48.8806 75.1677 48.9348 75.6633 49.1418C76.1588 49.3488 76.5824 49.6993 76.8803 50.1491C77.1783 50.5988 77.3374 51.1276 77.3374 51.6685C77.3374 52.3939 77.0517 53.0895 76.5431 53.6024C76.0345 54.1153 75.3447 54.4034 74.6255 54.4034Z" fill="#8F1722"/>
<path d="M71.9132 45.2001C71.9079 44.352 71.6536 43.5246 71.1825 42.822C70.7115 42.1195 70.0446 41.5734 69.2662 41.2526C68.4877 40.9318 67.6325 40.8507 66.8084 41.0195C65.9843 41.1882 65.2282 41.5993 64.6355 42.2009C64.0427 42.8025 63.6399 43.5676 63.4778 44.3997C63.3157 45.2319 63.4016 46.0938 63.7246 46.8768C64.0477 47.6598 64.5934 48.3288 65.2929 48.7994C65.9925 49.2701 66.8146 49.5212 67.6555 49.5212C68.217 49.5212 68.7728 49.4093 69.2912 49.1918C69.8095 48.9743 70.2801 48.6556 70.6758 48.2539C71.0715 47.8523 71.3846 47.3757 71.597 46.8516C71.8093 46.3275 71.9168 45.7662 71.9132 45.2001Z" fill="#EBB9BE"/>
<path d="M67.6558 47.9425C67.1194 47.9425 66.5951 47.7821 66.1491 47.4816C65.7031 47.1811 65.3555 46.7539 65.1503 46.2542C64.945 45.7544 64.8913 45.2045 64.996 44.674C65.1006 44.1435 65.3589 43.6562 65.7381 43.2737C66.1174 42.8912 66.6006 42.6307 67.1267 42.5252C67.6527 42.4197 68.198 42.4738 68.6936 42.6808C69.1891 42.8878 69.6126 43.2384 69.9106 43.6881C70.2086 44.1379 70.3677 44.6667 70.3677 45.2076C70.3677 45.9329 70.0819 46.6286 69.5734 47.1414C69.0648 47.6543 68.375 47.9425 67.6558 47.9425Z" fill="#8F1722"/>
<path d="M81.586 40.918C80.7457 40.918 79.9243 41.1693 79.2256 41.6401C78.5269 42.1109 77.9824 42.7801 77.6608 43.563C77.3392 44.3459 77.2551 45.2074 77.419 46.0386C77.583 46.8697 77.9876 47.6332 78.5818 48.2324C79.176 48.8316 79.933 49.2397 80.7572 49.405C81.5813 49.5704 82.4356 49.4855 83.2119 49.1612C83.9883 48.8369 84.6518 48.2877 85.1187 47.5831C85.5855 46.8785 85.8347 46.0501 85.8347 45.2027C85.8347 44.0663 85.3871 42.9765 84.5903 42.1729C83.7935 41.3694 82.7129 40.918 81.586 40.918Z" fill="#EBB9BE"/>
<path d="M81.5859 47.9425C81.0496 47.9425 80.5252 47.7821 80.0793 47.4816C79.6333 47.1811 79.2857 46.7539 79.0805 46.2542C78.8752 45.7544 78.8215 45.2045 78.9261 44.674C79.0308 44.1435 79.2891 43.6562 79.6683 43.2737C80.0476 42.8912 80.5308 42.6307 81.0569 42.5252C81.5829 42.4197 82.1282 42.4738 82.6237 42.6808C83.1193 42.8878 83.5428 43.2384 83.8408 43.6881C84.1388 44.1379 84.2978 44.6667 84.2978 45.2076C84.2978 45.9329 84.0121 46.6286 83.5035 47.1414C82.9949 47.6543 82.3052 47.9425 81.5859 47.9425Z" fill="#8F1722"/>
<path d="M31.6784 42.0857H27.3213V37.6733C27.3213 37.4678 27.2403 37.2707 27.0963 37.1254C26.9522 36.9801 26.7567 36.8984 26.5529 36.8984H22.2681C22.0651 36.9008 21.871 36.9832 21.7274 37.128C21.5838 37.2728 21.5021 37.4686 21.4998 37.6733V42.0583H17.1517C17.0508 42.0583 16.9509 42.0784 16.8576 42.1173C16.7644 42.1562 16.6797 42.2133 16.6084 42.2853C16.537 42.3572 16.4804 42.4426 16.4418 42.5367C16.4032 42.6307 16.3833 42.7314 16.3833 42.8332V47.1452C16.3833 47.3516 16.464 47.5497 16.6078 47.6964C16.7516 47.8432 16.9471 47.9269 17.1517 47.9293H21.4998V52.3142C21.5021 52.519 21.5838 52.7147 21.7274 52.8595C21.871 53.0044 22.0651 53.0868 22.2681 53.0891H26.5529C26.7567 53.0891 26.9522 53.0075 27.0963 52.8622C27.2403 52.7168 27.3213 52.5197 27.3213 52.3142V47.9566H31.6784C31.883 47.9542 32.0785 47.8705 32.2223 47.7238C32.3661 47.577 32.4468 47.379 32.4468 47.1726V42.8605C32.4468 42.655 32.3658 42.4579 32.2217 42.3126C32.0776 42.1673 31.8822 42.0857 31.6784 42.0857Z" fill="#EBB9BE"/>
<path d="M30.9004 46.3987H26.5523C26.3493 46.4011 26.1552 46.4835 26.0116 46.6283C25.868 46.7731 25.7863 46.9688 25.7839 47.1736V51.5677H23.072V47.1736C23.0697 46.9672 22.9867 46.7702 22.8412 46.6251C22.6956 46.48 22.4993 46.3987 22.2946 46.3987H17.9194V43.6638H22.2675C22.4721 43.6638 22.6685 43.5824 22.8141 43.4374C22.9596 43.2923 23.0425 43.0952 23.0449 42.8889V38.4766H25.7568V42.8615C25.7568 43.0671 25.8378 43.2642 25.9819 43.4095C26.126 43.5548 26.3214 43.6364 26.5252 43.6364H30.8733L30.9004 46.3987Z" fill="#8F1722"/>
<path d="M44.1891 36.7812H40.2207V38.7413H44.1891V36.7812Z" fill="#EBB9BE"/>
<path d="M58.1549 36.7812H54.1865V38.7413H58.1549V36.7812Z" fill="#EBB9BE"/>
<defs>
<linearGradient id="paint0_linear_4706_1647" x1="9.98274" y1="50.009" x2="90.0019" y2="50.009" gradientUnits="userSpaceOnUse">
<stop stop-color="#BE1E2D"/>
<stop offset="1" stop-color="#8F1722"/>
</linearGradient>
</defs>
</svg>