<svg width="100" height="100" viewBox="0 0 100 100" fill="none" xmlns="http://www.w3.org/2000/svg">
<path d="M49.9471 63.6602C49.2371 63.6602 48.5429 63.8678 47.9525 64.257C47.3621 64.6461 46.902 65.1991 46.6302 65.8462C46.3585 66.4933 46.2874 67.2053 46.4259 67.8922C46.5644 68.5792 46.9064 69.2102 47.4085 69.7054C47.9106 70.2007 48.5503 70.5379 49.2467 70.6746C49.9431 70.8112 50.665 70.7411 51.321 70.4731C51.9771 70.205 52.5378 69.7511 52.9323 69.1688C53.3268 68.5864 53.5373 67.9018 53.5373 67.2014C53.5373 66.2622 53.1591 65.3615 52.4858 64.6974C51.8125 64.0332 50.8993 63.6602 49.9471 63.6602Z" fill="black"/>
<path d="M65.4169 22H34.4866C31.8429 22 29.6997 24.1139 29.6997 26.7216V73.2784C29.6997 75.8861 31.8429 78 34.4866 78H65.4169C68.0606 78 70.2038 75.8861 70.2038 73.2784V26.7216C70.2038 24.1139 68.0606 22 65.4169 22Z" fill="url(#paint0_linear_4706_1643)"/>
<path d="M49.9473 71.709C49.0475 71.709 48.168 71.4458 47.4198 70.9527C46.6717 70.4596 46.0886 69.7588 45.7443 68.9389C45.3999 68.1189 45.3098 67.2167 45.4854 66.3462C45.6609 65.4758 46.0942 64.6762 46.7304 64.0487C47.3667 63.4211 48.1773 62.9937 49.0598 62.8206C49.9422 62.6475 50.857 62.7363 51.6883 63.076C52.5195 63.4156 53.23 63.9907 53.7299 64.7287C54.2298 65.4666 54.4966 66.3342 54.4966 67.2217C54.4966 67.8109 54.379 68.3945 54.1503 68.9389C53.9217 69.4833 53.5866 69.978 53.1642 70.3947C52.7417 70.8113 52.2402 71.1419 51.6883 71.3674C51.1363 71.5929 50.5447 71.709 49.9473 71.709Z" fill="url(#paint1_linear_4706_1643)" stroke="#FFB0B0" stroke-width="0.81" stroke-miterlimit="10"/>
<path d="M49.9469 57.7099C46.6663 57.7099 43.4594 56.7504 40.7317 54.9526C38.0039 53.1549 35.8779 50.5997 34.6225 47.6101C33.3671 44.6206 33.0386 41.331 33.6786 38.1573C34.3186 34.9836 35.8984 32.0684 38.2181 29.7803C40.5379 27.4922 43.4934 25.9339 46.711 25.3027C49.9285 24.6714 53.2636 24.9954 56.2945 26.2337C59.3254 27.472 61.916 29.569 63.7386 32.2595C65.5612 34.95 66.534 38.1132 66.534 41.3491C66.534 45.6883 64.7864 49.8497 61.6758 52.918C58.5651 55.9862 54.3461 57.7099 49.9469 57.7099Z" fill="#F5DDE0"/>
<path d="M49.9474 27.8672C47.2446 27.8672 44.6025 28.6577 42.3552 30.1389C40.1079 31.62 38.3563 33.7251 37.322 36.1881C36.2877 38.6511 36.017 41.3614 36.5443 43.9761C37.0716 46.5908 38.3731 48.9926 40.2843 50.8777C42.1955 52.7628 44.6305 54.0466 47.2813 54.5667C49.9322 55.0868 52.6799 54.8198 55.177 53.7996C57.6741 52.7794 59.8083 51.0517 61.3099 48.8351C62.8115 46.6184 63.613 44.0124 63.613 41.3464C63.6142 39.576 63.2615 37.8227 62.5751 36.1868C61.8888 34.5509 60.8822 33.0645 59.613 31.8126C58.3438 30.5607 56.8369 29.5679 55.1784 28.8909C53.5198 28.2139 51.7423 27.866 49.9474 27.8672ZM49.9474 47.9081C48.6316 47.9081 47.3455 47.5233 46.2515 46.8023C45.1575 46.0813 44.3048 45.0565 43.8013 43.8575C43.2978 42.6585 43.1661 41.3391 43.4228 40.0663C43.6795 38.7935 44.313 37.6243 45.2434 36.7066C46.1738 35.7889 47.3591 35.164 48.6496 34.9108C49.94 34.6576 51.2776 34.7876 52.4931 35.2842C53.7087 35.7809 54.7477 36.6219 55.4787 37.7009C56.2096 38.78 56.5998 40.0486 56.5998 41.3464C56.5998 43.0867 55.8989 44.7557 54.6514 45.9862C53.4038 47.2168 51.7117 47.9081 49.9474 47.9081Z" fill="url(#paint2_linear_4706_1643)"/>
<path d="M16.914 71.7031C16.6003 71.7032 16.2937 71.795 16.0331 71.9671C15.7724 72.1391 15.5694 72.3836 15.4498 72.6696C15.3302 72.9556 15.2993 73.2702 15.3612 73.5735C15.423 73.8767 15.5747 74.1551 15.7971 74.3732C16.0195 74.5914 16.3026 74.7395 16.6104 74.7988C16.9182 74.8581 17.237 74.8259 17.5262 74.7063C17.8155 74.5868 18.0622 74.3852 18.2352 74.1271C18.4082 73.869 18.4996 73.5661 18.4979 73.2568C18.4979 73.052 18.4568 72.8493 18.3771 72.6602C18.2974 72.4712 18.1806 72.2995 18.0334 72.1551C17.8862 72.0107 17.7116 71.8965 17.5194 71.8189C17.3273 71.7413 17.1216 71.702 16.914 71.7031Z" fill="black"/>
<path d="M23.7335 53.3398H10.1031C8.94158 53.3398 8 54.2686 8 55.4142V75.9152C8 77.0608 8.94158 77.9896 10.1031 77.9896H23.7335C24.895 77.9896 25.8366 77.0608 25.8366 75.9152V55.4142C25.8366 54.2686 24.895 53.3398 23.7335 53.3398Z" fill="url(#paint3_linear_4706_1643)"/>
<path d="M16.914 75.2256C16.5193 75.2239 16.134 75.1069 15.8066 74.8894C15.4793 74.6718 15.2247 74.3635 15.0748 74.0034C14.925 73.6432 14.8867 73.2473 14.9648 72.8657C15.0428 72.4841 15.2338 72.1338 15.5135 71.8592C15.7932 71.5845 16.1491 71.3977 16.5363 71.3224C16.9235 71.2471 17.3247 71.2866 17.6892 71.436C18.0537 71.5853 18.3651 71.8379 18.5842 72.1617C18.8033 72.4855 18.9203 72.8661 18.9203 73.2554C18.9203 73.5148 18.8683 73.7718 18.7674 74.0114C18.6664 74.251 18.5185 74.4686 18.3321 74.6516C18.1457 74.8347 17.9245 74.9796 17.6811 75.0781C17.4377 75.1766 17.177 75.2268 16.914 75.2256Z" fill="url(#paint4_linear_4706_1643)" stroke="#FFB0B0" stroke-width="0.35" stroke-miterlimit="10"/>
<path d="M16.9134 69.0603C15.4686 69.0603 14.0561 68.6376 12.8549 67.8456C11.6536 67.0536 10.7175 65.928 10.165 64.6111C9.61244 63.2943 9.46832 61.8454 9.75085 60.4477C10.0334 59.05 10.7298 57.7664 11.7522 56.7593C12.7745 55.7521 14.0767 55.0667 15.494 54.7897C16.9113 54.5127 18.3801 54.6566 19.7145 55.2032C21.0489 55.7498 22.189 56.6745 22.9904 57.8603C23.7919 59.0461 24.2188 60.4398 24.217 61.865C24.217 62.8106 24.0281 63.747 23.6609 64.6205C23.2938 65.4941 22.7556 66.2876 22.0773 66.9559C21.399 67.6242 20.5938 68.154 19.7077 68.5151C18.8217 68.8762 17.8722 69.0614 16.9134 69.0603Z" fill="#F5DDE0"/>
<path d="M16.9139 55.9298C15.7246 55.9349 14.5635 56.2875 13.5772 56.9429C12.5909 57.5984 11.8235 58.5274 11.372 59.6126C10.9205 60.6979 10.8051 61.8907 11.0403 63.0406C11.2755 64.1905 11.8508 65.2459 12.6936 66.0736C13.5364 66.9013 14.6089 67.4641 15.7757 67.6911C16.9425 67.918 18.1514 67.799 19.2496 67.3489C20.3479 66.8988 21.2864 66.1378 21.9466 65.1621C22.6068 64.1864 22.9591 63.0396 22.9591 61.8666C22.9603 61.0844 22.8045 60.3098 22.5008 59.5873C22.1971 58.8648 21.7514 58.2087 21.1895 57.6568C20.6276 57.105 19.9605 56.6683 19.2267 56.3719C18.4928 56.0754 17.7068 55.9252 16.9139 55.9298ZM16.9139 64.7481C16.3339 64.7481 15.7671 64.5784 15.285 64.2604C14.8029 63.9425 14.4274 63.4906 14.2058 62.9619C13.9843 62.4333 13.9268 61.8517 14.0406 61.2908C14.1544 60.7299 14.4343 60.2149 14.845 59.8111C15.2557 59.4072 15.7786 59.1326 16.3476 59.0221C16.9166 58.9115 17.506 58.97 18.0413 59.1901C18.5766 59.4102 19.0336 59.782 19.3545 60.2585C19.6755 60.7349 19.8458 61.2945 19.8441 61.8666C19.8441 62.2457 19.7682 62.6211 19.6209 62.9713C19.4735 63.3215 19.2575 63.6395 18.9853 63.9072C18.7131 64.1749 18.39 64.387 18.0345 64.5313C17.6791 64.6756 17.2982 64.7493 16.9139 64.7481Z" fill="url(#paint5_linear_4706_1643)"/>
<path d="M83.0776 71.7031C82.7635 71.7014 82.4561 71.7918 82.1943 71.9628C81.9325 72.1338 81.7281 72.3777 81.6071 72.6636C81.4861 72.9494 81.454 73.2642 81.5149 73.5681C81.5757 73.872 81.7267 74.1511 81.9488 74.3701C82.1708 74.5892 82.4539 74.7381 82.7619 74.7981C83.07 74.8581 83.3892 74.8265 83.679 74.7072C83.9687 74.5878 84.216 74.3862 84.3894 74.128C84.5628 73.8698 84.6544 73.5665 84.6527 73.2568C84.6504 72.8454 84.4837 72.4516 84.1888 72.1607C83.8939 71.8698 83.4946 71.7054 83.0776 71.7031Z" fill="black"/>
<path d="M89.8966 53.3398H76.2662C75.1047 53.3398 74.1631 54.2686 74.1631 55.4142V75.9152C74.1631 77.0608 75.1047 77.9896 76.2662 77.9896H89.8966C91.0581 77.9896 91.9997 77.0608 91.9997 75.9152V55.4142C91.9997 54.2686 91.0581 53.3398 89.8966 53.3398Z" fill="url(#paint6_linear_4706_1643)"/>
<path d="M83.0771 75.2256C82.682 75.2256 82.2958 75.1101 81.9673 74.8936C81.6388 74.6771 81.3828 74.3694 81.2316 74.0094C81.0805 73.6494 81.0409 73.2532 81.118 72.871C81.195 72.4888 81.3853 72.1378 81.6646 71.8622C81.944 71.5867 82.2999 71.399 82.6874 71.323C83.0749 71.247 83.4765 71.286 83.8415 71.4351C84.2065 71.5843 84.5184 71.8368 84.7379 72.1608C84.9574 72.4848 85.0746 72.8657 85.0746 73.2554C85.0746 73.7779 84.8641 74.2791 84.4895 74.6486C84.1149 75.0181 83.6068 75.2256 83.0771 75.2256Z" fill="url(#paint7_linear_4706_1643)" stroke="#FFB0B0" stroke-width="0.35" stroke-miterlimit="10"/>
<path d="M83.077 69.0603C81.6321 69.0603 80.2197 68.6376 79.0185 67.8456C77.8172 67.0536 76.8811 65.928 76.3286 64.6111C75.776 63.2943 75.6319 61.8454 75.9144 60.4477C76.1969 59.05 76.8934 57.7664 77.9157 56.7593C78.938 55.7521 80.2402 55.0667 81.6576 54.7897C83.0749 54.5127 84.5437 54.6566 85.8781 55.2032C87.2125 55.7498 88.3525 56.6745 89.154 57.8603C89.9555 59.0461 90.3824 60.4398 90.3806 61.865C90.3783 63.7741 89.6078 65.6042 88.2383 66.9534C86.8689 68.3025 85.0125 69.0603 83.077 69.0603Z" fill="#F5DDE0"/>
<path d="M83.0775 55.9297C81.887 55.9297 80.7234 56.2779 79.7336 56.9302C78.7438 57.5826 77.9723 58.5097 77.5168 59.5946C77.0612 60.6794 76.942 61.873 77.1742 63.0247C77.4065 64.1763 77.9797 65.2341 78.8215 66.0644C79.6632 66.8946 80.7357 67.4601 81.9032 67.6891C83.0708 67.9182 84.281 67.8006 85.3808 67.3513C86.4806 66.902 87.4206 66.141 88.082 65.1647C88.7433 64.1884 89.0963 63.0406 89.0963 61.8665C89.0963 61.0868 88.9406 60.3148 88.6382 59.5946C88.3357 58.8743 87.8923 58.2198 87.3334 57.6685C86.7745 57.1172 86.111 56.6799 85.3808 56.3816C84.6505 56.0832 83.8679 55.9297 83.0775 55.9297ZM83.0775 64.748C82.4975 64.748 81.9307 64.5783 81.4486 64.2603C80.9665 63.9424 80.591 63.4904 80.3694 62.9618C80.1479 62.4332 80.0904 61.8516 80.2042 61.2907C80.318 60.7298 80.5979 60.2148 81.0086 59.811C81.4193 59.4071 81.9422 59.1325 82.5112 59.022C83.0802 58.9114 83.6696 58.9699 84.2049 59.19C84.7402 59.4101 85.1972 59.7819 85.5181 60.2583C85.8391 60.7348 86.0094 61.2944 86.0077 61.8665C86.0054 62.6315 85.6956 63.3644 85.1463 63.9046C84.5971 64.4447 83.8531 64.748 83.0775 64.748Z" fill="url(#paint8_linear_4706_1643)"/>
<defs>
<linearGradient id="paint0_linear_4706_1643" x1="50.097" y1="24.2393" x2="49.8316" y2="72.5233" gradientUnits="userSpaceOnUse">
<stop stop-color="#BE1E2D"/>
<stop offset="1" stop-color="#8F1722"/>
</linearGradient>
<linearGradient id="paint1_linear_4706_1643" x1="45.4068" y1="67.2217" x2="54.4966" y2="67.2217" gradientUnits="userSpaceOnUse">
<stop stop-color="#BE1E2D"/>
<stop offset="1" stop-color="#8F1722"/>
</linearGradient>
<linearGradient id="paint2_linear_4706_1643" x1="36.2905" y1="41.3464" x2="63.613" y2="41.3464" gradientUnits="userSpaceOnUse">
<stop stop-color="#BE1E2D"/>
<stop offset="1" stop-color="#8F1722"/>
</linearGradient>
<linearGradient id="paint3_linear_4706_1643" x1="16.9755" y1="54.3293" x2="16.8642" y2="75.5854" gradientUnits="userSpaceOnUse">
<stop stop-color="#BE1E2D"/>
<stop offset="1" stop-color="#8F1722"/>
</linearGradient>
<linearGradient id="paint4_linear_4706_1643" x1="14.9165" y1="73.2554" x2="18.9203" y2="73.2554" gradientUnits="userSpaceOnUse">
<stop stop-color="#BE1E2D"/>
<stop offset="1" stop-color="#8F1722"/>
</linearGradient>
<linearGradient id="paint5_linear_4706_1643" x1="10.9038" y1="61.8666" x2="22.9327" y2="61.8666" gradientUnits="userSpaceOnUse">
<stop stop-color="#BE1E2D"/>
<stop offset="1" stop-color="#8F1722"/>
</linearGradient>
<linearGradient id="paint6_linear_4706_1643" x1="83.1386" y1="54.3293" x2="83.0273" y2="75.5854" gradientUnits="userSpaceOnUse">
<stop stop-color="#BE1E2D"/>
<stop offset="1" stop-color="#8F1722"/>
</linearGradient>
<linearGradient id="paint7_linear_4706_1643" x1="81.0796" y1="73.2554" x2="85.0746" y2="73.2554" gradientUnits="userSpaceOnUse">
<stop stop-color="#BE1E2D"/>
<stop offset="1" stop-color="#8F1722"/>
</linearGradient>
<linearGradient id="paint8_linear_4706_1643" x1="77.0586" y1="61.8665" x2="89.0963" y2="61.8665" gradientUnits="userSpaceOnUse">
<stop stop-color="#BE1E2D"/>
<stop offset="1" stop-color="#8F1722"/>
</linearGradient>
</defs>
</svg>