<svg width="100" height="100" viewBox="0 0 100 100" fill="none" xmlns="http://www.w3.org/2000/svg">
<path d="M68.3797 22.2398C62.9967 18.6277 56.6384 16.678 50.1202 16.6406C44.9012 16.6797 39.7675 17.9451 35.1476 20.3312C30.5277 22.7173 26.5558 26.1549 23.5635 30.3569C24.0782 30.9432 24.7073 31.4222 25.4135 31.7658L26.6437 32.2203C27.5344 32.4429 28.4659 32.456 29.3627 32.2586C30.2595 32.0612 31.0963 31.6588 31.8052 31.0841L32.5822 30.3296C37.3309 25.9005 43.6104 23.4031 50.1572 23.3397C56.704 23.4031 62.9835 25.9005 67.7322 30.3296C68.0005 30.575 68.2595 30.8205 68.5092 31.0841C69.2203 31.655 70.0571 32.055 70.9532 32.2522C71.8492 32.4495 72.7797 32.4385 73.6707 32.2203L74.901 31.7658C75.6076 31.4189 76.2366 30.9368 76.751 30.3478C74.4968 27.1785 71.6761 24.4375 68.426 22.258L68.3797 22.2398Z" fill="url(#paint0_linear_4706_1653)"/>
<path d="M26.8747 41.8281H27.0412L34.4412 71.6876L34.2747 71.7421C28.3177 73.1147 21.8797 67.5427 19.8447 59.362C17.8097 51.1814 20.9362 43.237 26.8747 41.8281Z" fill="url(#paint1_linear_4706_1653)"/>
<path d="M27.0043 41.8021C28.3733 41.4839 29.8718 42.7747 30.3436 44.6926L36.0046 67.5985C36.4763 69.5164 35.7456 71.3434 34.3766 71.6706L26.9766 41.8021H27.0043Z" fill="url(#paint2_linear_4706_1653)"/>
<path d="M73.6802 41.828C73.6218 41.823 73.563 41.823 73.5045 41.828L66.1045 71.6875L66.271 71.742C72.2002 73.1145 78.6752 67.5426 80.6732 59.3619C82.6712 51.1813 79.6002 43.2369 73.6802 41.828Z" fill="url(#paint3_linear_4706_1653)"/>
<path d="M73.5138 41.8021C72.1355 41.4839 70.6463 42.7747 70.1653 44.6926L64.5135 67.5985C64.0418 69.5164 64.7725 71.3434 66.1415 71.6706L73.5415 41.8021H73.5138Z" fill="url(#paint4_linear_4706_1653)"/>
<path d="M82.1067 63.4534C81.0696 69.3304 77.7007 74.5625 72.7403 78.0002C67.7798 81.4378 61.6335 82.7999 55.6517 81.7871L55.3372 81.7326L55.0967 83.1233L55.4112 83.187C61.7689 84.258 68.2993 82.808 73.5707 79.1548C78.842 75.5016 82.424 69.9433 83.5312 63.6988L83.5867 63.3079L82.1714 63.0625C82.1714 63.1988 82.1714 63.3261 82.1067 63.4534Z" fill="url(#paint5_linear_4706_1653)"/>
<path d="M60.9336 83.2329C60.8488 84.0576 60.517 84.839 59.9801 85.4783C59.4433 86.1177 58.7255 86.5862 57.9177 86.8246C57.1098 87.0631 56.2482 87.0607 55.4417 86.8179C54.6352 86.575 53.9201 86.1026 53.3869 85.4603C52.8537 84.8181 52.5262 84.0349 52.4461 83.2097C52.3659 82.3846 52.5365 81.5546 52.9364 80.8248C53.3363 80.095 53.9475 79.4981 54.6927 79.1097C55.4378 78.7213 56.2835 78.5587 57.1226 78.6426C58.2473 78.7551 59.2805 79.3017 59.9951 80.1625C60.7098 81.0233 61.0473 82.1276 60.9336 83.2329Z" fill="url(#paint6_linear_4706_1653)"/>
<path d="M85.3812 53.7898V45.0365C85.3908 45.0038 85.3908 44.9692 85.3812 44.9365C84.6705 36.2339 80.6488 28.114 74.1177 22.1951C67.5865 16.2763 59.0255 12.9931 50.1409 13C41.2563 13.0069 32.7005 16.3033 26.1789 22.2323C19.6572 28.1612 15.6485 36.2873 14.9517 44.991V53.608C14.3668 53.8946 13.8744 54.3354 13.5298 54.8812C13.1851 55.4269 13.0017 56.0561 13 56.6985V60.7252C13 61.6461 13.3723 62.5293 14.0349 63.1804C14.6976 63.8316 15.5964 64.1974 16.5335 64.1974H18.4668C19.4047 64.1974 20.3045 63.8319 20.9686 63.181C21.6327 62.5301 22.0071 61.6469 22.0095 60.7252V56.6985C22.0071 55.7767 21.6327 54.8936 20.9686 54.2427C20.3045 53.5918 19.4047 53.2262 18.4668 53.2262H17.699V44.9547C19.0773 29.5477 32.721 18.3857 50.1665 18.3857C67.612 18.3857 81.2465 29.5477 82.634 44.9456V53.2262H81.524C81.0592 53.225 80.5987 53.314 80.169 53.4879C79.7392 53.6619 79.3485 53.9175 79.0195 54.24C78.6904 54.5625 78.4293 54.9457 78.2511 55.3676C78.073 55.7895 77.9812 56.2417 77.9813 56.6985V60.7252C77.9812 61.1819 78.073 61.6342 78.2511 62.056C78.4293 62.4779 78.6904 62.8611 79.0195 63.1836C79.3485 63.5062 79.7392 63.7618 80.169 63.9357C80.5987 64.1097 81.0592 64.1986 81.524 64.1974H83.448C83.9136 64.1998 84.3751 64.1118 84.8059 63.9383C85.2367 63.7649 85.6284 63.5095 85.9585 63.1869C86.2886 62.8642 86.5505 62.4806 86.7293 62.0582C86.908 61.6357 87 61.1827 87 60.7252V56.6985C86.9994 56.1203 86.8518 55.5514 86.5708 55.0435C86.2897 54.5355 85.884 54.1046 85.3905 53.7898H85.3812Z" fill="url(#paint7_linear_4706_1653)"/>
<path d="M85.3815 53.788V45.0347C85.391 45.002 85.391 44.9674 85.3815 44.9347C84.9208 39.5311 83.1812 34.3082 80.3016 29.6826C77.422 25.0569 73.4821 21.1567 68.7963 18.293L65.4478 21.5834C75.0678 25.9555 81.6908 34.4725 82.6343 44.9438V53.2244H81.5243C81.0595 53.2232 80.599 53.3122 80.1692 53.4861C79.7394 53.6601 79.3488 53.9157 79.0197 54.2382C78.6906 54.5608 78.4295 54.9439 78.2514 55.3658C78.0732 55.7877 77.9815 56.2399 77.9815 56.6967V60.7234C77.9815 61.1801 78.0732 61.6324 78.2514 62.0543C78.4295 62.4761 78.6906 62.8593 79.0197 63.1819C79.3488 63.5044 79.7394 63.76 80.1692 63.9339C80.599 64.1079 81.0595 64.1968 81.5243 64.1956H83.4483C83.9138 64.198 84.3753 64.11 84.8061 63.9366C85.237 63.7631 85.6287 63.5077 85.9588 63.1851C86.2889 62.8624 86.5508 62.4788 86.7295 62.0564C86.9083 61.6339 87.0003 61.1809 87.0003 60.7234V56.6967C86.9996 56.1185 86.8521 55.5496 86.571 55.0417C86.29 54.5337 85.8843 54.1028 85.3908 53.788H85.3815Z" fill="url(#paint8_linear_4706_1653)"/>
<defs>
<linearGradient id="paint0_linear_4706_1653" x1="23.5635" y1="24.4941" x2="76.6862" y2="24.4941" gradientUnits="userSpaceOnUse">
<stop stop-color="#BE1E2D"/>
<stop offset="1" stop-color="#8F1722"/>
</linearGradient>
<linearGradient id="paint1_linear_4706_1653" x1="19.225" y1="56.8624" x2="34.3765" y2="56.8624" gradientUnits="userSpaceOnUse">
<stop stop-color="#BE1E2D"/>
<stop offset="1" stop-color="#8F1722"/>
</linearGradient>
<linearGradient id="paint2_linear_4706_1653" x1="27.0043" y1="56.7182" x2="36.1433" y2="56.7182" gradientUnits="userSpaceOnUse">
<stop stop-color="#BE1E2D"/>
<stop offset="1" stop-color="#8F1722"/>
</linearGradient>
<linearGradient id="paint3_linear_4706_1653" x1="66.1415" y1="56.8623" x2="81.293" y2="56.8623" gradientUnits="userSpaceOnUse">
<stop stop-color="#BE1E2D"/>
<stop offset="1" stop-color="#8F1722"/>
</linearGradient>
<linearGradient id="paint4_linear_4706_1653" x1="64.3655" y1="56.7182" x2="73.5138" y2="56.7182" gradientUnits="userSpaceOnUse">
<stop stop-color="#BE1E2D"/>
<stop offset="1" stop-color="#8F1722"/>
</linearGradient>
<linearGradient id="paint5_linear_4706_1653" x1="55.0967" y1="73.2974" x2="83.5867" y2="73.2974" gradientUnits="userSpaceOnUse">
<stop stop-color="#BE1E2D"/>
<stop offset="1" stop-color="#8F1722"/>
</linearGradient>
<linearGradient id="paint6_linear_4706_1653" x1="52.4236" y1="82.8057" x2="60.9521" y2="82.8057" gradientUnits="userSpaceOnUse">
<stop stop-color="#BE1E2D"/>
<stop offset="1" stop-color="#8F1722"/>
</linearGradient>
<linearGradient id="paint7_linear_4706_1653" x1="13" y1="38.601" x2="86.9907" y2="38.601" gradientUnits="userSpaceOnUse">
<stop stop-color="#BE1E2D"/>
<stop offset="1" stop-color="#8F1722"/>
</linearGradient>
<linearGradient id="paint8_linear_4706_1653" x1="65.4478" y1="41.2443" x2="86.991" y2="41.2443" gradientUnits="userSpaceOnUse">
<stop stop-color="#BE1E2D"/>
<stop offset="1" stop-color="#8F1722"/>
</linearGradient>
</defs>
</svg>